<?xml version="1.0" encoding="UTF-8" standalone="no"?>
<!-- Generator: Adobe Illustrator 15.1.0, SVG Export Plug-In . SVG Version: 6.00 Build 0)  -->

<svg
   xmlns:dc="http://purl.org/dc/elements/1.1/"
   xmlns:cc="http://creativecommons.org/ns#"
   xmlns:rdf="http://www.w3.org/1999/02/22-rdf-syntax-ns#"
   xmlns:svg="http://www.w3.org/2000/svg"
   xmlns="http://www.w3.org/2000/svg"
   xmlns:sodipodi="http://sodipodi.sourceforge.net/DTD/sodipodi-0.dtd"
   xmlns:inkscape="http://www.inkscape.org/namespaces/inkscape"
   version="1.1"
   x="0px"
   y="0px"
   width="420.6px"
   height="199.432px"
   viewBox="260.125 133.971 420.6 199.432"
   enable-background="new 260.125 133.971 420.6 199.432"
   xml:space="preserve"
   id="svg2"
   inkscape:version="0.48.1 "
   sodipodi:docname="lvm.svg"><metadata
   id="metadata178"><rdf:RDF><cc:Work
       rdf:about=""><dc:format>image/svg+xml</dc:format><dc:type
         rdf:resource="http://purl.org/dc/dcmitype/StillImage" /></cc:Work></rdf:RDF></metadata><defs
   id="defs176" /><sodipodi:namedview
   pagecolor="#ffffff"
   bordercolor="#666666"
   borderopacity="1"
   objecttolerance="10"
   gridtolerance="10"
   guidetolerance="10"
   inkscape:pageopacity="0"
   inkscape:pageshadow="2"
   inkscape:window-width="1920"
   inkscape:window-height="1033"
   id="namedview174"
   showgrid="false"
   inkscape:zoom="2.4155968"
   inkscape:cx="210.3"
   inkscape:cy="99.716003"
   inkscape:window-x="-4"
   inkscape:window-y="-4"
   inkscape:window-maximized="1"
   inkscape:current-layer="text" />
<g
   id="Layer_1">
	<g
   id="g5">
		<rect
   x="444.653"
   y="182.037"
   fill="none"
   stroke="#000000"
   stroke-width="1.6"
   width="47.035"
   height="23.505"
   id="rect7" />
		<rect
   x="491.712"
   y="182.037"
   fill="none"
   stroke="#000000"
   stroke-width="1.6"
   width="47.035"
   height="23.505"
   id="rect9" />
		<rect
   x="538.772"
   y="182.037"
   fill="none"
   stroke="#000000"
   stroke-width="1.6"
   width="47.034"
   height="23.505"
   id="rect11" />
		<rect
   x="585.831"
   y="182.037"
   fill="none"
   stroke="#000000"
   stroke-width="1.6"
   width="47.034"
   height="23.505"
   id="rect13" />
		<rect
   x="632.892"
   y="182.037"
   fill="none"
   stroke="#000000"
   stroke-width="1.6"
   width="47.034"
   height="23.505"
   id="rect15" />
		<rect
   x="261.146"
   y="134.978"
   fill="none"
   stroke="#000000"
   stroke-width="1.6"
   width="141.153"
   height="47.035"
   id="rect17" />
		<rect
   x="261.146"
   y="182.037"
   fill="none"
   stroke="#000000"
   stroke-width="1.6"
   width="47.035"
   height="117.624"
   id="rect19" />
		<rect
   x="308.205"
   y="182.037"
   fill="none"
   stroke="#000000"
   stroke-width="1.6"
   width="47.035"
   height="117.624"
   id="rect21" />
		<rect
   x="355.265"
   y="182.037"
   fill="none"
   stroke="#000000"
   stroke-width="1.6"
   width="47.035"
   height="117.624"
   id="rect23" />
		<rect
   x="261.146"
   y="299.687"
   fill="none"
   stroke="#000000"
   stroke-width="1.6"
   width="47.035"
   height="32.916"
   id="rect25" />
		<rect
   x="308.205"
   y="299.687"
   fill="none"
   stroke="#000000"
   stroke-width="1.6"
   width="47.035"
   height="32.916"
   id="rect27" />
		<rect
   x="355.265"
   y="299.687"
   fill="none"
   stroke="#000000"
   stroke-width="1.6"
   width="47.035"
   height="32.916"
   id="rect29" />
		<rect
   x="261.146"
   y="134.978"
   fill="none"
   stroke="#000000"
   stroke-width="1.6"
   width="141.153"
   height="197.625"
   id="rect31" />
		<rect
   x="444.653"
   y="205.567"
   fill="none"
   stroke="#000000"
   stroke-width="1.6"
   width="141.154"
   height="47.036"
   id="rect33" />
		<rect
   x="585.831"
   y="205.567"
   fill="none"
   stroke="#000000"
   stroke-width="1.6"
   width="94.095"
   height="47.036"
   id="rect35" />
		<rect
   x="444.653"
   y="134.978"
   fill="none"
   stroke="#000000"
   stroke-width="1.6"
   width="94.094"
   height="47.035"
   id="rect37" />
		<rect
   x="538.772"
   y="134.978"
   fill="none"
   stroke="#000000"
   stroke-width="1.6"
   width="141.153"
   height="47.035"
   id="rect39" />
		<rect
   x="444.653"
   y="134.978"
   fill="none"
   stroke="#000000"
   stroke-width="1.6"
   width="94.094"
   height="70.564"
   id="rect41" />
		<rect
   x="538.772"
   y="134.978"
   fill="none"
   stroke="#000000"
   stroke-width="1.6"
   width="141.153"
   height="70.564"
   id="rect43" />
		<rect
   x="444.653"
   y="252.626"
   fill="none"
   stroke="#000000"
   stroke-width="1.6"
   width="70.565"
   height="47.035"
   id="rect45" />
		<rect
   x="515.242"
   y="252.626"
   fill="none"
   stroke="#000000"
   stroke-width="1.6"
   width="70.564"
   height="47.035"
   id="rect47" />
		<rect
   x="585.831"
   y="252.626"
   fill="none"
   stroke="#000000"
   stroke-width="1.6"
   width="47.034"
   height="47.035"
   id="rect49" />
		<rect
   x="632.892"
   y="252.626"
   fill="none"
   stroke="#000000"
   stroke-width="1.6"
   width="47.034"
   height="47.035"
   id="rect51" />
		<rect
   x="444.653"
   y="299.687"
   fill="none"
   stroke="#000000"
   stroke-width="1.6"
   width="70.565"
   height="32.916"
   id="rect53" />
		<rect
   x="515.242"
   y="299.687"
   fill="none"
   stroke="#000000"
   stroke-width="1.6"
   width="70.564"
   height="32.916"
   id="rect55" />
		<rect
   x="585.831"
   y="299.687"
   fill="none"
   stroke="#000000"
   stroke-width="1.6"
   width="47.034"
   height="32.916"
   id="rect57" />
		<rect
   x="632.892"
   y="299.687"
   fill="none"
   stroke="#000000"
   stroke-width="1.6"
   width="47.034"
   height="32.916"
   id="rect59" />
		<rect
   x="444.653"
   y="205.567"
   fill="none"
   stroke="#000000"
   stroke-width="1.6"
   width="141.154"
   height="127.036"
   id="rect61" />
		<rect
   x="585.831"
   y="205.567"
   fill="none"
   stroke="#000000"
   stroke-width="1.6"
   width="94.095"
   height="127.036"
   id="rect63" />
	</g>
	<g
   id="g65">
		<rect
   x="444.653"
   y="181.83"
   fill="none"
   stroke="#000000"
   stroke-width="1.6"
   width="47.035"
   height="23.505"
   id="rect67" />
		<rect
   x="491.712"
   y="181.83"
   fill="none"
   stroke="#000000"
   stroke-width="1.6"
   width="47.035"
   height="23.505"
   id="rect69" />
		<rect
   x="538.772"
   y="181.83"
   fill="none"
   stroke="#000000"
   stroke-width="1.6"
   width="47.034"
   height="23.505"
   id="rect71" />
		<rect
   x="585.831"
   y="181.83"
   fill="none"
   stroke="#000000"
   stroke-width="1.6"
   width="47.034"
   height="23.505"
   id="rect73" />
		<rect
   x="632.892"
   y="181.83"
   fill="none"
   stroke="#000000"
   stroke-width="1.6"
   width="47.034"
   height="23.505"
   id="rect75" />
		<rect
   x="261.146"
   y="134.803"
   fill="none"
   stroke="#000000"
   stroke-width="1.6"
   width="141.153"
   height="47.035"
   id="rect77" />
		<rect
   x="261.146"
   y="181.83"
   fill="none"
   stroke="#000000"
   stroke-width="1.6"
   width="47.035"
   height="117.624"
   id="rect79" />
		<rect
   x="308.205"
   y="181.83"
   fill="none"
   stroke="#000000"
   stroke-width="1.6"
   width="47.035"
   height="117.624"
   id="rect81" />
		<rect
   x="355.265"
   y="181.83"
   fill="none"
   stroke="#000000"
   stroke-width="1.6"
   width="47.035"
   height="117.624"
   id="rect83" />
		<rect
   x="261.146"
   y="299.479"
   fill="none"
   stroke="#000000"
   stroke-width="1.6"
   width="47.035"
   height="32.916"
   id="rect85" />
		<rect
   x="308.205"
   y="299.479"
   fill="none"
   stroke="#000000"
   stroke-width="1.6"
   width="47.035"
   height="32.916"
   id="rect87" />
		<rect
   x="355.265"
   y="299.479"
   fill="none"
   stroke="#000000"
   stroke-width="1.6"
   width="47.035"
   height="32.916"
   id="rect89" />
		<rect
   x="260.925"
   y="134.771"
   fill="none"
   stroke="#000000"
   stroke-width="1.6"
   width="141.154"
   height="197.625"
   id="rect91" />
		<rect
   x="444.653"
   y="205.36"
   fill="none"
   stroke="#000000"
   stroke-width="1.6"
   width="141.154"
   height="47.036"
   id="rect93" />
		<rect
   x="585.831"
   y="205.36"
   fill="none"
   stroke="#000000"
   stroke-width="1.6"
   width="94.095"
   height="47.036"
   id="rect95" />
		<rect
   x="444.653"
   y="134.771"
   fill="none"
   stroke="#000000"
   stroke-width="1.6"
   width="94.094"
   height="47.035"
   id="rect97" />
		<rect
   x="538.772"
   y="134.771"
   fill="none"
   stroke="#000000"
   stroke-width="1.6"
   width="141.153"
   height="47.035"
   id="rect99" />
		<rect
   x="444.653"
   y="134.771"
   fill="none"
   stroke="#000000"
   stroke-width="1.6"
   width="94.094"
   height="70.564"
   id="rect101" />
		<rect
   x="538.772"
   y="134.771"
   fill="none"
   stroke="#000000"
   stroke-width="1.6"
   width="141.153"
   height="70.564"
   id="rect103" />
		<rect
   x="444.653"
   y="252.419"
   fill="none"
   stroke="#000000"
   stroke-width="1.6"
   width="70.565"
   height="47.035"
   id="rect105" />
		<rect
   x="515.242"
   y="252.419"
   fill="none"
   stroke="#000000"
   stroke-width="1.6"
   width="70.564"
   height="47.035"
   id="rect107" />
		<rect
   x="585.831"
   y="252.419"
   fill="none"
   stroke="#000000"
   stroke-width="1.6"
   width="47.034"
   height="47.035"
   id="rect109" />
		<rect
   x="632.892"
   y="252.419"
   fill="none"
   stroke="#000000"
   stroke-width="1.6"
   width="47.034"
   height="47.035"
   id="rect111" />
		<rect
   x="444.653"
   y="299.479"
   fill="none"
   stroke="#000000"
   stroke-width="1.6"
   width="70.565"
   height="32.916"
   id="rect113" />
		<rect
   x="515.242"
   y="299.479"
   fill="none"
   stroke="#000000"
   stroke-width="1.6"
   width="70.564"
   height="32.916"
   id="rect115" />
		<rect
   x="585.831"
   y="299.479"
   fill="none"
   stroke="#000000"
   stroke-width="1.6"
   width="47.034"
   height="32.916"
   id="rect117" />
		<rect
   x="632.892"
   y="299.479"
   fill="none"
   stroke="#000000"
   stroke-width="1.6"
   width="47.034"
   height="32.916"
   id="rect119" />
		<rect
   x="444.653"
   y="205.36"
   fill="none"
   stroke="#000000"
   stroke-width="1.6"
   width="141.154"
   height="127.036"
   id="rect121" />
		<rect
   x="585.831"
   y="205.36"
   fill="none"
   stroke="#000000"
   stroke-width="1.6"
   width="94.095"
   height="127.036"
   id="rect123" />
	</g>
</g>
<g
   id="text">
	<g
   style="font-size:10px;font-family:Arial-BoldMT"
   id="text126"
   transform="translate(0,-2)"><path
     d="m 452.53418,200.8501 0,-7.15821 2.70019,0 c 0.47526,1e-5 0.83822,0.0228 1.08887,0.0684 0.35156,0.0586 0.64616,0.1701 0.88379,0.33448 0.23763,0.16439 0.42887,0.3947 0.57373,0.69091 0.14485,0.29623 0.21728,0.62175 0.21729,0.97657 -10e-6,0.60873 -0.19369,1.12386 -0.58106,1.54541 -0.38737,0.42155 -1.08724,0.63232 -2.09961,0.63232 l -1.83593,0 0,2.91016 z m 0.94727,-3.75489 1.85058,0 c 0.61198,1e-5 1.04655,-0.11392 1.30371,-0.34179 0.25716,-0.22786 0.38574,-0.5485 0.38574,-0.96192 0,-0.29947 -0.0757,-0.55582 -0.22705,-0.76904 -0.15137,-0.21321 -0.35075,-0.354 -0.59814,-0.42236 -0.15951,-0.0423 -0.45411,-0.0635 -0.88379,-0.0635 l -1.83105,0 z"
     style="font-size:10px;font-family:Arial-BoldMT"
     id="path3259"
     inkscape:connector-curvature="0" /><path
     d="m 458.42773,200.8501 2.74903,-7.15821 1.02051,0 2.92968,7.15821 -1.0791,0 -0.83496,-2.16797 -2.99316,0 -0.78614,2.16797 z m 2.06543,-2.93946 2.42676,0 -0.74707,-1.98242 c -0.22787,-0.60221 -0.39714,-1.097 -0.50781,-1.48437 -0.0911,0.45899 -0.21973,0.91472 -0.38574,1.36719 z"
     style="font-size:10px;font-family:Arial-BoldMT"
     id="path3261"
     inkscape:connector-curvature="0" /><path
     d="m 465.9082,200.8501 0,-7.15821 3.17383,0 c 0.63802,1e-5 1.12304,0.0643 1.45508,0.19288 0.33202,0.12858 0.59732,0.35563 0.7959,0.68115 0.19856,0.32552 0.29784,0.68522 0.29785,1.0791 -10e-6,0.50782 -0.16439,0.93588 -0.49316,1.28418 -0.32879,0.34831 -0.8366,0.56966 -1.52344,0.66406 0.25064,0.12045 0.44107,0.23926 0.57129,0.35645 0.27668,0.25391 0.53873,0.57129 0.78613,0.95215 l 1.24512,1.94824 -1.19141,0 -0.94727,-1.48926 c -0.27669,-0.42969 -0.50456,-0.75846 -0.68359,-0.98633 -0.17904,-0.22786 -0.33936,-0.38737 -0.48096,-0.47851 -0.1416,-0.0911 -0.28564,-0.15462 -0.43212,-0.19043 -0.10743,-0.0228 -0.28321,-0.0342 -0.52735,-0.0342 l -1.09863,0 0,3.17871 z m 0.94727,-3.99903 2.03613,0 c 0.43294,1e-5 0.77148,-0.0447 1.01563,-0.13427 0.24413,-0.0895 0.42968,-0.23275 0.55664,-0.42969 0.12694,-0.19694 0.19042,-0.41097 0.19043,-0.64209 -10e-6,-0.33854 -0.12289,-0.61686 -0.36866,-0.83496 -0.24577,-0.21809 -0.63395,-0.32714 -1.16455,-0.32715 l -2.26562,0 z"
     style="font-size:10px;font-family:Arial-BoldMT"
     id="path3263"
     inkscape:connector-curvature="0" /><path
     d="m 474.94141,200.8501 0,-6.31348 -2.3584,0 0,-0.84473 5.67383,0 0,0.84473 -2.36817,0 0,6.31348 z"
     style="font-size:10px;font-family:Arial-BoldMT"
     id="path3265"
     inkscape:connector-curvature="0" /><path
     d="m 479.25293,200.8501 0,-7.15821 5.17578,0 0,0.84473 -4.22851,0 0,2.19238 3.95996,0 0,0.83985 -3.95996,0 0,2.43652 4.39453,0 0,0.84473 z"
     style="font-size:10px;font-family:Arial-BoldMT"
     id="path3267"
     inkscape:connector-curvature="0" /></g>

	<g
   style="font-size:10px;font-family:Arial-BoldMT"
   id="text128"
   transform="translate(0,-2)"><path
     d="m 499.59378,200.8501 0,-7.15821 2.7002,0 c 0.47525,1e-5 0.83821,0.0228 1.08886,0.0684 0.35156,0.0586 0.64616,0.1701 0.88379,0.33448 0.23763,0.16439 0.42887,0.3947 0.57373,0.69091 0.14485,0.29623 0.21728,0.62175 0.21729,0.97657 -1e-5,0.60873 -0.19369,1.12386 -0.58106,1.54541 -0.38737,0.42155 -1.08724,0.63232 -2.09961,0.63232 l -1.83593,0 0,2.91016 z m 0.94727,-3.75489 1.85058,0 c 0.61198,1e-5 1.04655,-0.11392 1.30371,-0.34179 0.25716,-0.22786 0.38574,-0.5485 0.38575,-0.96192 -1e-5,-0.29947 -0.0757,-0.55582 -0.22706,-0.76904 -0.15137,-0.21321 -0.35075,-0.354 -0.59814,-0.42236 -0.15951,-0.0423 -0.45411,-0.0635 -0.88379,-0.0635 l -1.83105,0 z"
     style="font-size:10px;font-family:Arial-BoldMT"
     id="path3248"
     inkscape:connector-curvature="0" /><path
     d="m 505.48734,200.8501 2.74902,-7.15821 1.02051,0 2.92968,7.15821 -1.0791,0 -0.83496,-2.16797 -2.99316,0 -0.78614,2.16797 z m 2.06542,-2.93946 2.42676,0 -0.74707,-1.98242 c -0.22787,-0.60221 -0.39714,-1.097 -0.50781,-1.48437 -0.0912,0.45899 -0.21973,0.91472 -0.38574,1.36719 z"
     style="font-size:10px;font-family:Arial-BoldMT"
     id="path3250"
     inkscape:connector-curvature="0" /><path
     d="m 512.9678,200.8501 0,-7.15821 3.17383,0 c 0.63802,1e-5 1.12304,0.0643 1.45508,0.19288 0.33203,0.12858 0.59732,0.35563 0.7959,0.68115 0.19856,0.32552 0.29784,0.68522 0.29785,1.0791 -10e-6,0.50782 -0.16439,0.93588 -0.49316,1.28418 -0.32879,0.34831 -0.8366,0.56966 -1.52344,0.66406 0.25064,0.12045 0.44107,0.23926 0.57129,0.35645 0.27669,0.25391 0.53873,0.57129 0.78613,0.95215 l 1.24512,1.94824 -1.19141,0 -0.94726,-1.48926 c -0.2767,-0.42969 -0.50457,-0.75846 -0.6836,-0.98633 -0.17904,-0.22786 -0.33936,-0.38737 -0.48095,-0.47851 -0.14161,-0.0911 -0.28565,-0.15462 -0.43213,-0.19043 -0.10743,-0.0228 -0.28321,-0.0342 -0.52735,-0.0342 l -1.09863,0 0,3.17871 z m 0.94727,-3.99903 2.03613,0 c 0.43294,1e-5 0.77148,-0.0447 1.01563,-0.13427 0.24413,-0.0895 0.42968,-0.23275 0.55664,-0.42969 0.12695,-0.19694 0.19042,-0.41097 0.19043,-0.64209 -10e-6,-0.33854 -0.12289,-0.61686 -0.36865,-0.83496 -0.24578,-0.21809 -0.63396,-0.32714 -1.16456,-0.32715 l -2.26562,0 z"
     style="font-size:10px;font-family:Arial-BoldMT"
     id="path3252"
     inkscape:connector-curvature="0" /><path
     d="m 522.00101,200.8501 0,-6.31348 -2.3584,0 0,-0.84473 5.67383,0 0,0.84473 -2.36817,0 0,6.31348 z"
     style="font-size:10px;font-family:Arial-BoldMT"
     id="path3254"
     inkscape:connector-curvature="0" /><path
     d="m 526.31253,200.8501 0,-7.15821 5.17578,0 0,0.84473 -4.22851,0 0,2.19238 3.95996,0 0,0.83985 -3.95996,0 0,2.43652 4.39453,0 0,0.84473 z"
     style="font-size:10px;font-family:Arial-BoldMT"
     id="path3256"
     inkscape:connector-curvature="0" /></g>

	<g
   style="font-size:10px;font-family:Arial-BoldMT"
   id="text130"
   transform="translate(0,-2)"><path
     d="m 544.65326,200.8501 0,-7.15821 2.70019,0 c 0.47526,1e-5 0.83822,0.0228 1.08887,0.0684 0.35156,0.0586 0.64616,0.1701 0.88379,0.33448 0.23763,0.16439 0.42887,0.3947 0.57373,0.69091 0.14485,0.29623 0.21728,0.62175 0.21729,0.97657 -10e-6,0.60873 -0.19369,1.12386 -0.58106,1.54541 -0.38737,0.42155 -1.08724,0.63232 -2.09961,0.63232 l -1.83594,0 0,2.91016 z m 0.94726,-3.75489 1.85059,0 c 0.61198,1e-5 1.04655,-0.11392 1.30371,-0.34179 0.25716,-0.22786 0.38574,-0.5485 0.38574,-0.96192 0,-0.29947 -0.0757,-0.55582 -0.22705,-0.76904 -0.15137,-0.21321 -0.35075,-0.354 -0.59814,-0.42236 -0.15951,-0.0423 -0.45411,-0.0635 -0.88379,-0.0635 l -1.83106,0 z"
     style="font-size:10px;font-family:Arial-BoldMT"
     id="path3237"
     inkscape:connector-curvature="0" /><path
     d="m 550.54681,200.8501 2.74903,-7.15821 1.02051,0 2.92968,7.15821 -1.0791,0 -0.83496,-2.16797 -2.99316,0 -0.78614,2.16797 z m 2.06543,-2.93946 2.42676,0 -0.74707,-1.98242 c -0.22787,-0.60221 -0.39714,-1.097 -0.50781,-1.48437 -0.0912,0.45899 -0.21973,0.91472 -0.38574,1.36719 z"
     style="font-size:10px;font-family:Arial-BoldMT"
     id="path3239"
     inkscape:connector-curvature="0" /><path
     d="m 558.02728,200.8501 0,-7.15821 3.17383,0 c 0.63802,1e-5 1.12304,0.0643 1.45508,0.19288 0.33202,0.12858 0.59732,0.35563 0.7959,0.68115 0.19856,0.32552 0.29784,0.68522 0.29785,1.0791 -1e-5,0.50782 -0.1644,0.93588 -0.49317,1.28418 -0.32878,0.34831 -0.83659,0.56966 -1.52343,0.66406 0.25064,0.12045 0.44107,0.23926 0.57129,0.35645 0.27668,0.25391 0.53873,0.57129 0.78613,0.95215 l 1.24512,1.94824 -1.19141,0 -0.94727,-1.48926 c -0.27669,-0.42969 -0.50456,-0.75846 -0.68359,-0.98633 -0.17904,-0.22786 -0.33936,-0.38737 -0.48096,-0.47851 -0.1416,-0.0911 -0.28564,-0.15462 -0.43213,-0.19043 -0.10742,-0.0228 -0.2832,-0.0342 -0.52734,-0.0342 l -1.09863,0 0,3.17871 z m 0.94727,-3.99903 2.03613,0 c 0.43294,1e-5 0.77148,-0.0447 1.01563,-0.13427 0.24413,-0.0895 0.42968,-0.23275 0.55664,-0.42969 0.12694,-0.19694 0.19042,-0.41097 0.19043,-0.64209 -10e-6,-0.33854 -0.12289,-0.61686 -0.36866,-0.83496 -0.24577,-0.21809 -0.63395,-0.32714 -1.16455,-0.32715 l -2.26562,0 z"
     style="font-size:10px;font-family:Arial-BoldMT"
     id="path3241"
     inkscape:connector-curvature="0" /><path
     d="m 567.06049,200.8501 0,-6.31348 -2.3584,0 0,-0.84473 5.67383,0 0,0.84473 -2.36817,0 0,6.31348 z"
     style="font-size:10px;font-family:Arial-BoldMT"
     id="path3243"
     inkscape:connector-curvature="0" /><path
     d="m 571.37201,200.8501 0,-7.15821 5.17578,0 0,0.84473 -4.22852,0 0,2.19238 3.95997,0 0,0.83985 -3.95997,0 0,2.43652 4.39454,0 0,0.84473 z"
     style="font-size:10px;font-family:Arial-BoldMT"
     id="path3245"
     inkscape:connector-curvature="0" /></g>

	<g
   style="font-size:10px;font-family:Arial-BoldMT"
   id="text132"
   transform="translate(0,-2)"><path
     d="m 593.71387,200.8501 0,-7.15821 2.70019,0 c 0.47526,1e-5 0.83821,0.0228 1.08887,0.0684 0.35156,0.0586 0.64615,0.1701 0.88379,0.33448 0.23762,0.16439 0.42887,0.3947 0.57373,0.69091 0.14485,0.29623 0.21728,0.62175 0.21728,0.97657 0,0.60873 -0.19369,1.12386 -0.58105,1.54541 -0.38738,0.42155 -1.08724,0.63232 -2.09961,0.63232 l -1.83594,0 0,2.91016 z m 0.94726,-3.75489 1.85059,0 c 0.61197,1e-5 1.04654,-0.11392 1.30371,-0.34179 0.25716,-0.22786 0.38574,-0.5485 0.38574,-0.96192 0,-0.29947 -0.0757,-0.55582 -0.22705,-0.76904 -0.15137,-0.21321 -0.35075,-0.354 -0.59814,-0.42236 -0.15951,-0.0423 -0.45411,-0.0635 -0.88379,-0.0635 l -1.83106,0 z"
     style="font-size:10px;font-family:Arial-BoldMT"
     id="path3226"
     inkscape:connector-curvature="0" /><path
     d="m 599.60742,200.8501 2.74903,-7.15821 1.0205,0 2.92969,7.15821 -1.0791,0 -0.83496,-2.16797 -2.99317,0 -0.78613,2.16797 z m 2.06543,-2.93946 2.42676,0 -0.74707,-1.98242 c -0.22787,-0.60221 -0.39714,-1.097 -0.50781,-1.48437 -0.0911,0.45899 -0.21973,0.91472 -0.38575,1.36719 z"
     style="font-size:10px;font-family:Arial-BoldMT"
     id="path3228"
     inkscape:connector-curvature="0" /><path
     d="m 607.08789,200.8501 0,-7.15821 3.17383,0 c 0.63801,1e-5 1.12304,0.0643 1.45508,0.19288 0.33202,0.12858 0.59732,0.35563 0.7959,0.68115 0.19856,0.32552 0.29784,0.68522 0.29785,1.0791 -1e-5,0.50782 -0.1644,0.93588 -0.49317,1.28418 -0.32878,0.34831 -0.83659,0.56966 -1.52343,0.66406 0.25064,0.12045 0.44107,0.23926 0.57128,0.35645 0.27669,0.25391 0.53874,0.57129 0.78614,0.95215 l 1.24511,1.94824 -1.1914,0 -0.94727,-1.48926 c -0.27669,-0.42969 -0.50456,-0.75846 -0.68359,-0.98633 -0.17904,-0.22786 -0.33936,-0.38737 -0.48096,-0.47851 -0.1416,-0.0911 -0.28565,-0.15462 -0.43213,-0.19043 -0.10742,-0.0228 -0.2832,-0.0342 -0.52734,-0.0342 l -1.09863,0 0,3.17871 z m 0.94727,-3.99903 2.03613,0 c 0.43294,1e-5 0.77148,-0.0447 1.01562,-0.13427 0.24414,-0.0895 0.42969,-0.23275 0.55664,-0.42969 0.12695,-0.19694 0.19043,-0.41097 0.19043,-0.64209 0,-0.33854 -0.12289,-0.61686 -0.36865,-0.83496 -0.24577,-0.21809 -0.63395,-0.32714 -1.16455,-0.32715 l -2.26562,0 z"
     style="font-size:10px;font-family:Arial-BoldMT"
     id="path3230"
     inkscape:connector-curvature="0" /><path
     d="m 616.12109,200.8501 0,-6.31348 -2.35839,0 0,-0.84473 5.67382,0 0,0.84473 -2.36816,0 0,6.31348 z"
     style="font-size:10px;font-family:Arial-BoldMT"
     id="path3232"
     inkscape:connector-curvature="0" /><path
     d="m 620.43262,200.8501 0,-7.15821 5.17578,0 0,0.84473 -4.22852,0 0,2.19238 3.95996,0 0,0.83985 -3.95996,0 0,2.43652 4.39453,0 0,0.84473 z"
     style="font-size:10px;font-family:Arial-BoldMT"
     id="path3234"
     inkscape:connector-curvature="0" /></g>

	<g
   style="font-size:10px;font-family:Arial-BoldMT"
   id="text134"
   transform="translate(0,-2)"><path
     d="m 640.74707,200.8501 0,-7.15821 2.7002,0 c 0.47525,1e-5 0.83821,0.0228 1.08886,0.0684 0.35156,0.0586 0.64616,0.1701 0.88379,0.33448 0.23763,0.16439 0.42887,0.3947 0.57373,0.69091 0.14485,0.29623 0.21728,0.62175 0.21729,0.97657 -1e-5,0.60873 -0.19369,1.12386 -0.58106,1.54541 -0.38737,0.42155 -1.08724,0.63232 -2.09961,0.63232 l -1.83593,0 0,2.91016 z m 0.94727,-3.75489 1.85058,0 c 0.61198,1e-5 1.04655,-0.11392 1.30371,-0.34179 0.25716,-0.22786 0.38574,-0.5485 0.38574,-0.96192 0,-0.29947 -0.0757,-0.55582 -0.22705,-0.76904 -0.15137,-0.21321 -0.35075,-0.354 -0.59814,-0.42236 -0.15951,-0.0423 -0.45411,-0.0635 -0.88379,-0.0635 l -1.83105,0 z"
     style="font-size:10px;font-family:Arial-BoldMT"
     id="path3215"
     inkscape:connector-curvature="0" /><path
     d="m 646.64062,200.8501 2.74903,-7.15821 1.02051,0 2.92968,7.15821 -1.0791,0 -0.83496,-2.16797 -2.99316,0 -0.78614,2.16797 z m 2.06543,-2.93946 2.42676,0 -0.74707,-1.98242 c -0.22787,-0.60221 -0.39714,-1.097 -0.50781,-1.48437 -0.0911,0.45899 -0.21973,0.91472 -0.38574,1.36719 z"
     style="font-size:10px;font-family:Arial-BoldMT"
     id="path3217"
     inkscape:connector-curvature="0" /><path
     d="m 654.12109,200.8501 0,-7.15821 3.17383,0 c 0.63802,1e-5 1.12304,0.0643 1.45508,0.19288 0.33203,0.12858 0.59732,0.35563 0.7959,0.68115 0.19856,0.32552 0.29784,0.68522 0.29785,1.0791 -10e-6,0.50782 -0.16439,0.93588 -0.49316,1.28418 -0.32879,0.34831 -0.8366,0.56966 -1.52344,0.66406 0.25064,0.12045 0.44107,0.23926 0.57129,0.35645 0.27668,0.25391 0.53873,0.57129 0.78613,0.95215 l 1.24512,1.94824 -1.19141,0 -0.94726,-1.48926 c -0.2767,-0.42969 -0.50457,-0.75846 -0.6836,-0.98633 -0.17904,-0.22786 -0.33936,-0.38737 -0.48096,-0.47851 -0.1416,-0.0911 -0.28564,-0.15462 -0.43212,-0.19043 -0.10743,-0.0228 -0.28321,-0.0342 -0.52735,-0.0342 l -1.09863,0 0,3.17871 z m 0.94727,-3.99903 2.03613,0 c 0.43294,1e-5 0.77148,-0.0447 1.01563,-0.13427 0.24413,-0.0895 0.42968,-0.23275 0.55664,-0.42969 0.12695,-0.19694 0.19042,-0.41097 0.19043,-0.64209 -1e-5,-0.33854 -0.12289,-0.61686 -0.36865,-0.83496 -0.24578,-0.21809 -0.63396,-0.32714 -1.16456,-0.32715 l -2.26562,0 z"
     style="font-size:10px;font-family:Arial-BoldMT"
     id="path3219"
     inkscape:connector-curvature="0" /><path
     d="m 663.1543,200.8501 0,-6.31348 -2.3584,0 0,-0.84473 5.67383,0 0,0.84473 -2.36817,0 0,6.31348 z"
     style="font-size:10px;font-family:Arial-BoldMT"
     id="path3221"
     inkscape:connector-curvature="0" /><path
     d="m 667.46582,200.8501 0,-7.15821 5.17578,0 0,0.84473 -4.22851,0 0,2.19238 3.95996,0 0,0.83985 -3.95996,0 0,2.43652 4.39453,0 0,0.84473 z"
     style="font-size:10px;font-family:Arial-BoldMT"
     id="path3223"
     inkscape:connector-curvature="0" /></g>

	<g
   transform="translate(318.98,167.9087)"
   style="font-size:10px;font-family:Arial-BoldMT"
   id="text136"><path
     d="m 0.77148437,0 0,-7.1582031 2.46582033,0 c 0.5566368,7.1e-6 0.9814411,0.034187 1.274414,0.102539 0.4101514,0.094408 0.7600859,0.2653063 1.0498047,0.5126954 0.3775983,0.3190166 0.6599873,0.726731 0.847168,1.2231445 0.1871679,0.4964241 0.280755,1.0636436 0.2807617,1.7016601 -6.7e-6,0.5436229 -0.063483,1.0253933 -0.1904297,1.4453125 C 6.3720639,-1.7529279 6.2093037,-1.4054348 6.0107422,-1.1303711 5.8121687,-0.85530513 5.5948837,-0.638834 5.3588867,-0.48095703 5.122879,-0.3230791 4.8380485,-0.20345032 4.5043945,-0.12207031 4.1707315,-0.04069006 3.7874311,0 3.3544922,0 z M 1.71875,-0.84472656 l 1.5283203,0 c 0.4720015,8.4e-7 0.8422811,-0.0439444 1.1108399,-0.13183594 C 4.6264602,-1.0644521 4.84049,-1.1881499 5,-1.3476562 5.2246042,-1.5722641 5.3995714,-1.8741843 5.5249023,-2.253418 5.6502222,-2.6326471 5.7128849,-3.0924448 5.7128906,-3.6328125 5.7128849,-4.381506 5.5900009,-4.9568635 5.3442383,-5.3588867 5.098465,-5.7608992 4.7997999,-6.0302674 4.4482422,-6.1669922 4.1943317,-6.2646422 3.7858035,-6.3134702 3.2226563,-6.3134766 l -1.5039063,0 z"
     style="font-size:10px;font-family:Arial-BoldMT"
     id="path3204" /><path
     d="m 8.1591797,0 0,-7.1582031 0.9472656,0 0,7.1582031 z"
     style="font-size:10px;font-family:Arial-BoldMT"
     id="path3206" /><path
     d="m 10.449219,-2.2998047 0.893554,-0.078125 c 0.04232,0.3580749 0.140787,0.6518572 0.295411,0.8813477 0.15462,0.2294934 0.394692,0.4150401 0.720214,0.55664059 0.325519,0.14160236 0.691729,0.21240308 1.098633,0.21240235 0.361325,7.3e-7 0.680335,-0.0537102 0.957032,-0.16113282 0.276688,-0.10742087 0.482579,-0.25471892 0.617675,-0.44189452 0.135086,-0.187173 0.202632,-0.3914371 0.202637,-0.612793 -5e-6,-0.2246072 -0.06511,-0.4207333 -0.195312,-0.5883789 C 14.908849,-2.6993788 14.694006,-2.8401664 14.394531,-2.9541016 14.20247,-3.0289683 13.777665,-3.1453419 13.120117,-3.3032227 12.462563,-3.4610968 12.001951,-3.6100224 11.738281,-3.75 c -0.341798,-0.1790325 -0.596518,-0.4012003 -0.76416,-0.6665039 -0.167644,-0.2652948 -0.251465,-0.5623323 -0.251465,-0.8911133 0,-0.3613224 0.102538,-0.69905 0.307617,-1.0131836 0.205077,-0.314121 0.504556,-0.5525647 0.898438,-0.715332 0.393878,-0.1627532 0.831703,-0.2441334 1.313477,-0.2441406 0.530595,7.2e-6 0.99853,0.085456 1.403808,0.2563476 0.405268,0.1709053 0.716954,0.4223699 0.935059,0.7543946 0.218093,0.3320371 0.33528,0.7080133 0.351562,1.1279296 l -0.908203,0.068359 c -0.04883,-0.4524684 -0.214035,-0.794265 -0.495605,-1.0253906 -0.28158,-0.2311135 -0.697433,-0.3466733 -1.247559,-0.3466797 -0.572919,6.4e-6 -0.990399,0.1049868 -1.252441,0.3149414 -0.262046,0.2099669 -0.393068,0.4630591 -0.393067,0.7592774 -1e-6,0.2571665 0.09277,0.4687549 0.278321,0.6347656 0.182289,0.1660202 0.658363,0.3361046 1.428222,0.5102539 0.769853,0.1741577 1.29801,0.3263385 1.584473,0.4565429 0.416661,0.1920609 0.724278,0.4353875 0.922851,0.7299805 0.198562,0.2945991 0.297846,0.6339542 0.297852,1.0180664 -6e-6,0.380861 -0.109056,0.7397474 -0.327148,1.07666018 -0.218105,0.33691467 -0.531419,0.59895868 -0.939942,0.78613281 -0.408533,0.18717445 -0.868331,0.2807616 -1.379394,0.28076172 -0.64779,-1.2e-7 -1.190595,-0.09440107 -1.628418,-0.28320312 -0.437827,-0.18880174 -0.781251,-0.47281838 -1.030274,-0.85205079 -0.249024,-0.3792304 -0.380046,-0.8081036 -0.393066,-1.2866211 z"
     style="font-size:10px;font-family:Arial-BoldMT"
     id="path3208" /><path
     d="m 22.558594,-2.5097656 0.947265,0.2392578 c -0.198574,0.7779963 -0.555833,1.3712574 -1.071777,1.77978514 -0.515956,0.40852873 -1.146652,0.61279285 -1.89209,0.61279297 -0.771487,-1.2e-7 -1.398928,-0.15706376 -1.882324,-0.4711914 -0.4834,-0.31412694 -0.851238,-0.76904181 -1.103516,-1.36474611 -0.252279,-0.5957008 -0.378418,-1.2353486 -0.378418,-1.9189453 0,-0.7454383 0.142415,-1.3956655 0.427246,-1.9506836 0.28483,-0.5550069 0.690103,-0.9765559 1.215821,-1.2646484 0.525713,-0.2880788 1.104326,-0.4321217 1.73584,-0.4321289 0.716141,7.2e-6 1.318354,0.1822987 1.80664,0.546875 0.488275,0.3645897 0.828444,0.8772845 1.020508,1.5380859 l -0.932617,0.2197266 c -0.166021,-0.5208279 -0.406907,-0.9000593 -0.722656,-1.1376953 -0.31576,-0.2376239 -0.712895,-0.3564389 -1.191407,-0.3564454 -0.550133,6.5e-6 -1.009931,0.1318423 -1.379394,0.3955079 -0.369468,0.2636776 -0.629071,0.6176812 -0.778809,1.0620117 -0.149741,0.4443405 -0.224611,0.9025106 -0.224609,1.3745117 -2e-6,0.608727 0.0887,1.1401392 0.266113,1.5942383 0.177407,0.4541031 0.453286,0.7934583 0.827637,1.0180664 0.374346,0.22461015 0.779619,0.33691473 1.21582,0.33691404 0.530595,6.9e-7 0.979813,-0.15299395 1.347656,-0.45898434 0.367833,-0.3059882 0.616857,-0.7600893 0.747071,-1.3623047 z"
     style="font-size:10px;font-family:Arial-BoldMT"
     id="path3210" /><path
     d="m 24.389648,-3.4863281 c 0,-1.1881464 0.31901,-2.1183212 0.957032,-2.7905274 0.638018,-0.6721935 1.461585,-1.0082935 2.470703,-1.0083007 0.660803,7.2e-6 1.256505,0.1578847 1.787109,0.4736328 0.530593,0.3157617 0.935052,0.7560282 1.213379,1.3208007 0.278313,0.5647836 0.417473,1.2052452 0.417481,1.9213868 -8e-6,0.7259143 -0.146492,1.3753277 -0.439454,1.9482422 -0.292975,0.5729177 -0.708014,1.00667374 -1.245117,1.30126948 -0.537114,0.29459638 -1.116541,0.44189441 -1.738281,0.44189453 -0.673831,-1.2e-7 -1.276044,-0.16276037 -1.806641,-0.48828125 -0.5306,-0.32552014 -0.932618,-0.76985566 -1.206054,-1.33300776 -0.273438,-0.5631488 -0.410157,-1.1588514 -0.410157,-1.7871094 z m 0.976563,0.014648 c -2e-6,0.8626328 0.231932,1.5421569 0.695801,2.0385742 0.463864,0.49642024 1.045732,0.74462963 1.745605,0.74462894 0.712886,6.9e-7 1.299637,-0.25065011 1.760254,-0.75195314 0.460606,-0.5013001 0.690912,-1.2125624 0.690918,-2.1337891 -6e-6,-0.5826781 -0.09848,-1.0913039 -0.29541,-1.5258789 -0.196946,-0.4345647 -0.485032,-0.7714785 -0.864258,-1.0107421 -0.379236,-0.2392515 -0.804855,-0.3588803 -1.276855,-0.3588868 -0.670577,6.5e-6 -1.247562,0.2303123 -1.730957,0.690918 -0.483401,0.4606173 -0.7251,1.2296595 -0.725098,2.3071289 z"
     style="font-size:10px;font-family:Arial-BoldMT"
     id="path3212" /></g>

	<g
   style="font-size:10px;font-family:Arial-BoldMT"
   id="text138"><path
     d="m 269.52689,200.8501 0,-7.15821 2.70019,0 c 0.47526,1e-5 0.83821,0.0228 1.08887,0.0684 0.35156,0.0586 0.64615,0.1701 0.88379,0.33448 0.23762,0.16439 0.42887,0.3947 0.57373,0.69091 0.14485,0.29623 0.21728,0.62175 0.21728,0.97657 0,0.60873 -0.19369,1.12386 -0.58105,1.54541 -0.38738,0.42155 -1.08725,0.63232 -2.09961,0.63232 l -1.83594,0 0,2.91016 z m 0.94726,-3.75489 1.85059,0 c 0.61197,1e-5 1.04654,-0.11392 1.30371,-0.34179 0.25715,-0.22786 0.38574,-0.5485 0.38574,-0.96192 0,-0.29947 -0.0757,-0.55582 -0.22705,-0.76904 -0.15137,-0.21321 -0.35075,-0.354 -0.59814,-0.42236 -0.15951,-0.0423 -0.45411,-0.0635 -0.88379,-0.0635 l -1.83106,0 z"
     style="font-size:10px;font-family:Arial-BoldMT"
     id="path3167" /><path
     d="m 275.42044,200.8501 2.74902,-7.15821 1.02051,0 2.92969,7.15821 -1.0791,0 -0.83496,-2.16797 -2.99317,0 -0.78613,2.16797 z m 2.06543,-2.93946 2.42676,0 -0.74707,-1.98242 c -0.22787,-0.60221 -0.39714,-1.097 -0.50781,-1.48437 -0.0912,0.45899 -0.21973,0.91472 -0.38575,1.36719 z"
     style="font-size:10px;font-family:Arial-BoldMT"
     id="path3169" /><path
     d="m 282.90091,200.8501 0,-7.15821 3.17383,0 c 0.63801,1e-5 1.12304,0.0643 1.45508,0.19288 0.33202,0.12858 0.59732,0.35563 0.79589,0.68115 0.19857,0.32552 0.29785,0.68522 0.29786,1.0791 -10e-6,0.50782 -0.1644,0.93588 -0.49317,1.28418 -0.32878,0.34831 -0.83659,0.56966 -1.52344,0.66406 0.25065,0.12045 0.44108,0.23926 0.57129,0.35645 0.27669,0.25391 0.53873,0.57129 0.78614,0.95215 l 1.24511,1.94824 -1.1914,0 -0.94727,-1.48926 c -0.2767,-0.42969 -0.50456,-0.75846 -0.68359,-0.98633 -0.17904,-0.22786 -0.33936,-0.38737 -0.48096,-0.47851 -0.1416,-0.0911 -0.28565,-0.15462 -0.43213,-0.19043 -0.10742,-0.0228 -0.2832,-0.0342 -0.52734,-0.0342 l -1.09863,0 0,3.17871 z m 0.94727,-3.99903 2.03613,0 c 0.43294,1e-5 0.77148,-0.0447 1.01562,-0.13427 0.24414,-0.0895 0.42969,-0.23275 0.55664,-0.42969 0.12695,-0.19694 0.19043,-0.41097 0.19043,-0.64209 0,-0.33854 -0.12289,-0.61686 -0.36865,-0.83496 -0.24577,-0.21809 -0.63396,-0.32714 -1.16455,-0.32715 l -2.26562,0 z"
     style="font-size:10px;font-family:Arial-BoldMT"
     id="path3171" /><path
     d="m 291.93411,200.8501 0,-6.31348 -2.3584,0 0,-0.84473 5.67383,0 0,0.84473 -2.36816,0 0,6.31348 z"
     style="font-size:10px;font-family:Arial-BoldMT"
     id="path3173" /><path
     d="m 296.24564,200.8501 0,-7.15821 5.17578,0 0,0.84473 -4.22852,0 0,2.19238 3.95996,0 0,0.83985 -3.95996,0 0,2.43652 4.39453,0 0,0.84473 z"
     style="font-size:10px;font-family:Arial-BoldMT"
     id="path3175" /></g>

	<g
   style="font-size:10px;font-family:Arial-BoldMT"
   id="text140"><path
     d="m 316.5864,200.8501 0,-7.15821 2.70019,0 c 0.47526,1e-5 0.83821,0.0228 1.08887,0.0684 0.35156,0.0586 0.64615,0.1701 0.88379,0.33448 0.23762,0.16439 0.42886,0.3947 0.57373,0.69091 0.14485,0.29623 0.21728,0.62175 0.21728,0.97657 0,0.60873 -0.19369,1.12386 -0.58105,1.54541 -0.38738,0.42155 -1.08725,0.63232 -2.09961,0.63232 l -1.83594,0 0,2.91016 z m 0.94726,-3.75489 1.85059,0 c 0.61197,1e-5 1.04654,-0.11392 1.30371,-0.34179 0.25715,-0.22786 0.38573,-0.5485 0.38574,-0.96192 -10e-6,-0.29947 -0.0757,-0.55582 -0.22705,-0.76904 -0.15137,-0.21321 -0.35075,-0.354 -0.59815,-0.42236 -0.1595,-0.0423 -0.4541,-0.0635 -0.88378,-0.0635 l -1.83106,0 z"
     style="font-size:10px;font-family:Arial-BoldMT"
     id="path3156" /><path
     d="m 322.47995,200.8501 2.74902,-7.15821 1.02051,0 2.92969,7.15821 -1.0791,0 -0.83496,-2.16797 -2.99317,0 -0.78613,2.16797 z m 2.06543,-2.93946 2.42676,0 -0.74707,-1.98242 c -0.22787,-0.60221 -0.39714,-1.097 -0.50782,-1.48437 -0.0911,0.45899 -0.21972,0.91472 -0.38574,1.36719 z"
     style="font-size:10px;font-family:Arial-BoldMT"
     id="path3158" /><path
     d="m 329.96042,200.8501 0,-7.15821 3.17383,0 c 0.63801,1e-5 1.12304,0.0643 1.45507,0.19288 0.33203,0.12858 0.59733,0.35563 0.7959,0.68115 0.19856,0.32552 0.29785,0.68522 0.29785,1.0791 0,0.50782 -0.16439,0.93588 -0.49316,1.28418 -0.32878,0.34831 -0.83659,0.56966 -1.52344,0.66406 0.25065,0.12045 0.44108,0.23926 0.57129,0.35645 0.27669,0.25391 0.53873,0.57129 0.78614,0.95215 l 1.24511,1.94824 -1.1914,0 -0.94727,-1.48926 c -0.2767,-0.42969 -0.50456,-0.75846 -0.68359,-0.98633 -0.17904,-0.22786 -0.33936,-0.38737 -0.48096,-0.47851 -0.14161,-0.0911 -0.28565,-0.15462 -0.43213,-0.19043 -0.10742,-0.0228 -0.28321,-0.0342 -0.52734,-0.0342 l -1.09864,0 0,3.17871 z m 0.94726,-3.99903 2.03614,0 c 0.43294,1e-5 0.77148,-0.0447 1.01562,-0.13427 0.24414,-0.0895 0.42968,-0.23275 0.55664,-0.42969 0.12695,-0.19694 0.19043,-0.41097 0.19043,-0.64209 0,-0.33854 -0.12289,-0.61686 -0.36865,-0.83496 -0.24577,-0.21809 -0.63396,-0.32714 -1.16455,-0.32715 l -2.26563,0 z"
     style="font-size:10px;font-family:Arial-BoldMT"
     id="path3160" /><path
     d="m 338.99362,200.8501 0,-6.31348 -2.3584,0 0,-0.84473 5.67383,0 0,0.84473 -2.36816,0 0,6.31348 z"
     style="font-size:10px;font-family:Arial-BoldMT"
     id="path3162" /><path
     d="m 343.30515,200.8501 0,-7.15821 5.17578,0 0,0.84473 -4.22852,0 0,2.19238 3.95996,0 0,0.83985 -3.95996,0 0,2.43652 4.39453,0 0,0.84473 z"
     style="font-size:10px;font-family:Arial-BoldMT"
     id="path3164" /></g>

	<g
   style="font-size:10px;font-family:Arial-BoldMT"
   id="text142"><path
     d="m 361.646,200.8501 0,-7.15821 2.70019,0 c 0.47526,1e-5 0.83821,0.0228 1.08887,0.0684 0.35156,0.0586 0.64615,0.1701 0.88379,0.33448 0.23762,0.16439 0.42887,0.3947 0.57373,0.69091 0.14485,0.29623 0.21728,0.62175 0.21728,0.97657 0,0.60873 -0.19369,1.12386 -0.58105,1.54541 -0.38738,0.42155 -1.08725,0.63232 -2.09961,0.63232 l -1.83594,0 0,2.91016 z m 0.94726,-3.75489 1.85059,0 c 0.61197,1e-5 1.04654,-0.11392 1.30371,-0.34179 0.25715,-0.22786 0.38574,-0.5485 0.38574,-0.96192 0,-0.29947 -0.0757,-0.55582 -0.22705,-0.76904 -0.15137,-0.21321 -0.35075,-0.354 -0.59814,-0.42236 -0.15951,-0.0423 -0.45411,-0.0635 -0.88379,-0.0635 l -1.83106,0 z"
     style="font-size:10px;font-family:Arial-BoldMT"
     id="path3145" /><path
     d="m 367.53955,200.8501 2.74902,-7.15821 1.02051,0 2.92969,7.15821 -1.0791,0 -0.83496,-2.16797 -2.99317,0 -0.78613,2.16797 z m 2.06543,-2.93946 2.42676,0 -0.74707,-1.98242 c -0.22787,-0.60221 -0.39714,-1.097 -0.50781,-1.48437 -0.0912,0.45899 -0.21973,0.91472 -0.38575,1.36719 z"
     style="font-size:10px;font-family:Arial-BoldMT"
     id="path3147" /><path
     d="m 375.02002,200.8501 0,-7.15821 3.17383,0 c 0.63801,1e-5 1.12304,0.0643 1.45508,0.19288 0.33202,0.12858 0.59732,0.35563 0.79589,0.68115 0.19857,0.32552 0.29785,0.68522 0.29786,1.0791 -1e-5,0.50782 -0.1644,0.93588 -0.49317,1.28418 -0.32878,0.34831 -0.83659,0.56966 -1.52344,0.66406 0.25065,0.12045 0.44108,0.23926 0.57129,0.35645 0.27669,0.25391 0.53873,0.57129 0.78614,0.95215 l 1.24511,1.94824 -1.1914,0 -0.94727,-1.48926 c -0.2767,-0.42969 -0.50456,-0.75846 -0.68359,-0.98633 -0.17904,-0.22786 -0.33936,-0.38737 -0.48096,-0.47851 -0.1416,-0.0911 -0.28565,-0.15462 -0.43213,-0.19043 -0.10742,-0.0228 -0.2832,-0.0342 -0.52734,-0.0342 l -1.09863,0 0,3.17871 z m 0.94727,-3.99903 2.03613,0 c 0.43294,1e-5 0.77148,-0.0447 1.01562,-0.13427 0.24414,-0.0895 0.42969,-0.23275 0.55664,-0.42969 0.12695,-0.19694 0.19043,-0.41097 0.19043,-0.64209 0,-0.33854 -0.12289,-0.61686 -0.36865,-0.83496 -0.24577,-0.21809 -0.63396,-0.32714 -1.16455,-0.32715 l -2.26562,0 z"
     style="font-size:10px;font-family:Arial-BoldMT"
     id="path3149" /><path
     d="m 384.05322,200.8501 0,-6.31348 -2.3584,0 0,-0.84473 5.67383,0 0,0.84473 -2.36816,0 0,6.31348 z"
     style="font-size:10px;font-family:Arial-BoldMT"
     id="path3151" /><path
     d="m 388.36475,200.8501 0,-7.15821 5.17578,0 0,0.84473 -4.22852,0 0,2.19238 3.95996,0 0,0.83985 -3.95996,0 0,2.43652 4.39453,0 0,0.84473 z"
     style="font-size:10px;font-family:Arial-BoldMT"
     id="path3153" /></g>

	<g
   transform="matrix(1 0 0 1 278.2788 323.1787)"
   style="font-size:10px;font-family:Arial-BoldMT"
   id="text144"><path
     d="m 0.7421875,0 0,-7.1582031 1.4257813,0 1.6943359,5.0683593 c 0.156246,0.4720069 0.2701781,0.8251966 0.3417969,1.0595704 0.081376,-0.2604154 0.2083289,-0.642902 0.3808593,-1.147461 l 1.7138672,-4.9804687 1.2744141,0 0,7.1582031 -0.913086,0 0,-5.9912109 L 4.5800781,0 3.7255859,0 1.6552734,-6.09375 l 0,6.09375 z"
     style="font-size:10px;font-family:Arial-BoldMT"
     id="path3140" /><path
     d="m 9.1113281,0 0,-7.1582031 2.7001949,0 c 0.475257,7.1e-6 0.838212,0.022794 1.088868,0.068359 0.351557,0.058601 0.646153,0.1700915 0.883789,0.3344726 0.237624,0.1643946 0.428868,0.3947004 0.57373,0.690918 0.144851,0.2962297 0.217279,0.6217502 0.217285,0.9765625 -6e-6,0.6087284 -0.193691,1.1238646 -0.581054,1.5454101 -0.387375,0.4215526 -1.087245,0.6323272 -2.09961,0.6323242 l -1.835937,0 0,2.9101563 z m 0.9472659,-3.7548828 1.850586,0 c 0.611975,3.7e-6 1.046545,-0.1139284 1.303711,-0.3417969 0.257156,-0.2278602 0.385737,-0.5484979 0.385742,-0.961914 -5e-6,-0.2994739 -0.07569,-0.5558213 -0.227051,-0.769043 C 13.22021,-6.0408468 13.020829,-6.1816344 12.773438,-6.25 c -0.15951,-0.042311 -0.454106,-0.06347 -0.88379,-0.063477 l -1.831054,0 z"
     style="font-size:10px;font-family:Arial-BoldMT"
     id="path3142" /></g>

	<g
   transform="matrix(1 0 0 1 325.3374 323.1787)"
   style="font-size:10px;font-family:Arial-BoldMT"
   id="text146"><path
     d="m 0.7421875,0 0,-7.1582031 1.4257813,0 1.6943359,5.0683593 c 0.156246,0.4720069 0.2701781,0.8251966 0.3417969,1.0595704 0.081376,-0.2604154 0.2083289,-0.642902 0.3808593,-1.147461 l 1.7138672,-4.9804687 1.2744141,0 0,7.1582031 -0.913086,0 0,-5.9912109 L 4.5800781,0 3.7255859,0 1.6552734,-6.09375 l 0,6.09375 z"
     style="font-size:10px;font-family:Arial-BoldMT"
     id="path3135" /><path
     d="m 9.1113281,0 0,-7.1582031 2.7001949,0 c 0.475257,7.1e-6 0.838212,0.022794 1.088868,0.068359 0.351557,0.058601 0.646153,0.1700915 0.883789,0.3344726 0.237624,0.1643946 0.428868,0.3947004 0.57373,0.690918 0.144851,0.2962297 0.217279,0.6217502 0.217285,0.9765625 -6e-6,0.6087284 -0.193691,1.1238646 -0.581054,1.5454101 -0.387375,0.4215526 -1.087245,0.6323272 -2.09961,0.6323242 l -1.835937,0 0,2.9101563 z m 0.9472659,-3.7548828 1.850586,0 c 0.611975,3.7e-6 1.046545,-0.1139284 1.303711,-0.3417969 0.257156,-0.2278602 0.385737,-0.5484979 0.385742,-0.961914 -5e-6,-0.2994739 -0.07569,-0.5558213 -0.227051,-0.769043 C 13.22021,-6.0408468 13.020829,-6.1816344 12.773438,-6.25 c -0.15951,-0.042311 -0.454106,-0.06347 -0.88379,-0.063477 l -1.831054,0 z"
     style="font-size:10px;font-family:Arial-BoldMT"
     id="path3137" /></g>

	<g
   transform="matrix(1 0 0 1 372.3975 323.1787)"
   style="font-size:10px;font-family:Arial-BoldMT"
   id="text148"><path
     d="m 0.7421875,0 0,-7.1582031 1.4257813,0 1.6943359,5.0683593 c 0.156246,0.4720069 0.2701781,0.8251966 0.3417969,1.0595704 0.081376,-0.2604154 0.2083289,-0.642902 0.3808593,-1.147461 l 1.7138672,-4.9804687 1.2744141,0 0,7.1582031 -0.913086,0 0,-5.9912109 L 4.5800781,0 3.7255859,0 1.6552734,-6.09375 l 0,6.09375 z"
     style="font-size:10px;font-family:Arial-BoldMT"
     id="path3130" /><path
     d="m 9.1113281,0 0,-7.1582031 2.7001949,0 c 0.475257,7.1e-6 0.838212,0.022794 1.088868,0.068359 0.351557,0.058601 0.646153,0.1700915 0.883789,0.3344726 0.237624,0.1643946 0.428868,0.3947004 0.57373,0.690918 0.144851,0.2962297 0.217279,0.6217502 0.217285,0.9765625 -6e-6,0.6087284 -0.193691,1.1238646 -0.581054,1.5454101 -0.387375,0.4215526 -1.087245,0.6323272 -2.09961,0.6323242 l -1.835937,0 0,2.9101563 z m 0.9472659,-3.7548828 1.850586,0 c 0.611975,3.7e-6 1.046545,-0.1139284 1.303711,-0.3417969 0.257156,-0.2278602 0.385737,-0.5484979 0.385742,-0.961914 -5e-6,-0.2994739 -0.07569,-0.5558213 -0.227051,-0.769043 C 13.22021,-6.0408468 13.020829,-6.1816344 12.773438,-6.25 c -0.15951,-0.042311 -0.454106,-0.06347 -0.88379,-0.063477 l -1.831054,0 z"
     style="font-size:10px;font-family:Arial-BoldMT"
     id="path3132" /></g>

	<g
   transform="matrix(1 0 0 1 473.4028 323.1787)"
   style="font-size:10px;font-family:Arial-BoldMT"
   id="text150"><path
     d="m 0.7421875,0 0,-7.1582031 1.4257813,0 1.6943359,5.0683593 c 0.156246,0.4720069 0.2701781,0.8251966 0.3417969,1.0595704 0.081376,-0.2604154 0.2083289,-0.642902 0.3808593,-1.147461 l 1.7138672,-4.9804687 1.2744141,0 0,7.1582031 -0.913086,0 0,-5.9912109 L 4.5800781,0 3.7255859,0 1.6552734,-6.09375 l 0,6.09375 z"
     style="font-size:10px;font-family:Arial-BoldMT"
     id="path3125" /><path
     d="m 9.1113281,0 0,-7.1582031 2.7001949,0 c 0.475257,7.1e-6 0.838212,0.022794 1.088868,0.068359 0.351557,0.058601 0.646153,0.1700915 0.883789,0.3344726 0.237624,0.1643946 0.428868,0.3947004 0.57373,0.690918 0.144851,0.2962297 0.217279,0.6217502 0.217285,0.9765625 -6e-6,0.6087284 -0.193691,1.1238646 -0.581054,1.5454101 -0.387375,0.4215526 -1.087245,0.6323272 -2.09961,0.6323242 l -1.835937,0 0,2.9101563 z m 0.9472659,-3.7548828 1.850586,0 c 0.611975,3.7e-6 1.046545,-0.1139284 1.303711,-0.3417969 0.257156,-0.2278602 0.385737,-0.5484979 0.385742,-0.961914 -5e-6,-0.2994739 -0.07569,-0.5558213 -0.227051,-0.769043 C 13.22021,-6.0408468 13.020829,-6.1816344 12.773438,-6.25 c -0.15951,-0.042311 -0.454106,-0.06347 -0.88379,-0.063477 l -1.831054,0 z"
     style="font-size:10px;font-family:Arial-BoldMT"
     id="path3127" /></g>

	<g
   transform="matrix(1 0 0 1 545.4932 323.1787)"
   style="font-size:10px;font-family:Arial-BoldMT"
   id="text152"><path
     d="m 0.7421875,0 0,-7.1582031 1.4257813,0 1.6943359,5.0683593 c 0.156246,0.4720069 0.2701781,0.8251966 0.3417969,1.0595704 0.081376,-0.2604154 0.2083289,-0.642902 0.3808593,-1.147461 l 1.7138672,-4.9804687 1.2744141,0 0,7.1582031 -0.913086,0 0,-5.9912109 L 4.5800781,0 3.7255859,0 1.6552734,-6.09375 l 0,6.09375 z"
     style="font-size:10px;font-family:Arial-BoldMT"
     id="path3120" /><path
     d="m 9.1113281,0 0,-7.1582031 2.7001949,0 c 0.475257,7.1e-6 0.838212,0.022794 1.088868,0.068359 0.351557,0.058601 0.646153,0.1700915 0.883789,0.3344726 0.237624,0.1643946 0.428868,0.3947004 0.57373,0.690918 0.144851,0.2962297 0.217279,0.6217502 0.217285,0.9765625 -6e-6,0.6087284 -0.193691,1.1238646 -0.581054,1.5454101 -0.387375,0.4215526 -1.087245,0.6323272 -2.09961,0.6323242 l -1.835937,0 0,2.9101563 z m 0.9472659,-3.7548828 1.850586,0 c 0.611975,3.7e-6 1.046545,-0.1139284 1.303711,-0.3417969 0.257156,-0.2278602 0.385737,-0.5484979 0.385742,-0.961914 -5e-6,-0.2994739 -0.07569,-0.5558213 -0.227051,-0.769043 C 13.22021,-6.0408468 13.020829,-6.1816344 12.773438,-6.25 c -0.15951,-0.042311 -0.454106,-0.06347 -0.88379,-0.063477 l -1.831054,0 z"
     style="font-size:10px;font-family:Arial-BoldMT"
     id="path3122" /></g>

	<g
   transform="matrix(1 0 0 1 602.4639 323.1787)"
   style="font-size:10px;font-family:Arial-BoldMT"
   id="text154"><path
     d="m 0.7421875,0 0,-7.1582031 1.4257813,0 1.6943359,5.0683593 c 0.156246,0.4720069 0.2701781,0.8251966 0.3417969,1.0595704 0.081376,-0.2604154 0.2083289,-0.642902 0.3808593,-1.147461 l 1.7138672,-4.9804687 1.2744141,0 0,7.1582031 -0.913086,0 0,-5.9912109 L 4.5800781,0 3.7255859,0 1.6552734,-6.09375 l 0,6.09375 z"
     style="font-size:10px;font-family:Arial-BoldMT"
     id="path3115" /><path
     d="m 9.1113281,0 0,-7.1582031 2.7001949,0 c 0.475257,7.1e-6 0.838212,0.022794 1.088868,0.068359 0.351557,0.058601 0.646153,0.1700915 0.883789,0.3344726 0.237624,0.1643946 0.428868,0.3947004 0.57373,0.690918 0.144851,0.2962297 0.217279,0.6217502 0.217285,0.9765625 -6e-6,0.6087284 -0.193691,1.1238646 -0.581054,1.5454101 -0.387375,0.4215526 -1.087245,0.6323272 -2.09961,0.6323242 l -1.835937,0 0,2.9101563 z m 0.9472659,-3.7548828 1.850586,0 c 0.611975,3.7e-6 1.046545,-0.1139284 1.303711,-0.3417969 0.257156,-0.2278602 0.385737,-0.5484979 0.385742,-0.961914 -5e-6,-0.2994739 -0.07569,-0.5558213 -0.227051,-0.769043 C 13.22021,-6.0408468 13.020829,-6.1816344 12.773438,-6.25 c -0.15951,-0.042311 -0.454106,-0.06347 -0.88379,-0.063477 l -1.831054,0 z"
     style="font-size:10px;font-family:Arial-BoldMT"
     id="path3117" /></g>

	<g
   transform="matrix(1 0 0 1 649.999 323.1787)"
   style="font-size:10px;font-family:Arial-BoldMT"
   id="text156"><path
     d="m 0.7421875,0 0,-7.1582031 1.4257813,0 1.6943359,5.0683593 c 0.156246,0.4720069 0.2701781,0.8251966 0.3417969,1.0595704 0.081376,-0.2604154 0.2083289,-0.642902 0.3808593,-1.147461 l 1.7138672,-4.9804687 1.2744141,0 0,7.1582031 -0.913086,0 0,-5.9912109 L 4.5800781,0 3.7255859,0 1.6552734,-6.09375 l 0,6.09375 z"
     style="font-size:10px;font-family:Arial-BoldMT"
     id="path3110" /><path
     d="m 9.1113281,0 0,-7.1582031 2.7001949,0 c 0.475257,7.1e-6 0.838212,0.022794 1.088868,0.068359 0.351557,0.058601 0.646153,0.1700915 0.883789,0.3344726 0.237624,0.1643946 0.428868,0.3947004 0.57373,0.690918 0.144851,0.2962297 0.217279,0.6217502 0.217285,0.9765625 -6e-6,0.6087284 -0.193691,1.1238646 -0.581054,1.5454101 -0.387375,0.4215526 -1.087245,0.6323272 -2.09961,0.6323242 l -1.835937,0 0,2.9101563 z m 0.9472659,-3.7548828 1.850586,0 c 0.611975,3.7e-6 1.046545,-0.1139284 1.303711,-0.3417969 0.257156,-0.2278602 0.385737,-0.5484979 0.385742,-0.961914 -5e-6,-0.2994739 -0.07569,-0.5558213 -0.227051,-0.769043 C 13.22021,-6.0408468 13.020829,-6.1816344 12.773438,-6.25 c -0.15951,-0.042311 -0.454106,-0.06347 -0.88379,-0.063477 l -1.831054,0 z"
     style="font-size:10px;font-family:Arial-BoldMT"
     id="path3112" /></g>

	<g
   style="font-size:10px;font-family:Arial-BoldMT"
   id="text158"><path
     d="m 474.21829,167.90871 0,-7.15821 2.46582,0 c 0.55664,1e-5 0.98144,0.0342 1.27442,0.10254 0.41015,0.0944 0.76008,0.26531 1.0498,0.5127 0.3776,0.31901 0.65999,0.72673 0.84717,1.22314 0.18717,0.49643 0.28075,1.06365 0.28076,1.70166 -10e-6,0.54363 -0.0635,1.0254 -0.19043,1.44532 -0.12696,0.41992 -0.28972,0.76741 -0.48828,1.04248 -0.19857,0.27506 -0.41586,0.49153 -0.65186,0.64941 -0.236,0.15788 -0.52083,0.27751 -0.85449,0.35889 -0.33366,0.0814 -0.71696,0.12207 -1.1499,0.12207 z m 0.94727,-0.84473 1.52832,0 c 0.472,0 0.84228,-0.0439 1.11084,-0.13184 0.26855,-0.0879 0.48258,-0.21158 0.64209,-0.37109 0.2246,-0.22461 0.39957,-0.52653 0.5249,-0.90576 0.12532,-0.37923 0.18798,-0.83903 0.18799,-1.3794 -10e-6,-0.74869 -0.12289,-1.32405 -0.36865,-1.72607 -0.24578,-0.40201 -0.54444,-0.67138 -0.896,-0.80811 -0.25391,-0.0977 -0.66244,-0.14647 -1.22559,-0.14648 l -1.5039,0 z"
     style="font-size:10px;font-family:Arial-BoldMT"
     id="path3191" /><path
     d="m 481.60599,167.90871 0,-7.15821 0.94726,0 0,7.15821 z"
     style="font-size:10px;font-family:Arial-BoldMT"
     id="path3193" /><path
     d="m 483.89603,165.6089 0.89355,-0.0781 c 0.0423,0.35807 0.14079,0.65185 0.29541,0.88134 0.15462,0.2295 0.39469,0.41504 0.72022,0.55665 0.32551,0.1416 0.69173,0.2124 1.09863,0.2124 0.36132,0 0.68033,-0.0537 0.95703,-0.16114 0.27669,-0.10742 0.48258,-0.25471 0.61768,-0.44189 0.13508,-0.18717 0.20263,-0.39144 0.20263,-0.61279 0,-0.22461 -0.0651,-0.42074 -0.19531,-0.58838 -0.13021,-0.16764 -0.34506,-0.30843 -0.64453,-0.42236 -0.19206,-0.0749 -0.61687,-0.19125 -1.27441,-0.34913 -0.65756,-0.15787 -1.11817,-0.3068 -1.38184,-0.44677 -0.3418,-0.17904 -0.59652,-0.4012 -0.76416,-0.66651 -0.16765,-0.26529 -0.25147,-0.56233 -0.25147,-0.89111 0,-0.36132 0.10254,-0.69905 0.30762,-1.01318 0.20508,-0.31413 0.50456,-0.55257 0.89844,-0.71534 0.39388,-0.16275 0.8317,-0.24413 1.31348,-0.24414 0.53059,1e-5 0.99853,0.0855 1.4038,0.25635 0.40527,0.17091 0.71696,0.42237 0.93506,0.7544 0.2181,0.33203 0.33528,0.70801 0.35157,1.12793 l -0.90821,0.0684 c -0.0488,-0.45246 -0.21403,-0.79426 -0.4956,-1.02539 -0.28158,-0.23111 -0.69744,-0.34667 -1.24756,-0.34668 -0.57292,1e-5 -0.9904,0.10499 -1.25244,0.31495 -0.26205,0.20996 -0.39307,0.46305 -0.39307,0.75927 0,0.25717 0.0928,0.46876 0.27832,0.63477 0.18229,0.16602 0.65836,0.3361 1.42822,0.51025 0.76986,0.17416 1.29801,0.32634 1.58448,0.45655 0.41666,0.19206 0.72427,0.43538 0.92285,0.72998 0.19856,0.29459 0.29784,0.63395 0.29785,1.01806 -10e-6,0.38086 -0.10906,0.73975 -0.32715,1.07666 -0.2181,0.33692 -0.53142,0.59896 -0.93994,0.78614 -0.40853,0.18717 -0.86833,0.28076 -1.3794,0.28076 -0.64778,0 -1.19059,-0.0944 -1.62841,-0.28321 -0.43783,-0.1888 -0.78125,-0.47281 -1.03028,-0.85205 -0.24902,-0.37923 -0.38004,-0.8081 -0.39306,-1.28662 z"
     style="font-size:10px;font-family:Arial-BoldMT"
     id="path3195" /><path
     d="m 496.0054,165.39894 0.94727,0.23926 c -0.19858,0.778 -0.55584,1.37126 -1.07178,1.77978 -0.51596,0.40853 -1.14665,0.6128 -1.89209,0.6128 -0.77149,0 -1.39893,-0.15707 -1.88232,-0.47119 -0.4834,-0.31413 -0.85124,-0.76905 -1.10352,-1.36475 -0.25228,-0.5957 -0.37842,-1.23535 -0.37842,-1.91895 0,-0.74543 0.14242,-1.39566 0.42725,-1.95068 0.28483,-0.55501 0.6901,-0.97656 1.21582,-1.26465 0.52571,-0.28808 1.10432,-0.43212 1.73584,-0.43213 0.71614,1e-5 1.31835,0.1823 1.80664,0.54688 0.48827,0.36459 0.82844,0.87728 1.02051,1.53808 l -0.93262,0.21973 c -0.16602,-0.52083 -0.40691,-0.90006 -0.72266,-1.13769 -0.31576,-0.23763 -0.71289,-0.35644 -1.1914,-0.35645 -0.55014,1e-5 -1.00993,0.13184 -1.3794,0.39551 -0.36947,0.26368 -0.62907,0.61768 -0.77881,1.06201 -0.14974,0.44434 -0.22461,0.90251 -0.22461,1.37451 0,0.60873 0.0887,1.14014 0.26612,1.59424 0.1774,0.4541 0.45328,0.79346 0.82763,1.01807 0.37435,0.22461 0.77962,0.33691 1.21583,0.33691 0.53059,0 0.97981,-0.15299 1.34765,-0.45898 0.36783,-0.30599 0.61686,-0.76009 0.74707,-1.36231 z"
     style="font-size:10px;font-family:Arial-BoldMT"
     id="path3197" /><path
     d="m 497.83646,164.42238 c 0,-1.18815 0.31901,-2.11832 0.95703,-2.79053 0.63802,-0.67219 1.46158,-1.00829 2.4707,-1.0083 0.6608,1e-5 1.25651,0.15789 1.78711,0.47363 0.53059,0.31576 0.93505,0.75603 1.21338,1.3208 0.27831,0.56479 0.41747,1.20525 0.41748,1.92139 -1e-5,0.72592 -0.14649,1.37533 -0.43945,1.94824 -0.29298,0.57292 -0.70802,1.00668 -1.24512,1.30127 -0.53712,0.2946 -1.11654,0.4419 -1.73828,0.4419 -0.67383,0 -1.27605,-0.16276 -1.80664,-0.48828 -0.5306,-0.32552 -0.93262,-0.76986 -1.20606,-1.33301 -0.27344,-0.56315 -0.41015,-1.15885 -0.41015,-1.78711 z m 0.97656,0.0146 c 0,0.86263 0.23193,1.54215 0.6958,2.03857 0.46386,0.49642 1.04573,0.74463 1.74561,0.74463 0.71288,0 1.29963,-0.25065 1.76025,-0.75195 0.4606,-0.5013 0.69091,-1.21257 0.69092,-2.13379 -1e-5,-0.58268 -0.0985,-1.09131 -0.29541,-1.52588 -0.19695,-0.43457 -0.48503,-0.77148 -0.86426,-1.01074 -0.37924,-0.23925 -0.80486,-0.35888 -1.27686,-0.35889 -0.67057,1e-5 -1.24756,0.23031 -1.73095,0.69092 -0.4834,0.46062 -0.7251,1.22966 -0.7251,2.30713 z"
     style="font-size:10px;font-family:Arial-BoldMT"
     id="path3199" /><path
     d="m 511.62552,167.90871 -0.87891,0 0,-5.60059 c -0.21159,0.20183 -0.48909,0.40365 -0.83252,0.60547 -0.34342,0.20183 -0.65185,0.35319 -0.92529,0.4541 l 0,-0.84961 c 0.49153,-0.23111 0.92122,-0.51106 1.28906,-0.83984 0.36784,-0.32877 0.62825,-0.64778 0.78125,-0.95703 l 0.56641,0 z"
     style="font-size:10px;font-family:Arial-BoldMT"
     id="path3201" /></g>

	<g
   style="font-size:10px;font-family:Arial-BoldMT"
   id="text160"><path
     d="m 588.34277,167.90871 0,-7.15821 2.46582,0 c 0.55664,1e-5 0.98144,0.0342 1.27442,0.10254 0.41015,0.0944 0.76008,0.26531 1.0498,0.5127 0.3776,0.31901 0.65999,0.72673 0.84717,1.22314 0.18717,0.49643 0.28076,1.06365 0.28076,1.70166 0,0.54363 -0.0635,1.0254 -0.19043,1.44532 -0.12696,0.41992 -0.28972,0.76741 -0.48828,1.04248 -0.19857,0.27506 -0.41586,0.49153 -0.65185,0.64941 -0.23601,0.15788 -0.52084,0.27751 -0.8545,0.35889 -0.33366,0.0814 -0.71696,0.12207 -1.1499,0.12207 z m 0.94727,-0.84473 1.52832,0 c 0.472,0 0.84228,-0.0439 1.11084,-0.13184 0.26855,-0.0879 0.48258,-0.21158 0.64209,-0.37109 0.2246,-0.22461 0.39957,-0.52653 0.5249,-0.90576 0.12532,-0.37923 0.18798,-0.83903 0.18799,-1.3794 -10e-6,-0.74869 -0.12289,-1.32405 -0.36865,-1.72607 -0.24578,-0.40201 -0.54444,-0.67138 -0.896,-0.80811 -0.25391,-0.0977 -0.66244,-0.14647 -1.22558,-0.14648 l -1.50391,0 z"
     style="font-size:10px;font-family:Arial-BoldMT"
     id="path3178" /><path
     d="m 595.73047,167.90871 0,-7.15821 0.94726,0 0,7.15821 z"
     style="font-size:10px;font-family:Arial-BoldMT"
     id="path3180" /><path
     d="m 598.02051,165.6089 0.89355,-0.0781 c 0.0423,0.35807 0.14079,0.65185 0.29541,0.88134 0.15462,0.2295 0.39469,0.41504 0.72022,0.55665 0.32552,0.1416 0.69173,0.2124 1.09863,0.2124 0.36132,0 0.68033,-0.0537 0.95703,-0.16114 0.27669,-0.10742 0.48258,-0.25471 0.61768,-0.44189 0.13508,-0.18717 0.20263,-0.39144 0.20263,-0.61279 0,-0.22461 -0.0651,-0.42074 -0.19531,-0.58838 -0.13021,-0.16764 -0.34506,-0.30843 -0.64453,-0.42236 -0.19206,-0.0749 -0.61687,-0.19125 -1.27441,-0.34913 -0.65756,-0.15787 -1.11817,-0.3068 -1.38184,-0.44677 -0.3418,-0.17904 -0.59652,-0.4012 -0.76416,-0.66651 -0.16764,-0.26529 -0.25147,-0.56233 -0.25146,-0.89111 -10e-6,-0.36132 0.10253,-0.69905 0.30761,-1.01318 0.20508,-0.31413 0.50456,-0.55257 0.89844,-0.71534 0.39388,-0.16275 0.8317,-0.24413 1.31348,-0.24414 0.53059,1e-5 0.99853,0.0855 1.40381,0.25635 0.40526,0.17091 0.71695,0.42237 0.93505,0.7544 0.2181,0.33203 0.33528,0.70801 0.35157,1.12793 l -0.90821,0.0684 c -0.0488,-0.45246 -0.21403,-0.79426 -0.4956,-1.02539 -0.28158,-0.23111 -0.69743,-0.34667 -1.24756,-0.34668 -0.57292,1e-5 -0.9904,0.10499 -1.25244,0.31495 -0.26205,0.20996 -0.39307,0.46305 -0.39307,0.75927 0,0.25717 0.0928,0.46876 0.27832,0.63477 0.18229,0.16602 0.65836,0.3361 1.42822,0.51025 0.76986,0.17416 1.29801,0.32634 1.58448,0.45655 0.41666,0.19206 0.72428,0.43538 0.92285,0.72998 0.19856,0.29459 0.29784,0.63395 0.29785,1.01806 -10e-6,0.38086 -0.10906,0.73975 -0.32715,1.07666 -0.2181,0.33692 -0.53142,0.59896 -0.93994,0.78614 -0.40853,0.18717 -0.86833,0.28076 -1.37939,0.28076 -0.64779,0 -1.1906,-0.0944 -1.62842,-0.28321 -0.43783,-0.1888 -0.78125,-0.47281 -1.03028,-0.85205 -0.24902,-0.37923 -0.38004,-0.8081 -0.39306,-1.28662 z"
     style="font-size:10px;font-family:Arial-BoldMT"
     id="path3182" /><path
     d="m 610.12988,165.39894 0.94727,0.23926 c -0.19858,0.778 -0.55583,1.37126 -1.07178,1.77978 -0.51595,0.40853 -1.14665,0.6128 -1.89209,0.6128 -0.77149,0 -1.39893,-0.15707 -1.88232,-0.47119 -0.4834,-0.31413 -0.85124,-0.76905 -1.10352,-1.36475 -0.25228,-0.5957 -0.37842,-1.23535 -0.37842,-1.91895 0,-0.74543 0.14242,-1.39566 0.42725,-1.95068 0.28483,-0.55501 0.6901,-0.97656 1.21582,-1.26465 0.52571,-0.28808 1.10433,-0.43212 1.73584,-0.43213 0.71614,1e-5 1.31835,0.1823 1.80664,0.54688 0.48828,0.36459 0.82844,0.87728 1.02051,1.53808 l -0.93262,0.21973 c -0.16602,-0.52083 -0.40691,-0.90006 -0.72266,-1.13769 -0.31576,-0.23763 -0.71289,-0.35644 -1.1914,-0.35645 -0.55014,1e-5 -1.00993,0.13184 -1.3794,0.39551 -0.36946,0.26368 -0.62907,0.61768 -0.7788,1.06201 -0.14975,0.44434 -0.22462,0.90251 -0.22461,1.37451 -10e-6,0.60873 0.0887,1.14014 0.26611,1.59424 0.17741,0.4541 0.45328,0.79346 0.82764,1.01807 0.37434,0.22461 0.77961,0.33691 1.21582,0.33691 0.53059,0 0.97981,-0.15299 1.34765,-0.45898 0.36784,-0.30599 0.61686,-0.76009 0.74707,-1.36231 z"
     style="font-size:10px;font-family:Arial-BoldMT"
     id="path3184" /><path
     d="m 611.96094,164.42238 c 0,-1.18815 0.31901,-2.11832 0.95703,-2.79053 0.63802,-0.67219 1.46158,-1.00829 2.4707,-1.0083 0.6608,1e-5 1.25651,0.15789 1.78711,0.47363 0.53059,0.31576 0.93505,0.75603 1.21338,1.3208 0.27831,0.56479 0.41747,1.20525 0.41748,1.92139 -10e-6,0.72592 -0.14649,1.37533 -0.43945,1.94824 -0.29298,0.57292 -0.70802,1.00668 -1.24512,1.30127 -0.53711,0.2946 -1.11654,0.4419 -1.73828,0.4419 -0.67383,0 -1.27605,-0.16276 -1.80664,-0.48828 -0.5306,-0.32552 -0.93262,-0.76986 -1.20606,-1.33301 -0.27343,-0.56315 -0.41015,-1.15885 -0.41015,-1.78711 z m 0.97656,0.0146 c 0,0.86263 0.23193,1.54215 0.6958,2.03857 0.46387,0.49642 1.04573,0.74463 1.74561,0.74463 0.71288,0 1.29963,-0.25065 1.76025,-0.75195 0.46061,-0.5013 0.69091,-1.21257 0.69092,-2.13379 -10e-6,-0.58268 -0.0985,-1.09131 -0.29541,-1.52588 -0.19695,-0.43457 -0.48503,-0.77148 -0.86426,-1.01074 -0.37924,-0.23925 -0.80485,-0.35888 -1.27686,-0.35889 -0.67057,1e-5 -1.24756,0.23031 -1.73095,0.69092 -0.4834,0.46062 -0.7251,1.22966 -0.7251,2.30713 z"
     style="font-size:10px;font-family:Arial-BoldMT"
     id="path3186" /><path
     d="m 627.05859,167.06398 0,0.84473 -4.73144,0 c -0.007,-0.21159 0.0277,-0.41504 0.10254,-0.61035 0.12044,-0.32227 0.31331,-0.63965 0.57861,-0.95215 0.2653,-0.3125 0.6486,-0.67383 1.1499,-1.08399 0.778,-0.63802 1.30371,-1.14339 1.57715,-1.51611 0.27344,-0.37272 0.41015,-0.72509 0.41016,-1.05713 -10e-6,-0.3483 -0.12452,-0.64208 -0.37354,-0.88135 -0.24902,-0.23925 -0.57373,-0.35888 -0.97412,-0.35888 -0.42318,0 -0.76172,0.12696 -1.01562,0.38086 -0.25391,0.25391 -0.38249,0.60547 -0.38575,1.05468 l -0.90332,-0.0928 c 0.0619,-0.67382 0.2946,-1.18733 0.69825,-1.54053 0.40364,-0.35318 0.94563,-0.52978 1.62597,-0.52978 0.68685,0 1.23047,0.19043 1.63086,0.57129 0.40039,0.38086 0.60058,0.85287 0.60059,1.41601 -10e-6,0.28646 -0.0586,0.56804 -0.17578,0.84473 -0.1172,0.27669 -0.31169,0.56804 -0.5835,0.87402 -0.27181,0.30599 -0.72347,0.72592 -1.35498,1.25977 -0.52735,0.44271 -0.86589,0.743 -1.01562,0.90088 -0.14975,0.15787 -0.27344,0.31657 -0.3711,0.47607 z"
     style="font-size:10px;font-family:Arial-BoldMT"
     id="path3188" /></g>

	<g
   transform="translate(503.2451,233.792)"
   style="font-size:10px;font-family:Arial-BoldMT"
   id="text162"><path
     d="m 4.1210937,-2.8076172 0,-0.8398437 3.0322266,-0.00488 0,2.65625005 C 6.6878188,-0.62499938 6.2076761,-0.34586554 5.7128906,-0.15869141 5.2180937,0.02848304 4.7102817,0.12207019 4.1894531,0.12207031 3.4863246,0.12207019 2.8474906,-0.02848304 2.2729492,-0.32958984 1.6984032,-0.63069598 1.2646472,-1.0660797 0.97167969,-1.6357422 0.67871026,-2.2054014 0.53222603,-2.841794 0.53222656,-3.5449219 c -5.3e-7,-0.6966103 0.1456699,-1.3468375 0.43701172,-1.9506836 0.29133992,-0.603835 0.71044752,-1.0522395 1.25732422,-1.3452148 0.5468722,-0.2929616 1.1767544,-0.4394459 1.8896484,-0.4394531 0.5175735,7.2e-6 0.9855093,0.083829 1.4038086,0.2514648 0.4182884,0.1676501 0.7462503,0.4012111 0.9838867,0.7006836 0.2376235,0.2994852 0.4182874,0.6901098 0.5419922,1.171875 L 6.1914062,-4.921875 C 6.0839783,-5.286453 5.9505149,-5.5729111 5.7910156,-5.78125 5.6315048,-5.9895773 5.4036404,-6.1564066 5.1074219,-6.2817383 4.8111931,-6.4070574 4.4824174,-6.4697201 4.1210937,-6.4697266 c -0.4329463,6.5e-6 -0.8072949,0.065924 -1.1230468,0.1977539 -0.3157579,0.1318421 -0.5704777,0.3051818 -0.7641602,0.5200196 -0.1936869,0.2148493 -0.3442402,0.4508516 -0.4516601,0.7080078 -0.1822933,0.4427129 -0.273439,0.9228557 -0.2734375,1.4404297 -1.5e-6,0.6380238 0.1098616,1.1718774 0.3295898,1.6015625 0.2197245,0.429689 0.5395484,0.7486991 0.9594727,0.9570312 0.4199186,0.20833419 0.8658817,0.31250076 1.3378906,0.31250003 0.4101517,7.3e-7 0.8105419,-0.078938 1.2011719,-0.23681641 C 5.7275333,-1.1271148 6.023757,-1.2955716 6.2255859,-1.4746094 l 0,-1.3330078 z"
     style="font-size:10px;font-family:Arial-BoldMT"
     id="path3075" /><path
     d="m 10.59082,0 -2.7734372,-7.1582031 1.0253906,0 1.8603516,5.2001953 c 0.149737,0.4166682 0.275062,0.8072928 0.375977,1.17187499 0.110673,-0.39062379 0.239254,-0.78124839 0.385742,-1.17187499 l 1.933594,-5.2001953 0.966796,0 L 11.5625,0 z"
     style="font-size:10px;font-family:Arial-BoldMT"
     id="path3077" /><path
     d="m 20.952148,0 -0.878906,0 0,-5.6005859 c -0.211591,0.2018283 -0.489097,0.403651 -0.832519,0.6054687 -0.343426,0.2018277 -0.651857,0.3531948 -0.925293,0.4541016 l 0,-0.8496094 c 0.491535,-0.2311142 0.921222,-0.5110618 1.289062,-0.8398437 0.367836,-0.3287695 0.628252,-0.6477796 0.78125,-0.9570313 l 0.566406,0 z"
     style="font-size:10px;font-family:Arial-BoldMT"
     id="path3079" /></g>

	<g
   transform="translate(620.8936,233.792)"
   style="font-size:10px;font-family:Arial-BoldMT"
   id="text164"><path
     d="m 4.1210937,-2.8076172 0,-0.8398437 3.0322266,-0.00488 0,2.65625005 C 6.6878188,-0.62499938 6.2076761,-0.34586554 5.7128906,-0.15869141 5.2180937,0.02848304 4.7102817,0.12207019 4.1894531,0.12207031 3.4863246,0.12207019 2.8474906,-0.02848304 2.2729492,-0.32958984 1.6984032,-0.63069598 1.2646472,-1.0660797 0.97167969,-1.6357422 0.67871026,-2.2054014 0.53222603,-2.841794 0.53222656,-3.5449219 c -5.3e-7,-0.6966103 0.1456699,-1.3468375 0.43701172,-1.9506836 0.29133992,-0.603835 0.71044752,-1.0522395 1.25732422,-1.3452148 0.5468722,-0.2929616 1.1767544,-0.4394459 1.8896484,-0.4394531 0.5175735,7.2e-6 0.9855093,0.083829 1.4038086,0.2514648 0.4182884,0.1676501 0.7462503,0.4012111 0.9838867,0.7006836 0.2376235,0.2994852 0.4182874,0.6901098 0.5419922,1.171875 L 6.1914062,-4.921875 C 6.0839783,-5.286453 5.9505149,-5.5729111 5.7910156,-5.78125 5.6315048,-5.9895773 5.4036404,-6.1564066 5.1074219,-6.2817383 4.8111931,-6.4070574 4.4824174,-6.4697201 4.1210937,-6.4697266 c -0.4329463,6.5e-6 -0.8072949,0.065924 -1.1230468,0.1977539 -0.3157579,0.1318421 -0.5704777,0.3051818 -0.7641602,0.5200196 -0.1936869,0.2148493 -0.3442402,0.4508516 -0.4516601,0.7080078 -0.1822933,0.4427129 -0.273439,0.9228557 -0.2734375,1.4404297 -1.5e-6,0.6380238 0.1098616,1.1718774 0.3295898,1.6015625 0.2197245,0.429689 0.5395484,0.7486991 0.9594727,0.9570312 0.4199186,0.20833419 0.8658817,0.31250076 1.3378906,0.31250003 0.4101517,7.3e-7 0.8105419,-0.078938 1.2011719,-0.23681641 C 5.7275333,-1.1271148 6.023757,-1.2955716 6.2255859,-1.4746094 l 0,-1.3330078 z"
     style="font-size:10px;font-family:Arial-BoldMT"
     id="path3068" /><path
     d="m 10.59082,0 -2.7734372,-7.1582031 1.0253906,0 1.8603516,5.2001953 c 0.149737,0.4166682 0.275062,0.8072928 0.375977,1.17187499 0.110673,-0.39062379 0.239254,-0.78124839 0.385742,-1.17187499 l 1.933594,-5.2001953 0.966796,0 L 11.5625,0 z"
     style="font-size:10px;font-family:Arial-BoldMT"
     id="path3070" /><path
     d="M 22.260742,-0.84472656 22.260742,0 17.529297,0 c -0.0065,-0.21158833 0.02767,-0.41503865 0.102539,-0.61035156 0.120442,-0.32226469 0.313313,-0.63964714 0.578613,-0.95214844 0.265298,-0.3124981 0.648599,-0.6738259 1.149903,-1.0839844 0.777991,-0.6380175 1.303707,-1.1433881 1.577148,-1.5161133 0.273434,-0.3727168 0.410152,-0.7250927 0.410156,-1.0571289 -4e-6,-0.3483017 -0.124515,-0.6420839 -0.373535,-0.8813476 C 20.725094,-6.3403257 20.400387,-6.4599545 20,-6.4599609 c -0.423179,6.4e-6 -0.761721,0.1269594 -1.015625,0.3808593 -0.253908,0.2539121 -0.382488,0.6054743 -0.385742,1.0546875 l -0.903321,-0.092773 c 0.06185,-0.6738223 0.294596,-1.1873309 0.698243,-1.5405273 0.403644,-0.3531831 0.945636,-0.529778 1.625976,-0.5297852 0.686846,7.2e-6 1.230465,0.1904367 1.63086,0.5712891 0.400385,0.3808656 0.600581,0.8528703 0.600586,1.4160156 -5e-6,0.2864632 -0.0586,0.5680385 -0.175782,0.8447266 -0.117192,0.2766967 -0.31169,0.5680376 -0.583496,0.8740234 -0.271814,0.3059927 -0.723473,0.7259142 -1.35498,1.2597656 -0.527346,0.4427101 -0.865888,0.7430028 -1.015625,0.9008789 -0.149742,0.1578788 -0.273439,0.31657 -0.371094,0.47607424 z"
     style="font-size:10px;font-family:Arial-BoldMT"
     id="path3072" /></g>

	<g
   transform="translate(471.1387,280.8506)"
   style="font-size:10px;font-family:Arial-BoldMT"
   id="text166"><path
     d="m 2.8173828,0 -2.77343749,-7.1582031 1.02539059,0 1.8603516,5.2001953 C 3.079424,-1.5413396 3.2047494,-1.150715 3.3056641,-0.78613281 3.4163377,-1.1767566 3.5449183,-1.5673812 3.6914063,-1.9580078 L 5.625,-7.1582031 l 0.9667969,0 L 3.7890625,0 z"
     style="font-size:10px;font-family:Arial-BoldMT"
     id="path3082" /><path
     d="m 7.4121094,0 0,-7.1582031 0.9472656,0 0,6.31347654 3.525391,0 0,0.84472656 z"
     style="font-size:10px;font-family:Arial-BoldMT"
     id="path3084" /><path
     d="m 18.745117,0 -0.878906,0 0,-5.6005859 c -0.211591,0.2018283 -0.489097,0.403651 -0.83252,0.6054687 -0.343426,0.2018277 -0.651856,0.3531948 -0.925293,0.4541016 l 0,-0.8496094 c 0.491535,-0.2311142 0.921222,-0.5110618 1.289063,-0.8398437 0.367836,-0.3287695 0.628252,-0.6477796 0.78125,-0.9570313 l 0.566406,0 z"
     style="font-size:10px;font-family:Arial-BoldMT"
     id="path3086" /></g>

	<g
   transform="translate(539.3857,280.8506)"
   style="font-size:10px;font-family:Arial-BoldMT"
   id="text168"><path
     d="m 2.8173828,0 -2.77343749,-7.1582031 1.02539059,0 1.8603516,5.2001953 C 3.079424,-1.5413396 3.2047494,-1.150715 3.3056641,-0.78613281 3.4163377,-1.1767566 3.5449183,-1.5673812 3.6914063,-1.9580078 L 5.625,-7.1582031 l 0.9667969,0 L 3.7890625,0 z"
     style="font-size:10px;font-family:Arial-BoldMT"
     id="path3089" /><path
     d="m 7.4121094,0 0,-7.1582031 0.9472656,0 0,6.31347654 3.525391,0 0,0.84472656 z"
     style="font-size:10px;font-family:Arial-BoldMT"
     id="path3091" /><path
     d="M 20.053711,-0.84472656 20.053711,0 15.322266,0 c -0.0065,-0.21158833 0.02767,-0.41503865 0.102539,-0.61035156 0.120442,-0.32226469 0.313313,-0.63964714 0.578613,-0.95214844 0.265298,-0.3124981 0.648599,-0.6738259 1.149902,-1.0839844 0.777992,-0.6380175 1.303708,-1.1433881 1.577149,-1.5161133 0.273433,-0.3727168 0.410152,-0.7250927 0.410156,-1.0571289 -4e-6,-0.3483017 -0.124516,-0.6420839 -0.373535,-0.8813476 -0.249027,-0.2392515 -0.573734,-0.3588803 -0.974121,-0.3588867 -0.42318,6.4e-6 -0.761721,0.1269594 -1.015625,0.3808593 -0.253908,0.2539121 -0.382489,0.6054743 -0.385742,1.0546875 l -0.903321,-0.092773 c 0.06185,-0.6738223 0.294596,-1.1873309 0.698242,-1.5405273 0.403645,-0.3531831 0.945636,-0.529778 1.625977,-0.5297852 0.686845,7.2e-6 1.230465,0.1904367 1.630859,0.5712891 0.400386,0.3808656 0.600581,0.8528703 0.600586,1.4160156 -5e-6,0.2864632 -0.0586,0.5680385 -0.175781,0.8447266 -0.117192,0.2766967 -0.311691,0.5680376 -0.583496,0.8740234 -0.271814,0.3059927 -0.723474,0.7259142 -1.354981,1.2597656 -0.527346,0.4427101 -0.865887,0.7430028 -1.015625,0.9008789 -0.149741,0.1578788 -0.273439,0.31657 -0.371093,0.47607424 z"
     style="font-size:10px;font-family:Arial-BoldMT"
     id="path3093" /></g>

	<g
   transform="translate(598.1982,280.8506)"
   style="font-size:10px;font-family:Arial-BoldMT"
   id="text170"><path
     d="m 2.8173828,0 -2.77343749,-7.1582031 1.02539059,0 1.8603516,5.2001953 C 3.079424,-1.5413396 3.2047494,-1.150715 3.3056641,-0.78613281 3.4163377,-1.1767566 3.5449183,-1.5673812 3.6914063,-1.9580078 L 5.625,-7.1582031 l 0.9667969,0 L 3.7890625,0 z"
     style="font-size:10px;font-family:Arial-BoldMT"
     id="path3096" /><path
     d="m 7.4121094,0 0,-7.1582031 0.9472656,0 0,6.31347654 3.525391,0 0,0.84472656 z"
     style="font-size:10px;font-family:Arial-BoldMT"
     id="path3098" /><path
     d="m 15.439453,-1.8896484 0.878906,-0.1171875 c 0.10091,0.4980483 0.272623,0.8569347 0.515137,1.07666012 0.242511,0.21972727 0.537921,0.32959044 0.886231,0.32958984 0.413408,6e-7 0.762529,-0.14322842 1.047363,-0.42968746 0.284827,-0.2864571 0.427242,-0.6412744 0.427246,-1.0644532 -4e-6,-0.4036433 -0.13184,-0.736488 -0.395508,-0.9985351 -0.263675,-0.2620409 -0.598961,-0.3930629 -1.005859,-0.3930664 -0.166018,3.5e-6 -0.372724,0.032555 -0.620117,0.097656 l 0.09766,-0.7714843 c 0.05859,0.00651 0.105792,0.00977 0.141601,0.00977 0.374347,4.1e-6 0.71126,-0.097652 1.010743,-0.2929688 0.299475,-0.1953078 0.449214,-0.4964143 0.449218,-0.9033203 -4e-6,-0.3222599 -0.109053,-0.5891868 -0.327148,-0.8007812 -0.218102,-0.2115822 -0.499678,-0.3173764 -0.844727,-0.3173828 -0.341799,6.4e-6 -0.626629,0.1074282 -0.854492,0.3222656 -0.227866,0.2148497 -0.37435,0.537115 -0.439453,0.9667969 l -0.878906,-0.15625 c 0.107421,-0.5891868 0.351561,-1.0457293 0.732422,-1.369629 0.380857,-0.3238862 0.85449,-0.4858326 1.420898,-0.4858398 0.390622,7.2e-6 0.750322,0.083829 1.079102,0.2514648 0.328772,0.16765 0.580236,0.3963282 0.754394,0.6860352 0.174149,0.2897195 0.261226,0.5973364 0.261231,0.9228516 -5e-6,0.3092498 -0.08301,0.590825 -0.249024,0.8447265 -0.16602,0.2539105 -0.411788,0.4557332 -0.737305,0.6054688 0.423173,0.09766 0.751949,0.3002965 0.986329,0.6079101 0.23437,0.3076202 0.351557,0.6925482 0.351562,1.1547852 -5e-6,0.6250015 -0.227869,1.1547861 -0.683594,1.58935546 C 18.987626,-0.09033194 18.411455,0.126953 17.714844,0.12695312 17.086586,0.126953 16.56494,-0.06022129 16.149902,-0.43457031 15.734863,-0.80891846 15.498046,-1.293944 15.439453,-1.8896484 z"
     style="font-size:10px;font-family:Arial-BoldMT"
     id="path3100" /></g>

	<g
   transform="translate(645.2334,280.8506)"
   style="font-size:10px;font-family:Arial-BoldMT"
   id="text172"><path
     d="m 2.8173828,0 -2.77343749,-7.1582031 1.02539059,0 1.8603516,5.2001953 C 3.079424,-1.5413396 3.2047494,-1.150715 3.3056641,-0.78613281 3.4163377,-1.1767566 3.5449183,-1.5673812 3.6914063,-1.9580078 L 5.625,-7.1582031 l 0.9667969,0 L 3.7890625,0 z"
     style="font-size:10px;font-family:Arial-BoldMT"
     id="path3103" /><path
     d="m 7.4121094,0 0,-7.1582031 0.9472656,0 0,6.31347654 3.525391,0 0,0.84472656 z"
     style="font-size:10px;font-family:Arial-BoldMT"
     id="path3105" /><path
     d="m 18.251953,0 0,-1.7138672 -3.105469,0 0,-0.8056641 3.266602,-4.6386718 0.717773,0 0,4.6386718 0.966797,0 0,0.8056641 -0.966797,0 0,1.7138672 z m 0,-2.5195313 0,-3.227539 -2.241211,3.227539 z"
     style="font-size:10px;font-family:Arial-BoldMT"
     id="path3107" /></g>

</g>
</svg>