<?xml version="1.0" encoding="UTF-8" standalone="no"?>
<!-- Generator: Adobe Illustrator 15.1.0, SVG Export Plug-In . SVG Version: 6.00 Build 0)  -->

<svg
   xmlns:dc="http://purl.org/dc/elements/1.1/"
   xmlns:cc="http://creativecommons.org/ns#"
   xmlns:rdf="http://www.w3.org/1999/02/22-rdf-syntax-ns#"
   xmlns:svg="http://www.w3.org/2000/svg"
   xmlns="http://www.w3.org/2000/svg"
   xmlns:sodipodi="http://sodipodi.sourceforge.net/DTD/sodipodi-0.dtd"
   xmlns:inkscape="http://www.inkscape.org/namespaces/inkscape"
   version="1.1"
   x="0px"
   y="0px"
   width="420.6px"
   height="199.432px"
   viewBox="260.125 133.971 420.6 199.432"
   enable-background="new 260.125 133.971 420.6 199.432"
   xml:space="preserve"
   id="svg2"
   inkscape:version="0.48.1 "
   sodipodi:docname="lvm.svg"><metadata
   id="metadata178"><rdf:RDF><cc:Work
       rdf:about=""><dc:format>image/svg+xml</dc:format><dc:type
         rdf:resource="http://purl.org/dc/dcmitype/StillImage" /></cc:Work></rdf:RDF></metadata><defs
   id="defs176" /><sodipodi:namedview
   pagecolor="#ffffff"
   bordercolor="#666666"
   borderopacity="1"
   objecttolerance="10"
   gridtolerance="10"
   guidetolerance="10"
   inkscape:pageopacity="0"
   inkscape:pageshadow="2"
   inkscape:window-width="1920"
   inkscape:window-height="1033"
   id="namedview174"
   showgrid="false"
   inkscape:zoom="3.4161698"
   inkscape:cx="243.73975"
   inkscape:cy="98.911639"
   inkscape:window-x="-4"
   inkscape:window-y="-4"
   inkscape:window-maximized="1"
   inkscape:current-layer="text" />
<g
   id="Layer_1">
	<g
   id="g5">
		<rect
   x="444.653"
   y="182.037"
   fill="none"
   stroke="#000000"
   stroke-width="1.6"
   width="47.035"
   height="23.505"
   id="rect7" />
		<rect
   x="491.712"
   y="182.037"
   fill="none"
   stroke="#000000"
   stroke-width="1.6"
   width="47.035"
   height="23.505"
   id="rect9" />
		<rect
   x="538.772"
   y="182.037"
   fill="none"
   stroke="#000000"
   stroke-width="1.6"
   width="47.034"
   height="23.505"
   id="rect11" />
		<rect
   x="585.831"
   y="182.037"
   fill="none"
   stroke="#000000"
   stroke-width="1.6"
   width="47.034"
   height="23.505"
   id="rect13" />
		<rect
   x="632.892"
   y="182.037"
   fill="none"
   stroke="#000000"
   stroke-width="1.6"
   width="47.034"
   height="23.505"
   id="rect15" />
		<rect
   x="261.146"
   y="134.978"
   fill="none"
   stroke="#000000"
   stroke-width="1.6"
   width="141.153"
   height="47.035"
   id="rect17" />
		<rect
   x="261.146"
   y="182.037"
   fill="none"
   stroke="#000000"
   stroke-width="1.6"
   width="47.035"
   height="117.624"
   id="rect19" />
		<rect
   x="308.205"
   y="182.037"
   fill="none"
   stroke="#000000"
   stroke-width="1.6"
   width="47.035"
   height="117.624"
   id="rect21" />
		<rect
   x="355.265"
   y="182.037"
   fill="none"
   stroke="#000000"
   stroke-width="1.6"
   width="47.035"
   height="117.624"
   id="rect23" />
		<rect
   x="261.146"
   y="299.687"
   fill="none"
   stroke="#000000"
   stroke-width="1.6"
   width="47.035"
   height="32.916"
   id="rect25" />
		<rect
   x="308.205"
   y="299.687"
   fill="none"
   stroke="#000000"
   stroke-width="1.6"
   width="47.035"
   height="32.916"
   id="rect27" />
		<rect
   x="355.265"
   y="299.687"
   fill="none"
   stroke="#000000"
   stroke-width="1.6"
   width="47.035"
   height="32.916"
   id="rect29" />
		<rect
   x="261.146"
   y="134.978"
   fill="none"
   stroke="#000000"
   stroke-width="1.6"
   width="141.153"
   height="197.625"
   id="rect31" />
		<rect
   x="444.653"
   y="205.567"
   fill="none"
   stroke="#000000"
   stroke-width="1.6"
   width="141.154"
   height="47.036"
   id="rect33" />
		<rect
   x="585.831"
   y="205.567"
   fill="none"
   stroke="#000000"
   stroke-width="1.6"
   width="94.095"
   height="47.036"
   id="rect35" />
		<rect
   x="444.653"
   y="134.978"
   fill="none"
   stroke="#000000"
   stroke-width="1.6"
   width="94.094"
   height="47.035"
   id="rect37" />
		<rect
   x="538.772"
   y="134.978"
   fill="none"
   stroke="#000000"
   stroke-width="1.6"
   width="141.153"
   height="47.035"
   id="rect39" />
		<rect
   x="444.653"
   y="134.978"
   fill="none"
   stroke="#000000"
   stroke-width="1.6"
   width="94.094"
   height="70.564"
   id="rect41" />
		<rect
   x="538.772"
   y="134.978"
   fill="none"
   stroke="#000000"
   stroke-width="1.6"
   width="141.153"
   height="70.564"
   id="rect43" />
		<rect
   x="444.653"
   y="252.626"
   fill="none"
   stroke="#000000"
   stroke-width="1.6"
   width="70.565"
   height="47.035"
   id="rect45" />
		<rect
   x="515.242"
   y="252.626"
   fill="none"
   stroke="#000000"
   stroke-width="1.6"
   width="70.564"
   height="47.035"
   id="rect47" />
		<rect
   x="585.831"
   y="252.626"
   fill="none"
   stroke="#000000"
   stroke-width="1.6"
   width="47.034"
   height="47.035"
   id="rect49" />
		<rect
   x="632.892"
   y="252.626"
   fill="none"
   stroke="#000000"
   stroke-width="1.6"
   width="47.034"
   height="47.035"
   id="rect51" />
		<rect
   x="444.653"
   y="299.687"
   fill="none"
   stroke="#000000"
   stroke-width="1.6"
   width="70.565"
   height="32.916"
   id="rect53" />
		<rect
   x="515.242"
   y="299.687"
   fill="none"
   stroke="#000000"
   stroke-width="1.6"
   width="70.564"
   height="32.916"
   id="rect55" />
		<rect
   x="585.831"
   y="299.687"
   fill="none"
   stroke="#000000"
   stroke-width="1.6"
   width="47.034"
   height="32.916"
   id="rect57" />
		<rect
   x="632.892"
   y="299.687"
   fill="none"
   stroke="#000000"
   stroke-width="1.6"
   width="47.034"
   height="32.916"
   id="rect59" />
		<rect
   x="444.653"
   y="205.567"
   fill="none"
   stroke="#000000"
   stroke-width="1.6"
   width="141.154"
   height="127.036"
   id="rect61" />
		<rect
   x="585.831"
   y="205.567"
   fill="none"
   stroke="#000000"
   stroke-width="1.6"
   width="94.095"
   height="127.036"
   id="rect63" />
	</g>
	<g
   id="g65">
		<rect
   x="444.653"
   y="181.83"
   fill="none"
   stroke="#000000"
   stroke-width="1.6"
   width="47.035"
   height="23.505"
   id="rect67" />
		<rect
   x="491.712"
   y="181.83"
   fill="none"
   stroke="#000000"
   stroke-width="1.6"
   width="47.035"
   height="23.505"
   id="rect69" />
		<rect
   x="538.772"
   y="181.83"
   fill="none"
   stroke="#000000"
   stroke-width="1.6"
   width="47.034"
   height="23.505"
   id="rect71" />
		<rect
   x="585.831"
   y="181.83"
   fill="none"
   stroke="#000000"
   stroke-width="1.6"
   width="47.034"
   height="23.505"
   id="rect73" />
		<rect
   x="632.892"
   y="181.83"
   fill="none"
   stroke="#000000"
   stroke-width="1.6"
   width="47.034"
   height="23.505"
   id="rect75" />
		<rect
   x="261.146"
   y="134.803"
   fill="none"
   stroke="#000000"
   stroke-width="1.6"
   width="141.153"
   height="47.035"
   id="rect77" />
		<rect
   x="261.146"
   y="181.83"
   fill="none"
   stroke="#000000"
   stroke-width="1.6"
   width="47.035"
   height="117.624"
   id="rect79" />
		<rect
   x="308.205"
   y="181.83"
   fill="none"
   stroke="#000000"
   stroke-width="1.6"
   width="47.035"
   height="117.624"
   id="rect81" />
		<rect
   x="355.265"
   y="181.83"
   fill="none"
   stroke="#000000"
   stroke-width="1.6"
   width="47.035"
   height="117.624"
   id="rect83" />
		<rect
   x="261.146"
   y="299.479"
   fill="none"
   stroke="#000000"
   stroke-width="1.6"
   width="47.035"
   height="32.916"
   id="rect85" />
		<rect
   x="308.205"
   y="299.479"
   fill="none"
   stroke="#000000"
   stroke-width="1.6"
   width="47.035"
   height="32.916"
   id="rect87" />
		<rect
   x="355.265"
   y="299.479"
   fill="none"
   stroke="#000000"
   stroke-width="1.6"
   width="47.035"
   height="32.916"
   id="rect89" />
		<rect
   x="260.925"
   y="134.771"
   fill="none"
   stroke="#000000"
   stroke-width="1.6"
   width="141.154"
   height="197.625"
   id="rect91" />
		<rect
   x="444.653"
   y="205.36"
   fill="none"
   stroke="#000000"
   stroke-width="1.6"
   width="141.154"
   height="47.036"
   id="rect93" />
		<rect
   x="585.831"
   y="205.36"
   fill="none"
   stroke="#000000"
   stroke-width="1.6"
   width="94.095"
   height="47.036"
   id="rect95" />
		<rect
   x="444.653"
   y="134.771"
   fill="none"
   stroke="#000000"
   stroke-width="1.6"
   width="94.094"
   height="47.035"
   id="rect97" />
		<rect
   x="538.772"
   y="134.771"
   fill="none"
   stroke="#000000"
   stroke-width="1.6"
   width="141.153"
   height="47.035"
   id="rect99" />
		<rect
   x="444.653"
   y="134.771"
   fill="none"
   stroke="#000000"
   stroke-width="1.6"
   width="94.094"
   height="70.564"
   id="rect101" />
		<rect
   x="538.772"
   y="134.771"
   fill="none"
   stroke="#000000"
   stroke-width="1.6"
   width="141.153"
   height="70.564"
   id="rect103" />
		<rect
   x="444.653"
   y="252.419"
   fill="none"
   stroke="#000000"
   stroke-width="1.6"
   width="70.565"
   height="47.035"
   id="rect105" />
		<rect
   x="515.242"
   y="252.419"
   fill="none"
   stroke="#000000"
   stroke-width="1.6"
   width="70.564"
   height="47.035"
   id="rect107" />
		<rect
   x="585.831"
   y="252.419"
   fill="none"
   stroke="#000000"
   stroke-width="1.6"
   width="47.034"
   height="47.035"
   id="rect109" />
		<rect
   x="632.892"
   y="252.419"
   fill="none"
   stroke="#000000"
   stroke-width="1.6"
   width="47.034"
   height="47.035"
   id="rect111" />
		<rect
   x="444.653"
   y="299.479"
   fill="none"
   stroke="#000000"
   stroke-width="1.6"
   width="70.565"
   height="32.916"
   id="rect113" />
		<rect
   x="515.242"
   y="299.479"
   fill="none"
   stroke="#000000"
   stroke-width="1.6"
   width="70.564"
   height="32.916"
   id="rect115" />
		<rect
   x="585.831"
   y="299.479"
   fill="none"
   stroke="#000000"
   stroke-width="1.6"
   width="47.034"
   height="32.916"
   id="rect117" />
		<rect
   x="632.892"
   y="299.479"
   fill="none"
   stroke="#000000"
   stroke-width="1.6"
   width="47.034"
   height="32.916"
   id="rect119" />
		<rect
   x="444.653"
   y="205.36"
   fill="none"
   stroke="#000000"
   stroke-width="1.6"
   width="141.154"
   height="127.036"
   id="rect121" />
		<rect
   x="585.831"
   y="205.36"
   fill="none"
   stroke="#000000"
   stroke-width="1.6"
   width="94.095"
   height="127.036"
   id="rect123" />
	</g>
</g>
<g
   id="text">
	<g
   style="font-size:10px;font-family:Arial-BoldMT"
   id="text126"
   transform="translate(0,-2)"><path
     d="m 464.75488,192.52979 c 0.3125,-0.026 0.58593,0.0651 0.82032,0.27343 0.2604,0.23439 0.39061,0.50782 0.39062,0.82032 -0.026,0.33854 -0.14324,0.61198 -0.35156,0.82031 -0.20834,0.23438 -0.46876,0.33855 -0.78125,0.3125 -0.33855,0 -0.61199,-0.1302 -0.82031,-0.39063 -0.20834,-0.23437 -0.29949,-0.5078 -0.27344,-0.82031 0.026,-0.26041 0.1302,-0.49478 0.3125,-0.70312 0.20832,-0.20833 0.4427,-0.3125 0.70312,-0.3125 z m -1.40625,1.17187 c 0.57291,0.93751 1.05468,2.01823 1.44532,3.24219 0.4427,1.35417 0.72915,2.57812 0.85937,3.67187 l -0.89844,0.39063 c -0.13021,-1.22396 -0.39063,-2.46094 -0.78125,-3.71094 -0.39063,-1.30208 -0.83334,-2.35676 -1.32812,-3.16406 l 0.70312,-0.42969 z m -5.23437,6.75781 c 1.25,-1.66666 1.875,-3.91926 1.875,-6.75781 l 0.85937,0.15625 c 0,2.91667 -0.66406,5.36459 -1.99218,7.34375 l -0.74219,-0.74219 z m 6.67969,-6.28906 c 0.20832,1e-5 0.36457,-0.0521 0.46875,-0.15625 0.1302,-0.10416 0.18228,-0.23437 0.15625,-0.39062 -10e-6,-0.15625 -0.0521,-0.28646 -0.15625,-0.39063 -0.10418,-0.10416 -0.24741,-0.15624 -0.42969,-0.15625 -0.15626,1e-5 -0.28647,0.0521 -0.39063,0.15625 -0.10417,0.10417 -0.15625,0.23438 -0.15625,0.39063 0,0.15625 0.0521,0.28646 0.15625,0.39062 0.10416,0.10417 0.22135,0.15626 0.35157,0.15625 z"
     style="font-style:normal;font-variant:normal;font-weight:normal;font-stretch:normal;font-family:MS UI Gothic;-inkscape-font-specification:MS UI Gothic"
     id="path3128"
     inkscape:connector-curvature="0" /><path
     d="m 473.50488,196.67041 0,0.85938 -6.79687,0 0,-0.85938 z"
     style="font-style:normal;font-variant:normal;font-weight:normal;font-stretch:normal;font-family:MS UI Gothic;-inkscape-font-specification:MS UI Gothic"
     id="path3130"
     inkscape:connector-curvature="0" /><path
     d="m 477.37207,195.88916 c 1.3802,0.46875 2.53906,0.97657 3.47656,1.52344 l -0.50781,0.85937 c -0.28646,-0.20833 -0.72917,-0.45572 -1.32812,-0.74218 -0.59897,-0.28646 -1.14584,-0.52083 -1.64063,-0.70313 l 0,4.60938 -0.78125,0 0,-8.35938 0.78125,0 z"
     style="font-style:normal;font-variant:normal;font-weight:normal;font-stretch:normal;font-family:MS UI Gothic;-inkscape-font-specification:MS UI Gothic"
     id="path3132"
     inkscape:connector-curvature="0" /></g>

	<g
   style="font-size:10px;font-family:Arial-BoldMT"
   id="text128"
   transform="translate(0,-2)"><path
     d="m 509.81448,192.52979 c 0.3125,-0.026 0.58593,0.0651 0.82032,0.27343 0.2604,0.23439 0.39061,0.50782 0.39062,0.82032 -0.026,0.33854 -0.14324,0.61198 -0.35156,0.82031 -0.20834,0.23438 -0.46876,0.33855 -0.78125,0.3125 -0.33855,0 -0.61199,-0.1302 -0.82031,-0.39063 -0.20834,-0.23437 -0.29949,-0.5078 -0.27344,-0.82031 0.026,-0.26041 0.1302,-0.49478 0.3125,-0.70312 0.20833,-0.20833 0.4427,-0.3125 0.70312,-0.3125 z m -1.40625,1.17187 c 0.57291,0.93751 1.05468,2.01823 1.44532,3.24219 0.4427,1.35417 0.72916,2.57812 0.85937,3.67187 l -0.89844,0.39063 c -0.13021,-1.22396 -0.39063,-2.46094 -0.78125,-3.71094 -0.39063,-1.30208 -0.83334,-2.35676 -1.32812,-3.16406 l 0.70312,-0.42969 z m -5.23437,6.75781 c 1.25,-1.66666 1.875,-3.91926 1.875,-6.75781 l 0.85937,0.15625 c 0,2.91667 -0.66406,5.36459 -1.99218,7.34375 l -0.74219,-0.74219 z m 6.67969,-6.28906 c 0.20832,1e-5 0.36457,-0.0521 0.46875,-0.15625 0.1302,-0.10416 0.18228,-0.23437 0.15625,-0.39062 -10e-6,-0.15625 -0.0521,-0.28646 -0.15625,-0.39063 -0.10418,-0.10416 -0.24741,-0.15624 -0.42969,-0.15625 -0.15626,1e-5 -0.28647,0.0521 -0.39063,0.15625 -0.10417,0.10417 -0.15625,0.23438 -0.15625,0.39063 0,0.15625 0.0521,0.28646 0.15625,0.39062 0.10416,0.10417 0.22135,0.15626 0.35157,0.15625 z"
     style="font-style:normal;font-variant:normal;font-weight:normal;font-stretch:normal;font-family:MS UI Gothic;-inkscape-font-specification:MS UI Gothic"
     id="path3121"
     inkscape:connector-curvature="0" /><path
     d="m 518.56448,196.67041 0,0.85938 -6.79687,0 0,-0.85938 z"
     style="font-style:normal;font-variant:normal;font-weight:normal;font-stretch:normal;font-family:MS UI Gothic;-inkscape-font-specification:MS UI Gothic"
     id="path3123"
     inkscape:connector-curvature="0" /><path
     d="m 522.43167,195.88916 c 1.3802,0.46875 2.53906,0.97657 3.47656,1.52344 l -0.50781,0.85937 c -0.28646,-0.20833 -0.72917,-0.45572 -1.32812,-0.74218 -0.59897,-0.28646 -1.14584,-0.52083 -1.64063,-0.70313 l 0,4.60938 -0.78125,0 0,-8.35938 0.78125,0 z"
     style="font-style:normal;font-variant:normal;font-weight:normal;font-stretch:normal;font-family:MS UI Gothic;-inkscape-font-specification:MS UI Gothic"
     id="path3125"
     inkscape:connector-curvature="0" /></g>

	<g
   style="font-size:10px;font-family:Arial-BoldMT"
   id="text130"
   transform="translate(0,-2)"><path
     d="m 556.87396,192.52979 c 0.3125,-0.026 0.58593,0.0651 0.82031,0.27343 0.26041,0.23439 0.39062,0.50782 0.39063,0.82032 -0.026,0.33854 -0.14324,0.61198 -0.35156,0.82031 -0.20834,0.23438 -0.46876,0.33855 -0.78125,0.3125 -0.33855,0 -0.61199,-0.1302 -0.82032,-0.39063 -0.20833,-0.23437 -0.29948,-0.5078 -0.27343,-0.82031 0.026,-0.26041 0.1302,-0.49478 0.3125,-0.70312 0.20832,-0.20833 0.4427,-0.3125 0.70312,-0.3125 z m -1.40625,1.17187 c 0.57291,0.93751 1.05468,2.01823 1.44531,3.24219 0.44271,1.35417 0.72916,2.57812 0.85938,3.67187 l -0.89844,0.39063 c -0.13021,-1.22396 -0.39063,-2.46094 -0.78125,-3.71094 -0.39063,-1.30208 -0.83334,-2.35676 -1.32812,-3.16406 l 0.70312,-0.42969 z m -5.23437,6.75781 c 1.25,-1.66666 1.875,-3.91926 1.875,-6.75781 l 0.85937,0.15625 c 0,2.91667 -0.66406,5.36459 -1.99219,7.34375 l -0.74218,-0.74219 z m 6.67968,-6.28906 c 0.20833,1e-5 0.36458,-0.0521 0.46875,-0.15625 0.13021,-0.10416 0.18229,-0.23437 0.15625,-0.39062 0,-0.15625 -0.0521,-0.28646 -0.15625,-0.39063 -0.10417,-0.10416 -0.2474,-0.15624 -0.42968,-0.15625 -0.15626,1e-5 -0.28647,0.0521 -0.39063,0.15625 -0.10417,0.10417 -0.15625,0.23438 -0.15625,0.39063 0,0.15625 0.0521,0.28646 0.15625,0.39062 0.10416,0.10417 0.22135,0.15626 0.35156,0.15625 z"
     style="font-style:normal;font-variant:normal;font-weight:normal;font-stretch:normal;font-family:MS UI Gothic;-inkscape-font-specification:MS UI Gothic"
     id="path3114"
     inkscape:connector-curvature="0" /><path
     d="m 565.62396,196.67041 0,0.85938 -6.79687,0 0,-0.85938 z"
     style="font-style:normal;font-variant:normal;font-weight:normal;font-stretch:normal;font-family:MS UI Gothic;-inkscape-font-specification:MS UI Gothic"
     id="path3116"
     inkscape:connector-curvature="0" /><path
     d="m 569.49115,195.88916 c 1.3802,0.46875 2.53906,0.97657 3.47656,1.52344 l -0.50781,0.85937 c -0.28646,-0.20833 -0.72917,-0.45572 -1.32813,-0.74218 -0.59896,-0.28646 -1.14583,-0.52083 -1.64062,-0.70313 l 0,4.60938 -0.78125,0 0,-8.35938 0.78125,0 z"
     style="font-style:normal;font-variant:normal;font-weight:normal;font-stretch:normal;font-family:MS UI Gothic;-inkscape-font-specification:MS UI Gothic"
     id="path3118"
     inkscape:connector-curvature="0" /></g>

	<g
   style="font-size:10px;font-family:Arial-BoldMT"
   id="text132"
   transform="translate(0,-2)"><path
     d="m 605.93457,192.52979 c 0.31249,-0.026 0.58593,0.0651 0.82031,0.27343 0.26041,0.23439 0.39062,0.50782 0.39063,0.82032 -0.026,0.33854 -0.14324,0.61198 -0.35156,0.82031 -0.20835,0.23438 -0.46876,0.33855 -0.78125,0.3125 -0.33855,0 -0.61199,-0.1302 -0.82032,-0.39063 -0.20834,-0.23437 -0.29948,-0.5078 -0.27343,-0.82031 0.026,-0.26041 0.1302,-0.49478 0.3125,-0.70312 0.20832,-0.20833 0.4427,-0.3125 0.70312,-0.3125 z m -1.40625,1.17187 c 0.57291,0.93751 1.05468,2.01823 1.44531,3.24219 0.4427,1.35417 0.72916,2.57812 0.85938,3.67187 l -0.89844,0.39063 c -0.13021,-1.22396 -0.39063,-2.46094 -0.78125,-3.71094 -0.39063,-1.30208 -0.83334,-2.35676 -1.32812,-3.16406 l 0.70312,-0.42969 z m -5.23437,6.75781 c 1.24999,-1.66666 1.87499,-3.91926 1.875,-6.75781 l 0.85937,0.15625 c 0,2.91667 -0.66406,5.36459 -1.99219,7.34375 l -0.74218,-0.74219 z m 6.67968,-6.28906 c 0.20833,1e-5 0.36458,-0.0521 0.46875,-0.15625 0.1302,-0.10416 0.18229,-0.23437 0.15625,-0.39062 0,-0.15625 -0.0521,-0.28646 -0.15625,-0.39063 -0.10417,-0.10416 -0.2474,-0.15624 -0.42968,-0.15625 -0.15626,1e-5 -0.28647,0.0521 -0.39063,0.15625 -0.10417,0.10417 -0.15626,0.23438 -0.15625,0.39063 -10e-6,0.15625 0.0521,0.28646 0.15625,0.39062 0.10416,0.10417 0.22135,0.15626 0.35156,0.15625 z"
     style="font-style:normal;font-variant:normal;font-weight:normal;font-stretch:normal;font-family:MS UI Gothic;-inkscape-font-specification:MS UI Gothic"
     id="path3107"
     inkscape:connector-curvature="0" /><path
     d="m 614.68457,196.67041 0,0.85938 -6.79687,0 0,-0.85938 z"
     style="font-style:normal;font-variant:normal;font-weight:normal;font-stretch:normal;font-family:MS UI Gothic;-inkscape-font-specification:MS UI Gothic"
     id="path3109"
     inkscape:connector-curvature="0" /><path
     d="m 618.55176,195.88916 c 1.3802,0.46875 2.53905,0.97657 3.47656,1.52344 l -0.50781,0.85937 c -0.28647,-0.20833 -0.72917,-0.45572 -1.32813,-0.74218 -0.59896,-0.28646 -1.14583,-0.52083 -1.64062,-0.70313 l 0,4.60938 -0.78125,0 0,-8.35938 0.78125,0 z"
     style="font-style:normal;font-variant:normal;font-weight:normal;font-stretch:normal;font-family:MS UI Gothic;-inkscape-font-specification:MS UI Gothic"
     id="path3111"
     inkscape:connector-curvature="0" /></g>

	<g
   style="font-size:10px;font-family:Arial-BoldMT"
   id="text134"
   transform="translate(0,-2)"><path
     d="m 652.96777,192.52979 c 0.3125,-0.026 0.58593,0.0651 0.82032,0.27343 0.2604,0.23439 0.39061,0.50782 0.39062,0.82032 -0.0261,0.33854 -0.14324,0.61198 -0.35156,0.82031 -0.20834,0.23438 -0.46876,0.33855 -0.78125,0.3125 -0.33855,0 -0.61199,-0.1302 -0.82031,-0.39063 -0.20834,-0.23437 -0.29949,-0.5078 -0.27344,-0.82031 0.026,-0.26041 0.1302,-0.49478 0.3125,-0.70312 0.20833,-0.20833 0.4427,-0.3125 0.70312,-0.3125 z m -1.40625,1.17187 c 0.57291,0.93751 1.05468,2.01823 1.44532,3.24219 0.4427,1.35417 0.72915,2.57812 0.85937,3.67187 l -0.89844,0.39063 c -0.13021,-1.22396 -0.39063,-2.46094 -0.78125,-3.71094 -0.39063,-1.30208 -0.83334,-2.35676 -1.32812,-3.16406 l 0.70312,-0.42969 z m -5.23437,6.75781 c 1.25,-1.66666 1.875,-3.91926 1.875,-6.75781 l 0.85937,0.15625 c 0,2.91667 -0.66406,5.36459 -1.99218,7.34375 l -0.74219,-0.74219 z m 6.67969,-6.28906 c 0.20832,1e-5 0.36457,-0.0521 0.46875,-0.15625 0.1302,-0.10416 0.18228,-0.23437 0.15625,-0.39062 -10e-6,-0.15625 -0.0521,-0.28646 -0.15625,-0.39063 -0.10418,-0.10416 -0.24741,-0.15624 -0.42969,-0.15625 -0.15626,1e-5 -0.28647,0.0521 -0.39063,0.15625 -0.10417,0.10417 -0.15625,0.23438 -0.15625,0.39063 0,0.15625 0.0521,0.28646 0.15625,0.39062 0.10416,0.10417 0.22135,0.15626 0.35157,0.15625 z"
     style="font-style:normal;font-variant:normal;font-weight:normal;font-stretch:normal;font-family:MS UI Gothic;-inkscape-font-specification:MS UI Gothic"
     id="path3100"
     inkscape:connector-curvature="0" /><path
     d="m 661.71777,196.67041 0,0.85938 -6.79687,0 0,-0.85938 z"
     style="font-style:normal;font-variant:normal;font-weight:normal;font-stretch:normal;font-family:MS UI Gothic;-inkscape-font-specification:MS UI Gothic"
     id="path3102"
     inkscape:connector-curvature="0" /><path
     d="m 665.58496,195.88916 c 1.3802,0.46875 2.53906,0.97657 3.47656,1.52344 l -0.50781,0.85937 c -0.28646,-0.20833 -0.72917,-0.45572 -1.32812,-0.74218 -0.59897,-0.28646 -1.14584,-0.52083 -1.64063,-0.70313 l 0,4.60938 -0.78125,0 0,-8.35938 0.78125,0 z"
     style="font-style:normal;font-variant:normal;font-weight:normal;font-stretch:normal;font-family:MS UI Gothic;-inkscape-font-specification:MS UI Gothic"
     id="path3104"
     inkscape:connector-curvature="0" /></g>

	<g
   transform="translate(318.98,167.9087)"
   style="font-size:10px;font-family:Arial-BoldMT"
   id="text136"><path
     d="m 7.8515625,-8.125 0,1.5234375 -0.6640625,0 0,-1.5234375 z m -1.0546875,0 0,1.5234375 -0.6640625,0 0,-1.5234375 z m -5.2734375,0.8203125 4.296875,0 0,0.7421875 -4.296875,0 z m -0.9375,2.6171875 6.7578125,0 0,0.859375 -2.7734375,0 0,1.2890625 C 4.5703079,-0.95051988 3.8541628,0.1302082 2.421875,0.703125 L 1.9140625,-0.0390625 c 0.7031224,-0.20833309 1.1979136,-0.53385359 1.484375,-0.9765625 0.260413,-0.3906236 0.3906212,-0.8984356 0.390625,-1.5234375 l 0,-1.2890625 -3.203125,0 z"
     style="font-style:normal;font-variant:normal;font-weight:normal;font-stretch:normal;font-family:MS UI Gothic;-inkscape-font-specification:MS UI Gothic"
     id="path3091" /><path
     d="m 10.703125,-4.0234375 c 0.781247,-0.6770786 1.367184,-1.3802029 1.757813,-2.109375 l 0.703125,0.390625 c -0.338547,0.5468802 -0.820317,1.1197963 -1.445313,1.71875 l 0,4.6484375 -0.664062,0 0,-3.984375 C 10.299477,-2.682289 9.5312486,-2.1614562 8.75,-1.796875 l -0.390625,-0.625 c 0.8593739,-0.4427055 1.6406232,-0.9765591 2.34375,-1.6015625 z"
     style="font-style:normal;font-variant:normal;font-weight:normal;font-stretch:normal;font-family:MS UI Gothic;-inkscape-font-specification:MS UI Gothic"
     id="path3093" /><path
     d="m 19.726562,-6.2109375 c -5e-6,1.0937551 -0.299484,2.1484416 -0.898437,3.1640625 0.885411,0.8333355 1.718743,1.744793 2.5,2.734375 l -0.625,0.7421875 c -0.911464,-1.3281241 -1.679693,-2.2656232 -2.304688,-2.8125 -0.963545,1.3802093 -2.174481,2.39583332 -3.632812,3.046875 l -0.46875,-0.78125 c 1.328123,-0.54687434 2.434893,-1.4322901 3.320312,-2.65625 0.833329,-1.1197878 1.249995,-2.2135367 1.25,-3.28125 l -3.945312,0 0,-0.859375 4.804687,0 0,0.703125 z"
     style="font-style:normal;font-variant:normal;font-weight:normal;font-stretch:normal;font-family:MS UI Gothic;-inkscape-font-specification:MS UI Gothic"
     id="path3095" /><path
     d="m 27.773437,-6.5625 0,1.2890625 c -6e-6,1.4843788 -0.39063,2.7473984 -1.171875,3.7890625 -0.677087,0.96354219 -1.653649,1.6796873 -2.929687,2.1484375 l -0.625,-0.7421875 c 1.328122,-0.46874945 2.317704,-1.1197905 2.96875,-1.953125 0.651036,-0.8593721 0.976557,-1.9401002 0.976562,-3.2421875 l 0,-0.546875 -3.046875,0 c -0.208335,1.2500046 -0.677085,2.2395869 -1.40625,2.96875 l -0.625,-0.625 c 0.546875,-0.5208293 0.911457,-1.1328079 1.09375,-1.8359375 0.156249,-0.5989524 0.221353,-1.3932225 0.195313,-2.3828125 l 0.859375,0 c -3e-6,0.4166739 -0.01302,0.7942777 -0.03906,1.1328125 z"
     style="font-style:normal;font-variant:normal;font-weight:normal;font-stretch:normal;font-family:MS UI Gothic;-inkscape-font-specification:MS UI Gothic"
     id="path3097" /></g>

	<g
   style="font-size:10px;font-family:Arial-BoldMT"
   id="text138"
   transform="translate(0,-2)"><path
     d="m 279.74759,192.52979 c 0.31249,-0.026 0.58593,0.0651 0.82031,0.27343 0.26041,0.23439 0.39062,0.50782 0.39063,0.82032 -0.026,0.33854 -0.14324,0.61198 -0.35157,0.82031 -0.20834,0.23438 -0.46875,0.33855 -0.78125,0.3125 -0.33854,0 -0.61198,-0.1302 -0.82031,-0.39063 -0.20834,-0.23437 -0.29948,-0.5078 -0.27344,-0.82031 0.026,-0.26041 0.13021,-0.49478 0.3125,-0.70312 0.20833,-0.20833 0.44271,-0.3125 0.70313,-0.3125 z m -1.40625,1.17187 c 0.57291,0.93751 1.05468,2.01823 1.44531,3.24219 0.4427,1.35417 0.72916,2.57812 0.85938,3.67187 l -0.89844,0.39063 c -0.13022,-1.22396 -0.39063,-2.46094 -0.78125,-3.71094 -0.39063,-1.30208 -0.83334,-2.35676 -1.32813,-3.16406 l 0.70313,-0.42969 z m -5.23438,6.75781 c 1.25,-1.66666 1.875,-3.91926 1.875,-6.75781 l 0.85938,0.15625 c 0,2.91667 -0.66407,5.36459 -1.99219,7.34375 l -0.74219,-0.74219 z m 6.67969,-6.28906 c 0.20833,1e-5 0.36458,-0.0521 0.46875,-0.15625 0.1302,-0.10416 0.18229,-0.23437 0.15625,-0.39062 -1e-5,-0.15625 -0.0521,-0.28646 -0.15625,-0.39063 -0.10417,-0.10416 -0.2474,-0.15624 -0.42969,-0.15625 -0.15625,1e-5 -0.28646,0.0521 -0.39062,0.15625 -0.10417,0.10417 -0.15626,0.23438 -0.15625,0.39063 -10e-6,0.15625 0.0521,0.28646 0.15625,0.39062 0.10416,0.10417 0.22135,0.15626 0.35156,0.15625 z"
     style="font-style:normal;font-variant:normal;font-weight:normal;font-stretch:normal;font-family:MS UI Gothic;-inkscape-font-specification:MS UI Gothic"
     id="path3149"
     inkscape:connector-curvature="0" /><path
     d="m 288.49759,196.67041 0,0.85938 -6.79688,0 0,-0.85938 z"
     style="font-style:normal;font-variant:normal;font-weight:normal;font-stretch:normal;font-family:MS UI Gothic;-inkscape-font-specification:MS UI Gothic"
     id="path3151"
     inkscape:connector-curvature="0" /><path
     d="m 292.36478,195.88916 c 1.3802,0.46875 2.53905,0.97657 3.47656,1.52344 l -0.50781,0.85937 c -0.28647,-0.20833 -0.72918,-0.45572 -1.32813,-0.74218 -0.59896,-0.28646 -1.14584,-0.52083 -1.64062,-0.70313 l 0,4.60938 -0.78125,0 0,-8.35938 0.78125,0 z"
     style="font-style:normal;font-variant:normal;font-weight:normal;font-stretch:normal;font-family:MS UI Gothic;-inkscape-font-specification:MS UI Gothic"
     id="path3153"
     inkscape:connector-curvature="0" /></g>

	<g
   style="font-size:10px;font-family:Arial-BoldMT"
   id="text140"
   transform="translate(0,-2)"><path
     d="m 326.8071,192.52979 c 0.31249,-0.026 0.58593,0.0651 0.82031,0.27343 0.26041,0.23439 0.39062,0.50782 0.39063,0.82032 -0.026,0.33854 -0.14324,0.61198 -0.35157,0.82031 -0.20834,0.23438 -0.46875,0.33855 -0.78125,0.3125 -0.33855,0 -0.61198,-0.1302 -0.82031,-0.39063 -0.20834,-0.23437 -0.29948,-0.5078 -0.27344,-0.82031 0.026,-0.26041 0.13021,-0.49478 0.3125,-0.70312 0.20833,-0.20833 0.4427,-0.3125 0.70313,-0.3125 z m -1.40625,1.17187 c 0.57291,0.93751 1.05468,2.01823 1.44531,3.24219 0.4427,1.35417 0.72916,2.57812 0.85938,3.67187 l -0.89844,0.39063 c -0.13022,-1.22396 -0.39063,-2.46094 -0.78125,-3.71094 -0.39063,-1.30208 -0.83334,-2.35676 -1.32813,-3.16406 l 0.70313,-0.42969 z m -5.23438,6.75781 c 1.25,-1.66666 1.875,-3.91926 1.875,-6.75781 l 0.85938,0.15625 c 0,2.91667 -0.66407,5.36459 -1.99219,7.34375 l -0.74219,-0.74219 z m 6.67969,-6.28906 c 0.20833,1e-5 0.36458,-0.0521 0.46875,-0.15625 0.1302,-0.10416 0.18228,-0.23437 0.15625,-0.39062 -10e-6,-0.15625 -0.0521,-0.28646 -0.15625,-0.39063 -0.10417,-0.10416 -0.2474,-0.15624 -0.42969,-0.15625 -0.15625,1e-5 -0.28646,0.0521 -0.39062,0.15625 -0.10417,0.10417 -0.15626,0.23438 -0.15625,0.39063 -10e-6,0.15625 0.0521,0.28646 0.15625,0.39062 0.10416,0.10417 0.22135,0.15626 0.35156,0.15625 z"
     style="font-style:normal;font-variant:normal;font-weight:normal;font-stretch:normal;font-family:MS UI Gothic;-inkscape-font-specification:MS UI Gothic"
     id="path3142"
     inkscape:connector-curvature="0" /><path
     d="m 335.5571,196.67041 0,0.85938 -6.79688,0 0,-0.85938 z"
     style="font-style:normal;font-variant:normal;font-weight:normal;font-stretch:normal;font-family:MS UI Gothic;-inkscape-font-specification:MS UI Gothic"
     id="path3144"
     inkscape:connector-curvature="0" /><path
     d="m 339.42429,195.88916 c 1.3802,0.46875 2.53905,0.97657 3.47656,1.52344 l -0.50781,0.85937 c -0.28647,-0.20833 -0.72918,-0.45572 -1.32813,-0.74218 -0.59896,-0.28646 -1.14584,-0.52083 -1.64062,-0.70313 l 0,4.60938 -0.78125,0 0,-8.35938 0.78125,0 z"
     style="font-style:normal;font-variant:normal;font-weight:normal;font-stretch:normal;font-family:MS UI Gothic;-inkscape-font-specification:MS UI Gothic"
     id="path3146"
     inkscape:connector-curvature="0" /></g>

	<g
   style="font-size:10px;font-family:Arial-BoldMT"
   id="text142"
   transform="translate(0,-2)"><path
     d="m 373.8667,192.52979 c 0.31249,-0.026 0.58593,0.0651 0.82031,0.27343 0.26041,0.23439 0.39062,0.50782 0.39063,0.82032 -0.026,0.33854 -0.14324,0.61198 -0.35157,0.82031 -0.20834,0.23438 -0.46875,0.33855 -0.78125,0.3125 -0.33854,0 -0.61198,-0.1302 -0.82031,-0.39063 -0.20834,-0.23437 -0.29948,-0.5078 -0.27344,-0.82031 0.026,-0.26041 0.13021,-0.49478 0.3125,-0.70312 0.20833,-0.20833 0.44271,-0.3125 0.70313,-0.3125 z m -1.40625,1.17187 c 0.57291,0.93751 1.05468,2.01823 1.44531,3.24219 0.4427,1.35417 0.72916,2.57812 0.85938,3.67187 l -0.89844,0.39063 c -0.13022,-1.22396 -0.39063,-2.46094 -0.78125,-3.71094 -0.39063,-1.30208 -0.83334,-2.35676 -1.32813,-3.16406 l 0.70313,-0.42969 z m -5.23438,6.75781 c 1.25,-1.66666 1.875,-3.91926 1.875,-6.75781 l 0.85938,0.15625 c 0,2.91667 -0.66407,5.36459 -1.99219,7.34375 l -0.74219,-0.74219 z m 6.67969,-6.28906 c 0.20833,1e-5 0.36458,-0.0521 0.46875,-0.15625 0.1302,-0.10416 0.18229,-0.23437 0.15625,-0.39062 -10e-6,-0.15625 -0.0521,-0.28646 -0.15625,-0.39063 -0.10417,-0.10416 -0.2474,-0.15624 -0.42969,-0.15625 -0.15625,1e-5 -0.28646,0.0521 -0.39062,0.15625 -0.10417,0.10417 -0.15626,0.23438 -0.15625,0.39063 -10e-6,0.15625 0.0521,0.28646 0.15625,0.39062 0.10416,0.10417 0.22135,0.15626 0.35156,0.15625 z"
     style="font-style:normal;font-variant:normal;font-weight:normal;font-stretch:normal;font-family:MS UI Gothic;-inkscape-font-specification:MS UI Gothic"
     id="path3135"
     inkscape:connector-curvature="0" /><path
     d="m 382.6167,196.67041 0,0.85938 -6.79688,0 0,-0.85938 z"
     style="font-style:normal;font-variant:normal;font-weight:normal;font-stretch:normal;font-family:MS UI Gothic;-inkscape-font-specification:MS UI Gothic"
     id="path3137"
     inkscape:connector-curvature="0" /><path
     d="m 386.48389,195.88916 c 1.3802,0.46875 2.53905,0.97657 3.47656,1.52344 l -0.50781,0.85937 c -0.28647,-0.20833 -0.72918,-0.45572 -1.32813,-0.74218 -0.59896,-0.28646 -1.14584,-0.52083 -1.64062,-0.70313 l 0,4.60938 -0.78125,0 0,-8.35938 0.78125,0 z"
     style="font-style:normal;font-variant:normal;font-weight:normal;font-stretch:normal;font-family:MS UI Gothic;-inkscape-font-specification:MS UI Gothic"
     id="path3139"
     inkscape:connector-curvature="0" /></g>

	<g
   transform="matrix(1 0 0 1 278.2788 323.1787)"
   style="font-size:10px;font-family:Arial-BoldMT"
   id="text144"><path
     d="m 0.7421875,0 0,-7.1582031 1.4257813,0 1.6943359,5.0683593 c 0.156246,0.4720069 0.2701781,0.8251966 0.3417969,1.0595704 0.081376,-0.2604154 0.2083289,-0.642902 0.3808593,-1.147461 l 1.7138672,-4.9804687 1.2744141,0 0,7.1582031 -0.913086,0 0,-5.9912109 L 4.5800781,0 3.7255859,0 1.6552734,-6.09375 l 0,6.09375 z"
     style="font-size:10px;font-family:Arial-BoldMT"
     id="path3250" /><path
     d="m 9.1113281,0 0,-7.1582031 2.7001949,0 c 0.475257,7.1e-6 0.838212,0.022794 1.088868,0.068359 0.351557,0.058601 0.646153,0.1700915 0.883789,0.3344726 0.237624,0.1643946 0.428868,0.3947004 0.57373,0.690918 0.144851,0.2962297 0.217279,0.6217502 0.217285,0.9765625 -6e-6,0.6087284 -0.193691,1.1238646 -0.581054,1.5454101 -0.387375,0.4215526 -1.087245,0.6323272 -2.09961,0.6323242 l -1.835937,0 0,2.9101563 z m 0.9472659,-3.7548828 1.850586,0 c 0.611975,3.7e-6 1.046545,-0.1139284 1.303711,-0.3417969 0.257156,-0.2278602 0.385737,-0.5484979 0.385742,-0.961914 -5e-6,-0.2994739 -0.07569,-0.5558213 -0.227051,-0.769043 C 13.22021,-6.0408468 13.020829,-6.1816344 12.773438,-6.25 c -0.15951,-0.042311 -0.454106,-0.06347 -0.88379,-0.063477 l -1.831054,0 z"
     style="font-size:10px;font-family:Arial-BoldMT"
     id="path3252" /></g>

	<g
   transform="matrix(1 0 0 1 325.3374 323.1787)"
   style="font-size:10px;font-family:Arial-BoldMT"
   id="text146"><path
     d="m 0.7421875,0 0,-7.1582031 1.4257813,0 1.6943359,5.0683593 c 0.156246,0.4720069 0.2701781,0.8251966 0.3417969,1.0595704 0.081376,-0.2604154 0.2083289,-0.642902 0.3808593,-1.147461 l 1.7138672,-4.9804687 1.2744141,0 0,7.1582031 -0.913086,0 0,-5.9912109 L 4.5800781,0 3.7255859,0 1.6552734,-6.09375 l 0,6.09375 z"
     style="font-size:10px;font-family:Arial-BoldMT"
     id="path3245" /><path
     d="m 9.1113281,0 0,-7.1582031 2.7001949,0 c 0.475257,7.1e-6 0.838212,0.022794 1.088868,0.068359 0.351557,0.058601 0.646153,0.1700915 0.883789,0.3344726 0.237624,0.1643946 0.428868,0.3947004 0.57373,0.690918 0.144851,0.2962297 0.217279,0.6217502 0.217285,0.9765625 -6e-6,0.6087284 -0.193691,1.1238646 -0.581054,1.5454101 -0.387375,0.4215526 -1.087245,0.6323272 -2.09961,0.6323242 l -1.835937,0 0,2.9101563 z m 0.9472659,-3.7548828 1.850586,0 c 0.611975,3.7e-6 1.046545,-0.1139284 1.303711,-0.3417969 0.257156,-0.2278602 0.385737,-0.5484979 0.385742,-0.961914 -5e-6,-0.2994739 -0.07569,-0.5558213 -0.227051,-0.769043 C 13.22021,-6.0408468 13.020829,-6.1816344 12.773438,-6.25 c -0.15951,-0.042311 -0.454106,-0.06347 -0.88379,-0.063477 l -1.831054,0 z"
     style="font-size:10px;font-family:Arial-BoldMT"
     id="path3247" /></g>

	<g
   transform="matrix(1 0 0 1 372.3975 323.1787)"
   style="font-size:10px;font-family:Arial-BoldMT"
   id="text148"><path
     d="m 0.7421875,0 0,-7.1582031 1.4257813,0 1.6943359,5.0683593 c 0.156246,0.4720069 0.2701781,0.8251966 0.3417969,1.0595704 0.081376,-0.2604154 0.2083289,-0.642902 0.3808593,-1.147461 l 1.7138672,-4.9804687 1.2744141,0 0,7.1582031 -0.913086,0 0,-5.9912109 L 4.5800781,0 3.7255859,0 1.6552734,-6.09375 l 0,6.09375 z"
     style="font-size:10px;font-family:Arial-BoldMT"
     id="path3240" /><path
     d="m 9.1113281,0 0,-7.1582031 2.7001949,0 c 0.475257,7.1e-6 0.838212,0.022794 1.088868,0.068359 0.351557,0.058601 0.646153,0.1700915 0.883789,0.3344726 0.237624,0.1643946 0.428868,0.3947004 0.57373,0.690918 0.144851,0.2962297 0.217279,0.6217502 0.217285,0.9765625 -6e-6,0.6087284 -0.193691,1.1238646 -0.581054,1.5454101 -0.387375,0.4215526 -1.087245,0.6323272 -2.09961,0.6323242 l -1.835937,0 0,2.9101563 z m 0.9472659,-3.7548828 1.850586,0 c 0.611975,3.7e-6 1.046545,-0.1139284 1.303711,-0.3417969 0.257156,-0.2278602 0.385737,-0.5484979 0.385742,-0.961914 -5e-6,-0.2994739 -0.07569,-0.5558213 -0.227051,-0.769043 C 13.22021,-6.0408468 13.020829,-6.1816344 12.773438,-6.25 c -0.15951,-0.042311 -0.454106,-0.06347 -0.88379,-0.063477 l -1.831054,0 z"
     style="font-size:10px;font-family:Arial-BoldMT"
     id="path3242" /></g>

	<g
   transform="matrix(1 0 0 1 473.4028 323.1787)"
   style="font-size:10px;font-family:Arial-BoldMT"
   id="text150"><path
     d="m 0.7421875,0 0,-7.1582031 1.4257813,0 1.6943359,5.0683593 c 0.156246,0.4720069 0.2701781,0.8251966 0.3417969,1.0595704 0.081376,-0.2604154 0.2083289,-0.642902 0.3808593,-1.147461 l 1.7138672,-4.9804687 1.2744141,0 0,7.1582031 -0.913086,0 0,-5.9912109 L 4.5800781,0 3.7255859,0 1.6552734,-6.09375 l 0,6.09375 z"
     style="font-size:10px;font-family:Arial-BoldMT"
     id="path3235" /><path
     d="m 9.1113281,0 0,-7.1582031 2.7001949,0 c 0.475257,7.1e-6 0.838212,0.022794 1.088868,0.068359 0.351557,0.058601 0.646153,0.1700915 0.883789,0.3344726 0.237624,0.1643946 0.428868,0.3947004 0.57373,0.690918 0.144851,0.2962297 0.217279,0.6217502 0.217285,0.9765625 -6e-6,0.6087284 -0.193691,1.1238646 -0.581054,1.5454101 -0.387375,0.4215526 -1.087245,0.6323272 -2.09961,0.6323242 l -1.835937,0 0,2.9101563 z m 0.9472659,-3.7548828 1.850586,0 c 0.611975,3.7e-6 1.046545,-0.1139284 1.303711,-0.3417969 0.257156,-0.2278602 0.385737,-0.5484979 0.385742,-0.961914 -5e-6,-0.2994739 -0.07569,-0.5558213 -0.227051,-0.769043 C 13.22021,-6.0408468 13.020829,-6.1816344 12.773438,-6.25 c -0.15951,-0.042311 -0.454106,-0.06347 -0.88379,-0.063477 l -1.831054,0 z"
     style="font-size:10px;font-family:Arial-BoldMT"
     id="path3237" /></g>

	<g
   transform="matrix(1 0 0 1 545.4932 323.1787)"
   style="font-size:10px;font-family:Arial-BoldMT"
   id="text152"><path
     d="m 0.7421875,0 0,-7.1582031 1.4257813,0 1.6943359,5.0683593 c 0.156246,0.4720069 0.2701781,0.8251966 0.3417969,1.0595704 0.081376,-0.2604154 0.2083289,-0.642902 0.3808593,-1.147461 l 1.7138672,-4.9804687 1.2744141,0 0,7.1582031 -0.913086,0 0,-5.9912109 L 4.5800781,0 3.7255859,0 1.6552734,-6.09375 l 0,6.09375 z"
     style="font-size:10px;font-family:Arial-BoldMT"
     id="path3230" /><path
     d="m 9.1113281,0 0,-7.1582031 2.7001949,0 c 0.475257,7.1e-6 0.838212,0.022794 1.088868,0.068359 0.351557,0.058601 0.646153,0.1700915 0.883789,0.3344726 0.237624,0.1643946 0.428868,0.3947004 0.57373,0.690918 0.144851,0.2962297 0.217279,0.6217502 0.217285,0.9765625 -6e-6,0.6087284 -0.193691,1.1238646 -0.581054,1.5454101 -0.387375,0.4215526 -1.087245,0.6323272 -2.09961,0.6323242 l -1.835937,0 0,2.9101563 z m 0.9472659,-3.7548828 1.850586,0 c 0.611975,3.7e-6 1.046545,-0.1139284 1.303711,-0.3417969 0.257156,-0.2278602 0.385737,-0.5484979 0.385742,-0.961914 -5e-6,-0.2994739 -0.07569,-0.5558213 -0.227051,-0.769043 C 13.22021,-6.0408468 13.020829,-6.1816344 12.773438,-6.25 c -0.15951,-0.042311 -0.454106,-0.06347 -0.88379,-0.063477 l -1.831054,0 z"
     style="font-size:10px;font-family:Arial-BoldMT"
     id="path3232" /></g>

	<g
   transform="matrix(1 0 0 1 602.4639 323.1787)"
   style="font-size:10px;font-family:Arial-BoldMT"
   id="text154"><path
     d="m 0.7421875,0 0,-7.1582031 1.4257813,0 1.6943359,5.0683593 c 0.156246,0.4720069 0.2701781,0.8251966 0.3417969,1.0595704 0.081376,-0.2604154 0.2083289,-0.642902 0.3808593,-1.147461 l 1.7138672,-4.9804687 1.2744141,0 0,7.1582031 -0.913086,0 0,-5.9912109 L 4.5800781,0 3.7255859,0 1.6552734,-6.09375 l 0,6.09375 z"
     style="font-size:10px;font-family:Arial-BoldMT"
     id="path3225" /><path
     d="m 9.1113281,0 0,-7.1582031 2.7001949,0 c 0.475257,7.1e-6 0.838212,0.022794 1.088868,0.068359 0.351557,0.058601 0.646153,0.1700915 0.883789,0.3344726 0.237624,0.1643946 0.428868,0.3947004 0.57373,0.690918 0.144851,0.2962297 0.217279,0.6217502 0.217285,0.9765625 -6e-6,0.6087284 -0.193691,1.1238646 -0.581054,1.5454101 -0.387375,0.4215526 -1.087245,0.6323272 -2.09961,0.6323242 l -1.835937,0 0,2.9101563 z m 0.9472659,-3.7548828 1.850586,0 c 0.611975,3.7e-6 1.046545,-0.1139284 1.303711,-0.3417969 0.257156,-0.2278602 0.385737,-0.5484979 0.385742,-0.961914 -5e-6,-0.2994739 -0.07569,-0.5558213 -0.227051,-0.769043 C 13.22021,-6.0408468 13.020829,-6.1816344 12.773438,-6.25 c -0.15951,-0.042311 -0.454106,-0.06347 -0.88379,-0.063477 l -1.831054,0 z"
     style="font-size:10px;font-family:Arial-BoldMT"
     id="path3227" /></g>

	<g
   transform="matrix(1 0 0 1 649.999 323.1787)"
   style="font-size:10px;font-family:Arial-BoldMT"
   id="text156"><path
     d="m 0.7421875,0 0,-7.1582031 1.4257813,0 1.6943359,5.0683593 c 0.156246,0.4720069 0.2701781,0.8251966 0.3417969,1.0595704 0.081376,-0.2604154 0.2083289,-0.642902 0.3808593,-1.147461 l 1.7138672,-4.9804687 1.2744141,0 0,7.1582031 -0.913086,0 0,-5.9912109 L 4.5800781,0 3.7255859,0 1.6552734,-6.09375 l 0,6.09375 z"
     style="font-size:10px;font-family:Arial-BoldMT"
     id="path3220" /><path
     d="m 9.1113281,0 0,-7.1582031 2.7001949,0 c 0.475257,7.1e-6 0.838212,0.022794 1.088868,0.068359 0.351557,0.058601 0.646153,0.1700915 0.883789,0.3344726 0.237624,0.1643946 0.428868,0.3947004 0.57373,0.690918 0.144851,0.2962297 0.217279,0.6217502 0.217285,0.9765625 -6e-6,0.6087284 -0.193691,1.1238646 -0.581054,1.5454101 -0.387375,0.4215526 -1.087245,0.6323272 -2.09961,0.6323242 l -1.835937,0 0,2.9101563 z m 0.9472659,-3.7548828 1.850586,0 c 0.611975,3.7e-6 1.046545,-0.1139284 1.303711,-0.3417969 0.257156,-0.2278602 0.385737,-0.5484979 0.385742,-0.961914 -5e-6,-0.2994739 -0.07569,-0.5558213 -0.227051,-0.769043 C 13.22021,-6.0408468 13.020829,-6.1816344 12.773438,-6.25 c -0.15951,-0.042311 -0.454106,-0.06347 -0.88379,-0.063477 l -1.831054,0 z"
     style="font-size:10px;font-family:Arial-BoldMT"
     id="path3222" /></g>

	<g
   transform="translate(475.4468,167.9087)"
   style="font-size:10px;font-family:Arial-BoldMT"
   id="text158"><path
     d="m 7.8515625,-8.125 0,1.5234375 -0.6640625,0 0,-1.5234375 z m -1.0546875,0 0,1.5234375 -0.6640625,0 0,-1.5234375 z m -5.2734375,0.8203125 4.296875,0 0,0.7421875 -4.296875,0 z m -0.9375,2.6171875 6.7578125,0 0,0.859375 -2.7734375,0 0,1.2890625 C 4.5703079,-0.95051988 3.8541628,0.1302082 2.421875,0.703125 L 1.9140625,-0.0390625 c 0.7031224,-0.20833309 1.1979136,-0.53385359 1.484375,-0.9765625 0.260413,-0.3906236 0.3906212,-0.8984356 0.390625,-1.5234375 l 0,-1.2890625 -3.203125,0 z"
     style="font-style:normal;font-variant:normal;font-weight:normal;font-stretch:normal;font-family:MS UI Gothic;-inkscape-font-specification:MS UI Gothic"
     id="path3167"
     inkscape:connector-curvature="0" /><path
     d="m 10.703125,-4.0234375 c 0.781247,-0.6770786 1.367184,-1.3802029 1.757813,-2.109375 l 0.703125,0.390625 c -0.338547,0.5468802 -0.820317,1.1197963 -1.445313,1.71875 l 0,4.6484375 -0.664062,0 0,-3.984375 C 10.299477,-2.682289 9.5312486,-2.1614562 8.75,-1.796875 l -0.390625,-0.625 c 0.8593739,-0.4427055 1.6406232,-0.9765591 2.34375,-1.6015625 z"
     style="font-style:normal;font-variant:normal;font-weight:normal;font-stretch:normal;font-family:MS UI Gothic;-inkscape-font-specification:MS UI Gothic"
     id="path3169"
     inkscape:connector-curvature="0" /><path
     d="m 19.726562,-6.2109375 c -5e-6,1.0937551 -0.299484,2.1484416 -0.898437,3.1640625 0.885411,0.8333355 1.718743,1.744793 2.5,2.734375 l -0.625,0.7421875 c -0.911464,-1.3281241 -1.679693,-2.2656232 -2.304688,-2.8125 -0.963545,1.3802093 -2.174481,2.39583332 -3.632812,3.046875 l -0.46875,-0.78125 c 1.328123,-0.54687434 2.434893,-1.4322901 3.320312,-2.65625 0.833329,-1.1197878 1.249995,-2.2135367 1.25,-3.28125 l -3.945312,0 0,-0.859375 4.804687,0 0,0.703125 z"
     style="font-style:normal;font-variant:normal;font-weight:normal;font-stretch:normal;font-family:MS UI Gothic;-inkscape-font-specification:MS UI Gothic"
     id="path3171"
     inkscape:connector-curvature="0" /><path
     d="m 27.773437,-6.5625 0,1.2890625 c -6e-6,1.4843788 -0.39063,2.7473984 -1.171875,3.7890625 -0.677087,0.96354219 -1.653649,1.6796873 -2.929687,2.1484375 l -0.625,-0.7421875 c 1.328122,-0.46874945 2.317704,-1.1197905 2.96875,-1.953125 0.651036,-0.8593721 0.976557,-1.9401002 0.976562,-3.2421875 l 0,-0.546875 -3.046875,0 c -0.208335,1.2500046 -0.677085,2.2395869 -1.40625,2.96875 l -0.625,-0.625 c 0.546875,-0.5208293 0.911457,-1.1328079 1.09375,-1.8359375 0.156249,-0.5989524 0.221353,-1.3932225 0.195313,-2.3828125 l 0.859375,0 c -3e-6,0.4166739 -0.01302,0.7942777 -0.03906,1.1328125 z"
     style="font-style:normal;font-variant:normal;font-weight:normal;font-stretch:normal;font-family:MS UI Gothic;-inkscape-font-specification:MS UI Gothic"
     id="path3173"
     inkscape:connector-curvature="0" /><path
     d="m 30.664062,-6.1328125 c 0.234373,-0.2343686 0.364581,-0.494785 0.390625,-0.78125 l 0.46875,0 0,6.7578125 -0.898437,0 0,-5.1953125 -1.171875,0 0,-0.46875 0.351562,0 c 0.364582,5.8e-6 0.65104,-0.1041607 0.859375,-0.3125 z"
     style="font-style:normal;font-variant:normal;font-weight:normal;font-stretch:normal;font-family:MS UI Gothic;-inkscape-font-specification:MS UI Gothic"
     id="path3175"
     inkscape:connector-curvature="0" /></g>

	<g
   transform="translate(591.5713,167.9087)"
   style="font-size:10px;font-family:Arial-BoldMT"
   id="text160"><path
     d="m 7.8515625,-8.125 0,1.5234375 -0.6640625,0 0,-1.5234375 z m -1.0546875,0 0,1.5234375 -0.6640625,0 0,-1.5234375 z m -5.2734375,0.8203125 4.296875,0 0,0.7421875 -4.296875,0 z m -0.9375,2.6171875 6.7578125,0 0,0.859375 -2.7734375,0 0,1.2890625 C 4.5703079,-0.95051988 3.8541628,0.1302082 2.421875,0.703125 L 1.9140625,-0.0390625 c 0.7031224,-0.20833309 1.1979136,-0.53385359 1.484375,-0.9765625 0.260413,-0.3906236 0.3906212,-0.8984356 0.390625,-1.5234375 l 0,-1.2890625 -3.203125,0 z"
     style="font-style:normal;font-variant:normal;font-weight:normal;font-stretch:normal;font-family:MS UI Gothic;-inkscape-font-specification:MS UI Gothic"
     id="path3156"
     inkscape:connector-curvature="0" /><path
     d="m 10.703125,-4.0234375 c 0.781247,-0.6770786 1.367184,-1.3802029 1.757813,-2.109375 l 0.703125,0.390625 c -0.338547,0.5468802 -0.820317,1.1197963 -1.445313,1.71875 l 0,4.6484375 -0.664062,0 0,-3.984375 C 10.299477,-2.682289 9.5312486,-2.1614562 8.75,-1.796875 l -0.390625,-0.625 c 0.8593739,-0.4427055 1.6406232,-0.9765591 2.34375,-1.6015625 z"
     style="font-style:normal;font-variant:normal;font-weight:normal;font-stretch:normal;font-family:MS UI Gothic;-inkscape-font-specification:MS UI Gothic"
     id="path3158"
     inkscape:connector-curvature="0" /><path
     d="m 19.726562,-6.2109375 c -5e-6,1.0937551 -0.299484,2.1484416 -0.898437,3.1640625 0.885411,0.8333355 1.718743,1.744793 2.5,2.734375 l -0.625,0.7421875 c -0.911464,-1.3281241 -1.679693,-2.2656232 -2.304688,-2.8125 -0.963545,1.3802093 -2.174481,2.39583332 -3.632812,3.046875 l -0.46875,-0.78125 c 1.328123,-0.54687434 2.434893,-1.4322901 3.320312,-2.65625 0.833329,-1.1197878 1.249995,-2.2135367 1.25,-3.28125 l -3.945312,0 0,-0.859375 4.804687,0 0,0.703125 z"
     style="font-style:normal;font-variant:normal;font-weight:normal;font-stretch:normal;font-family:MS UI Gothic;-inkscape-font-specification:MS UI Gothic"
     id="path3160"
     inkscape:connector-curvature="0" /><path
     d="m 27.773437,-6.5625 0,1.2890625 c -6e-6,1.4843788 -0.39063,2.7473984 -1.171875,3.7890625 -0.677087,0.96354219 -1.653649,1.6796873 -2.929687,2.1484375 l -0.625,-0.7421875 c 1.328122,-0.46874945 2.317704,-1.1197905 2.96875,-1.953125 0.651036,-0.8593721 0.976557,-1.9401002 0.976562,-3.2421875 l 0,-0.546875 -3.046875,0 c -0.208335,1.2500046 -0.677085,2.2395869 -1.40625,2.96875 l -0.625,-0.625 c 0.546875,-0.5208293 0.911457,-1.1328079 1.09375,-1.8359375 0.156249,-0.5989524 0.221353,-1.3932225 0.195313,-2.3828125 l 0.859375,0 c -3e-6,0.4166739 -0.01302,0.7942777 -0.03906,1.1328125 z"
     style="font-style:normal;font-variant:normal;font-weight:normal;font-stretch:normal;font-family:MS UI Gothic;-inkscape-font-specification:MS UI Gothic"
     id="path3162"
     inkscape:connector-curvature="0" /><path
     d="m 29.0625,-4.53125 c -1e-6,-0.8072863 0.208332,-1.4192649 0.625,-1.8359375 0.33854,-0.338535 0.742185,-0.5078056 1.210937,-0.5078125 0.572914,6.9e-6 1.028643,0.1692775 1.367188,0.5078125 0.338537,0.3385477 0.507808,0.7552139 0.507812,1.25 -4e-6,0.6250045 -0.195316,1.1718789 -0.585937,1.640625 -0.364587,0.4427114 -0.742191,0.8723984 -1.132813,1.2890625 -0.208335,0.234377 -0.416668,0.4687517 -0.625,0.703125 -0.182293,0.2083346 -0.338543,0.4166677 -0.46875,0.625 l 2.929688,0 0,0.7421875 -3.984375,0 0,-0.6640625 c 0.05208,-0.2604156 0.273437,-0.6249986 0.664062,-1.09375 0.65104,-0.7031224 1.184894,-1.2890593 1.601563,-1.7578125 0.442705,-0.4687459 0.664059,-0.9635371 0.664062,-1.484375 -3e-6,-0.3124946 -0.10417,-0.572911 -0.3125,-0.78125 -0.156252,-0.1562439 -0.351565,-0.2343689 -0.585937,-0.234375 -0.208336,6.1e-6 -0.390627,0.078131 -0.546875,0.234375 -0.28646,0.2864639 -0.429689,0.7421927 -0.429688,1.3671875 z"
     style="font-style:normal;font-variant:normal;font-weight:normal;font-stretch:normal;font-family:MS UI Gothic;-inkscape-font-specification:MS UI Gothic"
     id="path3164"
     inkscape:connector-curvature="0" /></g>

	<g
   transform="matrix(1 0 0 1 503.2451 233.792)"
   style="font-size:10px;font-family:Arial-BoldMT"
   id="text162"><path
     d="m 0.15625,-6.8359375 0.9375,0 2.0703125,5.4296875 2.0703125,-5.4296875 0.9375,0 -2.65625,6.7578125 -0.703125,0 z"
     style="font-style:normal;font-variant:normal;font-weight:normal;font-stretch:normal;font-family:MS UI Gothic;-inkscape-font-specification:MS UI Gothic"
     id="path3213" /><path
     d="m 6.953125,-3.4375 c -6e-7,-1.1458287 0.2994782,-2.0182237 0.8984375,-2.6171875 C 8.3984354,-6.6015559 9.0624973,-6.8749931 9.84375,-6.875 c 0.781246,6.9e-6 1.419266,0.2474025 1.914063,0.7421875 0.41666,0.4166724 0.638014,0.9244844 0.664062,1.5234375 l -0.9375,0 c -0.02605,-0.4427033 -0.182297,-0.8072862 -0.46875,-1.09375 -0.286463,-0.2864523 -0.677087,-0.4296814 -1.171875,-0.4296875 -0.4947947,6.1e-6 -0.9114609,0.1692768 -1.25,0.5078125 -0.4687518,0.4687552 -0.7031266,1.1979211 -0.703125,2.1875 -1.6e-6,0.9375025 0.247394,1.6536476 0.7421875,2.1484375 0.338539,0.33854262 0.8072886,0.50781328 1.4062505,0.5078125 0.442704,7.8e-7 0.807287,-0.14322824 1.09375,-0.4296875 0.286453,-0.2864568 0.455723,-0.5859357 0.507812,-0.8984375 l 0,-0.625 -1.132812,0 0,-0.7421875 2.03125,0 0,3.4375 -0.664063,0 -0.234375,-0.6640625 c -0.442713,0.44270859 -1.002608,0.66406254 -1.6796875,0.6640625 -0.8333361,4e-8 -1.5104188,-0.26041637 -2.03125,-0.78125 C 7.2786449,-1.4713527 6.9531244,-2.3437477 6.953125,-3.4375 z"
     style="font-style:normal;font-variant:normal;font-weight:normal;font-stretch:normal;font-family:MS UI Gothic;-inkscape-font-specification:MS UI Gothic"
     id="path3215" /><path
     d="m 18.4375,-6.1328125 c 0.234372,-0.2343686 0.364581,-0.494785 0.390625,-0.78125 l 0.46875,0 0,6.7578125 -0.898438,0 0,-5.1953125 -1.171875,0 0,-0.46875 0.351563,0 c 0.364582,5.8e-6 0.65104,-0.1041607 0.859375,-0.3125 z"
     style="font-style:normal;font-variant:normal;font-weight:normal;font-stretch:normal;font-family:MS UI Gothic;-inkscape-font-specification:MS UI Gothic"
     id="path3217" /></g>

	<g
   transform="matrix(1 0 0 1 620.8936 233.792)"
   style="font-size:10px;font-family:Arial-BoldMT"
   id="text164"><path
     d="m 0.15625,-6.8359375 0.9375,0 2.0703125,5.4296875 2.0703125,-5.4296875 0.9375,0 -2.65625,6.7578125 -0.703125,0 z"
     style="font-style:normal;font-variant:normal;font-weight:normal;font-stretch:normal;font-family:MS UI Gothic;-inkscape-font-specification:MS UI Gothic"
     id="path3206" /><path
     d="m 6.953125,-3.4375 c -6e-7,-1.1458287 0.2994782,-2.0182237 0.8984375,-2.6171875 C 8.3984354,-6.6015559 9.0624973,-6.8749931 9.84375,-6.875 c 0.781246,6.9e-6 1.419266,0.2474025 1.914063,0.7421875 0.41666,0.4166724 0.638014,0.9244844 0.664062,1.5234375 l -0.9375,0 c -0.02605,-0.4427033 -0.182297,-0.8072862 -0.46875,-1.09375 -0.286463,-0.2864523 -0.677087,-0.4296814 -1.171875,-0.4296875 -0.4947947,6.1e-6 -0.9114609,0.1692768 -1.25,0.5078125 -0.4687518,0.4687552 -0.7031266,1.1979211 -0.703125,2.1875 -1.6e-6,0.9375025 0.247394,1.6536476 0.7421875,2.1484375 0.338539,0.33854262 0.8072886,0.50781328 1.4062505,0.5078125 0.442704,7.8e-7 0.807287,-0.14322824 1.09375,-0.4296875 0.286453,-0.2864568 0.455723,-0.5859357 0.507812,-0.8984375 l 0,-0.625 -1.132812,0 0,-0.7421875 2.03125,0 0,3.4375 -0.664063,0 -0.234375,-0.6640625 c -0.442713,0.44270859 -1.002608,0.66406254 -1.6796875,0.6640625 -0.8333361,4e-8 -1.5104188,-0.26041637 -2.03125,-0.78125 C 7.2786449,-1.4713527 6.9531244,-2.3437477 6.953125,-3.4375 z"
     style="font-style:normal;font-variant:normal;font-weight:normal;font-stretch:normal;font-family:MS UI Gothic;-inkscape-font-specification:MS UI Gothic"
     id="path3208" /><path
     d="m 16.835937,-4.53125 c 0,-0.8072863 0.208333,-1.4192649 0.625,-1.8359375 0.338541,-0.338535 0.742186,-0.5078056 1.210938,-0.5078125 0.572914,6.9e-6 1.028642,0.1692775 1.367187,0.5078125 0.338538,0.3385477 0.507809,0.7552139 0.507813,1.25 -4e-6,0.6250045 -0.195317,1.1718789 -0.585938,1.640625 -0.364586,0.4427114 -0.74219,0.8723984 -1.132812,1.2890625 -0.208336,0.234377 -0.416669,0.4687517 -0.625,0.703125 -0.182294,0.2083346 -0.338543,0.4166677 -0.46875,0.625 l 2.929687,0 0,0.7421875 -3.984375,0 0,-0.6640625 c 0.05208,-0.2604156 0.273437,-0.6249986 0.664063,-1.09375 0.65104,-0.7031224 1.184893,-1.2890593 1.601562,-1.7578125 0.442706,-0.4687459 0.66406,-0.9635371 0.664063,-1.484375 -3e-6,-0.3124946 -0.10417,-0.572911 -0.3125,-0.78125 -0.156253,-0.1562439 -0.351565,-0.2343689 -0.585938,-0.234375 -0.208335,6.1e-6 -0.390627,0.078131 -0.546875,0.234375 -0.28646,0.2864639 -0.429689,0.7421927 -0.429687,1.3671875 z"
     style="font-style:normal;font-variant:normal;font-weight:normal;font-stretch:normal;font-family:MS UI Gothic;-inkscape-font-specification:MS UI Gothic"
     id="path3210" /></g>

	<g
   transform="matrix(1 0 0 1 471.1387 280.8506)"
   style="font-size:10px;font-family:Arial-BoldMT"
   id="text166"><path
     d="m 0.78125,-6.796875 0.8984375,0 0,5.9375 3.59375,0 0,0.7421875 -4.4921875,0 z"
     style="font-style:normal;font-variant:normal;font-weight:normal;font-stretch:normal;font-family:MS UI Gothic;-inkscape-font-specification:MS UI Gothic"
     id="path3178" /><path
     d="m 5.546875,-6.8359375 0.9375,0 2.0703125,5.4296875 2.0703125,-5.4296875 0.9375,0 -2.65625,6.7578125 -0.703125,0 z"
     style="font-style:normal;font-variant:normal;font-weight:normal;font-stretch:normal;font-family:MS UI Gothic;-inkscape-font-specification:MS UI Gothic"
     id="path3180" /><path
     d="m 17.03125,-6.1328125 c 0.234372,-0.2343686 0.364581,-0.494785 0.390625,-0.78125 l 0.46875,0 0,6.7578125 -0.898438,0 0,-5.1953125 -1.171874,0 0,-0.46875 0.351562,0 c 0.364582,5.8e-6 0.65104,-0.1041607 0.859375,-0.3125 z"
     style="font-style:normal;font-variant:normal;font-weight:normal;font-stretch:normal;font-family:MS UI Gothic;-inkscape-font-specification:MS UI Gothic"
     id="path3182" /></g>

	<g
   transform="matrix(1 0 0 1 539.3857 280.8506)"
   style="font-size:10px;font-family:Arial-BoldMT"
   id="text168"><path
     d="m 0.78125,-6.796875 0.8984375,0 0,5.9375 3.59375,0 0,0.7421875 -4.4921875,0 z"
     style="font-style:normal;font-variant:normal;font-weight:normal;font-stretch:normal;font-family:MS UI Gothic;-inkscape-font-specification:MS UI Gothic"
     id="path3185" /><path
     d="m 5.546875,-6.8359375 0.9375,0 2.0703125,5.4296875 2.0703125,-5.4296875 0.9375,0 -2.65625,6.7578125 -0.703125,0 z"
     style="font-style:normal;font-variant:normal;font-weight:normal;font-stretch:normal;font-family:MS UI Gothic;-inkscape-font-specification:MS UI Gothic"
     id="path3187" /><path
     d="m 15.429688,-4.53125 c -1e-6,-0.8072863 0.208332,-1.4192649 0.624999,-1.8359375 0.338541,-0.338535 0.742186,-0.5078056 1.210938,-0.5078125 0.572914,6.9e-6 1.028642,0.1692775 1.367187,0.5078125 0.338538,0.3385477 0.507809,0.7552139 0.507813,1.25 -4e-6,0.6250045 -0.195317,1.1718789 -0.585938,1.640625 -0.364586,0.4427114 -0.74219,0.8723984 -1.132812,1.2890625 -0.208336,0.234377 -0.416669,0.4687517 -0.625,0.703125 -0.182294,0.2083346 -0.338543,0.4166677 -0.46875,0.625 l 2.929687,0 0,0.7421875 -3.984374,0 0,-0.6640625 c 0.05208,-0.2604156 0.273436,-0.6249986 0.664062,-1.09375 0.65104,-0.7031224 1.184893,-1.2890593 1.601562,-1.7578125 0.442706,-0.4687459 0.66406,-0.9635371 0.664063,-1.484375 -3e-6,-0.3124946 -0.10417,-0.572911 -0.3125,-0.78125 -0.156253,-0.1562439 -0.351565,-0.2343689 -0.585938,-0.234375 -0.208335,6.1e-6 -0.390627,0.078131 -0.546875,0.234375 -0.28646,0.2864639 -0.429689,0.7421927 -0.429687,1.3671875 z"
     style="font-style:normal;font-variant:normal;font-weight:normal;font-stretch:normal;font-family:MS UI Gothic;-inkscape-font-specification:MS UI Gothic"
     id="path3189" /></g>

	<g
   transform="matrix(1 0 0 1 598.1982 280.8506)"
   style="font-size:10px;font-family:Arial-BoldMT"
   id="text170"><path
     d="m 0.78125,-6.796875 0.8984375,0 0,5.9375 3.59375,0 0,0.7421875 -4.4921875,0 z"
     style="font-style:normal;font-variant:normal;font-weight:normal;font-stretch:normal;font-family:MS UI Gothic;-inkscape-font-specification:MS UI Gothic"
     id="path3192" /><path
     d="m 5.546875,-6.8359375 0.9375,0 2.0703125,5.4296875 2.0703125,-5.4296875 0.9375,0 -2.65625,6.7578125 -0.703125,0 z"
     style="font-style:normal;font-variant:normal;font-weight:normal;font-stretch:normal;font-family:MS UI Gothic;-inkscape-font-specification:MS UI Gothic"
     id="path3194" /><path
     d="m 15.429688,-4.8828125 c -1e-6,-0.5989529 0.195311,-1.093744 0.585937,-1.484375 0.33854,-0.338535 0.755206,-0.5078056 1.25,-0.5078125 0.572914,6.9e-6 1.028642,0.1692775 1.367187,0.5078125 0.312496,0.3125061 0.468746,0.7291723 0.46875,1.25 -4e-6,0.5208379 -0.130212,0.9114625 -0.390625,1.171875 -0.182295,0.1822954 -0.377607,0.286462 -0.585937,0.3125 0.260413,0.078129 0.481767,0.2083368 0.664062,0.390625 0.312496,0.3125029 0.468746,0.7291692 0.46875,1.25 -4e-6,0.5729181 -0.182295,1.04166762 -0.546875,1.40625 -0.364586,0.36458355 -0.872398,0.54687504 -1.523437,0.546875 -0.546877,4e-8 -1.002606,-0.18229145 -1.367187,-0.546875 C 15.455728,-0.95051988 15.273437,-1.380207 15.273438,-1.875 l 0,-0.3125 0.898437,0 0,0.2734375 c -1e-6,0.3385432 0.117186,0.6250013 0.351562,0.859375 0.18229,0.18229254 0.403644,0.27343828 0.664063,0.2734375 0.338539,7.8e-7 0.611976,-0.10416578 0.820312,-0.3125 0.20833,-0.208332 0.312497,-0.5338525 0.3125,-0.9765625 -3e-6,-0.3645809 -0.10417,-0.6510389 -0.3125,-0.859375 -0.208336,-0.2083302 -0.442711,-0.3124968 -0.703125,-0.3125 l -0.3125,0 0,-0.6640625 0.234375,0 c 0.234373,3.9e-6 0.455727,-0.1041627 0.664063,-0.3125 0.20833,-0.2083289 0.312497,-0.5078078 0.3125,-0.8984375 -3e-6,-0.3385362 -0.10417,-0.6119734 -0.3125,-0.8203125 -0.156253,-0.1562439 -0.364586,-0.2343688 -0.625,-0.234375 -0.234377,6.2e-6 -0.44271,0.091152 -0.625,0.2734375 -0.208335,0.208339 -0.325522,0.5468804 -0.351563,1.015625 z"
     style="font-style:normal;font-variant:normal;font-weight:normal;font-stretch:normal;font-family:MS UI Gothic;-inkscape-font-specification:MS UI Gothic"
     id="path3196" /></g>

	<g
   transform="matrix(1 0 0 1 645.2334 280.8506)"
   style="font-size:10px;font-family:Arial-BoldMT"
   id="text172"><path
     d="m 0.78125,-6.796875 0.8984375,0 0,5.9375 3.59375,0 0,0.7421875 -4.4921875,0 z"
     style="font-style:normal;font-variant:normal;font-weight:normal;font-stretch:normal;font-family:MS UI Gothic;-inkscape-font-specification:MS UI Gothic"
     id="path3199" /><path
     d="m 5.546875,-6.8359375 0.9375,0 2.0703125,5.4296875 2.0703125,-5.4296875 0.9375,0 -2.65625,6.7578125 -0.703125,0 z"
     style="font-style:normal;font-variant:normal;font-weight:normal;font-stretch:normal;font-family:MS UI Gothic;-inkscape-font-specification:MS UI Gothic"
     id="path3201" /><path
     d="m 17.734375,-6.875 0.898437,0 0,4.296875 0.820313,0 0,0.7421875 -0.820313,0 0,1.71875 -0.898437,0 0,-1.71875 -2.617187,0 0,-0.78125 z m 0,1.4453125 -1.757812,2.8515625 1.757812,0 z"
     style="font-style:normal;font-variant:normal;font-weight:normal;font-stretch:normal;font-family:MS UI Gothic;-inkscape-font-specification:MS UI Gothic"
     id="path3203" /></g>

</g>
<g
   id="1"
   transform="translate(345.84701,269.59013)"><text
   style="font-size:14.99941921px;font-style:normal;font-weight:normal;text-align:start;text-anchor:start;fill:#000000;font-family:MS Mincho"
   y="14.963658"
   x="0"
   xml:space="preserve"
   id="2" />

<text
   style="font-size:14.99941921px;font-style:normal;font-weight:normal;text-align:start;text-anchor:start;fill:#000000;font-family:Times New Roman"
   y="14.963658"
   x="59.997677"
   xml:space="preserve"
   id="3"> </text>

</g><g
   id="1-2"
   transform="translate(343.36315,236.47202)"><text
   style="font-size:14.99941921px;font-style:normal;font-weight:normal;text-align:start;text-anchor:start;fill:#000000;font-family:MS Mincho"
   y="14.963658"
   x="0"
   xml:space="preserve"
   id="2-1" />

<text
   style="font-size:14.99941921px;font-style:normal;font-weight:normal;text-align:start;text-anchor:start;fill:#000000;font-family:Times New Roman"
   y="14.963658"
   x="59.997677"
   xml:space="preserve"
   id="3-7"> </text>

</g></svg>