<?xml version="1.0" encoding="UTF-8" standalone="no"?>
<svg
   xmlns:dc="http://purl.org/dc/elements/1.1/"
   xmlns:cc="http://creativecommons.org/ns#"
   xmlns:rdf="http://www.w3.org/1999/02/22-rdf-syntax-ns#"
   xmlns:svg="http://www.w3.org/2000/svg"
   xmlns="http://www.w3.org/2000/svg"
   xmlns:sodipodi="http://sodipodi.sourceforge.net/DTD/sodipodi-0.dtd"
   xmlns:inkscape="http://www.inkscape.org/namespaces/inkscape"
   xml:lang="en"
   font-family="monospace"
   font-size="8pt"
   width="12cm"
   height="7cm"
   id="svg2"
   sodipodi:version="0.32"
   inkscape:version="0.46"
   sodipodi:docname="ppc_pseries_start_inst_sms.svg"
   inkscape:output_extension="org.inkscape.output.svg.inkscape">
  <metadata
     id="metadata40">
    <rdf:RDF>
      <cc:Work
         rdf:about="">
        <dc:format>image/svg+xml</dc:format>
        <dc:type
           rdf:resource="http://purl.org/dc/dcmitype/StillImage" />
      </cc:Work>
    </rdf:RDF>
  </metadata>
  <defs
     id="defs38">
    <inkscape:perspective
       sodipodi:type="inkscape:persp3d"
       inkscape:vp_x="0 : 124.01575 : 1"
       inkscape:vp_y="0 : 1000 : 0"
       inkscape:vp_z="425.19684 : 124.01575 : 1"
       inkscape:persp3d-origin="212.59842 : 82.677165 : 1"
       id="perspective42" />
  </defs>
  <sodipodi:namedview
     inkscape:window-height="709"
     inkscape:window-width="640"
     inkscape:pageshadow="2"
     inkscape:pageopacity="0.0"
     guidetolerance="10.0"
     gridtolerance="10.0"
     objecttolerance="10.0"
     borderopacity="1.0"
     bordercolor="#666666"
     pagecolor="#ffffff"
     id="base"
     showgrid="false"
     inkscape:zoom="1.2629445"
     inkscape:cx="172.19013"
     inkscape:cy="124.01575"
     inkscape:window-x="0"
     inkscape:window-y="0"
     inkscape:current-layer="svg2" />
  <rect
     id="rect"
     fill="white"
     stroke="black"
     stroke-width="0.4pt"
     x="0"
     y="0"
     width="100%"
     height="100%" />
  <text
     xml:space="preserve"
     x="10"
     y="20"
     id="text5" />
  <text
     xml:space="preserve"
     x="10"
     y="35"
     id="text7" />
  <text
     xml:space="preserve"
     x="10"
     y="50"
     id="text9" />
  <text
     xml:space="preserve"
     x="10"
     y="65"
     id="text11" />
  <text
     xml:space="preserve"
     x="10"
     y="80"
     id="text13" />
  <text
     xml:space="preserve"
     x="10"
     y="95"
     id="text15" />
  <text
     xml:space="preserve"
     x="10"
     y="110"
     id="text17" />
  <text
     xml:space="preserve"
     x="10"
     y="125"
     id="text19" />
  <text
     xml:space="preserve"
     x="10"
     y="140"
     id="text21" />
  <text
     xml:space="preserve"
     x="10"
     y="155"
     id="text23" />
  <text
     xml:space="preserve"
     x="10"
     y="170"
     id="text25" />
  <text
     xml:space="preserve"
     x="10"
     y="185"
     id="text27" />
  <path
     style="font-style:normal;font-variant:normal;font-weight:normal;font-stretch:normal;text-align:start;line-height:125%;writing-mode:lr-tb;text-anchor:start;font-family:URW Gothic L;-inkscape-font-specification:URW Gothic L"
     d="M 26.677187,200 L 27.407187,200 L 27.407187,192.61 L 25.417188,192.61 L 25.417188,193.28 L 26.677187,193.28 L 26.677187,200 M 37.7375,195.64 L 32.6975,195.64 L 32.6975,196.38 L 37.7375,196.38 L 37.7375,195.64 M 37.7375,197.62 L 32.6975,197.62 L 32.6975,198.36 L 37.7375,198.36 L 37.7375,197.62 M 41.235625,197.93 C 41.305625,199.26 42.215626,200.13 43.545625,200.13 C 44.825624,200.13 45.775625,199.2 45.775625,197.94 C 45.775625,197.29 45.505625,196.71 45.035625,196.36 C 44.735625,196.14 44.425624,196 43.665625,195.77 C 42.995626,195.57 42.775625,195.48 42.575625,195.31 C 42.365625,195.12 42.225625,194.79 42.225625,194.45 C 42.225625,193.71 42.765626,193.16 43.505625,193.16 C 44.255624,193.16 44.775625,193.68 44.825625,194.48 L 45.595625,194.48 C 45.565625,193.28 44.735624,192.48 43.525625,192.48 C 42.335626,192.48 41.475625,193.32 41.475625,194.47 C 41.475625,194.98 41.665625,195.47 41.995625,195.78 C 42.285625,196.06 42.515626,196.17 43.375625,196.43 C 43.955624,196.61 44.275625,196.75 44.515625,196.92 C 44.845625,197.15 45.025625,197.53 45.025625,197.98 C 45.025625,198.83 44.405624,199.45 43.565625,199.45 C 43.095625,199.45 42.645625,199.24 42.375625,198.9 C 42.165625,198.64 42.075625,198.39 42.025625,197.93 L 41.235625,197.93 M 46.756094,200 L 47.496094,200 L 47.496094,193.42 L 50.266094,200 L 50.906094,200 L 53.686094,193.42 L 53.686094,200 L 54.426094,200 L 54.426094,192.61 L 53.276094,192.61 L 50.596094,198.9 L 47.906094,192.61 L 46.756094,192.61 L 46.756094,200 M 55.415312,197.93 C 55.485312,199.26 56.395314,200.13 57.725313,200.13 C 59.005311,200.13 59.955312,199.2 59.955312,197.94 C 59.955312,197.29 59.685312,196.71 59.215313,196.36 C 58.915313,196.14 58.605312,196 57.845312,195.77 C 57.175313,195.57 56.955312,195.48 56.755313,195.31 C 56.545313,195.12 56.405313,194.79 56.405313,194.45 C 56.405313,193.71 56.945313,193.16 57.685313,193.16 C 58.435312,193.16 58.955313,193.68 59.005313,194.48 L 59.775312,194.48 C 59.745313,193.28 58.915311,192.48 57.705312,192.48 C 56.515314,192.48 55.655313,193.32 55.655313,194.47 C 55.655313,194.98 55.845313,195.47 56.175312,195.78 C 56.465312,196.06 56.695313,196.17 57.555312,196.43 C 58.135312,196.61 58.455313,196.75 58.695312,196.92 C 59.025312,197.15 59.205312,197.53 59.205312,197.98 C 59.205312,198.83 58.585312,199.45 57.745312,199.45 C 57.275313,199.45 56.825312,199.24 56.555312,198.9 C 56.345313,198.64 56.255312,198.39 56.205312,197.93 L 55.415312,197.93 M 66.415781,192.36 C 66.665781,192.34 67.075781,192.42 67.075781,192.71 C 67.075781,193.07 66.305781,194.78 65.725781,195.72 C 64.875782,195.21 63.64578,194.71 62.485781,194.32 L 62.365781,194.55 C 63.38578,194.97 64.505782,195.5 65.455781,196.16 C 64.595782,197.66 63.08578,199.17 61.445781,200.24 L 61.625781,200.48 C 63.35578,199.55 64.785782,198.08 65.905781,196.41 C 67.28578,197.48 67.725782,198.43 67.985781,198.43 C 68.125781,198.43 68.255781,198.28 68.255781,198.11 C 68.255781,197.62 67.26578,196.74 66.175781,195.99 C 66.695781,195.16 67.145782,194.24 67.555781,193.33 C 67.635781,193.17 67.715781,193.1 67.795781,193.04 C 67.945781,192.93 68.055781,192.93 68.055781,192.82 C 68.055781,192.47 67.345781,192.03 66.915781,192.03 C 66.725781,192.03 66.525781,192.11 66.395781,192.32 L 66.415781,192.36 M 72.255781,193.49 C 72.195781,193.54 72.125781,193.7 72.125781,193.83 C 72.125781,194.08 72.645782,194.48 72.985781,194.48 C 73.545781,194.48 75.795782,194.3 76.705781,194.2 C 77.47578,194.11 77.965781,194.19 77.965781,193.91 C 77.965781,193.66 77.315781,193.47 76.985781,193.44 C 76.915781,193.56 76.695781,193.69 76.445781,193.75 C 75.645782,193.94 74.115781,194.04 73.435781,194.04 C 72.855782,194.04 72.465781,193.86 72.265781,193.49 L 72.255781,193.49 M 71.045781,198.01 C 70.915781,198.01 70.865781,198.19 70.865781,198.29 C 70.865781,198.63 71.505782,199.2 71.785781,199.2 C 71.995781,199.2 72.075782,199.06 72.585781,198.98 C 73.94578,198.76 75.975782,198.66 77.225781,198.66 C 77.395781,198.66 77.555781,198.67 77.695781,198.67 C 78.405781,198.69 78.855782,198.85 79.105781,198.85 C 79.245781,198.85 79.365781,198.77 79.365781,198.63 C 79.365781,198.37 78.745781,198.12 78.265781,198 C 78.035781,198.18 77.825781,198.24 77.435781,198.25 C 76.145783,198.28 73.92578,198.42 72.295781,198.54 C 72.205781,198.55 72.125781,198.55 72.045781,198.55 C 71.555782,198.55 71.235781,198.41 71.045781,198.01 M 86.195781,195.97 C 86.155781,196.67 85.955781,198.25 85.805781,199.2 C 85.285782,199.22 82.645781,199.38 82.545781,199.38 C 81.935782,199.38 81.895781,198.97 81.895781,198.94 L 81.865781,198.93 C 81.715781,199.01 81.675781,199.14 81.675781,199.26 C 81.675781,199.53 82.055782,199.97 82.375781,199.97 C 82.455781,199.97 82.575781,199.87 82.635781,199.85 C 83.195781,199.64 85.325782,199.53 86.275781,199.53 C 86.675781,199.53 87.005781,199.54 87.245781,199.57 C 87.915781,199.64 87.955782,199.77 88.235781,199.77 C 88.375781,199.77 88.445781,199.7 88.445781,199.6 C 88.445781,199.37 87.865781,199.11 87.585781,199 C 87.405781,199.19 87.36578,199.19 86.255781,199.19 C 86.405781,198.47 86.615781,197.25 86.705781,196.48 C 86.745781,196.26 86.745781,196.2 86.855781,196.11 C 86.925781,196.05 87.065781,196.01 87.065781,195.92 C 87.065781,195.74 86.575781,195.35 86.455781,195.35 C 86.345781,195.35 86.275781,195.45 86.195781,195.54 C 86.155781,195.59 86.085781,195.65 85.925781,195.67 C 85.345782,195.72 83.685781,195.82 83.575781,195.82 C 83.435781,195.82 82.955781,195.82 82.985781,195.32 C 82.825781,195.37 82.735781,195.48 82.735781,195.65 C 82.735781,195.97 83.085782,196.4 83.365781,196.4 C 83.455781,196.4 83.495781,196.39 83.625781,196.33 C 83.845781,196.21 85.645782,195.96 86.155781,195.93 L 86.195781,195.97 M 98.675781,195.65 C 98.395782,195.49 98.245781,195.42 98.065781,195.42 C 97.955781,195.42 97.845781,195.45 97.685781,195.49 C 97.385782,195.57 97.315779,195.58 94.745781,195.79 C 93.395783,195.9 92.725781,195.95 92.345781,195.95 C 92.025782,195.95 91.905781,195.92 91.745781,195.86 C 91.675781,195.83 91.615781,195.82 91.565781,195.82 C 91.495781,195.82 91.455781,195.85 91.455781,195.9 C 91.455781,196.03 91.925782,196.5 92.245781,196.5 C 92.355781,196.5 92.475781,196.47 92.635781,196.43 C 93.085781,196.31 93.715782,196.2 94.875781,196.13 C 96.06578,196.05 96.955782,196.02 97.585781,196.02 C 98.035781,196.02 98.355781,196.04 98.555781,196.07 C 98.635781,196.08 98.695781,196.09 98.755781,196.09 C 98.915781,196.09 98.995781,196.04 98.995781,195.97 C 98.995781,195.89 98.895781,195.77 98.675781,195.65 M 204.36141,196.25 L 204.93141,196.47 C 205.38141,195.91 205.88141,195.64 206.46141,195.64 C 207.46141,195.64 208.23141,196.46 208.23141,197.54 C 208.23141,198.62 207.45141,199.46 206.46141,199.46 C 205.53141,199.46 204.80141,198.73 204.67141,197.68 L 203.95141,197.68 C 204.02141,198.17 204.07141,198.37 204.20141,198.66 C 204.63141,199.57 205.50141,200.13 206.49141,200.13 C 207.8814,200.13 208.97141,198.99 208.97141,197.54 C 208.97141,196.1 207.9014,194.97 206.52141,194.97 C 206.08141,194.97 205.70141,195.07 205.25141,195.32 L 205.61141,193.28 L 208.35141,193.28 L 208.35141,192.61 L 205.02141,192.61 L 204.36141,196.25 M 217.56172,195.64 L 212.52172,195.64 L 212.52172,196.38 L 217.56172,196.38 L 217.56172,195.64 M 217.56172,197.62 L 212.52172,197.62 L 212.52172,198.36 L 217.56172,198.36 L 217.56172,197.62 M 229.34984,191.37 C 229.77984,191.65 230.14984,192.35 230.26984,192.69 C 230.35984,192.93 230.45984,192.98 230.59984,192.98 C 230.70984,192.98 230.79984,192.86 230.79984,192.61 C 230.79984,192.17 230.18984,191.56 229.50984,191.21 L 229.34984,191.37 M 228.22984,191.92 C 228.69984,192.27 228.98984,192.82 229.11984,193.24 C 229.19984,193.49 229.29984,193.53 229.43984,193.53 C 229.54984,193.53 229.63984,193.41 229.63984,193.16 C 229.63984,192.72 229.06984,192.11 228.38984,191.76 L 228.22984,191.92 M 222.98984,192.65 C 223.15984,193.25 223.70984,193.29 224.26984,193.29 C 224.93984,193.29 226.35984,193.02 227.22984,192.98 C 227.64984,192.96 228.19984,192.92 228.19984,192.71 C 228.19984,192.43 227.69984,192.35 227.19984,192.29 C 227.01984,192.52 226.71984,192.57 226.49984,192.61 C 225.69984,192.77 224.89984,192.88 224.29984,192.88 C 223.65984,192.88 223.41984,192.87 223.05984,192.61 L 222.98984,192.65 M 221.82984,194.88 C 221.70984,194.94 221.65984,195.11 221.65984,195.23 C 221.65984,195.51 222.21984,195.99 222.52984,195.99 C 222.71984,195.99 222.79984,195.85 223.17984,195.77 C 223.81984,195.64 225.17984,195.49 225.71984,195.45 C 225.78984,195.55 225.81984,195.7 225.81984,195.9 C 225.81984,195.9 225.76984,198.58 223.29984,200.27 L 223.51984,200.49 C 225.25984,199.43 226.02984,197.97 226.36984,196.22 C 226.42984,195.91 226.53984,195.96 226.53984,195.74 C 226.53984,195.65 226.41984,195.51 226.28984,195.42 C 226.92984,195.37 227.55984,195.33 228.03984,195.33 L 228.28984,195.33 C 229.06984,195.37 229.52984,195.46 229.72984,195.46 C 229.86984,195.46 230.05984,195.42 230.05984,195.3 C 230.05984,195 229.44984,194.81 228.90984,194.65 C 228.73984,194.85 228.50984,194.93 228.25984,194.94 C 227.39984,194.98 223.00984,195.39 222.85984,195.39 C 222.44984,195.39 222.01984,195.28 221.85984,194.89 L 221.82984,194.88 M 233.12984,200.32 C 236.95984,199.11 238.44984,196.2 239.09984,193.83 C 239.12984,193.71 239.20984,193.67 239.34984,193.59 C 239.43984,193.54 239.56984,193.49 239.56984,193.4 C 239.56984,193.27 238.96984,192.75 238.74984,192.75 C 238.57984,192.75 238.50984,192.98 238.21984,193.01 C 237.65984,193.06 234.27984,193.25 233.43984,193.25 C 233.01984,193.25 232.46984,193.25 232.35984,192.71 L 232.34984,192.7 C 232.22984,192.73 232.11984,192.84 232.11984,193.01 C 232.11984,193.37 232.57984,193.91 232.87984,193.91 C 233.04984,193.91 233.08984,193.89 233.29984,193.81 C 233.70984,193.63 238.07984,193.34 238.53984,193.34 C 238.56984,193.34 238.57984,193.34 238.57984,193.37 C 238.57984,193.38 238.57984,193.41 238.56984,193.44 C 238.07984,195.79 236.51984,198.76 232.98984,200.11 L 233.12984,200.32 M 242.72984,195.2 C 242.58984,195.28 242.58984,195.36 242.58984,195.48 C 242.58984,195.75 243.03984,196.22 243.30984,196.22 C 243.45984,196.22 243.50984,196.08 243.84984,196.03 C 244.47984,195.93 245.28984,195.85 245.89984,195.78 C 245.13984,197.04 243.46984,198.53 242.22984,199.21 L 242.39984,199.43 C 243.89984,198.67 245.22984,197.59 246.19984,196.28 C 246.22984,197.32 246.22984,198.39 246.22984,198.79 L 246.22984,199.47 C 246.22984,199.63 246.21984,199.69 246.12984,199.69 C 245.88984,199.69 244.93984,199.25 244.66984,199.11 L 244.55984,199.28 C 244.86984,199.47 245.58984,199.95 245.75984,200.07 C 245.89984,200.17 245.97984,200.27 246.01984,200.35 C 246.06984,200.45 246.14984,200.57 246.20984,200.57 C 246.48984,200.57 246.77984,200.04 246.77984,199.72 C 246.77984,199.59 246.71984,199.4 246.70984,199.3 C 246.67984,199.01 246.66984,198.76 246.66984,198.51 L 246.61984,195.75 C 246.94984,195.73 247.51984,195.7 247.83984,195.7 C 248.24984,195.7 248.59984,195.73 248.82984,195.76 L 248.89984,195.76 C 249.01984,195.76 249.09984,195.72 249.09984,195.61 C 249.09984,195.39 248.74984,195.23 248.22984,195.13 C 247.99984,195.38 246.98984,195.45 246.59984,195.47 L 246.59984,194.6 C 246.59984,194.02 246.79984,194.14 246.79984,193.93 C 246.79984,193.67 246.23984,193.37 245.77984,193.37 C 245.61984,193.37 245.44984,193.54 245.44984,193.67 C 245.64984,193.67 245.83984,193.69 245.92984,193.79 C 246.10984,193.99 246.11984,194.16 246.14984,195.5 C 245.23984,195.57 243.87984,195.66 243.49984,195.66 C 243.18984,195.66 242.84984,195.51 242.73984,195.21 L 242.72984,195.2 M 260.08984,195.01 C 259.01984,197.8 256.48984,198.88 256.39984,198.88 C 256.35984,198.88 256.34984,198.86 256.34984,198.81 L 256.34984,196.92 C 256.34984,195.61 256.35984,194.29 256.40984,193.44 C 256.41984,193.25 256.45984,193.11 256.53984,193.01 C 256.60984,192.92 256.66984,192.85 256.66984,192.74 C 256.66984,192.43 255.99984,192.17 255.63984,192.17 C 255.33984,192.17 255.19984,192.33 255.15984,192.51 L 255.16984,192.52 C 255.33984,192.5 255.49984,192.52 255.65984,192.57 C 255.86984,192.64 255.88984,192.91 255.89984,193.3 C 255.90984,193.77 255.91984,194.68 255.91984,195.63 C 255.91984,196.72 255.90984,197.86 255.88984,198.43 C 255.87984,198.72 255.85984,198.87 255.81984,198.94 C 255.75984,199.05 255.67984,199.13 255.67984,199.26 C 255.67984,199.5 256.03984,199.89 256.22984,199.89 C 256.31984,199.89 256.37984,199.75 256.48984,199.61 C 256.55984,199.52 256.64984,199.42 256.84984,199.31 C 258.36984,198.47 259.63984,197.3 260.33984,195.12 L 260.08984,195.01 M 252.91984,193.99 C 253.20984,193.96 253.60984,194.04 253.60984,194.42 L 253.60984,194.45 C 253.49984,196.4 252.77984,198.56 251.38984,199.95 L 251.60984,200.14 C 253.23984,198.78 253.92984,196.77 254.17984,194.71 C 254.19984,194.58 254.20984,194.52 254.24984,194.45 C 254.29984,194.36 254.39984,194.32 254.39984,194.21 C 254.39984,193.92 253.72984,193.67 253.35984,193.67 C 253.15984,193.67 252.95984,193.82 252.90984,193.96 L 252.91984,193.99 M 263.82984,192.28 C 264.49984,192.28 264.56984,192.76 264.57984,193.18 C 264.59984,193.62 264.60984,194.57 264.60984,195.5 C 264.60984,197.61 264.58984,198.23 264.50984,198.9 C 264.48984,199.08 264.40984,199.21 264.33984,199.31 C 264.38984,199.51 264.48984,200.47 264.84984,200.47 C 264.98984,200.47 265.14984,200.35 265.14984,199.93 C 265.14984,199.56 265.11984,197.91 265.11984,197.57 C 265.11984,196.95 265.11984,196.19 265.12984,195.46 C 266.39984,195.8 267.42984,196.28 267.86984,196.66 C 268.11984,196.87 268.39984,197.15 268.62984,197.15 C 268.75984,197.15 268.86984,197.04 268.86984,196.87 C 268.86984,196.54 268.59984,196.34 268.00984,196 C 267.42984,195.67 266.33984,195.38 265.12984,195.21 C 265.14984,194.35 265.15984,193.57 265.17984,193.15 C 265.18984,193 265.20984,192.91 265.23984,192.86 C 265.29984,192.75 265.39984,192.69 265.39984,192.6 C 265.39984,192.25 264.61984,191.98 264.21984,191.98 C 264.03984,191.98 263.87984,192.12 263.81984,192.27 L 263.82984,192.28 M 275.61984,200.03 C 278.73984,199.75 279.98984,198.28 279.98984,196.46 C 279.98984,194.28 278.71984,192.73 276.25984,192.73 C 273.66985,192.73 271.72984,194.57 271.72984,196.95 C 271.72984,198.13 272.17984,198.96 272.82984,198.96 C 274.30984,198.96 275.62984,195.81 275.62984,194 C 275.62984,193.67 275.56984,193.26 275.38984,193.09 C 275.61984,193.04 276.04984,193.01 276.20984,193.01 C 278.55984,193.01 279.46984,194.62 279.46984,196.41 C 279.46984,198.04 278.40984,199.46 275.54984,199.77 L 275.61984,200.03 M 275.26984,193.82 C 275.26984,195.42 274.12984,198.46 272.86984,198.46 C 272.43984,198.46 272.17984,197.75 272.17984,196.94 C 272.17984,194.91 273.56985,193.48 275.11984,193.15 C 275.19984,193.24 275.26984,193.56 275.26984,193.82 M 289.03984,191.65 C 289.59984,192.03 289.84984,192.52 289.96984,192.86 C 290.05984,193.1 290.11984,193.15 290.25984,193.15 C 290.36984,193.15 290.47984,193.06 290.47984,192.81 C 290.47984,192.42 289.94984,191.81 289.18984,191.48 L 289.03984,191.65 M 287.92984,192 C 288.48984,192.37 288.77984,192.87 288.89984,193.22 C 288.98984,193.45 289.04984,193.5 289.18984,193.5 C 289.29984,193.5 289.41984,193.41 289.41984,193.16 C 289.41984,192.72 288.76984,192.11 288.07984,191.81 L 287.92984,192 M 283.02984,200.39 C 286.44984,199.06 287.91984,196.28 288.44984,194.19 C 288.47984,194.07 288.50984,194.04 288.57984,193.98 C 288.64984,193.92 288.72984,193.85 288.72984,193.76 C 288.72984,193.59 288.13984,193.02 287.89984,193.02 C 287.75984,193.02 287.66984,193.25 287.48984,193.27 C 286.92984,193.32 283.75984,193.47 283.27984,193.47 C 282.85984,193.47 282.34984,193.47 282.23984,192.91 L 282.22984,192.9 C 282.10984,192.93 281.95984,193.04 281.95984,193.22 C 281.95984,193.62 282.39984,194.18 282.72984,194.18 C 282.86984,194.18 282.97984,194.1 283.12984,194.04 C 283.62984,193.83 287.58984,193.55 287.80984,193.55 C 287.89984,193.55 287.92984,193.57 287.92984,193.63 C 287.92984,193.65 287.92984,193.67 287.91984,193.7 C 287.47984,196.02 286.18984,198.64 282.84984,200.14 L 283.02984,200.39 M 299.33984,195.65 C 299.05984,195.49 298.90984,195.42 298.72984,195.42 C 298.61984,195.42 298.50984,195.45 298.34984,195.49 C 298.04984,195.57 297.97984,195.58 295.40984,195.79 C 294.05985,195.9 293.38984,195.95 293.00984,195.95 C 292.68984,195.95 292.56984,195.92 292.40984,195.86 C 292.33984,195.83 292.27984,195.82 292.22984,195.82 C 292.15984,195.82 292.11984,195.85 292.11984,195.9 C 292.11984,196.03 292.58984,196.5 292.90984,196.5 C 293.01984,196.5 293.13984,196.47 293.29984,196.43 C 293.74984,196.31 294.37984,196.2 295.53984,196.13 C 296.72984,196.05 297.61984,196.02 298.24984,196.02 C 298.69984,196.02 299.01984,196.04 299.21984,196.07 C 299.29984,196.08 299.35984,196.09 299.41984,196.09 C 299.57984,196.09 299.65984,196.04 299.65984,195.97 C 299.65984,195.89 299.55984,195.77 299.33984,195.65 M 303.82984,192.28 C 304.49984,192.28 304.56984,192.76 304.57984,193.18 C 304.59984,193.62 304.60984,194.57 304.60984,195.5 C 304.60984,197.61 304.58984,198.23 304.50984,198.9 C 304.48984,199.08 304.40984,199.21 304.33984,199.31 C 304.38984,199.51 304.48984,200.47 304.84984,200.47 C 304.98984,200.47 305.14984,200.35 305.14984,199.93 C 305.14984,199.56 305.11984,197.91 305.11984,197.57 C 305.11984,196.95 305.11984,196.19 305.12984,195.46 C 306.39984,195.8 307.42984,196.28 307.86984,196.66 C 308.11984,196.87 308.39984,197.15 308.62984,197.15 C 308.75984,197.15 308.86984,197.04 308.86984,196.87 C 308.86984,196.54 308.59984,196.34 308.00984,196 C 307.42984,195.67 306.33984,195.38 305.12984,195.21 C 305.14984,194.35 305.15984,193.57 305.17984,193.15 C 305.18984,193 305.20984,192.91 305.23984,192.86 C 305.29984,192.75 305.39984,192.69 305.39984,192.6 C 305.39984,192.25 304.61984,191.98 304.21984,191.98 C 304.03984,191.98 303.87984,192.12 303.81984,192.27 L 303.82984,192.28 M 317.61984,195.58 C 317.61984,197.97 316.57984,199.33 314.18984,200.22 L 314.32984,200.47 C 316.95984,199.66 318.12984,198.14 318.12984,195.61 L 318.12984,192.94 C 318.12984,192.86 318.15984,192.77 318.17984,192.73 C 318.21984,192.67 318.31984,192.61 318.31984,192.53 C 318.31984,192.25 317.56984,192.03 317.25984,192.03 C 317.05984,192.03 316.76984,192.26 316.82984,192.38 C 317.23984,192.35 317.50984,192.53 317.57984,192.92 C 317.61984,193.2 317.61984,193.74 317.61984,194.15 L 317.61984,195.58 M 313.51984,195.73 C 313.51984,196.57 313.38984,196.56 313.38984,196.67 C 313.38984,197.12 313.48984,197.54 313.75984,197.54 C 314.00984,197.54 314.04984,197.2 314.04984,196.84 C 314.04984,196.47 314.01984,194.77 314.01984,194.51 C 314.01984,194.04 314.04984,193.8 314.09984,193.63 C 314.14984,193.49 314.19984,193.33 314.19984,193.26 C 314.19984,192.9 313.53984,192.67 313.26984,192.67 C 313.05984,192.67 312.85984,192.78 312.80984,192.94 L 312.81984,192.97 C 313.51984,192.97 313.51984,193.26 313.51984,194.49 L 313.51984,195.73 M 321.88984,200.1 C 323.55984,199.25 325.10984,197.74 325.97984,196.68 C 326.87984,197.22 328.23984,198.42 328.71984,199.13 C 329.09984,199.67 329.27984,200.04 329.47984,200.04 C 329.65984,200.04 329.77984,199.84 329.77984,199.62 C 329.77984,199.34 329.36984,198.83 328.90984,198.37 C 328.31984,197.8 327.13984,196.98 326.19984,196.43 C 326.80984,195.69 327.60984,194.38 327.94984,193.74 C 327.99984,193.64 328.08984,193.51 328.22984,193.45 C 328.36984,193.4 328.50984,193.37 328.50984,193.22 C 328.50984,193.08 327.93984,192.63 327.76984,192.63 C 327.70984,192.63 327.56984,192.74 327.51984,192.79 C 327.45984,192.85 327.38984,192.9 327.24984,192.92 C 326.56984,193 324.21984,193.17 323.92984,193.17 C 323.54984,193.17 323.06984,193.17 323.01984,192.68 C 322.99984,192.68 322.80984,192.75 322.80984,193.03 C 322.80984,193.35 323.32984,193.86 323.64984,193.86 C 323.80984,193.86 323.84984,193.79 323.92984,193.74 C 324.01984,193.68 324.11984,193.63 324.36984,193.58 C 325.32984,193.4 327.24984,193.22 327.40984,193.22 C 327.47984,193.22 327.49984,193.24 327.49984,193.27 C 327.49984,193.29 327.49984,193.32 327.47984,193.36 C 326.64984,195.54 324.08984,198.52 321.72984,199.88 L 321.88984,200.1 M 333.82984,192.28 C 334.49984,192.28 334.56984,192.76 334.57984,193.18 C 334.59984,193.62 334.60984,194.57 334.60984,195.5 C 334.60984,197.61 334.58984,198.23 334.50984,198.9 C 334.48984,199.08 334.40984,199.21 334.33984,199.31 C 334.38984,199.51 334.48984,200.47 334.84984,200.47 C 334.98984,200.47 335.14984,200.35 335.14984,199.93 C 335.14984,199.56 335.11984,197.91 335.11984,197.57 C 335.11984,196.95 335.11984,196.19 335.12984,195.46 C 336.39984,195.8 337.42984,196.28 337.86984,196.66 C 338.11984,196.87 338.39984,197.15 338.62984,197.15 C 338.75984,197.15 338.86984,197.04 338.86984,196.87 C 338.86984,196.54 338.59984,196.34 338.00984,196 C 337.42984,195.67 336.33984,195.38 335.12984,195.21 C 335.14984,194.35 335.15984,193.57 335.17984,193.15 C 335.18984,193 335.20984,192.91 335.23984,192.86 C 335.29984,192.75 335.39984,192.69 335.39984,192.6 C 335.39984,192.25 334.61984,191.98 334.21984,191.98 C 334.03984,191.98 333.87984,192.12 333.81984,192.27 L 333.82984,192.28"
     id="text29" />
  <path
     style="font-style:normal;font-variant:normal;font-weight:normal;font-stretch:normal;text-align:start;line-height:125%;writing-mode:lr-tb;text-anchor:start;font-family:URW Gothic L;-inkscape-font-specification:URW Gothic L"
     d="M 25.537188,210.87 C 24.727188,211.26 24.287188,211.96 24.287188,212.85 C 24.287188,214.15 25.307189,215.13 26.667188,215.13 C 28.017186,215.13 28.987188,214.16 28.987188,212.82 C 28.987188,211.91 28.537187,211.23 27.717188,210.87 C 28.317187,210.59 28.597188,210.12 28.597188,209.39 C 28.597188,208.28 27.777186,207.48 26.647188,207.48 C 25.527189,207.48 24.677187,208.3 24.677187,209.39 C 24.677187,209.81 24.817188,210.21 25.057188,210.49 C 25.177187,210.64 25.287188,210.72 25.537188,210.87 M 26.647188,211.25 C 27.577187,211.25 28.247187,211.91 28.247187,212.84 C 28.247187,213.78 27.587187,214.46 26.657187,214.46 C 25.697188,214.46 25.027188,213.79 25.027188,212.84 C 25.027188,211.91 25.697188,211.25 26.647188,211.25 M 26.637187,208.15 C 27.347187,208.15 27.857188,208.65 27.857188,209.35 C 27.857188,210.04 27.347187,210.56 26.677187,210.56 C 25.947188,210.56 25.417188,210.04 25.417188,209.33 C 25.417188,208.64 25.927188,208.15 26.637187,208.15 M 37.7375,210.64 L 32.6975,210.64 L 32.6975,211.38 L 37.7375,211.38 L 37.7375,210.64 M 37.7375,212.62 L 32.6975,212.62 L 32.6975,213.36 L 37.7375,213.36 L 37.7375,212.62 M 43.305625,215.32 C 47.135621,214.11 48.625626,211.2 49.275625,208.83 C 49.305625,208.71 49.385625,208.67 49.525625,208.59 C 49.615625,208.54 49.745625,208.49 49.745625,208.4 C 49.745625,208.27 49.145625,207.75 48.925625,207.75 C 48.755625,207.75 48.685625,207.98 48.395625,208.01 C 47.835626,208.06 44.455624,208.25 43.615625,208.25 C 43.195625,208.25 42.645625,208.25 42.535625,207.71 L 42.525625,207.7 C 42.405625,207.73 42.295625,207.84 42.295625,208.01 C 42.295625,208.37 42.755625,208.91 43.055625,208.91 C 43.225625,208.91 43.265625,208.89 43.475625,208.81 C 43.885625,208.63 48.255625,208.34 48.715625,208.34 C 48.745625,208.34 48.755625,208.34 48.755625,208.37 C 48.755625,208.38 48.755625,208.41 48.745625,208.44 C 48.255625,210.79 46.695621,213.76 43.165625,215.11 L 43.305625,215.32 M 57.195625,211.47 C 57.865624,211.02 58.445625,210.27 58.715625,209.87 C 58.765625,209.8 58.795625,209.74 59.055625,209.7 C 59.215625,209.67 59.365625,209.64 59.365625,209.55 C 59.365625,209.27 58.705625,208.73 58.575625,208.73 C 58.505625,208.73 58.395625,208.84 58.295625,208.94 C 58.235625,209 58.115625,209.05 57.965625,209.06 C 57.375626,209.11 55.195624,209.24 53.945625,209.24 C 53.695625,209.24 53.155625,209.24 53.155625,208.65 L 53.125625,208.64 C 52.955625,208.71 52.895625,208.85 52.895625,209.06 C 52.895625,209.33 53.265625,209.96 53.565625,209.96 C 53.775625,209.96 53.815625,209.85 53.985625,209.78 C 54.455625,209.59 58.045625,209.37 58.225625,209.36 L 58.245625,209.4 C 58.065625,209.89 57.465625,210.85 56.985625,211.29 L 57.195625,211.47 M 55.155625,210.79 C 55.225625,210.77 55.285625,210.77 55.355625,210.77 C 55.475625,210.77 55.765625,210.77 55.765625,211.03 C 55.765625,211.53 55.245623,214 53.275625,215.29 L 53.465625,215.5 C 55.115623,214.48 55.975625,212.81 56.265625,211.5 C 56.325625,211.22 56.385625,211.1 56.425625,211.06 C 56.465625,211.02 56.525625,210.99 56.525625,210.93 C 56.525625,210.71 56.095624,210.49 55.575625,210.49 C 55.285625,210.49 55.165625,210.62 55.135625,210.76 L 55.155625,210.79 M 69.515625,210.65 C 69.235625,210.49 69.085625,210.42 68.905625,210.42 C 68.795625,210.42 68.685625,210.45 68.525625,210.49 C 68.225625,210.57 68.155622,210.58 65.585625,210.79 C 64.235626,210.9 63.565625,210.95 63.185625,210.95 C 62.865625,210.95 62.745625,210.92 62.585625,210.86 C 62.515625,210.83 62.455625,210.82 62.405625,210.82 C 62.335625,210.82 62.295625,210.85 62.295625,210.9 C 62.295625,211.03 62.765625,211.5 63.085625,211.5 C 63.195625,211.5 63.315625,211.47 63.475625,211.43 C 63.925625,211.31 64.555626,211.2 65.715625,211.13 C 66.905624,211.05 67.795626,211.02 68.425625,211.02 C 68.875625,211.02 69.195625,211.04 69.395625,211.07 C 69.475625,211.08 69.535625,211.09 69.595625,211.09 C 69.755625,211.09 69.835625,211.04 69.835625,210.97 C 69.835625,210.89 69.735625,210.77 69.515625,210.65 M 77.055625,211.47 C 77.775624,212 78.585625,213 79.015625,213.76 C 77.505627,213.91 74.745624,214.12 73.595625,214.18 C 74.475624,212.33 75.275626,210.12 75.835625,208.31 C 75.865625,208.2 75.925625,208.06 75.995625,208.01 C 76.065625,207.96 76.185625,207.89 76.185625,207.79 C 76.185625,207.48 75.495625,207.14 75.085625,207.14 C 74.805625,207.14 74.545625,207.33 74.545625,207.47 C 74.745625,207.46 75.245625,207.51 75.245625,207.87 C 75.245625,208.22 74.235624,211.94 73.265625,214.19 C 73.065625,214.2 72.905625,214.21 72.785625,214.21 C 72.335625,214.21 72.225625,213.88 72.165625,213.69 C 72.025625,213.74 71.975625,213.89 71.975625,214.05 C 71.975625,214.41 72.475625,214.97 72.785625,214.97 C 73.065625,214.97 73.135625,214.76 73.475625,214.72 C 74.795624,214.57 77.505627,214.26 79.155625,214.03 C 79.205625,214.14 79.245625,214.25 79.275625,214.34 C 79.415625,214.81 79.535625,215.12 79.785625,215.12 C 80.025625,215.12 80.065625,214.9 80.065625,214.58 C 80.065625,213.84 78.655624,212.19 77.225625,211.26 L 77.055625,211.47 M 85.015625,207.16 C 85.065625,207.15 85.105625,207.15 85.145625,207.15 C 85.625625,207.15 85.675625,207.45 85.715625,207.71 C 85.735625,207.89 85.745625,208.66 85.745625,209.03 C 84.955626,209.08 84.025625,209.12 83.715625,209.12 C 83.655625,209.12 83.405625,209.09 83.355625,209.08 C 83.255625,208.82 82.945625,208.59 82.705625,208.59 C 82.565625,208.59 82.395625,208.61 82.285625,208.66 L 82.295625,208.74 C 82.635625,208.85 82.795625,209.12 82.845625,209.42 C 82.895625,209.72 82.975625,210.41 82.975625,210.86 C 82.975625,211.06 82.955625,211.17 82.865625,211.25 C 82.935625,211.83 83.065625,212.12 83.305625,212.12 C 83.505625,212.12 83.555625,211.97 83.555625,211.78 C 83.555625,211.73 83.545625,211.67 83.545625,211.61 C 83.515625,211.32 83.405625,210.11 83.395625,209.48 C 83.515625,209.52 83.645625,209.55 83.815625,209.55 C 84.085625,209.55 84.285625,209.51 84.695625,209.46 C 85.035625,209.42 88.205625,209.18 88.625625,209.18 C 88.715625,209.18 88.765625,209.21 88.765625,209.3 C 88.765625,209.33 88.765625,209.35 88.755625,209.38 C 88.295625,211.93 87.085622,214.09 84.095625,215.26 L 84.215625,215.48 C 87.495622,214.4 88.755626,212.21 89.275625,209.7 C 89.305625,209.55 89.405625,209.49 89.485625,209.46 C 89.605625,209.41 89.745625,209.37 89.745625,209.25 C 89.745625,209.13 89.125625,208.56 88.935625,208.56 C 88.875625,208.56 88.795625,208.67 88.685625,208.77 C 88.585625,208.86 88.335625,208.89 88.025625,208.91 C 87.615625,208.94 86.935624,208.97 86.205625,209 C 86.215625,208.75 86.225625,208.15 86.235625,207.86 C 86.235625,207.74 86.255625,207.62 86.285625,207.56 C 86.345625,207.47 86.465625,207.41 86.465625,207.29 C 86.465625,207.06 85.835625,206.83 85.475625,206.83 C 85.205625,206.83 85.075625,206.96 84.985625,207.11 L 85.015625,207.16 M 93.645625,210.22 C 93.545625,210.3 93.515625,210.42 93.515625,210.52 C 93.515625,210.8 93.905625,211.22 94.335625,211.22 C 94.525625,211.22 94.475625,211.09 94.935625,211.03 C 95.125625,211 95.315625,210.98 95.515625,210.96 C 95.705625,211.09 95.755625,211.23 95.755625,212.4 C 95.755625,213.01 95.735625,213.85 95.695625,214.47 C 95.365625,214.49 93.735625,214.58 93.615625,214.58 C 93.535625,214.58 92.815625,214.56 92.815625,213.99 C 92.725625,214.01 92.575625,214.05 92.575625,214.36 C 92.575625,214.69 93.005625,215.17 93.245625,215.17 C 93.415625,215.17 93.415625,215.07 93.755625,215.02 C 94.875624,214.85 96.215626,214.74 97.125625,214.74 C 97.525625,214.74 97.995625,214.78 98.405625,214.82 C 98.745625,214.86 99.075625,214.95 99.285625,214.95 C 99.425625,214.95 99.515625,214.91 99.515625,214.76 C 99.515625,214.4 98.945625,214.31 98.495625,214.18 C 98.395625,214.29 98.225625,214.35 98.005625,214.36 C 97.575625,214.37 96.705624,214.42 96.165625,214.44 C 96.225625,213.75 96.295625,212.47 96.295625,211.78 C 96.295625,211.26 96.405625,211.42 96.405625,211.26 C 96.405625,211.16 96.265625,211.01 96.085625,210.9 C 96.455625,210.86 96.945625,210.82 97.345625,210.82 C 97.465625,210.82 97.985625,210.84 98.095625,210.84 C 98.305625,210.84 98.495625,210.78 98.495625,210.6 C 98.495625,210.37 97.895625,210.24 97.655625,210.24 C 97.485625,210.24 97.535624,210.42 96.945625,210.48 C 96.275626,210.56 95.285624,210.66 94.595625,210.66 C 94.205625,210.66 93.795625,210.57 93.665625,210.22 L 93.645625,210.22 M 107.31562,210.42 C 108.09562,209.86 108.70563,209.16 109.10563,208.64 C 109.26562,208.43 109.40563,208.36 109.56562,208.33 C 109.77562,208.29 109.91563,208.23 109.91563,208.12 C 109.91563,207.89 109.26562,207.31 109.10563,207.31 C 109.01563,207.31 108.91562,207.42 108.77563,207.52 C 108.68563,207.59 108.59562,207.6 108.41563,207.62 C 107.67563,207.68 104.35562,207.89 103.33562,207.89 C 102.78563,207.89 102.46563,207.61 102.46563,207.23 L 102.43563,207.22 C 102.24563,207.36 102.17562,207.49 102.17562,207.72 C 102.17562,208.01 102.64563,208.58 103.00562,208.58 C 103.17562,208.58 103.25563,208.5 103.46563,208.42 C 103.60562,208.37 103.91563,208.32 104.35563,208.27 C 104.87562,208.21 107.39563,208.02 108.65563,207.95 C 108.69562,207.95 108.73562,207.99 108.73562,208.02 C 108.73562,208.07 108.09562,209.32 107.09562,210.22 L 107.31562,210.42 M 105.08562,209.68 C 105.14562,209.67 105.19563,209.67 105.24563,209.67 C 105.41562,209.67 105.72562,209.7 105.72562,210.03 C 105.72562,210.19 105.37562,213.21 102.66563,215.15 L 102.84562,215.36 C 104.93562,214.06 105.79563,212.36 106.25562,210.56 C 106.33562,210.24 106.39563,210.08 106.44563,210.03 C 106.49562,209.98 106.56562,209.95 106.56562,209.87 C 106.56562,209.61 105.94562,209.36 105.55563,209.36 C 105.32563,209.36 105.10562,209.52 105.07563,209.65 L 105.08562,209.68 M 118.77563,207.33 C 118.77563,207.95 119.27563,208.44 119.89562,208.44 C 120.50562,208.44 121.00562,207.95 121.00562,207.33 C 121.00562,206.72 120.50562,206.22 119.89562,206.22 C 119.29563,206.22 118.77563,206.7 118.77563,207.33 M 119.89562,208.13 C 119.45563,208.13 119.09562,207.77 119.09562,207.33 C 119.09562,206.9 119.45563,206.54 119.89562,206.54 C 120.32562,206.54 120.68563,206.9 120.68563,207.33 C 120.68563,207.75 120.34562,208.13 119.89562,208.13 M 113.30563,215.35 C 116.80562,214 118.15563,211.25 118.67562,209.15 C 118.70562,209.02 118.73563,209 118.80563,208.94 C 118.87562,208.88 119.03562,208.81 119.03562,208.72 C 119.03562,208.55 118.41562,207.93 118.17562,207.93 C 118.03563,207.93 117.94562,208.16 117.76562,208.18 C 117.20563,208.23 114.03562,208.38 113.55563,208.38 C 113.13563,208.38 112.62562,208.38 112.51562,207.82 L 112.50562,207.81 C 112.38563,207.84 112.23562,207.95 112.23562,208.13 C 112.23562,208.53 112.67563,209.09 113.00562,209.09 C 113.14562,209.09 113.25563,209.01 113.40563,208.95 C 113.89562,208.75 117.79563,208.46 118.03562,208.46 C 118.12562,208.46 118.16563,208.48 118.16563,208.55 C 118.16563,208.57 118.15563,208.59 118.15563,208.61 C 117.71563,210.93 116.46562,213.6 113.12562,215.1 L 113.30563,215.35 M 122.29563,208.66 C 122.76562,208.68 122.80563,208.94 122.87562,209.47 C 122.99562,210.42 123.09562,213.09 123.09562,213.3 L 123.08562,213.97 C 123.08562,214.35 123.22563,214.6 123.45562,214.6 C 123.60562,214.6 123.65563,214.43 123.65563,214.12 C 123.65563,214.04 123.65562,213.94 123.64562,213.84 C 124.51562,213.79 126.03563,213.72 127.11562,213.72 C 127.41562,213.72 127.67563,213.73 127.88563,213.74 C 128.35562,213.77 128.74563,213.82 128.92562,213.82 C 129.19562,213.82 129.35563,213.79 129.35563,213.62 C 129.35563,213.49 129.02562,213.27 128.75563,213.16 C 128.92562,212 129.08563,210.06 129.12563,209.5 C 129.13562,209.39 129.18563,209.29 129.28563,209.25 C 129.45562,209.18 129.53563,209.15 129.53563,209.05 C 129.53563,208.93 128.91562,208.46 128.75563,208.46 C 128.68563,208.46 128.60562,208.55 128.51562,208.64 C 128.41563,208.74 128.37562,208.77 128.22563,208.78 C 127.44563,208.83 124.85562,208.91 123.84562,208.92 C 123.69563,208.92 123.56562,208.91 123.44563,208.9 C 123.29563,208.69 122.85562,208.44 122.66563,208.44 C 122.50563,208.44 122.33562,208.52 122.28562,208.65 L 122.29563,208.66 M 127.82563,213.31 C 127.03563,213.34 124.78562,213.43 123.61562,213.49 C 123.54563,212.47 123.45562,210.15 123.44563,209.67 C 123.44563,209.47 123.45563,209.35 123.47562,209.25 C 123.60562,209.33 123.73563,209.36 123.87562,209.36 C 123.98562,209.36 124.45563,209.3 124.55563,209.29 C 124.99562,209.25 127.82563,209.11 128.43562,209.09 C 128.52562,209.09 128.53563,209.1 128.53563,209.18 C 128.52563,209.96 128.43562,211.8 128.30562,213.18 C 128.19563,213.24 128.04562,213.3 127.82563,213.31 M 132.52562,208.07 C 133.49562,208.41 134.27563,209.02 134.61562,209.46 C 134.72562,209.6 134.92563,209.85 135.09563,209.85 C 135.27562,209.85 135.39562,209.73 135.39562,209.55 C 135.39562,208.77 133.87562,208.06 132.61562,207.86 L 132.52562,208.07 M 140.16563,208.48 C 138.24563,212.24 134.15562,214.22 133.51562,214.22 C 133.21563,214.22 132.96562,213.97 132.89562,213.66 C 132.78563,213.74 132.65562,213.9 132.65562,214.01 C 132.65562,214.54 133.33563,215.02 133.64562,215.02 C 133.85562,215.02 133.83563,214.78 134.31563,214.56 C 136.79562,213.42 139.13563,211.39 140.42562,208.64 L 140.16563,208.48 M 148.77562,207.33 C 148.77562,207.95 149.27563,208.44 149.89562,208.44 C 150.50562,208.44 151.00563,207.95 151.00563,207.33 C 151.00563,206.72 150.50562,206.22 149.89562,206.22 C 149.29563,206.22 148.77562,206.7 148.77562,207.33 M 149.89562,208.13 C 149.45563,208.13 149.09563,207.77 149.09563,207.33 C 149.09563,206.9 149.45563,206.54 149.89562,206.54 C 150.32562,206.54 150.68562,206.9 150.68562,207.33 C 150.68562,207.75 150.34562,208.13 149.89562,208.13 M 143.30562,215.35 C 146.80562,214 148.15563,211.25 148.67562,209.15 C 148.70562,209.02 148.73563,209 148.80562,208.94 C 148.87562,208.88 149.03563,208.81 149.03563,208.72 C 149.03563,208.55 148.41562,207.93 148.17562,207.93 C 148.03563,207.93 147.94562,208.16 147.76562,208.18 C 147.20563,208.23 144.03562,208.38 143.55562,208.38 C 143.13563,208.38 142.62562,208.38 142.51562,207.82 L 142.50563,207.81 C 142.38563,207.84 142.23562,207.95 142.23562,208.13 C 142.23562,208.53 142.67563,209.09 143.00563,209.09 C 143.14562,209.09 143.25563,209.01 143.40562,208.95 C 143.89562,208.75 147.79563,208.46 148.03563,208.46 C 148.12562,208.46 148.16563,208.48 148.16563,208.55 C 148.16563,208.57 148.15562,208.59 148.15562,208.61 C 147.71563,210.93 146.46562,213.6 143.12563,215.1 L 143.30562,215.35 M 154.00563,207.28 C 154.67562,207.28 154.74563,207.76 154.75563,208.18 C 154.77562,208.62 154.78563,209.57 154.78563,210.5 C 154.78563,212.61 154.76562,213.23 154.68562,213.9 C 154.66563,214.08 154.58562,214.21 154.51562,214.31 C 154.56562,214.51 154.66563,215.47 155.02562,215.47 C 155.16562,215.47 155.32563,215.35 155.32563,214.93 C 155.32563,214.56 155.29563,212.91 155.29563,212.57 C 155.29563,211.95 155.29563,211.19 155.30562,210.46 C 156.57562,210.8 157.60563,211.28 158.04563,211.66 C 158.29562,211.87 158.57563,212.15 158.80562,212.15 C 158.93562,212.15 159.04563,212.04 159.04563,211.87 C 159.04563,211.54 158.77562,211.34 158.18562,211 C 157.60563,210.67 156.51562,210.38 155.30562,210.21 C 155.32562,209.35 155.33563,208.57 155.35563,208.15 C 155.36562,208 155.38563,207.91 155.41563,207.86 C 155.47562,207.75 155.57563,207.69 155.57563,207.6 C 155.57563,207.25 154.79562,206.98 154.39562,206.98 C 154.21563,206.98 154.05562,207.12 153.99562,207.27 L 154.00563,207.28 M 168.76562,209.8 C 168.81562,209.79 168.86563,209.79 168.91563,209.79 C 169.14562,209.79 169.31563,209.9 169.31563,210.06 C 169.31563,210.26 168.00562,210.76 166.87563,211.33 C 166.73563,210.27 166.18562,209.99 165.61562,209.99 C 165.21563,209.99 164.61562,210.18 163.89562,210.89 L 163.84563,210.87 C 164.20562,210.37 164.60563,209.67 164.92562,208.87 C 165.76562,208.78 167.24563,208.5 167.96562,208.27 C 168.18562,208.2 168.41563,208.15 168.41563,208.02 C 168.41563,207.78 168.09562,207.73 167.50563,207.73 C 167.41563,207.94 167.22562,208.04 166.97563,208.12 C 166.55563,208.26 165.70562,208.44 165.07563,208.51 C 165.16562,208.28 165.25563,208.04 165.34563,207.79 C 165.43562,207.55 165.57563,207.54 165.57563,207.33 C 165.57563,207.11 165.13562,206.84 164.62563,206.84 C 164.32563,206.84 164.17562,207 164.11562,207.2 L 164.13563,207.21 C 164.18562,207.2 164.25563,207.19 164.32563,207.19 C 164.57562,207.19 164.86562,207.27 164.86562,207.52 C 164.86562,207.78 164.79562,208.09 164.62563,208.57 C 164.34563,208.61 163.92562,208.63 163.69563,208.63 C 162.98563,208.63 162.58562,208.46 162.28563,208.03 L 162.14562,208.15 C 162.40562,208.72 162.84563,208.95 163.58562,208.95 C 163.80562,208.95 164.15563,208.94 164.48562,208.91 C 164.11563,209.98 163.16562,211.52 162.30562,212.31 C 161.99563,212.6 161.83562,212.71 161.83562,212.95 C 161.83562,213.12 161.97563,213.28 162.06563,213.28 C 162.18562,213.28 162.29563,213.13 162.52562,212.8 C 163.38562,211.56 164.57563,210.27 165.56563,210.27 C 165.96562,210.27 166.34563,210.5 166.40562,211.35 C 166.40562,211.43 166.41563,211.5 166.41563,211.57 C 165.30563,212.14 164.14562,213.02 164.14562,213.98 C 164.14562,214.73 164.51563,215.35 166.97563,215.35 C 167.52562,215.35 168.63563,215.33 169.13563,215.22 C 169.39562,215.16 169.44563,215.08 169.44563,214.94 C 169.44563,214.79 169.10562,214.68 168.48562,214.65 C 168.30563,214.85 167.49562,214.9 166.38563,214.9 C 165.22563,214.9 164.53563,214.63 164.53563,213.96 C 164.53563,213.03 165.50563,212.39 166.42562,211.91 C 166.43562,212.28 166.37562,212.64 166.30562,213.08 C 166.29563,213.16 166.28563,213.23 166.28563,213.29 C 166.28563,213.56 166.39563,213.69 166.53563,213.69 C 166.81562,213.69 166.91563,213.21 166.91563,211.92 C 166.91563,211.84 166.91562,211.78 166.90562,211.7 C 167.90562,211.21 169.15563,210.7 169.63563,210.6 C 170.07562,210.51 170.17562,210.38 170.17562,210.21 C 170.17562,209.99 169.70562,209.5 169.20562,209.5 C 169.05563,209.5 168.79562,209.56 168.72563,209.68 L 168.76562,209.8 M 175.39579,211.40496 L 175.39579,212.7686 L 176.57348,212.7686 L 176.57348,211.40496 L 175.39579,211.40496 M 177.04868,212.97521 C 177.04868,213.71212 177.04868,214.2011 177.04868,214.44215 C 177.05556,214.74518 177.06245,214.95868 177.06934,215.08264 L 176.53215,215.35124 C 176.5597,214.52479 176.57347,213.73278 176.57348,212.97521 L 175.39579,212.97521 C 175.35446,213.55372 175.18917,214.0427 174.89992,214.44215 C 174.61755,214.82094 174.08036,215.13774 173.28835,215.39256 L 173.26769,215.24793 C 173.92196,214.93802 174.35584,214.55923 174.56934,214.11157 C 174.77595,213.69835 174.87926,213.31956 174.87926,212.97521 L 174.52802,212.97521 C 174.23876,212.97521 173.97017,213.01653 173.72224,213.09917 L 173.41232,212.7686 L 174.92058,212.7686 L 174.92058,211.40496 C 174.63132,211.40496 174.36962,211.4394 174.13546,211.50826 L 173.80488,211.19835 L 177.23463,211.19835 L 177.6272,210.80579 L 178.22637,211.40496 L 177.04868,211.40496 L 177.04868,212.7686 L 177.66852,212.7686 L 178.1024,212.33471 L 178.7429,212.97521 L 177.04868,212.97521 M 172.29662,207.06612 L 172.97843,207.45868 L 174.63133,207.45868 L 174.92058,207.08678 L 175.6024,207.66529 L 175.27182,207.91322 C 175.27182,209.09091 175.29248,209.85538 175.33381,210.20661 C 175.13408,210.41323 174.93435,210.52342 174.73463,210.53719 L 174.73463,210.12397 L 172.83381,210.12397 L 172.83381,215.6405 C 172.68918,215.7989 172.48945,215.91598 172.23463,215.99174 C 172.26218,215.30992 172.28284,214.27686 172.29662,212.89256 C 172.29662,212.16942 172.30006,211.32576 172.30695,210.36157 C 172.30695,209.3905 172.3035,208.29202 172.29662,207.06612 M 172.83381,208.67769 L 174.73463,208.67769 L 174.73463,207.68595 L 173.06108,207.68595 C 172.8889,207.67218 172.81314,207.73417 172.83381,207.8719 L 172.83381,208.67769 M 172.83381,209.89669 L 174.73463,209.89669 L 174.73463,208.90496 L 172.83381,208.90496 L 172.83381,209.89669 M 179.17678,208.90496 L 177.27596,208.90496 L 177.27596,209.89669 L 179.17678,209.89669 L 179.17678,208.90496 M 177.27596,207.8719 L 177.27596,208.67769 L 179.17678,208.67769 L 179.17678,207.68595 L 177.46191,207.68595 C 177.32416,207.67218 177.26218,207.73417 177.27596,207.8719 M 179.28009,207.00413 L 180.08587,207.58264 L 179.71397,207.85124 L 179.71397,215.24793 C 179.72774,215.57851 179.39027,215.84022 178.70158,216.03306 C 178.68779,216.03306 178.67058,216.00895 178.64992,215.96074 C 178.51217,215.59573 178.14372,215.33747 177.54455,215.18595 L 177.58587,215.04132 C 178.26768,215.1584 178.70501,215.20317 178.89786,215.17562 C 179.09757,215.16185 179.19055,215.0551 179.17678,214.85537 L 179.17678,210.12397 L 177.27596,210.12397 L 177.27596,210.2686 C 177.15198,210.39257 176.95226,210.47521 176.67678,210.51653 C 176.7181,210.17218 176.73876,209.02893 176.73877,207.08678 L 177.3586,207.45868 L 178.97017,207.45868 L 179.28009,207.00413 M 186.03563,207.13 C 186.18562,207.11 186.62563,207.18 186.62563,207.41 C 186.62563,207.52 186.47562,207.75 186.30562,207.89 C 185.56563,208.52 184.27562,209.67 183.67562,210.29 C 183.43563,210.53 183.28563,210.84 183.28563,211.12 C 183.28563,211.52 183.54563,211.78 183.98562,212.04 C 185.44562,212.91 186.63563,214.17 187.23562,215.11 C 187.41562,215.39 187.60563,215.61 187.73562,215.61 C 187.89562,215.61 188.01562,215.43 188.01562,215.25 C 188.01562,214.72 186.66562,213.21 184.36562,211.85 C 183.81563,211.52 183.66563,211.34 183.66563,211.12 C 183.66563,210.92 183.76563,210.67 183.92562,210.5 C 184.48562,209.91 186.29563,208.44 187.13563,207.89 C 187.37562,207.73 187.62563,207.67 187.62563,207.56 C 187.62563,207.17 186.89562,206.83 186.40562,206.83 C 186.22563,206.83 186.09562,206.91 185.99562,207.1 L 186.03563,207.13 M 206.3975,207.61 L 204.5675,210.33 C 203.8675,211.38 203.6875,211.83 203.6875,212.56 C 203.6875,214.03 204.7775,215.13 206.2375,215.13 C 207.6775,215.13 208.7275,214.02 208.7275,212.51 C 208.7275,211.09 207.6875,209.97 206.3775,209.97 C 206.0675,209.97 205.8375,210.03 205.5075,210.18 L 207.2475,207.61 L 206.3975,207.61 M 206.2175,210.64 C 207.2475,210.64 207.9875,211.44 207.9875,212.54 C 207.9875,213.65 207.2475,214.46 206.2375,214.46 C 205.1975,214.46 204.4275,213.64 204.4275,212.52 C 204.4275,211.46 205.2075,210.64 206.2175,210.64 M 217.30781,210.64 L 212.26781,210.64 L 212.26781,211.38 L 217.30781,211.38 L 217.30781,210.64 M 217.30781,212.62 L 212.26781,212.62 L 212.26781,213.36 L 217.30781,213.36 L 217.30781,212.62 M 223.06528,206.71488 C 223.69888,206.97659 224.02257,207.12811 224.03635,207.16942 C 224.02946,207.19009 223.99847,207.21075 223.94338,207.2314 C 223.75742,207.2934 223.62312,207.43114 223.54048,207.64463 C 223.24434,208.354 222.98952,208.91185 222.77602,209.31818 C 223.05839,209.45593 223.2099,209.54546 223.23057,209.58678 C 223.23745,209.60056 223.21679,209.62466 223.16858,209.65909 C 223.01706,209.76929 222.94131,209.90359 222.94131,210.06198 C 222.94131,210.28237 222.93442,210.82989 222.92065,211.70455 C 222.90687,212.68251 222.8931,213.92562 222.87933,215.43388 C 223.98814,214.67631 224.93166,213.54683 225.7099,212.04545 L 223.91238,212.04545 L 223.51982,212.10744 L 223.37519,211.81818 L 226.37106,211.81818 L 226.37106,210.39256 L 225.15205,210.39256 L 225.15205,210.70248 C 225.08318,210.75069 224.95232,210.80923 224.75949,210.8781 C 224.61486,210.91943 224.52533,210.92976 224.4909,210.90909 C 224.51155,210.427 224.54599,209.4697 224.5942,208.03719 C 224.60109,207.6653 224.60797,207.38981 224.61486,207.21074 C 224.7526,207.24519 224.98676,207.36227 225.31734,207.56198 L 228.04462,207.56198 C 228.05838,207.56199 228.11003,207.50345 228.19957,207.38636 C 228.32353,207.22797 228.39585,207.14877 228.41652,207.14876 C 228.69199,207.32783 228.92615,207.53444 229.119,207.7686 C 229.10521,207.78926 229.05356,207.82714 228.96404,207.88223 C 228.83317,207.96488 228.76775,208.01654 228.76776,208.03719 L 228.78842,210.59917 C 228.5818,210.75069 228.3683,210.82645 228.14792,210.82645 L 228.14792,210.39256 L 226.94957,210.39256 L 226.94957,211.81818 L 228.89172,211.81818 L 229.28428,211.28099 L 230.13139,212.00413 L 230.11073,212.04545 L 227.25949,212.04545 C 227.61761,213.27135 228.63001,214.15289 230.29668,214.69008 L 230.29668,214.77273 C 229.89034,214.77273 229.59764,214.89325 229.41858,215.1343 C 229.4048,215.15496 229.39447,215.16529 229.38759,215.16529 C 228.21678,214.47658 227.43166,213.43664 227.03222,212.04545 L 226.94957,212.04545 L 226.94957,216.0124 C 226.7705,216.14325 226.52946,216.21212 226.22643,216.21901 L 226.3504,212.29339 C 225.26224,213.93251 224.09833,215.04132 222.85866,215.61983 L 222.85866,215.97107 C 222.6245,216.10193 222.40412,216.1708 222.19751,216.17769 C 222.27326,215.26171 222.32836,213.23692 222.3628,210.10331 C 221.80494,210.99863 221.28153,211.70111 220.79255,212.21074 L 220.68924,212.14876 C 221.92202,210.26171 222.71403,208.45042 223.06528,206.71488 M 228.14792,207.78926 L 225.37933,207.78926 C 225.20026,207.77549 225.1245,207.85813 225.15205,208.03719 L 225.15205,210.16529 L 228.14792,210.16529 L 228.14792,207.78926 M 234.78015,206.69421 C 234.84213,206.68734 235.14516,206.83885 235.68924,207.14876 C 235.69613,207.17632 235.66858,207.21075 235.6066,207.25207 C 235.36555,207.44491 235.14516,207.76172 234.94544,208.20248 L 238.54048,208.20248 L 239.09833,207.58264 L 240.06941,208.36777 L 240.02809,208.42975 L 234.82147,208.42975 C 234.47023,209.11158 234.0088,209.88293 233.43718,210.7438 C 233.4234,210.83334 233.40274,212.5551 233.37519,215.90909 C 233.20301,216.06749 232.98952,216.16391 232.7347,216.19835 C 232.7347,215.87465 232.76913,214.31818 232.838,211.52893 C 232.26638,212.24518 231.57079,212.94077 230.75123,213.6157 L 230.64792,213.5124 C 231.44682,212.70661 232.19062,211.72865 232.87933,210.57851 L 232.87933,209.7314 C 232.92753,209.7383 232.9964,209.77273 233.08594,209.83471 C 233.16169,209.88981 233.23056,209.93113 233.29255,209.95868 C 233.60935,209.47659 233.87795,208.96695 234.09833,208.42975 L 231.86693,208.42975 L 231.16445,208.53306 L 230.87519,208.20248 L 234.20164,208.20248 L 234.78015,206.69421 M 238.45784,209.27686 C 238.80218,209.51791 239.08455,209.77962 239.30495,210.06198 C 239.29805,210.06888 239.26017,210.07232 239.19131,210.07231 C 238.91582,210.06543 238.70576,210.1102 238.56114,210.20661 C 238.18924,210.44766 237.70026,210.7989 237.0942,211.26033 C 237.37656,211.35675 237.52119,211.41874 237.52809,211.44628 C 237.52808,211.46695 237.48331,211.52204 237.39379,211.61157 C 237.29736,211.70799 237.24571,211.76998 237.23883,211.79752 L 237.23883,212.43802 L 239.05701,212.43802 L 239.53222,211.90083 L 240.27602,212.62397 L 240.25536,212.66529 L 237.23883,212.66529 L 237.23883,215.22727 C 237.29392,215.87465 236.984,216.21212 236.30908,216.23967 C 236.35728,215.84711 235.94406,215.54408 235.06941,215.33058 L 235.09007,215.20661 C 235.765,215.28926 236.19199,215.3168 236.37106,215.28926 C 236.55701,215.26859 236.63965,215.16529 236.619,214.97934 L 236.619,212.66529 L 234.55288,212.66529 L 233.89172,212.78926 L 233.66445,212.43802 L 236.619,212.43802 C 236.61899,212.07301 236.60522,211.62535 236.57767,211.09504 C 236.59144,211.08127 236.68097,211.11571 236.84627,211.19835 C 237.20439,210.86777 237.5694,210.46832 237.94131,210 L 235.27602,210 L 234.71817,210.10331 L 234.4909,209.77273 L 237.96197,209.77273 C 238.00329,209.74518 238.16857,209.5799 238.45784,209.27686 M 248.10594,208.03 C 247.94594,208.46 246.53594,208.77 245.99594,208.86 C 245.90594,208.5 245.81594,207.85 245.81594,207.71 C 245.81594,207.49 245.92594,207.51 245.92594,207.36 C 245.92594,207.14 245.41594,206.98 245.06594,206.98 C 244.77594,206.98 244.53594,207.12 244.44594,207.36 L 244.50594,207.46 C 244.62594,207.4 244.74594,207.37 244.86594,207.37 C 245.02594,207.37 245.26594,207.37 245.33594,207.75 C 245.39594,208.04 245.51594,208.54 245.61594,208.93 C 244.99594,209.05 243.91594,209.16 243.32594,209.16 C 242.75594,209.16 242.33594,209.06 241.92594,208.59 L 241.74594,208.72 C 241.89594,208.97 242.19594,209.24 242.44594,209.38 C 242.60594,209.47 242.93594,209.52 243.54594,209.52 C 243.95594,209.52 244.96594,209.41 245.71594,209.29 C 246.06594,210.43 246.48594,211.13 246.89594,211.5 L 246.88594,211.53 C 246.48594,211.44 246.06594,211.43 245.75594,211.43 C 242.94594,211.43 242.60594,212.89 242.60594,213.4 C 242.60594,214.84 244.25594,215.34 246.02594,215.34 C 247.55594,215.34 248.22594,215.28 248.22594,215.06 C 248.22594,214.91 247.94594,214.74 247.60594,214.69 C 247.47594,214.83 246.47594,214.9 245.94594,214.9 C 244.50594,214.9 243.03594,214.54 243.03594,213.35 C 243.03594,212.56 243.93594,211.72 245.47594,211.72 C 245.93594,211.72 246.40594,211.75 246.87594,211.9 C 247.34594,212.05 247.50594,212.35 247.66594,212.35 C 247.79594,212.35 247.93594,212.29 247.93594,212.12 C 247.93594,211.95 247.89594,211.7 247.65594,211.58 C 246.88594,211.19 246.29594,210.1 246.08594,209.22 C 246.48594,209.15 249.07594,208.68 249.07594,208.17 C 249.07594,207.96 248.64594,207.96 248.17594,207.96 L 248.10594,208.03 M 253.09594,207.25 C 253.44594,207.24 253.61594,207.26 253.61594,207.82 C 253.61594,207.94 253.59594,208.43 253.57594,208.77 C 253.46594,208.84 252.75594,209.02 252.37594,209.11 C 251.93594,209.21 251.74594,209.46 251.74594,209.8 C 251.74594,210.05 251.88594,210.15 251.98594,210.49 L 252.18594,210.41 C 252.14594,210.29 252.12594,210.17 252.12594,210.07 C 252.12594,209.86 252.20594,209.69 252.37594,209.6 C 252.74594,209.4 253.30594,209.24 253.54594,209.21 C 253.51594,209.54 253.50594,209.98 253.47594,210.36 C 253.25594,211 252.30594,211.98 251.47594,212.79 C 251.26594,213 251.25594,213.01 251.25594,213.18 C 251.25594,213.45 251.31594,213.59 251.50594,213.59 C 251.71594,213.59 251.80594,213.38 251.96594,213.13 C 252.35594,212.55 252.88594,211.93 253.45594,211.35 C 253.43594,211.87 253.41594,212.64 253.41594,213.37 C 253.41594,213.69 253.36594,213.73 253.32594,213.73 C 253.27594,213.73 252.89594,213.37 252.66594,213.09 L 252.55594,213.17 C 253.16594,214.06 253.26594,214.36 253.27594,214.77 C 253.28594,215.11 253.34594,215.49 253.51594,215.49 C 253.68594,215.49 253.91594,215.21 253.91594,215 C 253.91594,214.77 253.85594,214.5 253.84594,214.32 C 253.80594,213.47 253.80594,212.63 253.80594,211.9 C 253.80594,211.68 253.82594,211.2 253.84594,210.93 C 255.07594,209.71 256.27594,208.87 257.27594,208.87 C 257.94594,208.87 258.06594,209.37 258.06594,209.99 C 258.06594,210.17 258.05594,210.37 258.04594,210.57 C 258.00594,211.21 257.85594,212.38 257.85594,213.5 C 257.85594,214.32 258.11594,214.94 258.83594,214.94 C 259.42594,214.94 259.83594,214.52 260.25594,213.85 L 260.08594,213.72 C 259.60594,214.21 259.23594,214.39 258.85594,214.39 C 258.51594,214.39 258.34594,214.06 258.34594,213.34 C 258.34594,212.93 258.39594,212.36 258.44594,211.82 C 258.53594,210.88 258.55594,210.65 258.55594,210.04 C 258.55594,209.22 258.42594,208.52 257.26594,208.52 C 256.46594,208.52 254.98594,209.38 253.84594,210.54 C 253.85594,210.46 253.84594,210.41 253.86594,210.3 C 253.90594,210.06 253.92594,209.93 253.99594,209.73 C 254.12594,209.38 254.41594,209.3 254.41594,209.12 C 254.41594,208.93 254.22594,208.81 254.02594,208.68 C 254.03594,208.59 254.04594,208.42 254.06594,208.32 C 254.14594,207.9 254.29594,207.87 254.29594,207.61 C 254.29594,207.25 253.78594,206.97 253.52594,206.97 C 253.35594,206.97 253.19594,207.05 253.07594,207.15 L 253.09594,207.25 M 261.66594,208.14 C 261.56594,208.2 261.50594,208.35 261.50594,208.54 C 261.50594,208.82 261.97594,209.36 262.39594,209.36 C 262.58594,209.36 262.69594,209.27 262.83594,209.18 C 263.33594,208.82 266.13594,208.26 267.28594,208.17 L 267.29594,208.2 C 266.32594,208.75 264.30594,210.19 264.30594,212.49 C 264.30594,214.15 264.86594,214.96 267.44594,215.25 C 267.58594,215.26 267.70594,215.27 267.79594,215.27 C 268.03594,215.27 268.14594,215.22 268.14594,215.09 C 268.14594,214.88 267.82594,214.62 267.50594,214.62 C 267.40594,214.62 267.27594,214.63 267.15594,214.63 C 267.07594,214.63 266.99594,214.63 266.92594,214.62 C 265.75594,214.46 264.76594,214.11 264.76594,212.55 C 264.76594,211.64 265.05594,210.79 265.40594,210.27 C 265.97594,209.35 267.41594,208.26 268.42594,208.26 C 268.73594,208.26 269.06594,208.31 269.29594,208.31 C 269.47594,208.31 269.59594,208.28 269.59594,208.16 C 269.59594,207.91 269.33594,207.75 268.55594,207.58 C 268.45594,207.67 268.20594,207.77 267.92594,207.8 C 266.45594,207.96 263.93594,208.4 263.15594,208.56 C 262.91594,208.61 262.53594,208.66 262.36594,208.66 C 262.03594,208.66 261.75594,208.43 261.72594,208.15 L 261.66594,208.14 M 271.27594,208.25 C 271.81594,208.25 271.93594,208.65 271.93594,209.02 L 271.93594,209.15 C 271.88594,209.79 271.82594,210.85 271.82594,211.64 C 271.82594,212.47 272.06594,213.57 272.91594,214.42 C 273.16594,214.66 273.60594,214.84 273.74594,214.84 C 273.93594,214.84 274.08594,214.81 274.08594,214.71 C 274.08594,214.62 274.01594,214.46 273.90594,214.36 C 273.87594,214.33 273.86594,214.28 273.86594,214.22 C 273.86594,214.16 273.87594,214.09 273.90594,214.02 C 274.11594,213.53 274.90594,212.11 275.32594,211.32 L 275.09594,211.23 C 274.56594,212.16 273.92594,213.22 273.68594,213.53 C 273.42594,213.87 273.35594,214 273.21594,214 C 273.03594,214 272.18594,213.17 272.18594,211.63 C 272.18594,211.21 272.21594,209.95 272.45594,209.27 C 272.50594,209.14 272.60594,209 272.60594,208.89 C 272.60594,208.42 272.03594,208.01 271.63594,208.01 C 271.48594,208.01 271.33594,208.07 271.25594,208.22 L 271.27594,208.25 M 277.20594,208.82 C 278.54594,209.38 279.25594,210.75 279.29594,212.17 C 279.29594,212.47 279.40594,212.6 279.54594,212.6 C 279.78594,212.6 279.83594,212.26 279.83594,211.92 C 279.83594,210.72 278.98594,209.14 277.32594,208.63 L 277.20594,208.82 M 283.81594,211.35 C 284.52594,210.6 285.86594,209.28 287.01594,208.34 C 287.36594,208.05 287.63594,208.12 287.63594,207.89 C 287.63594,207.71 287.18594,207.28 286.81594,207.28 C 286.72594,207.28 286.58594,207.5 286.43594,207.55 C 286.01594,207.69 284.19594,207.94 283.59594,207.94 C 283.28594,207.94 283.07594,207.67 283.11594,207.38 L 283.06594,207.35 C 282.84594,207.48 282.81594,207.64 282.81594,207.76 C 282.81594,208.13 283.21594,208.6 283.65594,208.6 C 283.83594,208.6 283.84594,208.48 284.08594,208.39 C 284.61594,208.2 286.44594,207.88 286.59594,207.88 C 286.65594,207.88 286.68594,207.9 286.68594,207.93 C 286.68594,207.97 286.64594,208.03 286.56594,208.11 C 285.38594,209.28 283.22594,211.46 282.40594,212.28 C 282.26594,212.42 281.89594,212.71 281.89594,212.99 C 281.89594,213.17 282.03594,213.35 282.16594,213.35 C 282.35594,213.35 282.48594,213.13 282.60594,212.94 C 282.76594,212.69 283.08594,212.3 283.19594,212.2 C 284.00594,211.45 285.37594,210.88 286.29594,210.88 C 287.85594,210.88 288.39594,211.78 288.39594,212.91 C 288.39594,213.67 287.79594,214.45 286.99594,214.71 C 287.02594,214.67 287.04594,214.62 287.04594,214.54 C 287.04594,213.8 286.13594,212.94 285.13594,212.94 C 284.23594,212.94 283.70594,213.44 283.70594,214.08 C 283.70594,214.72 284.52594,215.3 285.68594,215.3 C 287.78594,215.3 288.94594,214.21 288.94594,212.88 C 288.94594,211.72 288.35594,210.6 286.34594,210.6 C 285.57594,210.6 284.64594,210.94 283.85594,211.39 L 283.81594,211.35 M 284.07594,214.02 C 284.07594,213.52 284.53594,213.21 285.05594,213.21 C 285.79594,213.21 286.46594,213.87 286.53594,214.64 C 286.54594,214.73 286.57594,214.77 286.61594,214.82 C 286.36594,214.88 286.06594,214.9 285.78594,214.9 C 284.92594,214.9 284.07594,214.68 284.07594,214.02 M 298.78594,206.65 C 299.34594,207.03 299.59594,207.52 299.71594,207.86 C 299.80594,208.1 299.86594,208.15 300.00594,208.15 C 300.11594,208.15 300.22594,208.06 300.22594,207.81 C 300.22594,207.42 299.69594,206.81 298.93594,206.48 L 298.78594,206.65 M 297.67594,207 C 298.23594,207.37 298.52594,207.87 298.64594,208.22 C 298.73594,208.45 298.79594,208.5 298.93594,208.5 C 299.04594,208.5 299.16594,208.41 299.16594,208.16 C 299.16594,207.72 298.51594,207.11 297.82594,206.81 L 297.67594,207 M 292.77594,215.39 C 296.19593,214.06 297.66594,211.28 298.19594,209.19 C 298.22594,209.07 298.25594,209.04 298.32594,208.98 C 298.39594,208.92 298.47594,208.85 298.47594,208.76 C 298.47594,208.59 297.88594,208.02 297.64594,208.02 C 297.50594,208.02 297.41594,208.25 297.23594,208.27 C 296.67594,208.32 293.50594,208.47 293.02594,208.47 C 292.60594,208.47 292.09594,208.47 291.98594,207.91 L 291.97594,207.9 C 291.85594,207.93 291.70594,208.04 291.70594,208.22 C 291.70594,208.62 292.14594,209.18 292.47594,209.18 C 292.61594,209.18 292.72594,209.1 292.87594,209.04 C 293.37594,208.83 297.33594,208.55 297.55594,208.55 C 297.64594,208.55 297.67594,208.57 297.67594,208.63 C 297.67594,208.65 297.67594,208.67 297.66594,208.7 C 297.22594,211.02 295.93593,213.64 292.59594,215.14 L 292.77594,215.39 M 309.08594,210.65 C 308.80594,210.49 308.65594,210.42 308.47594,210.42 C 308.36594,210.42 308.25594,210.45 308.09594,210.49 C 307.79594,210.57 307.72593,210.58 305.15594,210.79 C 303.80594,210.9 303.13594,210.95 302.75594,210.95 C 302.43594,210.95 302.31594,210.92 302.15594,210.86 C 302.08594,210.83 302.02594,210.82 301.97594,210.82 C 301.90594,210.82 301.86594,210.85 301.86594,210.9 C 301.86594,211.03 302.33594,211.5 302.65594,211.5 C 302.76594,211.5 302.88594,211.47 303.04594,211.43 C 303.49594,211.31 304.12594,211.2 305.28594,211.13 C 306.47594,211.05 307.36594,211.02 307.99594,211.02 C 308.44594,211.02 308.76594,211.04 308.96594,211.07 C 309.04594,211.08 309.10594,211.09 309.16594,211.09 C 309.32594,211.09 309.40594,211.04 309.40594,210.97 C 309.40594,210.89 309.30594,210.77 309.08594,210.65 M 313.57594,207.28 C 314.24594,207.28 314.31594,207.76 314.32594,208.18 C 314.34594,208.62 314.35594,209.57 314.35594,210.5 C 314.35594,212.61 314.33594,213.23 314.25594,213.9 C 314.23594,214.08 314.15594,214.21 314.08594,214.31 C 314.13594,214.51 314.23594,215.47 314.59594,215.47 C 314.73594,215.47 314.89594,215.35 314.89594,214.93 C 314.89594,214.56 314.86594,212.91 314.86594,212.57 C 314.86594,211.95 314.86594,211.19 314.87594,210.46 C 316.14594,210.8 317.17594,211.28 317.61594,211.66 C 317.86594,211.87 318.14594,212.15 318.37594,212.15 C 318.50594,212.15 318.61594,212.04 318.61594,211.87 C 318.61594,211.54 318.34594,211.34 317.75594,211 C 317.17594,210.67 316.08594,210.38 314.87594,210.21 C 314.89594,209.35 314.90594,208.57 314.92594,208.15 C 314.93594,208 314.95594,207.91 314.98594,207.86 C 315.04594,207.75 315.14594,207.69 315.14594,207.6 C 315.14594,207.25 314.36594,206.98 313.96594,206.98 C 313.78594,206.98 313.62594,207.12 313.56594,207.27 L 313.57594,207.28 M 327.36594,210.58 C 327.36594,212.97 326.32594,214.33 323.93594,215.22 L 324.07594,215.47 C 326.70593,214.66 327.87594,213.14 327.87594,210.61 L 327.87594,207.94 C 327.87594,207.86 327.90594,207.77 327.92594,207.73 C 327.96594,207.67 328.06594,207.61 328.06594,207.53 C 328.06594,207.25 327.31594,207.03 327.00594,207.03 C 326.80594,207.03 326.51594,207.26 326.57594,207.38 C 326.98594,207.35 327.25594,207.53 327.32594,207.92 C 327.36594,208.2 327.36594,208.74 327.36594,209.15 L 327.36594,210.58 M 323.26594,210.73 C 323.26594,211.57 323.13594,211.56 323.13594,211.67 C 323.13594,212.12 323.23594,212.54 323.50594,212.54 C 323.75594,212.54 323.79594,212.2 323.79594,211.84 C 323.79594,211.47 323.76594,209.77 323.76594,209.51 C 323.76594,209.04 323.79594,208.8 323.84594,208.63 C 323.89594,208.49 323.94594,208.33 323.94594,208.26 C 323.94594,207.9 323.28594,207.67 323.01594,207.67 C 322.80594,207.67 322.60594,207.78 322.55594,207.94 L 322.56594,207.97 C 323.26594,207.97 323.26594,208.26 323.26594,209.49 L 323.26594,210.73 M 331.63594,215.1 C 333.30594,214.25 334.85594,212.74 335.72594,211.68 C 336.62594,212.22 337.98594,213.42 338.46594,214.13 C 338.84594,214.67 339.02594,215.04 339.22594,215.04 C 339.40594,215.04 339.52594,214.84 339.52594,214.62 C 339.52594,214.34 339.11594,213.83 338.65594,213.37 C 338.06594,212.8 336.88594,211.98 335.94594,211.43 C 336.55594,210.69 337.35594,209.38 337.69594,208.74 C 337.74594,208.64 337.83594,208.51 337.97594,208.45 C 338.11594,208.4 338.25594,208.37 338.25594,208.22 C 338.25594,208.08 337.68594,207.63 337.51594,207.63 C 337.45594,207.63 337.31594,207.74 337.26594,207.79 C 337.20594,207.85 337.13594,207.9 336.99594,207.92 C 336.31594,208 333.96594,208.17 333.67594,208.17 C 333.29594,208.17 332.81594,208.17 332.76594,207.68 C 332.74594,207.68 332.55594,207.75 332.55594,208.03 C 332.55594,208.35 333.07594,208.86 333.39594,208.86 C 333.55594,208.86 333.59594,208.79 333.67594,208.74 C 333.76594,208.68 333.86594,208.63 334.11594,208.58 C 335.07594,208.4 336.99594,208.22 337.15594,208.22 C 337.22594,208.22 337.24594,208.24 337.24594,208.27 C 337.24594,208.29 337.24594,208.32 337.22594,208.36 C 336.39594,210.54 333.83594,213.52 331.47594,214.88 L 331.63594,215.1 M 343.57594,207.28 C 344.24594,207.28 344.31594,207.76 344.32594,208.18 C 344.34594,208.62 344.35594,209.57 344.35594,210.5 C 344.35594,212.61 344.33594,213.23 344.25594,213.9 C 344.23594,214.08 344.15594,214.21 344.08594,214.31 C 344.13594,214.51 344.23594,215.47 344.59594,215.47 C 344.73594,215.47 344.89594,215.35 344.89594,214.93 C 344.89594,214.56 344.86594,212.91 344.86594,212.57 C 344.86594,211.95 344.86594,211.19 344.87594,210.46 C 346.14594,210.8 347.17594,211.28 347.61594,211.66 C 347.86594,211.87 348.14594,212.15 348.37594,212.15 C 348.50594,212.15 348.61594,212.04 348.61594,211.87 C 348.61594,211.54 348.34594,211.34 347.75594,211 C 347.17594,210.67 346.08594,210.38 344.87594,210.21 C 344.89594,209.35 344.90594,208.57 344.92594,208.15 C 344.93594,208 344.95594,207.91 344.98594,207.86 C 345.04594,207.75 345.14594,207.69 345.14594,207.6 C 345.14594,207.25 344.36594,206.98 343.96594,206.98 C 343.78594,206.98 343.62594,207.12 343.56594,207.27 L 343.57594,207.28"
     id="text31" />
  <text
     xml:space="preserve"
     x="10"
     y="230"
     id="text33" />
  <path
     style="font-style:normal;font-variant:normal;font-weight:normal;font-stretch:normal;text-align:start;line-height:125%;writing-mode:lr-tb;text-anchor:start;font-family:URW Gothic L;-inkscape-font-specification:URW Gothic L"
     d="M 55.575938,237.36 C 55.825937,237.34 56.235937,237.42 56.235937,237.71 C 56.235937,238.07 55.465937,239.78 54.885937,240.72 C 54.035938,240.21 52.805936,239.71 51.645938,239.32 L 51.525937,239.55 C 52.545936,239.97 53.665938,240.5 54.615938,241.16 C 53.755938,242.66 52.245936,244.17 50.605938,245.24 L 50.785938,245.48 C 52.515936,244.55 53.945939,243.08 55.065938,241.41 C 56.445936,242.48 56.885938,243.43 57.145938,243.43 C 57.285937,243.43 57.415937,243.28 57.415937,243.11 C 57.415937,242.62 56.425936,241.74 55.335938,240.99 C 55.855937,240.16 56.305938,239.24 56.715938,238.33 C 56.795937,238.17 56.875938,238.1 56.955937,238.04 C 57.105937,237.93 57.215938,237.93 57.215938,237.82 C 57.215938,237.47 56.505937,237.03 56.075938,237.03 C 55.885938,237.03 55.685937,237.11 55.555937,237.32 L 55.575938,237.36 M 61.075938,237.96 C 61.165937,238.43 61.695938,238.62 62.045938,238.62 C 62.215937,238.62 62.555938,238.6 62.965938,238.57 C 63.095937,238.68 63.155938,238.88 63.155938,239.31 C 63.155938,239.74 63.115937,240.6 63.085938,241.02 C 62.495938,241.08 61.965937,241.14 61.605938,241.18 C 61.355938,241.21 61.155937,241.23 60.995937,241.23 C 60.345938,241.23 60.315937,240.91 60.295938,240.75 C 60.175938,240.75 60.045938,240.92 60.045938,241.1 C 60.045938,241.44 60.685938,241.85 60.985937,241.85 C 61.095937,241.85 61.205938,241.8 61.315937,241.75 C 61.645937,241.59 62.095938,241.52 63.075938,241.37 C 63.065938,241.83 63.045938,242.67 63.045938,243.13 C 63.045938,243.89 63.175939,244.89 64.645938,244.89 C 65.435937,244.89 66.585938,244.87 67.085938,244.8 C 67.375937,244.76 67.645938,244.73 67.645938,244.52 C 67.645938,244.34 67.195937,244.26 66.825937,244.2 C 66.705938,244.47 65.125937,244.47 64.555937,244.47 C 63.675938,244.47 63.475937,243.95 63.465938,243.14 C 63.465938,242.71 63.475938,242.01 63.515937,241.31 C 64.695936,241.16 65.965938,241.07 66.905937,241.07 C 67.335937,241.07 67.705938,241.09 67.955938,241.13 C 68.075937,241.15 68.175938,241.16 68.255938,241.16 C 68.585937,241.16 68.635937,241 68.635937,240.94 C 68.635937,240.67 67.905937,240.52 67.475938,240.49 C 67.395938,240.65 66.975937,240.69 66.615938,240.71 C 65.805938,240.76 64.605936,240.87 63.535938,240.98 C 63.575937,240.21 63.635938,239.5 63.705937,239.19 C 63.725937,239.11 63.735937,239.04 63.735937,238.98 C 63.735937,238.87 63.685937,238.65 63.525937,238.52 C 64.565936,238.44 65.805938,238.31 66.205938,238.27 C 66.535937,238.23 66.805937,238.16 66.805937,237.95 C 66.805937,237.72 66.295937,237.64 65.805937,237.58 C 65.735938,237.76 65.495937,237.88 65.245937,237.92 C 64.665938,238.04 62.975937,238.21 62.405938,238.21 C 61.815938,238.21 61.365937,238.19 61.145938,237.9 L 61.075938,237.96 M 76.115938,240.58 C 76.115938,242.97 75.075935,244.33 72.685937,245.22 L 72.825937,245.47 C 75.455935,244.66 76.625938,243.14 76.625938,240.61 L 76.625938,237.94 C 76.625938,237.86 76.655938,237.77 76.675938,237.73 C 76.715937,237.67 76.815938,237.61 76.815938,237.53 C 76.815938,237.25 76.065937,237.03 75.755938,237.03 C 75.555938,237.03 75.265938,237.26 75.325937,237.38 C 75.735937,237.35 76.005938,237.53 76.075937,237.92 C 76.115937,238.2 76.115938,238.74 76.115938,239.15 L 76.115938,240.58 M 72.015938,240.73 C 72.015938,241.57 71.885937,241.56 71.885937,241.67 C 71.885937,242.12 71.985938,242.54 72.255938,242.54 C 72.505937,242.54 72.545937,242.2 72.545937,241.84 C 72.545937,241.47 72.515938,239.77 72.515938,239.51 C 72.515938,239.04 72.545938,238.8 72.595938,238.63 C 72.645937,238.49 72.695937,238.33 72.695937,238.26 C 72.695937,237.9 72.035937,237.67 71.765938,237.67 C 71.555938,237.67 71.355937,237.78 71.305937,237.94 L 71.315938,237.97 C 72.015937,237.97 72.015938,238.26 72.015938,239.49 L 72.015938,240.73 M 97.368125,237.33 C 97.428125,237.32 97.508125,237.31 97.578125,237.31 C 98.128124,237.31 98.198125,237.63 98.268125,237.93 C 98.298125,238.12 98.378125,238.67 98.438125,239.12 C 96.728127,239.42 96.478125,239.46 96.098125,239.46 C 95.668125,239.46 95.458125,239.36 95.348125,239.02 C 95.208125,239.02 95.168125,239.16 95.168125,239.28 C 95.178125,239.62 95.638125,240.01 96.088125,240.01 C 96.278125,240.01 96.358125,239.93 96.528125,239.85 C 96.768125,239.74 98.268125,239.47 98.478125,239.43 C 98.558125,240 98.688125,241.22 98.728125,241.86 C 97.868126,241.99 96.928124,242.12 95.998125,242.28 C 95.788125,242.31 95.608125,242.33 95.458125,242.33 C 95.028125,242.33 94.788125,242.2 94.668125,241.93 C 94.548125,241.93 94.498125,242.08 94.498125,242.22 C 94.508125,242.51 94.988125,242.94 95.308125,242.94 C 95.438125,242.94 95.538125,242.88 95.698125,242.81 C 96.248124,242.56 97.998126,242.29 98.758125,242.18 C 98.908125,243.76 98.908125,244 98.908125,244.38 C 98.908125,244.57 98.898125,244.7 98.838125,244.8 C 98.918125,245.14 99.038125,245.51 99.298125,245.51 C 99.488125,245.51 99.528125,245.32 99.528125,245.09 C 99.528125,245.03 99.518125,244.96 99.518125,244.89 C 99.508125,244.68 99.408125,244.39 99.368125,244.02 C 99.328125,243.62 99.228125,242.8 99.148125,242.13 C 100.31812,241.97 101.56813,241.82 102.31812,241.82 C 102.69812,241.82 103.18812,241.82 103.18812,241.58 C 103.18812,241.37 102.69812,241.27 102.09812,241.2 C 101.94813,241.41 101.63812,241.49 101.06812,241.56 C 100.54813,241.61 99.868124,241.7 99.108125,241.81 C 99.028125,241 98.928125,240.11 98.858125,239.36 C 99.818124,239.18 100.68813,239.08 101.20812,239.08 C 101.55812,239.08 101.89813,239.08 101.89813,238.89 C 101.89813,238.59 101.36812,238.52 100.84812,238.48 C 100.67813,238.69 100.27812,238.77 99.988125,238.83 C 99.738125,238.88 99.268125,238.97 98.828125,239.05 C 98.818125,238.86 98.718125,238.01 98.718125,237.83 C 98.718125,237.71 98.728125,237.62 98.758125,237.55 C 98.798125,237.45 98.828125,237.41 98.828125,237.29 C 98.828125,237.05 98.188125,236.95 97.848125,236.95 C 97.608125,236.95 97.388125,237.16 97.358125,237.32 L 97.368125,237.33 M 112.32812,240.65 C 112.04813,240.49 111.89812,240.42 111.71813,240.42 C 111.60813,240.42 111.49812,240.45 111.33813,240.49 C 111.03813,240.57 110.96812,240.58 108.39812,240.79 C 107.04813,240.9 106.37812,240.95 105.99813,240.95 C 105.67813,240.95 105.55812,240.92 105.39812,240.86 C 105.32813,240.83 105.26812,240.82 105.21813,240.82 C 105.14813,240.82 105.10813,240.85 105.10813,240.9 C 105.10813,241.03 105.57813,241.5 105.89812,241.5 C 106.00812,241.5 106.12813,241.47 106.28812,241.43 C 106.73812,241.31 107.36813,241.2 108.52813,241.13 C 109.71812,241.05 110.60813,241.02 111.23812,241.02 C 111.68812,241.02 112.00813,241.04 112.20812,241.07 C 112.28812,241.08 112.34813,241.09 112.40812,241.09 C 112.56812,241.09 112.64812,241.04 112.64812,240.97 C 112.64812,240.89 112.54812,240.77 112.32812,240.65 M 121.57812,236.7 C 122.10812,237.01 122.51813,237.48 122.66813,237.8 C 122.74812,237.97 122.80813,238.06 122.97813,238.06 C 123.05812,238.06 123.17812,237.96 123.17812,237.8 C 123.17812,237.57 122.98812,237.02 121.70812,236.53 L 121.57812,236.7 M 120.35813,237.17 C 120.88812,237.48 121.29813,237.95 121.44813,238.27 C 121.52812,238.44 121.58813,238.53 121.75813,238.53 C 121.83812,238.53 121.95812,238.43 121.95812,238.27 C 121.95812,238.04 121.76812,237.49 120.48812,237 L 120.35813,237.17 M 115.25813,239.18 C 115.21813,239.23 115.16813,239.32 115.16813,239.41 C 115.16813,239.74 115.67813,240.14 116.05813,240.14 C 116.19812,240.14 116.36813,240.04 116.44813,240.01 C 116.85812,239.9 117.96813,239.81 118.60813,239.76 C 118.61812,240.35 118.62812,241.01 118.62812,241.7 C 118.62812,242.47 118.61812,243.26 118.57812,244.01 C 118.57812,244.09 118.55812,244.24 118.38813,244.24 C 118.22813,244.24 117.69812,244.05 116.79812,243.73 L 116.73812,243.97 C 117.23812,244.18 118.09813,244.58 118.36813,244.9 C 118.46812,245.02 118.45813,245.32 118.68812,245.32 C 118.96812,245.32 119.14813,244.82 119.15812,244.57 C 119.15812,244.33 119.06812,244.19 119.05813,243.44 C 119.04813,242.52 119.02813,240.99 119.04812,239.72 C 119.67812,239.67 120.40813,239.64 120.92812,239.64 L 121.13813,239.64 C 121.56812,239.65 121.98813,239.72 122.22813,239.72 C 122.32812,239.72 122.50813,239.62 122.50813,239.54 C 122.50813,239.24 121.74812,239.05 121.41813,239 C 121.39813,239 121.37812,239 121.34812,239.01 C 121.28813,239.09 121.29812,239.2 120.74813,239.29 C 120.42813,239.34 119.75812,239.37 119.05813,239.43 C 119.05813,238.93 119.08813,238.49 119.09812,238.18 C 119.10812,238.06 119.17813,237.95 119.20812,237.92 C 119.24812,237.88 119.28812,237.8 119.28812,237.75 C 119.28812,237.38 118.63812,237.12 118.17812,237.12 C 117.86813,237.12 117.65813,237.39 117.70812,237.48 C 117.78812,237.47 117.85813,237.47 117.92812,237.47 C 118.46812,237.47 118.57813,237.55 118.60813,239.46 C 117.87813,239.53 116.61812,239.62 116.32812,239.62 C 116.15813,239.62 115.45812,239.55 115.34812,239.15 L 115.25813,239.18 M 120.41813,241.18 C 121.24812,241.73 121.93813,242.64 122.20812,243.25 C 122.34812,243.55 122.40813,243.94 122.66813,243.94 C 122.88812,243.94 122.92812,243.78 122.92812,243.54 C 122.92812,242.76 121.82812,241.64 120.61813,240.99 L 120.41813,241.18 M 116.61813,241.19 C 116.54813,242.39 115.91812,243.19 115.06812,243.45 C 114.82813,243.52 114.71813,243.63 114.71813,243.78 C 114.71813,243.94 114.95813,243.98 115.11813,243.98 C 115.41812,243.98 115.69813,243.81 115.87812,243.68 C 116.43812,243.29 116.90812,242.59 116.87812,241.21 L 116.61813,241.19 M 132.32812,240.65 C 132.04813,240.49 131.89812,240.42 131.71812,240.42 C 131.60813,240.42 131.49812,240.45 131.33812,240.49 C 131.03813,240.57 130.96812,240.58 128.39812,240.79 C 127.04813,240.9 126.37812,240.95 125.99813,240.95 C 125.67813,240.95 125.55812,240.92 125.39812,240.86 C 125.32813,240.83 125.26812,240.82 125.21813,240.82 C 125.14813,240.82 125.10813,240.85 125.10813,240.9 C 125.10813,241.03 125.57813,241.5 125.89812,241.5 C 126.00812,241.5 126.12813,241.47 126.28812,241.43 C 126.73812,241.31 127.36813,241.2 128.52812,241.13 C 129.71812,241.05 130.60813,241.02 131.23812,241.02 C 131.68812,241.02 132.00813,241.04 132.20812,241.07 C 132.28812,241.08 132.34813,241.09 132.40813,241.09 C 132.56812,241.09 132.64812,241.04 132.64812,240.97 C 132.64812,240.89 132.54812,240.77 132.32812,240.65 M 136.81813,237.28 C 137.48812,237.28 137.55813,237.76 137.56813,238.18 C 137.58812,238.62 137.59813,239.57 137.59813,240.5 C 137.59813,242.61 137.57812,243.23 137.49812,243.9 C 137.47813,244.08 137.39812,244.21 137.32812,244.31 C 137.37812,244.51 137.47813,245.47 137.83812,245.47 C 137.97812,245.47 138.13813,245.35 138.13813,244.93 C 138.13813,244.56 138.10813,242.91 138.10813,242.57 C 138.10813,241.95 138.10813,241.19 138.11812,240.46 C 139.38812,240.8 140.41813,241.28 140.85813,241.66 C 141.10812,241.87 141.38813,242.15 141.61812,242.15 C 141.74812,242.15 141.85813,242.04 141.85813,241.87 C 141.85813,241.54 141.58812,241.34 140.99812,241 C 140.41813,240.67 139.32812,240.38 138.11812,240.21 C 138.13812,239.35 138.14813,238.57 138.16813,238.15 C 138.17812,238 138.19813,237.91 138.22813,237.86 C 138.28812,237.75 138.38813,237.69 138.38813,237.6 C 138.38813,237.25 137.60812,236.98 137.20812,236.98 C 137.02813,236.98 136.86812,237.12 136.80812,237.27 L 136.81813,237.28 M 141.14812,237.26 C 141.70812,237.64 141.97813,238.09 142.09813,238.43 C 142.18812,238.67 142.24813,238.72 142.38813,238.72 C 142.49812,238.72 142.64812,238.63 142.64812,238.38 C 142.64812,237.96 142.08812,237.41 141.31813,237.08 L 141.14812,237.26 M 140.11812,237.9 C 140.67812,238.27 140.94813,238.73 141.06813,239.08 C 141.15812,239.31 141.21813,239.36 141.35813,239.36 C 141.46812,239.36 141.61812,239.27 141.61812,239.02 C 141.61812,238.6 141.05812,238.05 140.28813,237.71 L 140.11812,237.9 M 159.3,237.19 C 160.21,237.38 161.08,237.81 161.53,238.23 C 161.84,238.51 161.93,238.6 162.08,238.6 C 162.22,238.6 162.35,238.49 162.35,238.34 C 162.35,237.94 161.2,237.1 159.37,236.95 L 159.3,237.19 M 157.15,243.81 C 158.59,243.29 159.94,242.6 161.06,241.78 C 161.1,242.04 161.1,242.09 161.1,242.67 C 161.1,244.44 161.05,244.5 160.89,244.67 C 161,244.95 161.02,245.46 161.24,245.46 C 161.53,245.46 161.59,245.19 161.59,244.95 C 161.59,244.68 161.56,244.38 161.55,244.1 C 161.54,243.99 161.54,243.5 161.54,243.04 C 161.54,242.66 161.54,242.3 161.56,242.19 C 161.58,242.06 161.63,241.93 161.63,241.83 C 161.63,241.73 161.53,241.6 161.43,241.51 C 162.18,240.91 162.82,240.29 163.3,239.66 C 163.38,239.55 163.43,239.54 163.54,239.51 C 163.69,239.47 163.8,239.45 163.8,239.35 C 163.8,239.2 163.25,238.81 163.13,238.81 C 163.07,238.81 162.98,238.89 162.89,238.97 C 162.82,239.03 162.76,239.06 162.6,239.08 C 162.09,239.14 160.01,239.36 159.08,239.36 C 158.7,239.36 158.39,239.25 158.3,238.84 C 158.25,238.84 158.1,239 158.1,239.18 C 158.1,239.41 158.52,239.98 158.87,239.98 C 159.04,239.98 159.09,239.88 159.21,239.84 C 159.69,239.67 162.46,239.39 162.71,239.39 C 162.75,239.39 162.77,239.39 162.77,239.41 C 162.77,239.52 161.03,241.97 157.01,243.59 L 157.15,243.81 M 162.22,241.76 C 163.14,242.14 163.83,242.61 164.37,243.15 C 164.64,243.42 164.86,243.75 165,243.75 C 165.17,243.75 165.28,243.61 165.28,243.45 C 165.28,243.23 164.98,242.92 164.57,242.6 C 164.07,242.22 163.29,241.81 162.36,241.52 L 162.22,241.76 M 170.28,239.46 C 170.78,240.14 170.85,240.81 170.87,241.32 C 170.87,241.56 170.99,241.66 171.17,241.66 C 171.34,241.66 171.45,241.45 171.45,241.08 C 171.45,240.64 171.19,239.93 170.47,239.35 L 170.28,239.46 M 169.63,245.5 C 171.97,244.46 173.45,242.52 174.11,240.38 C 174.13,240.31 174.18,240.27 174.21,240.25 C 174.28,240.19 174.39,240.14 174.39,240.02 C 174.39,239.79 173.8,239.38 173.4,239.38 C 173.11,239.38 173.04,239.61 173.04,239.63 C 173.21,239.64 173.42,239.71 173.53,239.8 C 173.59,239.84 173.61,239.92 173.61,240.01 C 173.61,240.53 172.59,243.77 169.48,245.27 L 169.63,245.5 M 167.94,239.96 C 168.35,240.44 168.7,241.06 168.73,241.63 C 168.74,241.84 168.83,241.92 169.02,241.92 C 169.18,241.92 169.29,241.72 169.29,241.47 C 169.29,240.93 168.74,240.18 168.13,239.8 L 167.94,239.96 M 179.24,237.28 C 179.91,237.28 179.98,237.76 179.99,238.18 C 180.01,238.62 180.02,239.57 180.02,240.5 C 180.02,242.61 180,243.23 179.92,243.9 C 179.9,244.08 179.82,244.21 179.75,244.31 C 179.8,244.51 179.9,245.47 180.26,245.47 C 180.4,245.47 180.56,245.35 180.56,244.93 C 180.56,244.56 180.53,242.91 180.53,242.57 C 180.53,241.95 180.53,241.19 180.54,240.46 C 181.81,240.8 182.84,241.28 183.28,241.66 C 183.53,241.87 183.81,242.15 184.04,242.15 C 184.17,242.15 184.28,242.04 184.28,241.87 C 184.28,241.54 184.01,241.34 183.42,241 C 182.84,240.67 181.75,240.38 180.54,240.21 C 180.56,239.35 180.57,238.57 180.59,238.15 C 180.6,238 180.62,237.91 180.65,237.86 C 180.71,237.75 180.81,237.69 180.81,237.6 C 180.81,237.25 180.03,236.98 179.63,236.98 C 179.45,236.98 179.29,237.12 179.23,237.27 L 179.24,237.28 M 187.51,237.89 C 187.82,237.97 187.96,238.2 188.04,238.5 C 188.14,238.87 188.23,239.98 188.23,240.24 C 188.23,240.42 188.15,240.51 188.15,240.69 C 188.15,240.92 188.35,241.48 188.61,241.48 C 188.77,241.48 188.85,241.36 188.85,241.17 C 188.85,240.8 188.63,239.12 188.63,238.84 C 188.63,238.74 188.64,238.63 188.67,238.56 C 188.75,238.58 188.85,238.59 188.96,238.59 C 189.18,238.59 189.43,238.56 189.63,238.54 C 190.59,238.46 192.53,238.3 193.72,238.28 C 193.86,238.28 193.89,238.29 193.89,238.36 C 193.89,238.39 193.89,238.43 193.88,238.48 C 193.54,241.39 192.39,243.69 189.27,245.12 L 189.44,245.36 C 193.03,243.88 193.98,241.52 194.5,238.68 C 194.53,238.55 194.58,238.55 194.68,238.5 C 194.8,238.44 194.97,238.39 194.97,238.26 C 194.97,238.14 194.4,237.57 194.19,237.57 C 194.1,237.57 194.03,237.64 193.9,237.75 C 193.77,237.85 193.69,237.92 193.56,237.93 C 192.51,238 189.79,238.13 188.97,238.13 C 188.83,238.13 188.72,238.13 188.61,238.12 C 188.48,237.91 188.16,237.68 187.86,237.68 C 187.72,237.69 187.56,237.76 187.5,237.85 L 187.51,237.89 M 204.75,240.65 C 204.47,240.49 204.32,240.42 204.14,240.42 C 204.03,240.42 203.92,240.45 203.76,240.49 C 203.46,240.57 203.39,240.58 200.82,240.79 C 199.47,240.9 198.8,240.95 198.42,240.95 C 198.1,240.95 197.98,240.92 197.82,240.86 C 197.75,240.83 197.69,240.82 197.64,240.82 C 197.57,240.82 197.53,240.85 197.53,240.9 C 197.53,241.03 198,241.5 198.32,241.5 C 198.43,241.5 198.55,241.47 198.71,241.43 C 199.16,241.31 199.79,241.2 200.95,241.13 C 202.14,241.05 203.03,241.02 203.66,241.02 C 204.11,241.02 204.43,241.04 204.63,241.07 C 204.71,241.08 204.77,241.09 204.83,241.09 C 204.99,241.09 205.07,241.04 205.07,240.97 C 205.07,240.89 204.97,240.77 204.75,240.65 M 207.97,241.77 C 209.02,241.1 209.77,240.15 210.36,239.26 C 210.5,239.37 210.68,239.44 211.01,239.44 C 211.26,239.44 213.24,239.05 213.61,239.05 C 213.66,239.05 213.69,239.07 213.69,239.12 C 213.69,239.15 213.68,239.2 213.66,239.26 C 212.91,241.73 211.3,243.91 208.61,245.22 L 208.76,245.44 C 211.8,244.18 213.32,241.97 214.14,239.61 C 214.2,239.44 214.35,239.29 214.43,239.25 C 214.55,239.19 214.68,239.17 214.68,239.05 C 214.68,238.9 214.09,238.45 213.92,238.45 C 213.85,238.45 213.8,238.52 213.73,238.59 C 213.66,238.66 213.59,238.73 213.38,238.76 C 213.11,238.8 211.1,239.05 210.53,239.01 C 210.76,238.64 210.97,238.26 211.11,237.92 C 211.18,237.76 211.24,237.73 211.29,237.68 C 211.39,237.58 211.53,237.56 211.53,237.44 C 211.53,237.18 210.86,236.82 210.52,236.82 C 210.25,236.82 210.12,236.93 210.06,237.08 C 210.31,237.08 210.6,237.19 210.6,237.38 C 210.6,237.94 209.69,240.06 207.79,241.57 L 207.97,241.77 M 230.92219,243.39 C 230.93219,244.45 231.63219,245.13 232.68219,245.13 C 233.66219,245.13 234.35219,244.43 234.35219,243.43 C 234.35219,242.76 234.04219,242.3 233.40219,242.03 C 232.57219,241.69 232.53219,241.67 232.37219,241.59 C 232.03219,241.42 231.87219,241.19 231.87219,240.87 C 231.87219,240.43 232.22219,240.08 232.66219,240.08 C 233.14219,240.08 233.42219,240.36 233.46219,240.88 L 234.21219,240.88 C 234.18219,240 233.55219,239.4 232.67219,239.4 C 231.78219,239.4 231.12219,240.05 231.12219,240.94 C 231.12219,241.33 231.26219,241.67 231.53219,241.92 C 231.76219,242.13 231.77219,242.13 232.54219,242.45 C 232.87219,242.58 233.11219,242.7 233.25219,242.79 C 233.47219,242.94 233.60219,243.2 233.60219,243.5 C 233.60219,244.05 233.21219,244.45 232.68219,244.45 C 232.07219,244.45 231.69219,244.06 231.65219,243.39 L 230.92219,243.39 M 239.86891,243.39 C 239.29891,244.15 238.76891,244.45 237.99891,244.45 C 236.76891,244.45 235.79891,243.48 235.79891,242.27 C 235.79891,241.04 236.74891,240.08 237.96891,240.08 C 238.77891,240.08 239.44891,240.47 239.86891,241.19 L 240.69891,241.19 C 240.25891,240.09 239.20891,239.4 237.97891,239.4 C 236.33891,239.4 235.04891,240.66 235.04891,242.25 C 235.04891,243.88 236.34891,245.13 238.02891,245.13 C 238.70891,245.13 239.33891,244.91 239.84891,244.51 C 240.19891,244.23 240.40891,243.96 240.70891,243.39 L 239.86891,243.39 M 241.27375,243.39 C 241.28375,244.45 241.98375,245.13 243.03375,245.13 C 244.01375,245.13 244.70375,244.43 244.70375,243.43 C 244.70375,242.76 244.39375,242.3 243.75375,242.03 C 242.92375,241.69 242.88375,241.67 242.72375,241.59 C 242.38375,241.42 242.22375,241.19 242.22375,240.87 C 242.22375,240.43 242.57375,240.08 243.01375,240.08 C 243.49375,240.08 243.77375,240.36 243.81375,240.88 L 244.56375,240.88 C 244.53375,240 243.90375,239.4 243.02375,239.4 C 242.13375,239.4 241.47375,240.05 241.47375,240.94 C 241.47375,241.33 241.61375,241.67 241.88375,241.92 C 242.11375,242.13 242.12375,242.13 242.89375,242.45 C 243.22375,242.58 243.46375,242.7 243.60375,242.79 C 243.82375,242.94 243.95375,243.2 243.95375,243.5 C 243.95375,244.05 243.56375,244.45 243.03375,244.45 C 242.42375,244.45 242.04375,244.06 242.00375,243.39 L 241.27375,243.39 M 245.61047,245 L 246.35047,245 L 246.35047,239.53 L 245.61047,239.53 L 245.61047,245 M 245.61047,238.87 L 246.35047,238.87 L 246.35047,237.61 L 245.61047,237.61 L 245.61047,238.87 M 267.43672,245.1 C 269.10672,244.25 270.65672,242.74 271.52672,241.68 C 272.42672,242.22 273.78672,243.42 274.26672,244.13 C 274.64672,244.67 274.82672,245.04 275.02672,245.04 C 275.20672,245.04 275.32672,244.84 275.32672,244.62 C 275.32672,244.34 274.91672,243.83 274.45672,243.37 C 273.86672,242.8 272.68672,241.98 271.74672,241.43 C 272.35672,240.69 273.15672,239.38 273.49672,238.74 C 273.54672,238.64 273.63672,238.51 273.77672,238.45 C 273.91672,238.4 274.05672,238.37 274.05672,238.22 C 274.05672,238.08 273.48672,237.63 273.31672,237.63 C 273.25672,237.63 273.11672,237.74 273.06672,237.79 C 273.00672,237.85 272.93672,237.9 272.79672,237.92 C 272.11672,238 269.76672,238.17 269.47672,238.17 C 269.09672,238.17 268.61672,238.17 268.56672,237.68 C 268.54672,237.68 268.35672,237.75 268.35672,238.03 C 268.35672,238.35 268.87672,238.86 269.19672,238.86 C 269.35672,238.86 269.39672,238.79 269.47672,238.74 C 269.56672,238.68 269.66672,238.63 269.91672,238.58 C 270.87672,238.4 272.79672,238.22 272.95672,238.22 C 273.02672,238.22 273.04672,238.24 273.04672,238.27 C 273.04672,238.29 273.04672,238.32 273.02672,238.36 C 272.19672,240.54 269.63672,243.52 267.27672,244.88 L 267.43672,245.1 M 284.32672,236.69 C 283.70672,236.69 283.19672,237.2 283.19672,237.83 C 283.19672,238.45 283.70672,238.96 284.32672,238.96 C 284.95672,238.96 285.46672,238.45 285.46672,237.83 C 285.46672,237.22 284.97672,236.69 284.32672,236.69 M 284.32672,238.64 C 283.88672,238.64 283.51672,238.27 283.51672,237.83 C 283.51672,237.39 283.88672,237.02 284.32672,237.02 C 284.77672,237.02 285.13672,237.39 285.13672,237.83 C 285.13672,238.25 284.79672,238.64 284.32672,238.64 M 282.57672,239.1 C 282.76672,239.13 282.88672,239.25 282.88672,239.35 C 282.88672,239.59 282.58672,239.82 281.66672,240.26 C 280.88672,240.63 279.95672,240.98 279.25672,241.22 C 279.26672,240.41 279.35672,239.43 279.41672,238.72 C 279.43672,238.5 279.46672,238.41 279.50672,238.35 C 279.55672,238.27 279.60672,238.26 279.60672,238.13 C 279.60672,237.8 279.06672,237.57 278.68672,237.57 C 278.46672,237.57 278.15672,237.68 278.15672,237.88 L 278.16672,237.89 C 278.87672,237.89 278.89672,238.21 278.89672,238.66 C 278.89672,239.01 278.86672,239.5 278.85672,240.11 C 278.84672,240.64 278.83672,241.27 278.83672,241.76 C 278.83672,244.46 279.41672,244.66 281.44672,244.66 C 282.16672,244.66 283.16672,244.64 283.99672,244.58 C 284.28672,244.56 284.88672,244.48 284.88672,244.28 C 284.88672,243.99 284.45672,243.97 284.01672,243.9 C 283.72672,244.19 281.43672,244.2 281.09672,244.2 C 279.33672,244.2 279.24672,243.78 279.24672,241.5 C 280.51672,241.12 282.08672,240.56 283.28672,239.87 C 283.59672,239.69 283.82672,239.83 283.82672,239.64 C 283.82672,239.25 283.17672,238.95 282.89672,238.95 C 282.75672,238.95 282.60672,239.01 282.56672,239.09 L 282.57672,239.1 M 294.88672,240.65 C 294.60672,240.49 294.45672,240.42 294.27672,240.42 C 294.16672,240.42 294.05672,240.45 293.89672,240.49 C 293.59672,240.57 293.52672,240.58 290.95672,240.79 C 289.60672,240.9 288.93672,240.95 288.55672,240.95 C 288.23672,240.95 288.11672,240.92 287.95672,240.86 C 287.88672,240.83 287.82672,240.82 287.77672,240.82 C 287.70672,240.82 287.66672,240.85 287.66672,240.9 C 287.66672,241.03 288.13672,241.5 288.45672,241.5 C 288.56672,241.5 288.68672,241.47 288.84672,241.43 C 289.29672,241.31 289.92672,241.2 291.08672,241.13 C 292.27672,241.05 293.16672,241.02 293.79672,241.02 C 294.24672,241.02 294.56672,241.04 294.76672,241.07 C 294.84672,241.08 294.90672,241.09 294.96672,241.09 C 295.12672,241.09 295.20672,241.04 295.20672,240.97 C 295.20672,240.89 295.10672,240.77 294.88672,240.65 M 300.43672,237.34 C 300.93672,237.34 301.12672,237.46 301.12672,237.86 C 301.12672,238.11 300.95672,239.16 300.84672,239.62 C 300.16672,239.68 299.24672,239.75 298.81672,239.75 C 298.40672,239.75 298.10672,239.68 298.04672,239.26 L 297.97672,239.27 C 297.88672,239.34 297.83672,239.46 297.83672,239.63 C 297.83672,240.01 298.34672,240.4 298.57672,240.4 C 298.65672,240.4 298.69672,240.36 298.79672,240.3 C 299.10672,240.1 300.10672,239.99 300.78672,239.93 C 300.44672,241.38 299.56672,243.33 297.42672,245 L 297.60672,245.22 C 299.74672,243.79 300.79672,241.79 301.27672,239.87 C 302.79672,239.72 303.93672,239.64 304.02672,239.64 C 304.15672,239.64 304.15672,239.67 304.15672,239.91 C 304.15672,241.88 303.68672,244.47 303.02672,244.47 C 302.67672,244.47 301.54672,243.96 301.01672,243.7 L 300.89672,243.9 C 301.42672,244.2 302.14672,244.57 302.36672,244.7 C 302.55672,244.81 302.63672,244.97 302.69672,245.08 C 302.75672,245.19 302.84672,245.28 302.95672,245.28 C 304.23672,245.28 304.57672,241.65 304.63672,240.28 C 304.64672,240.02 304.66672,239.91 304.74672,239.86 C 304.89672,239.77 305.03672,239.74 305.03672,239.62 C 305.03672,239.49 304.44672,239.05 304.33672,239.05 C 304.23672,239.05 304.13672,239.17 304.05672,239.23 C 303.97672,239.29 303.92672,239.35 303.78672,239.37 C 303.18672,239.44 302.20672,239.5 301.33672,239.57 C 301.43672,239.19 301.55672,238.6 301.63672,238.18 C 301.67672,237.96 301.73672,237.89 301.77672,237.85 C 301.87672,237.75 301.89672,237.69 301.89672,237.57 C 301.89672,237.34 301.30672,237.04 300.95672,237.04 C 300.70672,237.04 300.51672,237.13 300.41672,237.29 L 300.43672,237.34 M 314.88672,240.65 C 314.60672,240.49 314.45672,240.42 314.27672,240.42 C 314.16672,240.42 314.05672,240.45 313.89672,240.49 C 313.59672,240.57 313.52672,240.58 310.95672,240.79 C 309.60672,240.9 308.93672,240.95 308.55672,240.95 C 308.23672,240.95 308.11672,240.92 307.95672,240.86 C 307.88672,240.83 307.82672,240.82 307.77672,240.82 C 307.70672,240.82 307.66672,240.85 307.66672,240.9 C 307.66672,241.03 308.13672,241.5 308.45672,241.5 C 308.56672,241.5 308.68672,241.47 308.84672,241.43 C 309.29672,241.31 309.92672,241.2 311.08672,241.13 C 312.27672,241.05 313.16672,241.02 313.79672,241.02 C 314.24672,241.02 314.56672,241.04 314.76672,241.07 C 314.84672,241.08 314.90672,241.09 314.96672,241.09 C 315.12672,241.09 315.20672,241.04 315.20672,240.97 C 315.20672,240.89 315.10672,240.77 314.88672,240.65"
     id="text35" />
</svg>
