<?xml version="1.0" encoding="UTF-8" standalone="no"?>
<svg
   xmlns:dc="http://purl.org/dc/elements/1.1/"
   xmlns:cc="http://creativecommons.org/ns#"
   xmlns:rdf="http://www.w3.org/1999/02/22-rdf-syntax-ns#"
   xmlns:svg="http://www.w3.org/2000/svg"
   xmlns="http://www.w3.org/2000/svg"
   xmlns:sodipodi="http://sodipodi.sourceforge.net/DTD/sodipodi-0.dtd"
   xmlns:inkscape="http://www.inkscape.org/namespaces/inkscape"
   xml:lang="en"
   font-family="monospace"
   font-size="8pt"
   width="12cm"
   height="7cm"
   id="svg2"
   sodipodi:version="0.32"
   inkscape:version="0.46"
   sodipodi:docname="ppc_pseries_start_inst_sms.svg"
   inkscape:output_extension="org.inkscape.output.svg.inkscape">
  <metadata
     id="metadata40">
    <rdf:RDF>
      <cc:Work
         rdf:about="">
        <dc:format>image/svg+xml</dc:format>
        <dc:type
           rdf:resource="http://purl.org/dc/dcmitype/StillImage" />
      </cc:Work>
    </rdf:RDF>
  </metadata>
  <defs
     id="defs38">
    <inkscape:perspective
       sodipodi:type="inkscape:persp3d"
       inkscape:vp_x="0 : 124.01575 : 1"
       inkscape:vp_y="0 : 1000 : 0"
       inkscape:vp_z="425.19684 : 124.01575 : 1"
       inkscape:persp3d-origin="212.59842 : 82.677165 : 1"
       id="perspective42" />
  </defs>
  <sodipodi:namedview
     inkscape:window-height="712"
     inkscape:window-width="640"
     inkscape:pageshadow="2"
     inkscape:pageopacity="0.0"
     guidetolerance="10.0"
     gridtolerance="10.0"
     objecttolerance="10.0"
     borderopacity="1.0"
     bordercolor="#666666"
     pagecolor="#ffffff"
     id="base"
     showgrid="false"
     inkscape:zoom="1.2629445"
     inkscape:cx="212.59842"
     inkscape:cy="60.671714"
     inkscape:window-x="0"
     inkscape:window-y="0"
     inkscape:current-layer="svg2" />
  <rect
     id="rect"
     fill="white"
     stroke="black"
     stroke-width="0.4pt"
     x="0"
     y="0"
     width="100%"
     height="100%" />
  <text
     xml:space="preserve"
     x="10"
     y="20"
     id="text5" />
  <text
     xml:space="preserve"
     x="10"
     y="35"
     id="text7" />
  <text
     xml:space="preserve"
     x="10"
     y="50"
     id="text9" />
  <text
     xml:space="preserve"
     x="10"
     y="65"
     id="text11" />
  <text
     xml:space="preserve"
     x="10"
     y="80"
     id="text13" />
  <text
     xml:space="preserve"
     x="10"
     y="95"
     id="text15" />
  <text
     xml:space="preserve"
     x="10"
     y="110"
     id="text17" />
  <text
     xml:space="preserve"
     x="10"
     y="125"
     id="text19" />
  <text
     xml:space="preserve"
     x="10"
     y="140"
     id="text21" />
  <text
     xml:space="preserve"
     x="10"
     y="155"
     id="text23" />
  <text
     xml:space="preserve"
     x="10"
     y="170"
     id="text25" />
  <text
     xml:space="preserve"
     x="10"
     y="185"
     id="text27" />
  <path
     style="font-style:normal;font-variant:normal;font-weight:normal;font-stretch:normal;text-align:start;line-height:125%;writing-mode:lr-tb;text-anchor:start;font-family:FZHeiTi;-inkscape-font-specification:FZHeiTi"
     d="M 53.462302,186.95635 L 53.462302,194 L 52.708333,194 L 52.708333,189 L 51.25,189 L 51.25,188.29563 C 51.838622,188.26257 52.225527,188.16006 52.410714,187.9881 C 52.628966,187.81614 52.791002,187.47223 52.896825,186.95635 L 53.462302,186.95635 M 64.712302,190.11111 L 64.712302,190.83532 L 60.248016,190.83532 L 60.248016,190.11111 L 64.712302,190.11111 M 64.712302,192.10516 L 64.712302,192.83929 L 60.248016,192.83929 L 60.248016,192.10516 L 64.712302,192.10516 M 74.464286,188.92063 L 73.730159,188.92063 C 73.716927,187.96165 73.287034,187.45569 72.440476,187.40278 C 71.673279,187.42263 71.286374,187.84921 71.279762,188.68254 C 71.273147,189.18519 71.464946,189.49273 71.855159,189.60516 L 73.402778,190.16071 C 74.189811,190.45834 74.589943,191.09656 74.603175,192.0754 C 74.583329,193.43122 73.888885,194.13227 72.519841,194.17857 C 71.785713,194.18518 71.246692,193.96362 70.902778,193.51389 C 70.519179,193.07077 70.337301,192.459 70.357143,191.67857 L 71.081349,191.67857 C 71.061507,192.77646 71.541004,193.35185 72.519841,193.40476 C 73.392854,193.37831 73.835975,192.96825 73.849206,192.1746 C 73.855816,191.78439 73.786372,191.50992 73.640873,191.35119 C 73.501981,191.17262 73.210976,191.0172 72.767857,190.88492 L 71.676587,190.51786 C 70.902777,190.20701 70.519179,189.64815 70.525794,188.84127 C 70.598544,187.39948 71.213623,186.65212 72.371032,186.59921 C 73.707007,186.60583 74.404758,187.37964 74.464286,188.92063 M 79.632937,193.99008 L 78.89881,193.99008 L 78.89881,189.76389 L 78.89881,187.95833 L 77.936508,194 L 77.083333,194 L 76.051587,187.9881 L 76.041667,187.9881 C 76.028438,187.99472 76.031745,188.58665 76.051587,189.76389 L 76.051587,193.99008 L 75.31746,193.99008 L 75.31746,186.79762 L 76.547619,186.79762 L 77.509921,192.60119 L 78.363095,186.79762 L 79.632937,186.79762 L 79.632937,193.99008 M 84.464286,188.92063 L 83.730159,188.92063 C 83.716927,187.96165 83.287034,187.45569 82.440476,187.40278 C 81.673279,187.42263 81.286374,187.84921 81.279762,188.68254 C 81.273147,189.18519 81.464946,189.49273 81.855159,189.60516 L 83.402778,190.16071 C 84.189811,190.45834 84.589943,191.09656 84.603175,192.0754 C 84.583329,193.43122 83.888885,194.13227 82.519841,194.17857 C 81.785713,194.18518 81.246692,193.96362 80.902778,193.51389 C 80.519179,193.07077 80.337301,192.459 80.357143,191.67857 L 81.081349,191.67857 C 81.061507,192.77646 81.541004,193.35185 82.519841,193.40476 C 83.392854,193.37831 83.835975,192.96825 83.849206,192.1746 C 83.855816,191.78439 83.786372,191.50992 83.640873,191.35119 C 83.501981,191.17262 83.210976,191.0172 82.767857,190.88492 L 81.676587,190.51786 C 80.902777,190.20701 80.519179,189.64815 80.525794,188.84127 C 80.598544,187.39948 81.213623,186.65212 82.371032,186.59921 C 83.707007,186.60583 84.404758,187.37964 84.464286,188.92063 M 93.134921,185.90476 C 93.783065,185.88493 94.133594,185.918 94.186508,186.00397 C 94.193117,186.02382 94.17989,186.05689 94.146825,186.10317 C 94.034387,186.28175 93.974864,186.52646 93.968254,186.8373 L 95.853175,186.8373 C 95.853169,186.56615 95.839941,186.26853 95.813492,185.94444 C 95.866396,185.94445 95.942454,185.94445 96.041667,185.94444 C 96.590602,185.93123 96.858459,185.95768 96.845238,186.02381 C 96.851845,186.05027 96.838617,186.09988 96.805556,186.17262 C 96.726184,186.36443 96.686501,186.58599 96.686508,186.8373 L 98.234127,186.8373 C 98.703695,186.83731 99.107134,186.80424 99.444444,186.7381 L 99.444444,187.59127 C 99.179885,187.53837 98.78306,187.51191 98.253968,187.5119 L 96.686508,187.5119 C 96.673274,187.74339 96.686501,188.00794 96.72619,188.30556 L 95.813492,188.30556 C 95.853169,187.99472 95.866396,187.73016 95.853175,187.5119 L 93.948413,187.5119 C 93.941795,187.89551 93.955022,188.17329 93.988095,188.34524 L 93.134921,188.34524 C 93.167986,188.11376 93.181214,187.83598 93.174603,187.5119 L 91.785714,187.5119 C 91.263226,187.51853 90.873015,187.55159 90.615079,187.61111 L 90.615079,186.7381 C 90.972221,186.79763 91.355819,186.83069 91.765873,186.8373 L 93.174603,186.8373 C 93.1746,186.57937 93.164679,186.30821 93.144841,186.02381 C 93.138224,185.95768 93.134918,185.918 93.134921,185.90476 M 98.194444,188.16667 C 98.4656,188.55027 98.657399,188.86773 98.769841,189.11905 C 98.769833,189.13228 98.716922,189.13559 98.611111,189.12897 C 98.386235,189.10913 98.161367,189.09921 97.936508,189.09921 C 97.341262,189.11244 96.289676,189.16866 94.781746,189.26786 C 93.1746,189.36707 92.083331,189.4299 91.507937,189.45635 C 91.395501,189.08598 91.243385,188.81482 91.051587,188.64286 C 92.189151,188.72223 93.525129,188.71561 95.059524,188.62302 C 96.501316,188.52382 97.546289,188.3717 98.194444,188.16667 M 95.059524,189.3373 C 95.304227,189.67461 95.509254,190.05159 95.674603,190.46825 L 94.940476,190.70635 C 94.755286,190.26323 94.55026,189.87302 94.325397,189.53571 L 95.059524,189.3373 M 97.242063,189.37698 C 97.519834,189.44313 97.83068,189.56217 98.174603,189.73413 C 97.77777,189.97223 97.361104,190.42857 96.924603,191.10317 C 96.660046,190.92461 96.40211,190.81879 96.150794,190.78571 C 96.501316,190.54101 96.865072,190.07143 97.242063,189.37698 M 92.619048,189.53571 C 92.96296,189.88625 93.293648,190.2963 93.611111,190.76587 L 92.81746,191.14286 C 92.473542,190.50794 92.162696,190.05159 91.884921,189.77381 L 92.619048,189.53571 M 95.575397,190.88492 C 95.575391,190.89815 95.565471,190.9213 95.545635,190.95437 C 95.472878,191.0668 95.436503,191.19577 95.436508,191.34127 L 98.154762,191.34127 C 98.644171,191.33466 99.04761,191.29498 99.365079,191.22222 L 99.365079,192.13492 C 99.001314,192.06217 98.597875,192.02249 98.154762,192.01587 L 96.071429,192.01587 C 96.832004,193.00132 97.962955,193.57011 99.464286,193.72222 C 99.080679,193.94048 98.78306,194.25794 98.571429,194.6746 C 97.030416,194.0463 95.985444,193.16667 95.436508,192.03571 L 95.436508,194 C 95.436503,194.46958 95.462958,194.82011 95.515873,195.05159 L 94.52381,195.05159 C 94.576715,194.78704 94.60317,194.43651 94.603175,194 L 94.603175,192.03571 C 93.736769,193.21958 92.678569,194.1455 91.428571,194.81349 C 91.230158,194.47619 90.912697,194.22487 90.47619,194.05952 C 91.673279,193.8545 92.784389,193.17989 93.809524,192.03571 L 91.746032,192.03571 C 91.21693,192.04233 90.833332,192.06878 90.595238,192.11508 L 90.595238,191.28175 C 90.859787,191.33466 91.243385,191.36111 91.746032,191.36111 L 94.583333,191.36111 C 94.583329,191.1627 94.566794,190.98082 94.53373,190.81548 C 94.527112,190.78241 94.523805,190.75926 94.52381,190.74603 C 95.218249,190.77249 95.568777,190.81879 95.575397,190.88492 M 106.40873,185.96429 C 107.15608,186.0635 107.52645,186.18255 107.51984,186.32143 C 107.51322,186.36773 107.46031,186.42064 107.36111,186.48016 C 107.00396,186.71165 106.66666,187.09525 106.34921,187.63095 L 107.2619,187.63095 C 107.71163,187.63096 108.05555,187.6045 108.29365,187.55159 C 108.25396,187.70371 108.23412,188.04763 108.23413,188.58333 L 108.23413,190.68651 C 108.23412,191.08995 108.25396,191.39418 108.29365,191.59921 C 108.13491,191.57275 107.75132,191.55953 107.14286,191.55952 L 105.35714,191.55952 L 105.35714,192.4127 L 107.34127,192.4127 C 108.17459,192.4127 108.81613,192.38294 109.26587,192.32341 C 109.32539,192.3168 109.36507,192.31349 109.38492,192.31349 L 109.38492,193.24603 C 109.37168,193.24603 109.332,193.23942 109.26587,193.22619 C 108.76322,193.14683 108.14153,193.10714 107.40079,193.10714 L 105.35714,193.10714 L 105.35714,193.80159 C 105.35714,194.21164 105.37367,194.55886 105.40675,194.84325 C 105.41335,194.89616 105.41666,194.93254 105.41667,194.95238 L 104.50397,194.95238 C 104.50396,194.91931 104.51058,194.87632 104.52381,194.82341 C 104.57671,194.59193 104.60317,194.25794 104.60317,193.82143 L 104.60317,193.10714 L 102.5,193.10714 C 101.7328,193.10714 101.14418,193.14352 100.73413,193.21627 C 100.68122,193.22288 100.64815,193.22619 100.63492,193.22619 L 100.63492,192.35317 C 100.64153,192.35318 100.66468,192.35648 100.70437,192.3631 C 101.04828,192.39617 101.64021,192.4127 102.48016,192.4127 L 104.60317,192.4127 L 104.60317,191.55952 L 102.69841,191.55952 C 102.19576,191.55953 101.87169,191.58598 101.72619,191.63889 C 101.7791,191.39418 101.80555,190.99736 101.80556,190.44841 L 101.80556,188.60317 C 101.80555,188.21958 101.79233,187.87567 101.76587,187.57143 C 102.02381,187.61112 102.38095,187.63096 102.8373,187.63095 L 103.69048,187.63095 C 103.44576,187.18122 103.12169,186.75133 102.71825,186.34127 L 103.45238,186.00397 C 103.78968,186.26853 104.13359,186.67197 104.48413,187.21429 L 103.75,187.63095 L 105.59524,187.63095 C 105.87962,187.20106 106.15079,186.64551 106.40873,185.96429 M 105.35714,188.24603 L 105.35714,189.29762 L 107.44048,189.29762 L 107.44048,188.24603 L 105.35714,188.24603 M 104.60317,188.24603 L 102.57937,188.24603 L 102.57937,189.29762 L 104.60317,189.29762 L 104.60317,188.24603 M 105.35714,189.87302 L 105.35714,190.90476 L 107.44048,190.90476 L 107.44048,189.87302 L 105.35714,189.87302 M 102.57937,189.87302 L 102.57937,190.90476 L 104.60317,190.90476 L 104.60317,189.87302 L 102.57937,189.87302 M 236.6369,187.87897 L 236.37897,189.82341 C 236.69643,189.53241 237.08995,189.38691 237.55952,189.3869 C 238.81613,189.51257 239.48412,190.24008 239.56349,191.56944 C 239.48412,193.14352 238.74669,193.94709 237.35119,193.98016 C 236.16733,193.94709 235.51257,193.31878 235.3869,192.09524 L 236.12103,192.09524 C 236.25992,192.88228 236.71296,193.27579 237.48016,193.27579 C 238.30026,193.19643 238.75,192.66072 238.82937,191.66865 C 238.77645,190.70966 238.30026,190.19379 237.40079,190.12103 C 236.96428,190.13426 236.59061,190.35913 236.27976,190.79563 L 235.60516,190.75595 L 236.07143,187.09524 L 239.23611,187.09524 L 239.23611,187.87897 L 236.6369,187.87897 M 249.7123,190.11111 L 249.7123,190.83532 L 245.24802,190.83532 L 245.24802,190.11111 L 249.7123,190.11111 M 249.7123,192.10516 L 249.7123,192.83929 L 245.24802,192.83929 L 245.24802,192.10516 L 249.7123,192.10516 M 261.64683,185.96429 C 262.16269,185.97752 262.56613,186.02382 262.85714,186.10317 C 262.86375,186.1098 262.85052,186.13956 262.81746,186.19246 C 262.70502,186.34458 262.63227,186.50001 262.59921,186.65873 C 262.55952,186.84392 262.52975,187.2672 262.50992,187.92857 C 262.49669,188.23281 262.48676,188.46429 262.48016,188.62302 L 263.4127,188.62302 C 263.65078,188.62302 264.01454,188.59657 264.50397,188.54365 L 264.50397,189.41667 C 264.20634,189.36376 263.83597,189.33731 263.39286,189.3373 L 262.65873,189.3373 C 262.91005,191.72487 263.60449,193.25926 264.74206,193.94048 C 264.37168,194.20503 264.10052,194.47619 263.92857,194.75397 C 262.9365,193.82143 262.4074,192.4127 262.34127,190.52778 C 262.13624,192.51852 261.52777,194 260.51587,194.97222 C 260.21164,194.64153 259.88095,194.46958 259.52381,194.45635 C 259.5238,194.44974 259.5238,194.44643 259.52381,194.44643 C 259.51719,194.42659 259.5205,194.41667 259.53373,194.41667 C 259.54695,194.46296 259.79497,194.29101 260.27778,193.90079 L 259.72222,194 C 259.65608,193.57672 259.54365,193.18651 259.38492,192.82937 L 260.03968,192.73016 C 260.16534,192.96825 260.291,193.29894 260.41667,193.72222 C 261.25661,192.77646 261.6865,191.3082 261.70635,189.31746 L 261.52778,189.31746 C 261.28306,189.32408 260.9656,189.35053 260.5754,189.39683 L 260.5754,188.54365 C 260.97222,188.60979 261.28306,188.64286 261.50794,188.64286 L 261.74603,188.64286 C 261.74602,187.46562 261.71296,186.57276 261.64683,185.96429 M 255.81349,186.28175 C 256.17725,186.33466 256.45502,186.36112 256.64683,186.36111 L 259.60317,186.36111 C 259.85449,186.36112 260.11243,186.33466 260.37698,186.28175 C 260.33068,186.47355 260.30423,186.73149 260.29762,187.05556 L 260.29762,189.09921 C 260.29761,189.19842 260.31745,189.41006 260.35714,189.73413 C 260.37036,189.8135 260.37698,189.86641 260.37698,189.89286 C 260.17195,189.86641 259.87433,189.85318 259.48413,189.85317 L 258.39286,189.85317 L 258.39286,190.54762 L 259.44444,190.54762 C 259.45767,190.54762 259.49074,190.54762 259.54365,190.54762 C 260.00661,190.55424 260.28439,190.53439 260.37698,190.4881 L 260.37698,191.20238 C 260.0992,191.14947 259.79497,191.12302 259.46429,191.12302 L 258.39286,191.12302 L 258.39286,191.79762 C 258.51851,191.78439 258.7037,191.76125 258.94841,191.72817 C 259.69576,191.6422 260.23148,191.56614 260.55556,191.5 L 260.55556,192.19444 C 258.66402,192.35318 257.04365,192.54497 255.69444,192.76984 L 255.51587,191.97619 C 255.94577,191.97619 256.69973,191.93651 257.77778,191.85714 L 257.77778,191.12302 L 256.60714,191.12302 C 256.38227,191.12302 256.08465,191.14947 255.71429,191.20238 L 255.71429,190.46825 C 256.0119,190.52117 256.30952,190.54762 256.60714,190.54762 L 257.77778,190.54762 L 257.77778,189.85317 L 256.64683,189.85317 C 256.41534,189.85318 256.14418,189.87302 255.83333,189.9127 C 255.87302,189.69445 255.89286,189.46297 255.89286,189.21825 L 255.89286,187.09524 C 255.89286,186.85054 255.8664,186.57937 255.81349,186.28175 M 263.69048,186.63889 C 263.78967,186.81085 263.93518,187.22421 264.12698,187.87897 C 264.13359,187.91204 264.1402,187.93519 264.14683,187.94841 L 263.29365,188.22619 C 263.19444,187.67726 263.04893,187.22091 262.85714,186.85714 L 263.69048,186.63889 M 256.54762,186.95635 L 256.54762,189.27778 L 257.77778,189.27778 L 257.77778,186.95635 L 256.54762,186.95635 M 258.39286,186.95635 L 258.39286,189.27778 L 259.62302,189.27778 L 259.62302,186.95635 L 258.39286,186.95635 M 258.88889,187.47222 C 259.12698,187.5053 259.35185,187.57144 259.56349,187.67063 C 259.4246,187.86244 259.27248,188.25265 259.10714,188.84127 C 258.95502,188.73546 258.76984,188.68255 258.55159,188.68254 C 258.67063,188.42461 258.77645,188.05424 258.86905,187.57143 C 258.87566,187.52514 258.88227,187.49207 258.88889,187.47222 M 257.24206,187.5119 C 257.32143,187.6508 257.46693,188.0344 257.67857,188.6627 L 257.04365,188.82143 C 256.97751,188.38493 256.87169,187.9881 256.72619,187.63095 L 257.24206,187.5119 M 258.86905,192.84921 C 258.98148,193.17989 259.10053,193.58995 259.22619,194.07937 L 258.49206,194.17857 C 258.4656,193.77513 258.37963,193.35847 258.23413,192.92857 L 258.86905,192.84921 M 255.93254,192.94841 C 256.17063,192.95503 256.42857,192.97487 256.70635,193.00794 C 256.59391,193.29894 256.48148,193.86111 256.36905,194.69444 C 256.1045,194.62831 255.84656,194.60185 255.59524,194.61508 C 255.5754,194.61508 255.56217,194.61508 255.55556,194.61508 C 255.75397,194.25132 255.87963,193.69577 255.93254,192.94841 M 257.67857,192.94841 C 257.791,193.29233 257.87698,193.72884 257.93651,194.25794 L 257.24206,194.3373 C 257.21561,193.77513 257.14285,193.3254 257.02381,192.9881 L 257.67857,192.94841 M 270.93254,186.12302 C 271.73941,186.14948 272.14946,186.18916 272.1627,186.24206 C 272.16931,186.29498 272.13954,186.36443 272.07341,186.4504 C 271.94774,186.62898 271.88491,186.83069 271.88492,187.05556 L 271.88492,188.12698 C 271.9246,191.08995 272.86375,193.00794 274.70238,193.88095 C 274.69576,193.88757 274.66269,193.91402 274.60317,193.96032 C 274.26586,194.20503 274.02116,194.46296 273.86905,194.73413 C 272.38094,193.54365 271.58068,191.99603 271.46825,190.09127 C 271.23015,192.12169 270.40343,193.74206 268.9881,194.95238 C 268.69709,194.66137 268.37301,194.45966 268.01587,194.34722 C 267.96957,194.33399 267.94312,194.32407 267.93651,194.31746 C 268.81613,193.93386 269.50396,193.2791 270,192.35317 C 270.72089,190.94445 271.03174,188.86773 270.93254,186.12302 M 267.24206,186.20238 C 267.67196,186.61244 268.11508,187.10847 268.57143,187.69048 L 267.8373,188.22619 C 267.47354,187.67064 267.04365,187.18784 266.54762,186.77778 L 267.24206,186.20238 M 265.39683,188.94048 C 265.40344,188.93387 265.42659,188.93387 265.46627,188.94048 C 265.64484,188.98016 265.88624,189 266.19048,189 L 266.8254,189 C 267.29497,189 267.62897,188.98016 267.82738,188.94048 C 267.84061,188.94048 267.85053,188.94048 267.85714,188.94048 C 267.85714,188.94048 267.85383,188.94379 267.84722,188.9504 C 267.77447,189.10252 267.73809,189.44313 267.7381,189.97222 L 267.7381,192.61111 C 268.19444,192.12169 268.59788,191.59259 268.94841,191.02381 L 269.48413,191.89683 C 268.61772,192.74339 267.89682,193.5172 267.32143,194.21825 L 266.68651,193.50397 C 266.84524,193.30556 266.9246,192.99471 266.9246,192.57143 L 266.9246,189.75397 L 266.21032,189.75397 C 265.87302,189.75397 265.625,189.77712 265.46627,189.82341 C 265.4332,189.83664 265.41005,189.83995 265.39683,189.83333 L 265.39683,188.94048 M 282.14286,186.06349 C 282.97618,186.03705 283.37301,186.07011 283.33333,186.1627 C 283.33333,186.17593 283.32671,186.19908 283.31349,186.23214 C 283.18121,186.47025 283.11507,186.93652 283.11508,187.63095 L 283.11508,193.30556 C 283.11507,193.96032 283.13491,194.51587 283.1746,194.97222 L 282.18254,194.97222 C 282.22222,194.5291 282.24206,193.96693 282.24206,193.28571 L 282.24206,187.65079 C 282.24206,187.02911 282.20899,186.53969 282.14286,186.18254 C 282.12301,186.10318 282.12301,186.0635 282.14286,186.06349 M 275.95238,186.36111 C 275.97222,186.3545 276.0086,186.35781 276.06151,186.37103 C 276.31283,186.40411 276.67989,186.42064 277.1627,186.42063 L 278.90873,186.42063 C 279.46428,186.42064 279.87433,186.39419 280.13889,186.34127 C 280.12566,186.63228 280.11243,186.94313 280.09921,187.27381 L 280.03968,188.46429 C 280.03968,188.78175 280.05291,189.0463 280.07937,189.25794 C 280.06613,189.25794 280.04629,189.25463 280.01984,189.24802 C 279.7619,189.20172 279.4246,189.18519 279.00794,189.19841 L 277.14286,189.19841 L 277.00397,190.46825 L 279.02778,190.46825 C 279.51058,190.48148 279.93386,190.46164 280.29762,190.40873 C 280.27777,190.59392 280.25132,190.85186 280.21825,191.18254 C 280.07275,192.9881 279.88095,193.96032 279.64286,194.09921 C 279.30555,194.46296 278.48545,194.68122 277.18254,194.75397 C 277.1627,194.30423 277.08333,193.94048 276.94444,193.6627 C 278.03571,193.87434 278.71693,193.78175 278.9881,193.38492 C 279.08068,193.27249 279.19642,192.62434 279.33532,191.44048 C 279.35515,191.27514 279.36507,191.20238 279.36508,191.22222 L 277.30159,191.22222 C 276.94444,191.22223 276.60383,191.23215 276.27976,191.25198 C 276.21362,191.2586 276.17063,191.26191 276.15079,191.2619 L 276.38889,188.38492 C 276.62037,188.43784 277.03704,188.45768 277.63889,188.44444 L 279.24603,188.44444 L 279.30556,187.1746 L 277.1627,187.1746 C 276.70635,187.17461 276.3492,187.19114 276.09127,187.22421 C 276.02513,187.23744 275.97884,187.24075 275.95238,187.23413 L 275.95238,186.36111 M 293.05556,187.11508 L 293.05556,187.94841 C 293.05555,188.20636 293.06878,188.49736 293.09524,188.82143 C 292.791,188.78175 292.41401,188.76191 291.96429,188.7619 L 287.61905,188.7619 C 287.61904,189.03307 287.62235,189.21495 287.62897,189.30754 C 287.64219,189.42659 287.66534,189.51588 287.69841,189.5754 C 287.76455,189.71429 287.91666,189.78043 288.15476,189.77381 L 292.22222,189.77381 C 292.71825,189.78043 293.03571,189.7176 293.1746,189.58532 C 293.33333,189.47289 293.44576,189.18519 293.5119,188.72222 C 293.70369,188.99339 293.98809,189.17858 294.36508,189.27778 C 294.1865,189.75397 293.97817,190.08135 293.74008,190.25992 C 293.62102,190.3459 293.48875,190.40543 293.34325,190.43849 C 293.21758,190.47156 293.02909,190.4881 292.77778,190.4881 L 288.15476,190.4881 C 287.60582,190.49471 287.24867,190.41535 287.08333,190.25 C 286.90476,190.09789 286.81878,189.7672 286.8254,189.25794 L 286.8254,187.37302 C 286.8254,186.96297 286.81217,186.59921 286.78571,186.28175 C 287.03042,186.32144 287.46031,186.34128 288.0754,186.34127 L 292.12302,186.34127 C 292.59258,186.34128 292.91666,186.32144 293.09524,186.28175 C 293.06878,186.53308 293.05555,186.81085 293.05556,187.11508 M 287.61905,187.05556 L 287.61905,188.0873 L 292.2619,188.0873 L 292.2619,187.05556 L 287.61905,187.05556 M 291.44841,190.74603 C 292.12301,190.74604 292.47354,190.7791 292.5,190.84524 C 292.50661,190.85847 292.49999,190.87831 292.48016,190.90476 C 292.39417,191.03704 292.35449,191.24207 292.36111,191.51984 L 293.19444,191.51984 L 294.52381,191.48016 L 294.52381,192.29365 L 293.19444,192.23413 L 292.36111,192.23413 L 292.36111,194 C 292.35449,194.61508 291.77909,194.93915 290.63492,194.97222 C 290.59523,194.68122 290.48941,194.37037 290.31746,194.03968 C 291.11111,194.18518 291.51454,194.07275 291.52778,193.70238 L 291.52778,192.23413 L 286.8254,192.23413 L 285.47619,192.27381 L 285.47619,191.48016 L 286.8254,191.51984 L 291.52778,191.51984 C 291.52777,191.32143 291.50793,191.10648 291.46825,190.875 C 291.45502,190.81548 291.44841,190.77249 291.44841,190.74603 M 288.23413,192.39286 C 288.49206,192.76323 288.73677,193.19312 288.96825,193.68254 L 288.0754,194.05952 C 287.89682,193.53042 287.68518,193.0873 287.44048,192.73016 L 288.23413,192.39286 M 302.95635,186.12302 C 303.58465,186.14948 303.93518,186.19577 304.00794,186.2619 C 304.01454,186.28837 304.00462,186.32805 303.97817,186.38095 C 303.87896,186.60583 303.82936,186.9762 303.82937,187.49206 L 303.82937,193.92063 C 303.83597,194.20503 303.72354,194.40344 303.49206,194.51587 C 303.3201,194.62169 302.83068,194.73413 302.02381,194.85317 C 301.96428,194.5754 301.84854,194.27447 301.67659,193.9504 C 301.63028,193.8578 301.60714,193.80159 301.60714,193.78175 C 302.56613,193.96693 303.02909,193.8545 302.99603,193.44444 L 302.99603,187.5119 C 302.99602,186.89022 302.9828,186.42726 302.95635,186.12302 M 300.73413,186.61905 L 300.73413,187.4127 C 300.69444,187.4127 300.63491,187.4094 300.55556,187.40278 C 300.17857,187.36972 299.87433,187.35318 299.64286,187.35317 L 298.47222,187.35317 C 298.38624,187.78969 298.26719,188.21958 298.11508,188.64286 L 299.40476,188.64286 C 299.69576,188.64286 299.96031,188.62633 300.19841,188.59325 C 300.25793,188.58665 300.29761,188.58334 300.31746,188.58333 C 300.35052,188.57673 300.36375,188.59657 300.35714,188.64286 C 300.05291,190.54762 299.74206,191.69842 299.4246,192.09524 C 298.93518,192.88889 298.01587,193.69577 296.66667,194.51587 C 296.48148,194.29101 296.23016,194.10913 295.9127,193.97024 C 295.80688,193.92394 295.75397,193.88757 295.75397,193.86111 C 296.91799,193.48413 297.84391,192.86244 298.53175,191.99603 C 298.14153,191.60582 297.71825,191.26191 297.2619,190.96429 L 297.91667,190.38889 C 298.08201,190.54101 298.32341,190.75926 298.64087,191.04365 C 298.76653,191.15609 298.86243,191.24207 298.92857,191.30159 C 299.21957,190.69974 299.38492,190.03175 299.4246,189.29762 L 297.85714,189.29762 C 297.68518,189.76059 297.24206,190.47487 296.52778,191.44048 C 296.30291,191.26191 296.0119,191.12963 295.65476,191.04365 C 296.67989,190.17725 297.34127,188.94709 297.63889,187.35317 L 296.96429,187.35317 C 296.75926,187.35318 296.44841,187.36972 296.03175,187.40278 C 295.97884,187.4094 295.93915,187.4127 295.9127,187.4127 L 295.9127,186.61905 C 296.17725,186.65874 296.52116,186.67858 296.94444,186.67857 L 299.6627,186.67857 C 300.05952,186.67197 300.41666,186.65212 300.73413,186.61905 M 301.11111,187.33333 C 301.75925,187.35979 302.09655,187.39948 302.12302,187.45238 C 302.12962,187.48546 302.1197,187.53506 302.09325,187.60119 C 301.98081,187.85913 301.9246,188.20636 301.9246,188.64286 L 301.9246,191.18254 C 301.9246,191.46693 301.94444,191.91667 301.98413,192.53175 C 301.98412,192.57143 301.98412,192.59788 301.98413,192.61111 L 301.09127,192.61111 C 301.09126,192.5582 301.09788,192.45569 301.11111,192.30357 C 301.15079,191.90675 301.17063,191.53968 301.17063,191.20238 L 301.17063,188.62302 C 301.17063,188.04101 301.15079,187.61112 301.11111,187.33333 M 309.36508,185.88492 C 309.96031,185.8717 310.32407,185.89816 310.45635,185.96429 C 310.46957,185.99736 310.45965,186.05027 310.42659,186.12302 C 310.32738,186.32805 310.27777,186.59921 310.27778,186.93651 L 312.5,186.93651 C 312.86375,186.93652 313.22751,186.92329 313.59127,186.89683 L 313.59127,187.73016 C 313.20766,187.70371 312.85713,187.69048 312.53968,187.69048 L 310.27778,187.69048 L 310.27778,188.40476 L 312.30159,188.40476 C 312.5992,188.40477 312.92989,188.39154 313.29365,188.36508 L 313.29365,189.15873 C 313.03571,189.13228 312.71163,189.11905 312.32143,189.11905 L 310.27778,189.11905 L 310.27778,189.89286 L 313.1746,189.89286 C 313.55158,189.89286 313.90211,189.87963 314.22619,189.85317 L 314.22619,190.68651 C 313.94179,190.66006 313.60449,190.64683 313.21429,190.64683 L 310.51587,190.64683 C 310.582,190.97752 310.85978,191.51323 311.34921,192.25397 C 311.76587,191.91005 312.17592,191.48677 312.57937,190.98413 C 313.12169,191.26852 313.40608,191.44709 313.43254,191.51984 C 313.43253,191.5463 313.37962,191.59259 313.27381,191.65873 C 312.84391,191.89021 312.3611,192.23413 311.8254,192.69048 C 312.7447,193.25926 313.62433,193.57672 314.46429,193.64286 C 314.46428,193.64947 314.43782,193.67593 314.38492,193.72222 C 314.08729,193.96032 313.8492,194.25132 313.67063,194.59524 C 311.54761,193.90741 310.25793,192.59127 309.80159,190.64683 L 309.72222,190.64683 C 309.45767,191.03043 309.21296,191.36111 308.9881,191.63889 L 308.9881,193.74206 C 309.36507,193.51058 309.77513,193.21296 310.21825,192.84921 L 310.49603,193.72222 C 309.48412,194.25794 308.76984,194.70106 308.35317,195.05159 L 307.8373,194.29762 L 308.19444,194.03968 L 308.19444,192.35317 C 307.71164,192.7963 307.02381,193.29894 306.13095,193.86111 C 305.83995,193.5172 305.58201,193.26587 305.35714,193.10714 C 306.81878,192.61773 307.99603,191.79762 308.88889,190.64683 L 306.86508,190.64683 C 306.50793,190.64683 306.11772,190.66006 305.69444,190.68651 L 305.69444,189.85317 C 306.1045,189.87963 306.48809,189.89286 306.84524,189.89286 L 309.44444,189.89286 L 309.44444,189.11905 L 307.81746,189.11905 C 307.4537,189.11905 307.0701,189.13228 306.66667,189.15873 L 306.66667,188.36508 C 306.95767,188.39154 307.32804,188.40477 307.77778,188.40476 L 309.44444,188.40476 L 309.44444,187.69048 L 307.51984,187.69048 C 307.12963,187.69048 306.72619,187.70371 306.30952,187.73016 L 306.30952,186.89683 C 306.72619,186.92329 307.14285,186.93652 307.55952,186.93651 L 309.44444,186.93651 C 309.44444,186.65874 309.42129,186.36112 309.375,186.04365 C 309.36177,185.94445 309.35846,185.89154 309.36508,185.88492"
     id="text29" />
  <path
     style="font-style:normal;font-variant:normal;font-weight:normal;font-stretch:normal;text-align:start;line-height:125%;writing-mode:lr-tb;text-anchor:start;font-family:FZHeiTi;-inkscape-font-specification:FZHeiTi"
     d="M 54.335317,203.74206 C 54.335313,204.43651 54.077377,204.9127 53.561508,205.17063 C 54.216266,205.47487 54.55026,206.02381 54.563492,206.81746 C 54.484122,208.20635 53.792986,208.92725 52.490079,208.98016 C 51.901453,208.96032 51.415343,208.78836 51.031746,208.46429 C 50.588624,208.07407 50.376984,207.52844 50.396825,206.82738 C 50.396825,206.05357 50.74074,205.50463 51.428571,205.18056 C 50.892856,204.93585 50.618386,204.49273 50.605159,203.85119 C 50.697751,202.63427 51.316136,202.00927 52.460317,201.97619 C 53.624335,202.02249 54.249334,202.61112 54.335317,203.74206 M 52.480159,205.5873 C 51.673279,205.6336 51.233464,206.06019 51.160714,206.86706 C 51.220237,207.77315 51.673279,208.23942 52.519841,208.26587 C 53.359785,208.22619 53.789679,207.77315 53.809524,206.90675 C 53.776451,206.07342 53.33333,205.6336 52.480159,205.5873 M 52.470238,204.8631 C 53.191134,204.81019 53.578039,204.44974 53.630952,203.78175 C 53.551584,203.08069 53.144838,202.71694 52.410714,202.69048 C 51.749337,202.71694 51.388888,203.09061 51.329365,203.81151 C 51.382274,204.44643 51.762564,204.79696 52.470238,204.8631 M 64.712302,205.11111 L 64.712302,205.83532 L 60.248016,205.83532 L 60.248016,205.11111 L 64.712302,205.11111 M 64.712302,207.10516 L 64.712302,207.83929 L 60.248016,207.83929 L 60.248016,207.10516 L 64.712302,207.10516 M 72.063492,201.08333 C 72.711637,201.11641 73.062166,201.16271 73.115079,201.22222 C 73.115076,201.24207 73.101849,201.27845 73.075397,201.33135 C 72.982801,201.50331 72.936505,201.69181 72.936508,201.89683 L 72.936508,203.06746 C 73.657404,203.06747 74.100525,203.04101 74.265873,202.9881 L 74.265873,203.78175 C 74.193117,203.7553 74.064149,203.73876 73.878968,203.73214 C 73.786372,203.72553 73.670631,203.72223 73.531746,203.72222 C 73.419309,203.72223 73.220896,203.72223 72.936508,203.72222 L 72.936508,205.46825 C 72.989415,205.44842 73.06878,205.41865 73.174603,205.37897 C 73.677245,205.18056 74.067456,205.00529 74.345238,204.85317 L 74.404762,205.72619 L 72.956349,206.22222 L 72.956349,208.90079 C 72.976187,209.23809 72.883595,209.46627 72.678571,209.58532 C 72.473542,209.73082 72.056876,209.84656 71.428571,209.93254 C 71.388887,209.58862 71.256613,209.27778 71.031746,209 C 71.871691,209.05952 72.248675,208.94048 72.162698,208.64286 L 72.162698,206.48016 C 71.732803,206.66535 71.332671,206.85715 70.962302,207.05556 C 70.843253,207.12169 70.773809,207.15476 70.753968,207.15476 L 70.555556,206.1627 C 70.58201,206.14947 70.621692,206.14286 70.674603,206.14286 C 70.945766,206.10979 71.435184,205.97752 72.142857,205.74603 L 72.142857,203.74206 C 71.223544,203.74207 70.701058,203.76852 70.575397,203.82143 L 70.575397,203.00794 C 70.707671,203.06085 71.230158,203.08731 72.142857,203.0873 L 72.142857,201.91667 C 72.149469,201.48017 72.123014,201.20239 72.063492,201.08333 M 79.484127,201.95635 L 79.484127,202.84921 C 79.265864,202.7963 78.743377,202.76985 77.916667,202.76984 L 77.916667,209 C 77.976182,209.51587 77.420627,209.82672 76.25,209.93254 C 76.197084,209.52249 76.08465,209.18518 75.912698,208.92063 C 76.765866,209.07275 77.156077,208.97355 77.083333,208.62302 L 77.083333,202.78968 L 76.130952,202.78968 C 75.251317,202.78969 74.695763,202.81614 74.464286,202.86905 L 74.464286,201.97619 C 74.563487,202.00927 74.732138,202.02911 74.970238,202.03571 C 75.201714,202.04895 75.582005,202.05556 76.111111,202.05556 L 77.876984,202.05556 C 78.763219,202.05556 79.298932,202.02249 79.484127,201.95635 M 88.789683,201.57937 L 88.789683,202.45238 C 88.776446,202.45239 88.720229,202.44908 88.621032,202.44246 C 88.078696,202.39617 87.579358,202.37302 87.123016,202.37302 L 86.904762,202.37302 L 86.904762,204.99206 L 87.65873,204.99206 C 88.386235,204.99207 88.938483,204.96892 89.315476,204.92262 C 89.361763,204.91601 89.391525,204.9127 89.404762,204.9127 L 89.404762,205.78571 C 89.384911,205.78572 89.341922,205.78241 89.275794,205.77579 C 88.852504,205.7295 88.326711,205.70635 87.698413,205.70635 L 86.904762,205.70635 L 86.904762,208.46429 C 86.904755,208.94048 86.93121,209.35384 86.984127,209.70437 C 86.997348,209.7705 87.003961,209.81349 87.003968,209.83333 L 86.031746,209.83333 C 86.03174,209.82011 86.035047,209.79034 86.041667,209.74405 C 86.087957,209.40675 86.111105,208.98016 86.111111,208.46429 L 86.111111,205.70635 L 84.206349,205.70635 C 84.027774,207.49206 83.167986,208.86111 81.626984,209.81349 C 81.461639,209.56217 81.150792,209.31085 80.694444,209.05952 C 82.228834,208.70899 83.134918,207.59127 83.412698,205.70635 L 82.301587,205.70635 C 81.739416,205.70635 81.223544,205.7295 80.753968,205.77579 C 80.674603,205.78241 80.628306,205.78572 80.615079,205.78571 L 80.615079,204.9127 C 80.628306,204.9127 80.674603,204.91601 80.753968,204.92262 C 81.223544,204.96892 81.732803,204.99207 82.281746,204.99206 L 83.43254,204.99206 C 83.445764,204.78704 83.452377,204.45635 83.452381,204 C 83.458991,203.52382 83.458991,202.98149 83.452381,202.37302 L 83.015873,202.37302 C 82.473542,202.37302 81.954363,202.39617 81.458333,202.44246 C 81.405422,202.44908 81.37566,202.45239 81.369048,202.45238 L 81.369048,201.57937 C 81.37566,201.57937 81.408729,201.58268 81.468254,201.58929 C 81.984125,201.63559 82.506611,201.65874 83.035714,201.65873 L 87.123016,201.65873 C 87.612426,201.65874 88.085309,201.6389 88.541667,201.59921 C 88.667319,201.58599 88.749991,201.57937 88.789683,201.57937 M 84.246032,202.37302 C 84.252641,202.35979 84.255948,202.6012 84.255952,203.09722 C 84.249334,203.65278 84.239414,204.2844 84.22619,204.99206 L 86.111111,204.99206 L 86.111111,202.37302 L 84.246032,202.37302 M 92.103175,202.23413 L 92.103175,208.54365 L 98.075397,208.54365 L 98.075397,202.23413 L 92.103175,202.23413 M 96.051587,205.88492 L 93.888889,205.88492 L 93.888889,207.03571 L 96.051587,207.03571 L 96.051587,205.88492 M 91.230159,201.44048 C 91.42857,201.49339 91.79894,201.51985 92.34127,201.51984 L 97.460317,201.51984 C 98.161367,201.51324 98.664012,201.48678 98.968254,201.44048 C 98.915335,201.6389 98.88888,202.0754 98.888889,202.75 L 98.888889,209.17857 C 98.895494,209.44312 98.915335,209.66799 98.948413,209.85317 L 98.015873,209.85317 C 98.055548,209.72751 98.075389,209.50926 98.075397,209.19841 L 92.123016,209.19841 C 92.149469,209.58862 92.175924,209.82672 92.202381,209.9127 L 91.210317,209.9127 C 91.276454,209.75397 91.309522,209.50926 91.309524,209.17857 L 91.309524,202.47222 C 91.309522,202.00265 91.283068,201.65874 91.230159,201.44048 M 94.603175,202.43254 C 95.198408,202.43916 95.529095,202.47223 95.595238,202.53175 C 95.601846,202.53837 95.588619,202.55821 95.555556,202.59127 C 95.469571,202.67726 95.416661,202.77646 95.396825,202.88889 C 95.376979,203.05424 95.363751,203.25265 95.357143,203.48413 L 96.369048,203.48413 C 96.924596,203.48413 97.288353,203.47752 97.460317,203.46429 L 97.460317,204.19841 C 97.109781,204.17196 96.746025,204.15874 96.369048,204.15873 L 95.337302,204.15873 L 95.337302,205.21032 L 96.031746,205.21032 C 96.355814,205.21032 96.61375,205.19709 96.805556,205.17063 C 96.779094,205.34921 96.765866,205.56746 96.765873,205.8254 L 96.765873,206.99603 C 96.765866,207.33334 96.785708,207.58466 96.825397,207.75 C 96.712956,207.72355 96.435179,207.71032 95.992063,207.71032 L 93.888889,207.71032 C 93.485446,207.70371 93.234124,207.71693 93.134921,207.75 C 93.167986,207.65079 93.181214,207.41931 93.174603,207.05556 L 93.174603,205.84524 C 93.1746,205.51455 93.161372,205.28969 93.134921,205.17063 C 93.326716,205.20371 93.578039,205.21694 93.888889,205.21032 L 94.623016,205.21032 L 94.623016,204.15873 L 93.611111,204.15873 C 92.982801,204.15874 92.612431,204.17196 92.5,204.19841 L 92.5,203.44444 C 92.559521,203.45768 92.675262,203.4676 92.847222,203.47421 C 92.926584,203.48083 93.022484,203.48413 93.134921,203.48413 C 93.234124,203.48413 93.392854,203.48413 93.611111,203.48413 L 94.642857,203.48413 C 94.642853,203.00133 94.629625,202.6508 94.603175,202.43254 M 102.61905,200.94444 C 103.28703,201.209 103.62434,201.38096 103.63095,201.46032 C 103.63095,201.47355 103.61441,201.49339 103.58135,201.51984 C 103.31018,201.72487 103.02248,202.15477 102.71825,202.80952 L 102.71825,208.46429 C 102.71825,209.11905 102.75132,209.58201 102.81746,209.85317 L 101.84524,209.85317 C 101.90476,209.52249 101.93121,209.05291 101.9246,208.44444 L 101.9246,204.19841 C 101.83862,204.33069 101.69643,204.55556 101.49802,204.87302 C 101.25331,205.27646 101.07143,205.56746 100.95238,205.74603 C 100.84656,205.50133 100.65476,205.26985 100.37698,205.05159 C 101.32275,204.02646 102.0701,202.65741 102.61905,200.94444 M 105.97222,200.96429 C 106.69973,200.97752 107.10317,201.02382 107.18254,201.10317 C 107.18253,201.11641 107.1693,201.14287 107.14286,201.18254 C 106.98412,201.44048 106.90475,201.79763 106.90476,202.25397 L 106.90476,203.36508 L 108.0754,203.36508 C 108.53174,203.36508 108.92195,203.33202 109.24603,203.26587 L 109.24603,204.13889 C 108.9947,204.08598 108.6111,204.05953 108.09524,204.05952 L 106.90476,204.05952 L 106.90476,206.1627 L 108.1746,206.1627 C 108.5119,206.1627 108.86573,206.14286 109.23611,206.10317 C 109.33531,206.08995 109.40475,206.08334 109.44444,206.08333 L 109.44444,207.01587 C 109.13359,206.96296 108.72354,206.93651 108.21429,206.93651 L 106.90476,206.93651 L 106.90476,208.88095 C 106.90475,209.3836 106.93121,209.76058 106.98413,210.0119 L 105.97222,210.0119 C 106.02513,209.75397 106.05158,209.37698 106.05159,208.88095 L 106.05159,206.93651 L 104.6627,206.93651 C 104.02777,206.9299 103.57143,206.95635 103.29365,207.01587 L 103.29365,206.08333 C 103.49867,206.13625 103.95502,206.1627 104.6627,206.1627 L 106.05159,206.1627 L 106.05159,204.05952 L 104.58333,204.05952 L 103.9881,205.38889 C 103.72354,205.21032 103.43254,205.1045 103.11508,205.07143 C 103.71031,204.33731 104.17328,203.29895 104.50397,201.95635 C 105.08597,202.09525 105.40343,202.20106 105.45635,202.27381 C 105.45634,202.28704 105.43981,202.31019 105.40675,202.34325 C 105.22156,202.52845 105.02645,202.86905 104.82143,203.36508 L 106.05159,203.36508 L 106.05159,202.27381 C 106.05158,201.65212 106.02513,201.21562 105.97222,200.96429 M 111.64683,200.98413 C 112.27513,200.98414 112.59259,201.03043 112.59921,201.12302 C 112.61243,201.15609 112.5959,201.209 112.5496,201.28175 C 112.45039,201.45371 112.40079,201.64551 112.40079,201.85714 L 112.40079,203.00794 L 112.7381,203.00794 C 113.19444,203.00794 113.52513,202.98149 113.73016,202.92857 L 113.73016,203.7619 C 113.53836,203.709 113.19444,203.68255 112.69841,203.68254 L 112.40079,203.68254 L 112.40079,205.36905 C 112.40079,205.36244 112.44047,205.3426 112.51984,205.30952 C 112.82407,205.17064 113.14153,205.01191 113.47222,204.83333 L 113.49206,205.70635 L 112.40079,206.18254 L 112.40079,208.72222 C 112.44047,209.43651 111.96428,209.83995 110.97222,209.93254 C 110.90608,209.53571 110.78704,209.19841 110.61508,208.92063 C 111.06481,208.97355 111.35582,208.96032 111.4881,208.88095 C 111.64682,208.80159 111.72619,208.60979 111.72619,208.30556 L 111.72619,206.40079 C 111.62698,206.45371 111.50463,206.51984 111.35913,206.59921 C 111.05489,206.75133 110.79365,206.91005 110.5754,207.0754 L 110.35714,206.04365 C 110.77381,205.97752 111.23016,205.81879 111.72619,205.56746 L 111.72619,203.68254 L 111.32937,203.68254 C 110.90608,203.68255 110.58201,203.709 110.35714,203.7619 L 110.35714,202.92857 C 110.61508,202.98149 110.93915,203.00794 111.32937,203.00794 L 111.72619,203.00794 L 111.72619,201.8373 C 111.72619,201.5463 111.70304,201.28837 111.65675,201.06349 C 111.65013,201.0172 111.64682,200.99075 111.64683,200.98413 M 118.73016,201.24206 C 118.69047,201.45371 118.67063,201.75794 118.67063,202.15476 L 118.67063,203.92063 C 118.67063,204.2844 118.69047,204.58863 118.73016,204.83333 C 118.53835,204.79366 118.19444,204.77381 117.69841,204.77381 L 115.17857,204.77381 C 114.65608,204.77381 114.31216,204.79366 114.14683,204.83333 C 114.1865,204.5291 114.20634,204.23149 114.20635,203.94048 L 114.20635,202.13492 C 114.20634,201.80424 114.1865,201.50662 114.14683,201.24206 C 114.33862,201.28175 114.67592,201.30159 115.15873,201.30159 L 117.67857,201.30159 C 118.08862,201.30159 118.43914,201.28175 118.73016,201.24206 M 114.96032,201.93651 L 114.96032,202.69048 L 117.91667,202.69048 L 117.91667,201.93651 L 114.96032,201.93651 M 114.96032,203.36508 L 114.96032,204.09921 L 117.91667,204.09921 L 117.91667,203.36508 L 114.96032,203.36508 M 113.73016,205.28968 C 114.02777,205.32937 114.47751,205.34921 115.07937,205.34921 L 118.05556,205.34921 C 118.67063,205.34921 119.12698,205.32276 119.4246,205.26984 L 119.4246,206.10317 C 119.09391,206.05027 118.63756,206.02381 118.05556,206.02381 L 116.86508,206.02381 L 116.86508,206.89683 L 117.65873,206.89683 C 118.15475,206.89683 118.53835,206.87037 118.80952,206.81746 L 118.80952,207.61111 C 118.53835,207.5582 118.15475,207.53175 117.65873,207.53175 L 116.86508,207.53175 L 116.86508,208.78175 C 117.27513,208.88095 118.18782,208.87434 119.60317,208.7619 L 119.20635,209.73413 C 117.91004,209.74735 116.94444,209.64484 116.30952,209.42659 C 115.74074,209.25463 115.1455,208.84127 114.52381,208.18651 C 114.23941,208.76852 113.92857,209.32407 113.59127,209.85317 L 112.75794,209.41667 C 113.51851,208.72884 114.041,207.72355 114.3254,206.40079 C 114.39153,206.42064 114.48412,206.44709 114.60317,206.48016 C 115.06613,206.59921 115.28439,206.67857 115.25794,206.71825 C 115.25793,206.75794 115.23148,206.80754 115.17857,206.86706 C 115.01984,207.03902 114.89418,207.28043 114.80159,207.59127 C 115.05952,207.93519 115.49603,208.26587 116.11111,208.58333 L 116.11111,206.02381 L 115.09921,206.02381 C 114.48412,206.02381 114.02777,206.05027 113.73016,206.10317 L 113.73016,205.28968 M 128.27381,201.53968 L 128.27381,202.4127 C 127.88359,202.37302 127.48015,202.35318 127.06349,202.35317 L 123.0754,202.35317 C 122.75132,202.35318 122.33465,202.37302 121.8254,202.4127 L 121.8254,201.53968 C 122.28174,201.57937 122.70502,201.59921 123.09524,201.59921 L 127.06349,201.59921 C 127.52645,201.59921 127.92989,201.57937 128.27381,201.53968 M 120.65476,203.86111 C 121.35582,203.91403 121.9709,203.93387 122.5,203.92063 L 127.71825,203.92063 C 128.26719,203.92064 128.78306,203.9008 129.26587,203.86111 L 129.26587,204.75397 C 128.67724,204.70106 128.16798,204.67461 127.7381,204.6746 L 125.5754,204.6746 L 125.5754,208.4246 C 125.60185,209.32407 125.01984,209.77381 123.82937,209.77381 C 123.76322,209.40344 123.64418,209.07275 123.47222,208.78175 C 124.33862,208.86111 124.74867,208.74206 124.70238,208.4246 L 124.70238,204.6746 L 122.42063,204.6746 C 122.01058,204.67461 121.42196,204.69445 120.65476,204.73413 L 120.65476,203.86111 M 127.40079,205.78571 C 127.85713,206.30159 128.5119,207.12169 129.36508,208.24603 L 128.4127,208.7619 C 127.75132,207.57804 127.16269,206.71826 126.64683,206.18254 L 127.40079,205.78571 M 122.71825,205.84524 C 123.14814,206.02381 123.45238,206.14947 123.63095,206.22222 C 123.64418,206.22884 123.60119,206.28175 123.50198,206.38095 C 123.29034,206.61244 123.10846,206.83069 122.95635,207.03571 C 122.57275,207.53175 122.08333,208.12037 121.4881,208.80159 C 121.24339,208.62963 120.93915,208.49735 120.5754,208.40476 C 121.32275,207.7963 122.03704,206.94312 122.71825,205.84524 M 239.35516,203.81151 L 238.68056,203.81151 C 238.54166,203.084 238.19444,202.72355 237.63889,202.73016 C 236.79233,202.78307 236.31614,203.62964 236.21032,205.26984 L 236.21032,205.32937 C 236.53439,204.74736 237.01058,204.45635 237.63889,204.45635 C 238.82275,204.58202 239.43783,205.29961 239.48413,206.60913 C 239.49735,207.34326 239.32209,207.92527 238.95833,208.35516 C 238.66732,208.78505 238.16137,208.99339 237.44048,208.98016 C 236.80555,208.9537 236.30291,208.62302 235.93254,207.9881 C 235.62831,207.43254 235.47619,206.6422 235.47619,205.61706 C 235.54233,203.23612 236.26323,202.02249 237.63889,201.97619 C 238.68386,202.05556 239.25595,202.66733 239.35516,203.81151 M 236.31944,206.71825 C 236.38558,207.71032 236.81217,208.2295 237.59921,208.27579 C 238.3201,208.21627 238.7037,207.67064 238.75,206.63889 C 238.69047,205.68651 238.29365,205.19379 237.55952,205.16071 C 236.79233,205.21363 236.37897,205.73281 236.31944,206.71825 M 249.7123,205.11111 L 249.7123,205.83532 L 245.24802,205.83532 L 245.24802,205.11111 L 249.7123,205.11111 M 249.7123,207.10516 L 249.7123,207.83929 L 245.24802,207.83929 L 245.24802,207.10516 L 249.7123,207.10516 M 263.01587,203.16667 L 263.01587,204.49603 C 263.02909,205.12434 263.05555,205.64022 263.09524,206.04365 L 262.06349,206.04365 C 262.09655,205.89154 262.1164,205.66006 262.12302,205.34921 L 257.53968,205.34921 L 257.53968,208.18651 C 257.53307,208.51058 257.68518,208.70238 257.99603,208.7619 C 258.2209,208.80159 258.64087,208.83135 259.25595,208.85119 C 259.87103,208.87103 260.47618,208.87103 261.07143,208.85119 C 262.14946,208.81812 262.77116,208.74206 262.93651,208.62302 C 263.1746,208.43783 263.30026,208.00794 263.31349,207.33333 C 263.71692,207.61111 264.06084,207.78307 264.34524,207.84921 C 264.08068,208.71561 263.78967,209.21825 263.47222,209.35714 C 263.22089,209.48942 262.49007,209.56878 261.27976,209.59524 C 259.7123,209.61508 258.39947,209.5754 257.34127,209.47619 C 256.86508,209.42989 256.64021,209.11243 256.66667,208.52381 L 256.66667,204.69444 C 256.67328,204.34392 256.65344,204.07276 256.60714,203.88095 C 257.32804,203.87434 257.67857,203.92064 257.65873,204.01984 C 257.66534,204.05953 257.65211,204.11905 257.61905,204.19841 C 257.56613,204.34392 257.53968,204.48942 257.53968,204.63492 L 262.14286,204.63492 L 262.14286,202.4127 L 257.79762,202.4127 C 257.35449,202.4127 256.87169,202.43585 256.34921,202.48214 C 256.29629,202.48876 256.25661,202.49207 256.23016,202.49206 L 256.23016,201.61905 C 256.83201,201.67197 257.34788,201.69842 257.77778,201.69841 L 261.38889,201.69841 C 262.15608,201.68519 262.73147,201.65874 263.11508,201.61905 C 263.05555,201.99604 263.02248,202.51191 263.01587,203.16667 M 269.10714,200.84524 C 269.86111,200.97752 270.20502,201.07673 270.13889,201.14286 C 270.13227,201.16271 270.10582,201.19247 270.05952,201.23214 C 269.80158,201.46363 269.60317,201.79763 269.46429,202.23413 L 272.59921,202.23413 C 273.22751,202.23413 273.82936,202.21429 274.40476,202.1746 L 274.40476,203.02778 C 273.93518,202.97487 273.33333,202.94842 272.59921,202.94841 L 269.12698,202.94841 C 268.62433,203.82805 268.23412,204.44974 267.95635,204.81349 L 267.95635,208.52381 C 267.96296,209.23148 267.97619,209.73413 267.99603,210.03175 L 267.08333,210.03175 C 267.10979,209.80026 267.12301,209.29101 267.12302,208.50397 L 267.12302,205.78571 C 266.66005,206.29498 266.25,206.71164 265.89286,207.03571 C 265.78042,206.91667 265.5291,206.73148 265.13889,206.48016 C 265.94577,205.93122 266.61376,205.33598 267.14286,204.69444 L 267.12302,204.03968 L 267.53968,204.11905 C 267.70502,203.93387 267.91005,203.62302 268.15476,203.18651 C 268.20767,203.08731 268.24735,203.01456 268.27381,202.96825 L 267.1627,202.96825 C 266.68651,202.96826 266.18386,202.9881 265.65476,203.02778 L 265.65476,202.19444 C 265.6746,202.19445 265.70436,202.19776 265.74405,202.20437 C 266.14087,202.23744 266.6336,202.25397 267.22222,202.25397 L 268.61111,202.25397 C 268.90211,201.66535 269.06746,201.19577 269.10714,200.84524 M 273.80952,204.13889 L 273.80952,205.0119 C 273.36639,205.07805 272.77777,205.38228 272.04365,205.9246 L 272.04365,206.53968 L 272.99603,206.53968 C 273.64417,206.53968 274.15343,206.51984 274.52381,206.48016 L 274.52381,207.27381 C 274.43782,207.27381 274.24272,207.2672 273.93849,207.25397 C 273.49536,207.22752 273.18121,207.21429 272.99603,207.21429 L 272.04365,207.21429 L 272.04365,209.03968 C 272.05026,209.46296 271.95767,209.73743 271.76587,209.8631 C 271.59391,209.99537 271.19708,210.06481 270.5754,210.07143 C 270.50925,209.75397 270.35714,209.43651 270.11905,209.11905 C 270.61507,209.1918 270.91931,209.20503 271.03175,209.15873 C 271.16402,209.13227 271.22354,209.00661 271.21032,208.78175 L 271.21032,207.23413 L 269.92063,207.23413 C 269.50396,207.23413 269.01455,207.24736 268.45238,207.27381 L 268.45238,206.5 C 268.48545,206.5 268.53836,206.50331 268.61111,206.50992 C 269.12698,206.54299 269.56349,206.55953 269.92063,206.55952 L 271.21032,206.55952 L 271.21032,205.66667 L 272.57937,204.83333 L 270.61508,204.83333 C 269.87433,204.83334 269.39153,204.84656 269.16667,204.87302 L 269.16667,204.15873 C 269.58333,204.18519 270.05291,204.19842 270.5754,204.19841 L 272.42063,204.19841 C 272.89682,204.19842 273.35978,204.17858 273.80952,204.13889 M 277.04365,201.00397 C 277.78439,201.18255 278.14153,201.30159 278.11508,201.36111 C 278.10185,201.39419 278.06547,201.43387 278.00595,201.48016 C 277.89352,201.57937 277.80423,201.69181 277.7381,201.81746 C 277.60582,202.08202 277.42063,202.47884 277.18254,203.00794 L 277.18254,208.06746 C 277.18254,209.06614 277.19576,209.6746 277.22222,209.89286 L 276.30952,209.89286 C 276.37566,209.60185 276.41534,208.99339 276.42857,208.06746 L 276.42857,204.35714 C 276.27645,204.77381 276.07143,205.21694 275.81349,205.68651 C 275.59524,205.48148 275.35053,205.28969 275.07937,205.11111 C 275.93915,204.17858 276.59391,202.80953 277.04365,201.00397 M 281.30952,201.04365 C 281.38888,201.05027 281.51124,201.05358 281.67659,201.05357 C 282.07341,201.06681 282.2619,201.08334 282.24206,201.10317 C 282.24867,201.12302 282.23875,201.15609 282.2123,201.20238 C 282.10647,201.44048 282.04364,201.79101 282.02381,202.25397 L 282.24206,202.25397 C 282.41401,202.25397 282.65872,202.22752 282.97619,202.1746 L 282.97619,202.92857 C 282.71825,202.88228 282.40079,202.85583 282.02381,202.84921 L 282.02381,204.03968 L 282.28175,204.03968 C 282.90343,203.27249 283.31348,202.48546 283.5119,201.67857 C 284.13359,201.96297 284.42459,202.11509 284.38492,202.13492 C 284.37168,202.17461 284.34523,202.21429 284.30556,202.25397 C 284.2328,202.33995 284.15343,202.44577 284.06746,202.57143 C 283.9947,202.68387 283.87565,202.86905 283.71032,203.12698 C 283.43253,203.57011 283.24073,203.86773 283.13492,204.01984 L 283.65079,204.01984 C 284.08729,204.01323 284.39153,203.98678 284.56349,203.94048 L 284.56349,204.75397 C 284.44443,204.72752 284.13359,204.70106 283.63095,204.6746 L 282.71825,204.6746 C 282.46031,204.95238 282.20237,205.22355 281.94444,205.4881 L 282.8373,205.4881 C 283.38623,205.4881 283.74338,205.47487 283.90873,205.44841 C 283.88227,205.67328 283.86904,206.06349 283.86905,206.61905 L 283.86905,208.78175 C 283.87565,209.30423 283.89549,209.66137 283.92857,209.85317 L 283.0754,209.85317 C 283.07539,209.83995 283.082,209.80688 283.09524,209.75397 C 283.13491,209.56878 283.15475,209.40344 283.15476,209.25794 L 281.26984,209.25794 C 281.26984,209.37698 281.27976,209.52579 281.2996,209.70437 C 281.30621,209.80357 281.30952,209.87302 281.30952,209.9127 L 280.45635,209.9127 C 280.50925,209.60185 280.54232,209.18518 280.55556,208.6627 L 280.55556,206.77778 C 280.40343,206.9299 280.21164,207.09524 279.98016,207.27381 C 279.79497,207.0754 279.57671,206.8836 279.3254,206.69841 C 279.88756,206.42064 280.28439,206.15609 280.51587,205.90476 C 280.51587,205.75926 280.50925,205.60715 280.49603,205.44841 C 280.58862,205.44842 280.70436,205.45172 280.84325,205.45833 C 280.92261,205.46495 280.97883,205.46826 281.0119,205.46825 C 281.40211,205.1045 281.66666,204.83995 281.80556,204.6746 L 281.05159,204.6746 C 280.31745,204.67461 279.86111,204.68784 279.68254,204.71429 L 279.68254,203.98016 C 279.79497,204.00662 280.2447,204.02646 281.03175,204.03968 L 281.34921,204.03968 L 281.34921,202.86905 L 281.03175,202.86905 C 280.57539,202.88228 280.27116,202.90212 280.11905,202.92857 L 280.11905,202.1746 C 280.30423,202.20768 280.59523,202.22752 280.99206,202.23413 L 281.32937,202.23413 C 281.34259,201.52646 281.33597,201.12964 281.30952,201.04365 M 278.96825,201.55952 C 279.20634,202.08202 279.40476,202.65741 279.56349,203.28571 L 278.73016,203.52381 C 278.67725,203.01456 278.49206,202.42593 278.1746,201.75794 L 278.96825,201.55952 M 279.22619,204 C 279.14021,204.22487 279.09391,204.55556 279.0873,204.99206 L 279.0873,207.96825 C 279.28571,207.78968 279.47751,207.58466 279.6627,207.35317 C 279.7156,207.51191 279.8082,207.71693 279.94048,207.96825 C 279.96031,208.00794 279.97354,208.03439 279.98016,208.04762 C 279.40476,208.52381 278.90873,208.98016 278.49206,209.41667 C 278.3201,209.13889 278.14814,208.92725 277.97619,208.78175 C 278.26058,208.60979 278.40608,208.38492 278.4127,208.10714 L 278.4127,204.69444 C 277.92989,204.69445 277.61905,204.70768 277.48016,204.73413 L 277.48016,203.98016 C 277.5,203.98016 277.52976,203.98347 277.56944,203.99008 C 277.79431,204.02315 278.05555,204.0463 278.35317,204.05952 C 278.76322,204.05292 279.05423,204.03307 279.22619,204 M 281.26984,206.08333 L 281.26984,207.03571 L 283.15476,207.03571 L 283.15476,206.08333 L 281.26984,206.08333 M 281.26984,207.63095 L 281.26984,208.68254 L 283.15476,208.68254 L 283.15476,207.63095 L 281.26984,207.63095 M 292.14286,201.06349 C 292.97618,201.03705 293.37301,201.07011 293.33333,201.1627 C 293.33333,201.17593 293.32671,201.19908 293.31349,201.23214 C 293.18121,201.47025 293.11507,201.93652 293.11508,202.63095 L 293.11508,208.30556 C 293.11507,208.96032 293.13491,209.51587 293.1746,209.97222 L 292.18254,209.97222 C 292.22222,209.5291 292.24206,208.96693 292.24206,208.28571 L 292.24206,202.65079 C 292.24206,202.02911 292.20899,201.53969 292.14286,201.18254 C 292.12301,201.10318 292.12301,201.0635 292.14286,201.06349 M 285.95238,201.36111 C 285.97222,201.3545 286.0086,201.35781 286.06151,201.37103 C 286.31283,201.40411 286.67989,201.42064 287.1627,201.42063 L 288.90873,201.42063 C 289.46428,201.42064 289.87433,201.39419 290.13889,201.34127 C 290.12566,201.63228 290.11243,201.94313 290.09921,202.27381 L 290.03968,203.46429 C 290.03968,203.78175 290.05291,204.0463 290.07937,204.25794 C 290.06613,204.25794 290.04629,204.25463 290.01984,204.24802 C 289.7619,204.20172 289.4246,204.18519 289.00794,204.19841 L 287.14286,204.19841 L 287.00397,205.46825 L 289.02778,205.46825 C 289.51058,205.48148 289.93386,205.46164 290.29762,205.40873 C 290.27777,205.59392 290.25132,205.85186 290.21825,206.18254 C 290.07275,207.9881 289.88095,208.96032 289.64286,209.09921 C 289.30555,209.46296 288.48545,209.68122 287.18254,209.75397 C 287.1627,209.30423 287.08333,208.94048 286.94444,208.6627 C 288.03571,208.87434 288.71693,208.78175 288.9881,208.38492 C 289.08068,208.27249 289.19642,207.62434 289.33532,206.44048 C 289.35515,206.27514 289.36507,206.20238 289.36508,206.22222 L 287.30159,206.22222 C 286.94444,206.22223 286.60383,206.23215 286.27976,206.25198 C 286.21362,206.2586 286.17063,206.26191 286.15079,206.2619 L 286.38889,203.38492 C 286.62037,203.43784 287.03704,203.45768 287.63889,203.44444 L 289.24603,203.44444 L 289.30556,202.1746 L 287.1627,202.1746 C 286.70635,202.17461 286.3492,202.19114 286.09127,202.22421 C 286.02513,202.23744 285.97884,202.24075 285.95238,202.23413 L 285.95238,201.36111 M 303.05556,202.11508 L 303.05556,202.94841 C 303.05555,203.20636 303.06878,203.49736 303.09524,203.82143 C 302.791,203.78175 302.41401,203.76191 301.96429,203.7619 L 297.61905,203.7619 C 297.61904,204.03307 297.62235,204.21495 297.62897,204.30754 C 297.64219,204.42659 297.66534,204.51588 297.69841,204.5754 C 297.76455,204.71429 297.91666,204.78043 298.15476,204.77381 L 302.22222,204.77381 C 302.71825,204.78043 303.03571,204.7176 303.1746,204.58532 C 303.33333,204.47289 303.44576,204.18519 303.5119,203.72222 C 303.70369,203.99339 303.98809,204.17858 304.36508,204.27778 C 304.1865,204.75397 303.97817,205.08135 303.74008,205.25992 C 303.62102,205.3459 303.48875,205.40543 303.34325,205.43849 C 303.21758,205.47156 303.02909,205.4881 302.77778,205.4881 L 298.15476,205.4881 C 297.60582,205.49471 297.24867,205.41535 297.08333,205.25 C 296.90476,205.09789 296.81878,204.7672 296.8254,204.25794 L 296.8254,202.37302 C 296.8254,201.96297 296.81217,201.59921 296.78571,201.28175 C 297.03042,201.32144 297.46031,201.34128 298.0754,201.34127 L 302.12302,201.34127 C 302.59258,201.34128 302.91666,201.32144 303.09524,201.28175 C 303.06878,201.53308 303.05555,201.81085 303.05556,202.11508 M 297.61905,202.05556 L 297.61905,203.0873 L 302.2619,203.0873 L 302.2619,202.05556 L 297.61905,202.05556 M 301.44841,205.74603 C 302.12301,205.74604 302.47354,205.7791 302.5,205.84524 C 302.50661,205.85847 302.49999,205.87831 302.48016,205.90476 C 302.39417,206.03704 302.35449,206.24207 302.36111,206.51984 L 303.19444,206.51984 L 304.52381,206.48016 L 304.52381,207.29365 L 303.19444,207.23413 L 302.36111,207.23413 L 302.36111,209 C 302.35449,209.61508 301.77909,209.93915 300.63492,209.97222 C 300.59523,209.68122 300.48941,209.37037 300.31746,209.03968 C 301.11111,209.18518 301.51454,209.07275 301.52778,208.70238 L 301.52778,207.23413 L 296.8254,207.23413 L 295.47619,207.27381 L 295.47619,206.48016 L 296.8254,206.51984 L 301.52778,206.51984 C 301.52777,206.32143 301.50793,206.10648 301.46825,205.875 C 301.45502,205.81548 301.44841,205.77249 301.44841,205.74603 M 298.23413,207.39286 C 298.49206,207.76323 298.73677,208.19312 298.96825,208.68254 L 298.0754,209.05952 C 297.89682,208.53042 297.68518,208.0873 297.44048,207.73016 L 298.23413,207.39286 M 312.95635,201.12302 C 313.58465,201.14948 313.93518,201.19577 314.00794,201.2619 C 314.01454,201.28837 314.00462,201.32805 313.97817,201.38095 C 313.87896,201.60583 313.82936,201.9762 313.82937,202.49206 L 313.82937,208.92063 C 313.83597,209.20503 313.72354,209.40344 313.49206,209.51587 C 313.3201,209.62169 312.83068,209.73413 312.02381,209.85317 C 311.96428,209.5754 311.84854,209.27447 311.67659,208.9504 C 311.63028,208.8578 311.60714,208.80159 311.60714,208.78175 C 312.56613,208.96693 313.02909,208.8545 312.99603,208.44444 L 312.99603,202.5119 C 312.99602,201.89022 312.9828,201.42726 312.95635,201.12302 M 310.73413,201.61905 L 310.73413,202.4127 C 310.69444,202.4127 310.63491,202.4094 310.55556,202.40278 C 310.17857,202.36972 309.87433,202.35318 309.64286,202.35317 L 308.47222,202.35317 C 308.38624,202.78969 308.26719,203.21958 308.11508,203.64286 L 309.40476,203.64286 C 309.69576,203.64286 309.96031,203.62633 310.19841,203.59325 C 310.25793,203.58665 310.29761,203.58334 310.31746,203.58333 C 310.35052,203.57673 310.36375,203.59657 310.35714,203.64286 C 310.05291,205.54762 309.74206,206.69842 309.4246,207.09524 C 308.93518,207.88889 308.01587,208.69577 306.66667,209.51587 C 306.48148,209.29101 306.23016,209.10913 305.9127,208.97024 C 305.80688,208.92394 305.75397,208.88757 305.75397,208.86111 C 306.91799,208.48413 307.84391,207.86244 308.53175,206.99603 C 308.14153,206.60582 307.71825,206.26191 307.2619,205.96429 L 307.91667,205.38889 C 308.08201,205.54101 308.32341,205.75926 308.64087,206.04365 C 308.76653,206.15609 308.86243,206.24207 308.92857,206.30159 C 309.21957,205.69974 309.38492,205.03175 309.4246,204.29762 L 307.85714,204.29762 C 307.68518,204.76059 307.24206,205.47487 306.52778,206.44048 C 306.30291,206.26191 306.0119,206.12963 305.65476,206.04365 C 306.67989,205.17725 307.34127,203.94709 307.63889,202.35317 L 306.96429,202.35317 C 306.75926,202.35318 306.44841,202.36972 306.03175,202.40278 C 305.97884,202.4094 305.93915,202.4127 305.9127,202.4127 L 305.9127,201.61905 C 306.17725,201.65874 306.52116,201.67858 306.94444,201.67857 L 309.6627,201.67857 C 310.05952,201.67197 310.41666,201.65212 310.73413,201.61905 M 311.11111,202.33333 C 311.75925,202.35979 312.09655,202.39948 312.12302,202.45238 C 312.12962,202.48546 312.1197,202.53506 312.09325,202.60119 C 311.98081,202.85913 311.9246,203.20636 311.9246,203.64286 L 311.9246,206.18254 C 311.9246,206.46693 311.94444,206.91667 311.98413,207.53175 C 311.98412,207.57143 311.98412,207.59788 311.98413,207.61111 L 311.09127,207.61111 C 311.09126,207.5582 311.09788,207.45569 311.11111,207.30357 C 311.15079,206.90675 311.17063,206.53968 311.17063,206.20238 L 311.17063,203.62302 C 311.17063,203.04101 311.15079,202.61112 311.11111,202.33333 M 319.36508,200.88492 C 319.96031,200.8717 320.32407,200.89816 320.45635,200.96429 C 320.46957,200.99736 320.45965,201.05027 320.42659,201.12302 C 320.32738,201.32805 320.27777,201.59921 320.27778,201.93651 L 322.5,201.93651 C 322.86375,201.93652 323.22751,201.92329 323.59127,201.89683 L 323.59127,202.73016 C 323.20766,202.70371 322.85713,202.69048 322.53968,202.69048 L 320.27778,202.69048 L 320.27778,203.40476 L 322.30159,203.40476 C 322.5992,203.40477 322.92989,203.39154 323.29365,203.36508 L 323.29365,204.15873 C 323.03571,204.13228 322.71163,204.11905 322.32143,204.11905 L 320.27778,204.11905 L 320.27778,204.89286 L 323.1746,204.89286 C 323.55158,204.89286 323.90211,204.87963 324.22619,204.85317 L 324.22619,205.68651 C 323.94179,205.66006 323.60449,205.64683 323.21429,205.64683 L 320.51587,205.64683 C 320.582,205.97752 320.85978,206.51323 321.34921,207.25397 C 321.76587,206.91005 322.17592,206.48677 322.57937,205.98413 C 323.12169,206.26852 323.40608,206.44709 323.43254,206.51984 C 323.43253,206.5463 323.37962,206.59259 323.27381,206.65873 C 322.84391,206.89021 322.3611,207.23413 321.8254,207.69048 C 322.7447,208.25926 323.62433,208.57672 324.46429,208.64286 C 324.46428,208.64947 324.43782,208.67593 324.38492,208.72222 C 324.08729,208.96032 323.8492,209.25132 323.67063,209.59524 C 321.54761,208.90741 320.25793,207.59127 319.80159,205.64683 L 319.72222,205.64683 C 319.45767,206.03043 319.21296,206.36111 318.9881,206.63889 L 318.9881,208.74206 C 319.36507,208.51058 319.77513,208.21296 320.21825,207.84921 L 320.49603,208.72222 C 319.48412,209.25794 318.76984,209.70106 318.35317,210.05159 L 317.8373,209.29762 L 318.19444,209.03968 L 318.19444,207.35317 C 317.71164,207.7963 317.02381,208.29894 316.13095,208.86111 C 315.83995,208.5172 315.58201,208.26587 315.35714,208.10714 C 316.81878,207.61773 317.99603,206.79762 318.88889,205.64683 L 316.86508,205.64683 C 316.50793,205.64683 316.11772,205.66006 315.69444,205.68651 L 315.69444,204.85317 C 316.1045,204.87963 316.48809,204.89286 316.84524,204.89286 L 319.44444,204.89286 L 319.44444,204.11905 L 317.81746,204.11905 C 317.4537,204.11905 317.0701,204.13228 316.66667,204.15873 L 316.66667,203.36508 C 316.95767,203.39154 317.32804,203.40477 317.77778,203.40476 L 319.44444,203.40476 L 319.44444,202.69048 L 317.51984,202.69048 C 317.12963,202.69048 316.72619,202.70371 316.30952,202.73016 L 316.30952,201.89683 C 316.72619,201.92329 317.14285,201.93652 317.55952,201.93651 L 319.44444,201.93651 C 319.44444,201.65874 319.42129,201.36112 319.375,201.04365 C 319.36177,200.94445 319.35846,200.89154 319.36508,200.88492"
     id="text31" />
  <text
     xml:space="preserve"
     x="10"
     y="230"
     id="text33" />
  <path
     style="font-style:normal;font-variant:normal;font-weight:normal;font-stretch:normal;text-align:start;line-height:125%;writing-mode:lr-tb;text-anchor:start;font-family:FZHeiTi;-inkscape-font-specification:FZHeiTi"
     d="M 39.404762,230.9246 C 40.138884,230.90477 40.515867,230.93784 40.535714,231.02381 C 40.548936,231.07673 40.532402,231.13956 40.486111,231.2123 C 40.386899,231.37765 40.337296,231.59921 40.337302,231.87698 C 40.330683,232.0754 40.310841,232.39286 40.277778,232.82937 L 42.460317,232.82937 C 42.771156,232.82937 43.174595,232.79961 43.670635,232.74008 C 43.710309,232.73347 43.73015,232.73016 43.730159,232.73016 C 43.683854,233.1799 43.657399,233.62302 43.650794,234.05952 L 43.650794,238.7619 C 43.644171,239.50926 43.108458,239.93254 42.043651,240.03175 C 41.951051,239.62831 41.818776,239.30423 41.646825,239.05952 C 42.46031,239.1918 42.863749,238.9537 42.857143,238.34524 L 42.857143,233.58333 L 40.238095,233.58333 C 40.178566,234.17196 40.119042,234.55556 40.059524,234.73413 C 40.641529,235.22355 41.279756,235.80887 41.974206,236.49008 C 42.165998,236.67527 42.321421,236.82408 42.440476,236.93651 L 41.666667,237.55159 C 41.13756,236.81085 40.535709,236.1164 39.861111,235.46825 C 39.563488,236.30159 39.014546,237.06878 38.214286,237.76984 C 38.048939,237.56482 37.797616,237.39947 37.460317,237.27381 C 38.677245,236.51984 39.345234,235.28969 39.464286,233.58333 L 37.261905,233.58333 L 37.261905,238.28571 C 37.261902,239.11905 37.288357,239.6746 37.34127,239.95238 L 36.388889,239.95238 C 36.441797,239.56878 36.468252,239.01323 36.468254,238.28571 L 36.468254,233.96032 C 36.468252,233.69577 36.445104,233.31548 36.39881,232.81944 C 36.392194,232.77315 36.388888,232.75001 36.388889,232.75 C 36.759257,232.80292 37.129627,232.82937 37.5,232.82937 L 39.484127,232.82937 L 39.484127,231.79762 C 39.477509,231.42726 39.451054,231.13625 39.404762,230.9246 M 49.107143,230.84524 C 49.861106,230.97752 50.205021,231.07673 50.138889,231.14286 C 50.13227,231.16271 50.105815,231.19247 50.059524,231.23214 C 49.801583,231.46363 49.60317,231.79763 49.464286,232.23413 L 52.599206,232.23413 C 53.227505,232.23413 53.829356,232.21429 54.404762,232.1746 L 54.404762,233.02778 C 53.935176,232.97487 53.333325,232.94842 52.599206,232.94841 L 49.126984,232.94841 C 48.624335,233.82805 48.234124,234.44974 47.956349,234.81349 L 47.956349,238.52381 C 47.96296,239.23148 47.976188,239.73413 47.996032,240.03175 L 47.083333,240.03175 C 47.109786,239.80026 47.123014,239.29101 47.123016,238.50397 L 47.123016,235.78571 C 46.660051,236.29498 46.249999,236.71164 45.892857,237.03571 C 45.780423,236.91667 45.5291,236.73148 45.138889,236.48016 C 45.945766,235.93122 46.613755,235.33598 47.142857,234.69444 L 47.123016,234.03968 L 47.539683,234.11905 C 47.705024,233.93387 47.91005,233.62302 48.154762,233.18651 C 48.207669,233.08731 48.247351,233.01456 48.27381,232.96825 L 47.162698,232.96825 C 46.686506,232.96826 46.183861,232.9881 45.654762,233.02778 L 45.654762,232.19444 C 45.674602,232.19445 45.704364,232.19776 45.744048,232.20437 C 46.140872,232.23744 46.633596,232.25397 47.222222,232.25397 L 48.611111,232.25397 C 48.902113,231.66535 49.067456,231.19577 49.107143,230.84524 M 53.809524,234.13889 L 53.809524,235.0119 C 53.366394,235.07805 52.77777,235.38228 52.043651,235.9246 L 52.043651,236.53968 L 52.996032,236.53968 C 53.644171,236.53968 54.15343,236.51984 54.52381,236.48016 L 54.52381,237.27381 C 54.437821,237.27381 54.242716,237.2672 53.938492,237.25397 C 53.495362,237.22752 53.181209,237.21429 52.996032,237.21429 L 52.043651,237.21429 L 52.043651,239.03968 C 52.050258,239.46296 51.957665,239.73743 51.765873,239.8631 C 51.593909,239.99537 51.197084,240.06481 50.575397,240.07143 C 50.509254,239.75397 50.357138,239.43651 50.119048,239.11905 C 50.615074,239.1918 50.919306,239.20503 51.031746,239.15873 C 51.164015,239.13227 51.223539,239.00661 51.210317,238.78175 L 51.210317,237.23413 L 49.920635,237.23413 C 49.503964,237.23413 49.014546,237.24736 48.452381,237.27381 L 48.452381,236.5 C 48.485446,236.5 48.538356,236.50331 48.611111,236.50992 C 49.12698,236.54299 49.563488,236.55953 49.920635,236.55952 L 51.210317,236.55952 L 51.210317,235.66667 L 52.579365,234.83333 L 50.615079,234.83333 C 49.874334,234.83334 49.39153,234.84656 49.166667,234.87302 L 49.166667,234.15873 C 49.583329,234.18519 50.052905,234.19842 50.575397,234.19841 L 52.420635,234.19841 C 52.896817,234.19842 53.35978,234.17858 53.809524,234.13889 M 121.86508,230.96429 C 122.43386,231.11641 122.75793,231.24868 122.8373,231.36111 C 122.84391,231.39419 122.81415,231.44048 122.74802,231.5 C 122.65542,231.57937 122.58598,231.65874 122.53968,231.7381 C 122.51323,231.77117 122.44709,231.8803 122.34127,232.06548 C 122.18254,232.33003 122.0701,232.51191 122.00397,232.61111 L 122.28175,232.61111 C 122.52645,232.59789 122.82407,232.57144 123.1746,232.53175 L 123.1746,233.26587 C 122.87698,233.23281 122.54629,233.21297 122.18254,233.20635 L 121.74603,233.20635 C 121.74603,233.19313 121.68981,233.26919 121.57738,233.43452 C 121.39219,233.71231 121.25,233.91403 121.15079,234.03968 C 121.25661,234.07276 121.52116,234.0926 121.94444,234.09921 L 122.12302,234.09921 C 122.24868,234.09921 122.46693,234.08598 122.77778,234.05952 C 122.96957,234.03969 123.10846,234.02646 123.19444,234.01984 L 123.19444,234.75397 C 122.87698,234.72752 122.61243,234.71429 122.40079,234.71429 L 122.24206,234.71429 L 122.24206,235.96429 L 122.36111,235.96429 C 122.67857,235.95767 122.94973,235.93783 123.1746,235.90476 L 123.1746,236.57937 C 123.07539,236.57937 122.92989,236.57606 122.7381,236.56944 C 122.56614,236.56283 122.44047,236.55953 122.36111,236.55952 L 122.24206,236.55952 L 122.24206,238.24603 C 122.22883,238.24603 122.32143,238.14352 122.51984,237.93849 C 122.791,237.66072 122.97619,237.459 123.0754,237.33333 L 123.37302,238.04762 C 122.86375,238.60979 122.26852,239.20503 121.5873,239.83333 L 121.05159,239.07937 C 121.23016,238.97355 121.40211,238.84788 121.56746,238.70238 L 121.56746,236.55952 L 121.44841,236.55952 C 121.09127,236.56614 120.75397,236.59259 120.43651,236.63889 L 120.43651,235.9246 C 120.65476,235.95106 120.97884,235.96429 121.40873,235.96429 L 121.56746,235.96429 L 121.56746,234.73413 C 121.30952,234.73413 121.11111,234.74736 120.97222,234.77381 L 120.97222,234.27778 L 120.63492,234.65476 C 120.58201,234.42328 120.46958,234.17196 120.29762,233.90079 C 121.04497,233.08069 121.56746,232.10186 121.86508,230.96429 M 126.52778,231.02381 C 127.00396,231.03043 127.29497,231.0635 127.40079,231.12302 C 127.40079,231.14948 127.38425,231.19247 127.35119,231.25198 C 127.29827,231.34458 127.26851,231.43387 127.2619,231.51984 C 127.24867,231.60583 127.24206,231.7844 127.24206,232.05556 L 127.67857,232.05556 C 127.92989,232.04895 128.30687,232.02911 128.80952,231.99603 C 128.84258,231.98943 128.85581,232.00927 128.84921,232.05556 C 128.80952,232.37964 128.78967,232.67726 128.78968,232.94841 L 128.78968,233.40476 C 129.06084,233.40477 129.31877,233.39154 129.56349,233.36508 L 129.56349,234.01984 C 129.27248,233.99339 129.01454,233.98016 128.78968,233.98016 L 128.78968,234.29762 C 128.78967,234.47619 128.80952,234.83995 128.84921,235.38889 C 128.85581,235.42857 128.82936,235.44842 128.76984,235.44841 C 128.28042,235.41535 127.91004,235.39551 127.65873,235.38889 L 127.2619,235.38889 L 127.2619,236.10317 L 127.7381,236.10317 C 127.76454,236.10318 127.81084,236.10318 127.87698,236.10317 C 128.37301,236.10979 128.73015,236.09656 128.94841,236.06349 L 128.94841,236.71825 C 128.69047,236.6918 128.28703,236.67196 127.7381,236.65873 L 127.2619,236.65873 L 127.2619,237.47222 L 127.8373,237.47222 C 127.85713,237.47222 127.91004,237.47222 127.99603,237.47222 C 128.54496,237.47884 128.90872,237.47222 129.0873,237.45238 L 129.0873,238.10714 C 128.37962,238.06746 127.95634,238.04762 127.81746,238.04762 L 127.2619,238.04762 L 127.2619,239.05952 C 127.54629,239.07936 127.86375,239.08267 128.21429,239.06944 C 128.53835,239.06283 128.98809,239.03968 129.56349,239 C 129.332,239.21825 129.15343,239.52249 129.02778,239.9127 C 126.45502,239.87963 124.88756,239.50265 124.3254,238.78175 C 123.9947,239.21825 123.54497,239.62831 122.97619,240.0119 C 122.81084,239.79365 122.56614,239.60185 122.24206,239.43651 C 122.87698,239.21164 123.43254,238.78836 123.90873,238.16667 C 123.67724,237.75 123.43915,237.12169 123.19444,236.28175 L 123.92857,236.22222 C 123.95502,236.51984 124.04761,236.98281 124.20635,237.61111 C 124.36508,237.04233 124.48412,236.29498 124.56349,235.36905 C 124.12698,235.38889 123.73015,235.46826 123.37302,235.60714 L 123.13492,234.99206 C 123.38624,234.88625 123.57143,234.70768 123.69048,234.45635 C 123.88227,234.03969 124.12698,233.41799 124.4246,232.59127 C 123.96164,232.61112 123.57804,232.65741 123.27381,232.73016 L 123.27381,232.01587 C 123.96825,232.06879 124.6164,232.06879 125.21825,232.01587 C 125.26454,232.01588 125.27777,232.03572 125.25794,232.0754 C 124.96693,232.9418 124.60978,233.87434 124.18651,234.87302 L 124.74206,234.81349 C 124.9074,234.79366 125.08597,234.76059 125.27778,234.71429 C 125.31745,234.71429 125.3373,234.73413 125.3373,234.77381 C 125.18518,236.28836 124.96031,237.44577 124.6627,238.24603 C 124.92063,238.62302 125.56216,238.88095 126.5873,239.01984 L 126.5873,238.06746 L 126.36905,238.06746 C 125.85978,238.06746 125.48941,238.08069 125.25794,238.10714 L 125.25794,237.4127 C 125.32407,237.41931 125.42989,237.42593 125.5754,237.43254 C 125.95899,237.459 126.21693,237.47222 126.34921,237.47222 L 126.5873,237.47222 L 126.5873,236.65873 L 126.38889,236.65873 C 126.09788,236.65873 125.81679,236.66865 125.54563,236.68849 C 125.50595,236.69511 125.47619,236.69842 125.45635,236.69841 L 125.45635,236.04365 C 125.50264,236.04365 125.5787,236.05027 125.68452,236.06349 C 126.03505,236.08995 126.27645,236.10318 126.40873,236.10317 L 126.5873,236.10317 L 126.5873,235.38889 L 126.42857,235.38889 C 126.21693,235.38889 125.91269,235.40212 125.51587,235.42857 L 125.51587,234.73413 C 125.78042,234.7672 126.09126,234.78704 126.44841,234.79365 L 126.5873,234.79365 L 126.5873,234.01984 L 126.40873,234.01984 C 125.99206,234.01985 125.53571,234.03969 125.03968,234.07937 L 125.03968,233.34524 C 125.2447,233.39154 125.68121,233.41799 126.34921,233.4246 L 126.5873,233.4246 L 126.5873,232.65079 L 126.44841,232.65079 C 126.1574,232.6508 125.84655,232.66403 125.51587,232.69048 L 125.51587,231.99603 C 125.582,232.00265 125.68121,232.00927 125.81349,232.01587 C 126.10449,232.04234 126.30952,232.05556 126.42857,232.05556 L 126.56746,232.05556 C 126.58729,231.65874 126.57407,231.31482 126.52778,231.02381 M 127.2619,232.65079 L 127.2619,233.4246 L 128.11508,233.4246 L 128.11508,232.65079 L 127.2619,232.65079 M 127.2619,234.01984 L 127.2619,234.79365 L 128.11508,234.79365 L 128.11508,234.01984 L 127.2619,234.01984 M 134.12698,230.9246 C 134.93386,231.0172 135.32407,231.08334 135.29762,231.12302 C 135.30423,231.16271 135.27777,231.2057 135.21825,231.25198 C 135.12566,231.31813 135.03968,231.4008 134.96032,231.5 C 134.9074,231.56615 134.84457,231.67197 134.77183,231.81746 C 134.72552,231.90345 134.69576,231.94974 134.68254,231.95635 L 136.52778,231.95635 C 137.20237,231.95636 137.66534,231.9299 137.91667,231.87698 C 137.87698,232.15477 137.85713,232.46562 137.85714,232.80952 L 137.85714,234 L 138.23413,234 C 138.6574,234 139.01454,233.97355 139.30556,233.92063 L 139.30556,234.65476 C 139.00131,234.61508 138.63756,234.59524 138.21429,234.59524 L 137.85714,234.59524 L 137.85714,235.76587 C 137.91666,236.16932 137.44047,236.38757 136.42857,236.42063 C 136.3955,236.04365 136.28968,235.74604 136.11111,235.52778 C 136.81878,235.6336 137.13624,235.54101 137.06349,235.25 L 137.06349,234.59524 L 133.25397,234.59524 C 133.1283,235.36244 132.70502,236.02381 131.98413,236.57937 C 132.24206,236.62566 132.65211,236.65212 133.21429,236.65873 L 136.40873,236.65873 C 137.32803,236.65873 137.95634,236.62566 138.29365,236.55952 C 138.24073,236.79762 138.21428,237.18783 138.21429,237.73016 L 138.21429,238.88095 C 138.72354,238.88095 139.12697,238.84788 139.4246,238.78175 L 139.4246,239.65476 C 139.13359,239.61508 138.7037,239.59524 138.13492,239.59524 L 132.22222,239.59524 C 131.50794,239.59524 130.95899,239.62169 130.5754,239.6746 L 130.5754,238.7619 C 130.91931,238.82804 131.32936,238.86111 131.80556,238.86111 L 131.80556,237.76984 C 131.80555,237.39286 131.80225,237.16138 131.79563,237.0754 C 131.78902,236.96296 131.77248,236.85715 131.74603,236.75794 C 131.70635,236.79762 131.65344,236.84392 131.5873,236.89683 C 131.38227,236.67857 131.13756,236.46693 130.85317,236.2619 C 131.78571,235.95106 132.32804,235.39551 132.48016,234.59524 L 132.04365,234.59524 C 131.49471,234.59524 131.04497,234.6217 130.69444,234.6746 L 130.69444,233.90079 C 131.07143,233.96694 131.52116,234 132.04365,234 L 132.51984,234 C 132.51984,233.55688 132.51984,233.12699 132.51984,232.71032 C 132.51984,232.35979 132.5,232.0754 132.46032,231.85714 C 132.78439,231.92329 133.26058,231.95636 133.88889,231.95635 C 134.02777,231.69181 134.10714,231.34789 134.12698,230.9246 M 133.29365,232.59127 L 133.29365,234 L 137.06349,234 L 137.06349,232.59127 L 133.29365,232.59127 M 134.4246,234.87302 C 134.87433,235.03836 135.30423,235.25662 135.71429,235.52778 L 135.19841,236.22222 C 134.72883,235.89154 134.30555,235.6336 133.92857,235.44841 L 134.4246,234.87302 M 132.55952,237.29365 L 132.55952,238.90079 L 133.69048,238.90079 L 133.69048,237.29365 L 132.55952,237.29365 M 134.36508,237.29365 L 134.36508,238.90079 L 135.55556,238.90079 L 135.55556,237.29365 L 134.36508,237.29365 M 136.23016,237.31349 L 136.23016,238.90079 L 137.46032,238.90079 L 137.46032,237.31349 L 136.23016,237.31349 M 134.20635,233.34524 L 134.72222,232.80952 C 135.0992,232.94842 135.50264,233.1336 135.93254,233.36508 L 135.37698,233.94048 C 134.99338,233.71561 134.60317,233.5172 134.20635,233.34524 M 221.17063,231.32143 C 221.41534,231.34789 221.9246,231.36773 222.69841,231.38095 L 227.10317,231.38095 C 228.00264,231.36773 228.59126,231.34789 228.86905,231.32143 C 228.82936,231.53308 228.8029,232.03572 228.78968,232.82937 L 228.78968,238.58333 C 228.80952,239.1455 228.71692,239.49272 228.5119,239.625 C 228.31348,239.79034 227.81745,239.89947 227.02381,239.95238 C 226.99735,239.55555 226.84523,239.20503 226.56746,238.90079 C 227.22222,238.98677 227.61243,238.99669 227.7381,238.93056 C 227.89682,238.89087 227.96957,238.68915 227.95635,238.3254 L 227.95635,232.13492 L 222.02381,232.13492 L 222.02381,238.00794 C 222.03042,238.65608 222.05688,239.24471 222.10317,239.77381 L 221.09127,239.77381 C 221.16402,239.45635 221.2037,238.88095 221.21032,238.04762 L 221.21032,232.9881 C 221.21032,232.09525 221.19709,231.53969 221.17063,231.32143 M 222.08333,237.96825 C 222.60582,237.34656 223.06878,236.53968 223.47222,235.54762 C 223.08862,234.71429 222.67857,233.98016 222.24206,233.34524 C 222.44047,233.28572 222.68518,233.20636 222.97619,233.10714 C 223.25396,233.64286 223.52513,234.17196 223.78968,234.69444 C 224.02116,233.92725 224.16666,233.25265 224.22619,232.67063 C 224.28571,232.69048 224.375,232.72024 224.49405,232.75992 C 224.99669,232.91866 225.23148,233.00794 225.19841,233.02778 C 225.19841,233.0344 225.18849,233.04432 225.16865,233.05754 C 225.08928,233.12368 225.01322,233.24604 224.94048,233.4246 C 224.91402,233.49736 224.87103,233.60649 224.81151,233.75198 C 224.59325,234.29432 224.3783,234.85318 224.16667,235.42857 C 224.45767,235.95106 224.74867,236.49339 225.03968,237.05556 C 224.70238,237.2209 224.44444,237.37302 224.26587,237.5119 C 224.15344,237.10185 224.00793,236.68519 223.82937,236.2619 C 223.78306,236.3545 223.72023,236.49008 223.64087,236.66865 C 223.29695,237.42923 223.01587,237.9881 222.79762,238.34524 C 222.63227,238.18651 222.39418,238.06085 222.08333,237.96825 M 226.05159,235.66667 C 226.01851,235.60053 225.98875,235.54101 225.9623,235.4881 C 225.67129,234.86641 225.35714,234.32408 225.01984,233.86111 C 224.98677,233.80821 224.94708,233.74868 224.90079,233.68254 C 224.99338,233.63625 225.12896,233.57673 225.30754,233.50397 C 225.46626,233.44445 225.57539,233.39815 225.63492,233.36508 C 225.85317,233.82143 226.04497,234.23479 226.21032,234.60516 C 226.28968,234.79696 226.34259,234.87302 226.36905,234.83333 C 226.60714,233.98016 226.7328,233.30556 226.74603,232.80952 C 227.44708,232.95503 227.78438,233.04763 227.75794,233.0873 C 227.75132,233.09392 227.73809,233.11046 227.71825,233.1369 C 227.62565,233.21628 227.56613,233.29895 227.53968,233.38492 C 227.51322,233.4709 227.46692,233.60979 227.40079,233.80159 C 227.16269,234.54233 226.95105,235.1508 226.76587,235.62698 C 227.23544,236.62566 227.55952,237.31349 227.7381,237.69048 C 227.49338,237.77646 227.2156,237.88889 226.90476,238.02778 C 226.76587,237.55159 226.59391,237.02249 226.38889,236.44048 C 226.36904,236.48016 226.33267,236.54961 226.27976,236.64881 C 225.90939,237.34326 225.56878,237.91535 225.25794,238.36508 C 225.23809,238.35847 225.19841,238.34193 225.13889,238.31548 C 224.8082,238.1832 224.53703,238.09392 224.3254,238.04762 C 225.0992,237.44577 225.6746,236.65212 226.05159,235.66667 M 235.45635,231.02381 C 236.19708,231.13625 236.55423,231.22223 236.52778,231.28175 C 236.52116,231.29498 236.50132,231.31482 236.46825,231.34127 C 236.25661,231.48678 236.07804,231.74472 235.93254,232.11508 C 237.39417,232.10847 238.36639,232.08863 238.84921,232.05556 C 238.41269,232.96165 237.82407,233.84127 237.08333,234.69444 C 237.92327,235.28969 238.76322,235.60715 239.60317,235.64683 C 239.34523,235.95106 239.16666,236.28175 239.06746,236.63889 C 238.81613,236.55291 238.59126,236.46032 238.39286,236.36111 L 238.39286,238.54365 C 238.39285,239.24471 238.42592,239.68783 238.49206,239.87302 L 237.53968,239.87302 C 237.57936,239.6746 237.5992,239.41667 237.59921,239.09921 L 235.41667,239.09921 C 235.42989,239.39021 235.44973,239.66137 235.47619,239.9127 L 234.52381,239.9127 C 234.57672,239.53571 234.60317,239.08598 234.60317,238.56349 L 234.60317,236.40079 C 234.44444,236.5 234.2791,236.59921 234.10714,236.69841 C 233.96164,236.36111 233.76984,236.10979 233.53175,235.94444 C 234.44444,235.70635 235.28439,235.27646 236.05159,234.65476 C 235.72751,234.22487 235.48941,233.81482 235.3373,233.4246 C 235.29761,233.49736 235.23809,233.60318 235.15873,233.74206 C 234.93386,234.13228 234.74206,234.43651 234.58333,234.65476 C 234.35846,234.44974 234.0873,234.34392 233.76984,234.3373 C 234.44444,233.70239 235.00661,232.59789 235.45635,231.02381 M 235.75397,232.76984 C 236.03835,233.43784 236.3029,233.91403 236.54762,234.19841 C 236.95105,233.76852 237.29497,233.29233 237.57937,232.76984 L 235.75397,232.76984 M 236.54762,235.19048 C 236.0582,235.54101 235.48941,235.89815 234.84127,236.2619 C 235.05952,236.28836 235.291,236.30159 235.53571,236.30159 L 237.42063,236.30159 C 237.66534,236.30159 237.90343,236.28836 238.13492,236.2619 C 237.61904,236.0172 237.08994,235.66006 236.54762,235.19048 M 235.39683,236.97619 L 235.39683,238.44444 L 237.59921,238.44444 L 237.59921,236.97619 L 235.39683,236.97619 M 233.76984,237.84921 C 233.76984,237.86244 233.76653,237.88558 233.75992,237.91865 C 233.70039,238.26257 233.69047,238.52381 233.73016,238.70238 C 232.68518,238.86111 231.70635,239.08598 230.79365,239.37698 C 230.74074,238.90079 230.66799,238.55026 230.5754,238.3254 C 231.57407,238.35847 232.63889,238.19974 233.76984,237.84921 M 232.18254,230.94444 C 232.8836,231.19577 233.2209,231.37435 233.19444,231.48016 C 233.18783,231.50001 233.15145,231.52977 233.08532,231.56944 C 232.91997,231.6885 232.79762,231.81747 232.71825,231.95635 C 232.17592,232.96165 231.69312,233.70239 231.26984,234.17857 L 232.71825,234.01984 C 232.77777,233.91403 232.82738,233.82805 232.86706,233.7619 C 233.01256,233.53704 233.13161,233.27911 233.22421,232.9881 C 233.25066,232.90874 233.28703,232.80953 233.33333,232.69048 C 233.90873,232.92196 234.20634,233.09392 234.22619,233.20635 C 234.21957,233.2262 234.18981,233.25596 234.1369,233.29563 C 233.97156,233.40807 233.82275,233.57673 233.69048,233.80159 C 233.16137,234.68784 232.53307,235.56085 231.80556,236.42063 L 233.43254,236.24206 C 233.37301,236.36773 233.34325,236.53307 233.34325,236.7381 C 233.34325,236.82408 233.33994,236.89021 233.33333,236.93651 C 232.31481,236.96296 231.51455,237.06217 230.93254,237.23413 C 230.88624,236.89683 230.80688,236.58598 230.69444,236.30159 C 231.09788,236.38096 231.66005,235.8254 232.38095,234.63492 C 231.62698,234.69445 231.06481,234.78704 230.69444,234.9127 C 230.69444,234.70768 230.61508,234.41667 230.45635,234.03968 C 230.64153,233.94709 230.82011,233.78175 230.99206,233.54365 C 231.51455,232.73016 231.91137,231.86376 232.18254,230.94444 M 294.35516,235.26984 L 293.56151,235.26984 C 293.54828,234.68122 293.15807,234.38691 292.39087,234.3869 C 291.74272,234.41998 291.41204,234.66799 291.39881,235.13095 C 291.33267,235.44842 291.6336,235.6799 292.30159,235.8254 L 293.11508,236.08333 C 294.11375,236.34127 294.58333,236.79101 294.52381,237.43254 C 294.46428,238.51058 293.80952,239.07936 292.55952,239.13889 C 291.16402,239.13889 290.45635,238.53704 290.43651,237.33333 L 291.24008,237.33333 C 291.26653,238.05423 291.70635,238.41138 292.55952,238.40476 C 293.28703,238.37831 293.66402,238.10053 293.69048,237.57143 C 293.75,237.24074 293.42592,236.99603 292.71825,236.8373 L 291.75595,236.55952 C 290.97553,236.37434 290.58862,235.95437 290.59524,235.2996 C 290.64153,234.24802 291.26653,233.69247 292.47024,233.63294 C 293.63426,233.65278 294.26256,234.19842 294.35516,235.26984 M 299.60317,235.5377 L 298.80952,235.5377 C 298.69709,234.78373 298.3201,234.40344 297.67857,234.39683 C 296.79233,234.44313 296.31614,235.11112 296.25,236.40079 C 296.27645,237.74339 296.73942,238.4246 297.63889,238.44444 C 298.24735,238.40476 298.63756,237.97818 298.80952,237.16468 L 299.60317,237.16468 C 299.41137,238.45437 298.75,239.11243 297.61905,239.13889 C 296.23677,239.05952 295.50926,238.19312 295.43651,236.53968 C 295.49603,234.65477 296.27645,233.68585 297.77778,233.63294 C 298.8492,233.6594 299.45767,234.29432 299.60317,235.5377 M 304.35516,235.26984 L 303.56151,235.26984 C 303.54828,234.68122 303.15807,234.38691 302.39087,234.3869 C 301.74272,234.41998 301.41204,234.66799 301.39881,235.13095 C 301.33267,235.44842 301.6336,235.6799 302.30159,235.8254 L 303.11508,236.08333 C 304.11375,236.34127 304.58333,236.79101 304.52381,237.43254 C 304.46428,238.51058 303.80952,239.07936 302.55952,239.13889 C 301.16402,239.13889 300.45635,238.53704 300.43651,237.33333 L 301.24008,237.33333 C 301.26653,238.05423 301.70635,238.41138 302.55952,238.40476 C 303.28703,238.37831 303.66402,238.10053 303.69048,237.57143 C 303.75,237.24074 303.42592,236.99603 302.71825,236.8373 L 301.75595,236.55952 C 300.97553,236.37434 300.58862,235.95437 300.59524,235.2996 C 300.64153,234.24802 301.26653,233.69247 302.47024,233.63294 C 303.63426,233.65278 304.26256,234.19842 304.35516,235.26984 M 307.85714,233.75198 L 307.85714,238.99008 L 307.10317,238.99008 L 307.10317,233.75198 L 307.85714,233.75198 M 307.85714,232.7996 L 307.10317,232.7996 L 307.10317,231.79762 L 307.85714,231.79762 L 307.85714,232.7996 M 361.9246,230.96429 C 362.59259,230.97091 362.94312,231.03043 362.97619,231.14286 C 362.97619,231.15609 362.96296,231.17924 362.93651,231.2123 C 362.83069,231.3512 362.77778,231.50001 362.77778,231.65873 L 362.77778,233.00794 L 362.89683,233.00794 C 363.26719,233.00794 363.58796,232.98479 363.85913,232.93849 C 363.89881,232.93188 363.92195,232.92858 363.92857,232.92857 L 363.92857,233.80159 C 363.90873,233.80159 363.87235,233.79829 363.81944,233.79167 C 363.5615,233.74538 363.25396,233.72223 362.89683,233.72222 L 362.77778,233.72222 L 362.77778,235.32937 L 363.78968,234.85317 L 363.80952,235.64683 L 362.77778,236.12302 L 362.77778,238.92063 C 362.80423,239.32407 362.72156,239.5754 362.52976,239.6746 C 362.3578,239.80688 361.90476,239.9127 361.17063,239.99206 C 361.13095,239.64153 361.0119,239.31085 360.81349,239 C 361.65344,239.15873 362.05026,239.0463 362.00397,238.6627 L 362.00397,236.40079 L 360.5754,237.09524 L 360.37698,236.20238 L 362.00397,235.60714 L 362.00397,233.72222 L 361.4881,233.72222 C 361.16402,233.72223 360.85648,233.74538 360.56548,233.79167 C 360.51257,233.79829 360.4828,233.80159 360.47619,233.80159 L 360.47619,232.92857 C 360.48942,232.92858 360.5291,232.93188 360.59524,232.93849 C 360.89947,232.98479 361.2037,233.00794 361.50794,233.00794 L 362.00397,233.00794 L 362.00397,231.69841 C 362.00397,231.53969 361.98413,231.34789 361.94444,231.12302 C 361.93122,231.03705 361.9246,230.98414 361.9246,230.96429 M 368.63095,231.48016 L 368.63095,232.43254 C 368.63094,232.43916 368.59457,232.44577 368.52183,232.45238 C 368.26388,232.46562 368.07539,232.51853 367.95635,232.61111 C 367.5992,232.88228 367.20237,233.19643 366.76587,233.55357 C 366.32274,233.91072 365.93915,234.19842 365.61508,234.41667 L 368.37302,234.41667 C 368.78967,234.41006 369.08729,234.3836 369.26587,234.3373 C 369.19973,234.70106 369.15343,235.02514 369.12698,235.30952 C 368.95502,237.59127 368.81613,238.84788 368.71032,239.07937 C 368.58465,239.5291 368.02909,239.77381 367.04365,239.81349 C 367.01058,239.42989 366.89153,239.07275 366.68651,238.74206 C 367.46692,238.9537 367.91005,238.86773 368.01587,238.48413 C 368.12169,237.99471 368.24735,236.86376 368.39286,235.09127 L 367.67857,235.09127 C 367.24867,237.39947 366.24999,238.99339 364.68254,239.87302 C 364.55026,239.71428 364.26587,239.52249 363.82937,239.29762 C 365.50264,238.68254 366.53438,237.28043 366.9246,235.09127 L 366.21032,235.09127 C 365.68782,236.59921 364.9074,237.68386 363.86905,238.34524 C 363.73677,238.15344 363.49206,237.96825 363.13492,237.78968 C 364.19973,237.34656 364.98015,236.44709 365.47619,235.09127 C 365.03306,235.09789 364.6164,235.15741 364.22619,235.26984 L 363.9881,234.37698 C 364.30555,234.37699 364.62962,234.27778 364.96032,234.07937 C 365.44973,233.77514 366.21693,233.17329 367.2619,232.27381 L 365.21825,232.27381 C 364.84788,232.27382 364.51058,232.29696 364.20635,232.34325 C 364.15344,232.34987 364.12037,232.35318 364.10714,232.35317 L 364.10714,231.51984 C 364.12698,231.51985 364.17328,231.52646 364.24603,231.53968 C 364.56349,231.57937 364.88095,231.59921 365.19841,231.59921 L 367.02381,231.59921 C 367.51322,231.59921 367.9861,231.56615 368.44246,231.5 C 368.54166,231.48678 368.60449,231.48017 368.63095,231.48016 M 374.60317,230.88492 C 375.26454,230.87831 375.58862,230.918 375.5754,231.00397 C 375.582,231.04366 375.56878,231.08996 375.53571,231.14286 C 375.46957,231.23546 375.4365,231.34789 375.43651,231.48016 L 375.43651,232.03571 L 377.89683,232.03571 C 378.68385,232.03572 379.15012,232.01588 379.29563,231.97619 C 379.30224,231.9762 379.30555,231.9762 379.30556,231.97619 L 379.30556,232.76984 C 379.29893,232.77646 379.27578,232.77646 379.23611,232.76984 C 378.9451,232.73678 378.47883,232.71694 377.8373,232.71032 L 375.43651,232.71032 L 375.43651,233.64286 L 377.28175,233.64286 C 378.00264,233.64286 378.42592,233.61641 378.55159,233.56349 L 378.55159,234.39683 C 378.4193,234.34392 378.00925,234.31746 377.32143,234.31746 L 372.81746,234.31746 C 372.15608,234.31746 371.75264,234.34392 371.60714,234.39683 L 371.60714,233.56349 C 371.91799,233.61641 372.32143,233.64286 372.81746,233.64286 L 374.68254,233.64286 L 374.68254,232.71032 L 372.18254,232.71032 C 371.48148,232.71032 371.05489,232.73016 370.90278,232.76984 C 370.89616,232.76985 370.89286,232.76985 370.89286,232.76984 L 370.89286,231.97619 C 371.0119,232.01588 371.41534,232.03572 372.10317,232.03571 L 374.68254,232.03571 C 374.67592,231.51985 374.64947,231.13625 374.60317,230.88492 M 372.75794,235.0119 L 377.46032,235.0119 C 377.85713,235.01191 378.19113,234.99207 378.4623,234.95238 C 378.48213,234.95238 378.49205,234.95238 378.49206,234.95238 C 378.45237,235.17064 378.43253,235.47487 378.43254,235.86508 L 378.43254,237.33333 C 378.43253,237.88889 378.45899,238.21296 378.5119,238.30556 L 377.61905,238.30556 L 377.65873,237.71032 L 372.53968,237.71032 C 372.26852,238.64947 371.75264,239.44312 370.99206,240.09127 C 370.7672,239.83333 370.50926,239.65476 370.21825,239.55556 C 371.23677,238.9537 371.77249,238.06746 371.8254,236.89683 L 371.8254,235.84524 C 371.8254,235.44842 371.80555,235.1508 371.76587,234.95238 C 371.76587,234.95238 371.77579,234.95238 371.79563,234.95238 C 372.08664,234.99207 372.4074,235.01191 372.75794,235.0119 M 374.70238,235.68651 L 372.57937,235.68651 L 372.57937,237.03571 L 374.70238,237.03571 L 374.70238,235.68651 M 375.45635,235.68651 L 375.45635,237.03571 L 377.67857,237.03571 L 377.67857,235.68651 L 375.45635,235.68651 M 386.19048,231.77778 L 386.19048,232.80952 L 387.8373,232.80952 L 387.8373,231.77778 L 386.19048,231.77778 M 386.0119,238.58333 L 387.81746,238.58333 L 387.81746,237.35317 L 386.0119,237.35317 L 386.0119,238.58333 M 383.73016,237.39286 L 382.18254,237.39286 L 382.18254,238.58333 L 383.73016,238.58333 L 383.73016,237.39286 M 387.59921,234.03968 L 387.12302,234.35714 L 387.55952,234.35714 C 388.18782,234.35053 388.72354,234.32408 389.16667,234.27778 L 389.16667,235.07143 C 388.64417,235.03175 388.10184,235.00529 387.53968,234.99206 L 385.53571,234.99206 C 385.88624,235.28969 386.42856,235.50794 387.1627,235.64683 C 387.94973,235.79233 388.73015,235.8254 389.50397,235.74603 C 389.29893,236.03043 389.17989,236.34127 389.14683,236.67857 C 386.83862,236.47355 385.40343,235.92461 384.84127,235.03175 C 384.39814,235.89815 383.04233,236.47355 380.77381,236.75794 C 380.70767,236.48016 380.55556,236.20238 380.31746,235.9246 C 382.22883,235.92461 383.49867,235.61376 384.12698,234.99206 L 382.32143,234.99206 C 381.70635,235.00529 381.17725,235.03175 380.73413,235.07143 L 380.73413,234.27778 C 381.21693,234.32408 381.74603,234.35053 382.32143,234.35714 L 384.34524,234.35714 C 384.39814,234.16535 384.4246,233.92064 384.4246,233.62302 C 384.99338,233.64948 385.31745,233.68916 385.39683,233.74206 C 385.39682,233.76191 385.38029,233.79829 385.34722,233.85119 C 385.24801,234.00993 385.17857,234.17858 385.13889,234.35714 L 386.84524,234.35714 C 386.67327,234.16535 386.48147,234 386.26984,233.86111 L 386.90476,233.48413 C 387.03703,233.57011 387.22552,233.71892 387.47024,233.93056 C 387.52975,233.97686 387.57274,234.01323 387.59921,234.03968 M 382.10317,231.77778 L 382.10317,232.82937 L 383.75,232.82937 L 383.75,231.77778 L 382.10317,231.77778 M 384.52381,236.67857 C 384.47089,236.90344 384.44444,237.16138 384.44444,237.45238 L 384.44444,239.17857 C 384.45767,239.45635 384.48412,239.66137 384.52381,239.79365 L 383.63095,239.79365 C 383.68386,239.68783 383.71031,239.48942 383.71032,239.19841 L 382.1627,239.19841 C 382.1627,239.52249 382.18915,239.74735 382.24206,239.87302 L 381.38889,239.87302 C 381.42857,239.70106 381.45502,239.4828 381.46825,239.21825 L 381.46825,237.4127 C 381.46825,237.06217 381.44841,236.82408 381.40873,236.69841 C 381.541,236.74471 381.79233,236.76455 382.1627,236.75794 L 383.71032,236.75794 C 383.99471,236.75794 384.26587,236.73148 384.52381,236.67857 M 388.57143,236.65873 C 388.54496,236.84392 388.53174,237.08201 388.53175,237.37302 L 388.53175,239.19841 C 388.53835,239.42328 388.56481,239.60846 388.61111,239.75397 L 387.69841,239.75397 C 387.7447,239.60846 387.77116,239.42328 387.77778,239.19841 L 386.05159,239.19841 C 386.05158,239.43651 386.07804,239.63492 386.13095,239.79365 L 385.21825,239.79365 C 385.25793,239.66799 385.28439,239.48942 385.29762,239.25794 L 385.29762,237.43254 C 385.29761,237.14815 385.27116,236.8836 385.21825,236.63889 C 385.44312,236.6918 385.72751,236.71826 386.07143,236.71825 L 387.67857,236.71825 C 388.03571,236.71826 388.33333,236.69842 388.57143,236.65873 M 388.69048,231.06349 C 388.62433,231.30821 388.59126,231.53308 388.59127,231.7381 L 388.59127,232.84921 C 388.60449,233.11376 388.63094,233.34524 388.67063,233.54365 C 388.41269,233.48413 388.14153,233.45106 387.85714,233.44444 L 386.11111,233.44444 C 386.03835,233.46429 385.89285,233.48083 385.6746,233.49405 C 385.51587,233.50067 385.41005,233.51059 385.35714,233.52381 C 385.41005,233.27911 385.4365,233.05424 385.43651,232.84921 L 385.43651,231.77778 C 385.42327,231.50001 385.39682,231.26191 385.35714,231.06349 C 385.63491,231.11641 385.89285,231.14287 386.13095,231.14286 L 387.8373,231.14286 C 388.13491,231.12964 388.4193,231.10318 388.69048,231.06349 M 382.08333,231.14286 L 383.71032,231.14286 C 384.10714,231.13625 384.38492,231.1098 384.54365,231.06349 C 384.49074,231.22223 384.46428,231.46694 384.46429,231.79762 L 384.46429,232.82937 C 384.46428,233.12699 384.49074,233.36508 384.54365,233.54365 C 384.36507,233.49075 384.10053,233.46429 383.75,233.46429 L 382.10317,233.46429 C 381.76587,233.47752 381.50132,233.50397 381.30952,233.54365 C 381.36243,233.27911 381.38889,233.04763 381.38889,232.84921 L 381.38889,231.79762 C 381.38889,231.47355 381.36243,231.22223 381.30952,231.04365 C 381.52116,231.09657 381.7791,231.12964 382.08333,231.14286"
     id="text35" />
</svg>
