<?xml version="1.0" encoding="utf-8"?>
<!-- Generator: Adobe Illustrator 15.1.0, SVG Export Plug-In . SVG Version: 6.00 Build 0)  -->
<!DOCTYPE svg PUBLIC "-//W3C//DTD SVG 1.1//EN" "http://www.w3.org/Graphics/SVG/1.1/DTD/svg11.dtd">
<svg version="1.1" xmlns="http://www.w3.org/2000/svg" xmlns:xlink="http://www.w3.org/1999/xlink" x="0px" y="0px" width="420.6px"
	 height="199.432px" viewBox="260.125 133.971 420.6 199.432" enable-background="new 260.125 133.971 420.6 199.432"
	 xml:space="preserve">
<g id="Layer_1">
	<g>
		<rect x="444.653" y="182.037" fill="none" stroke="#000000" stroke-width="1.6" width="47.035" height="23.505"/>
		<rect x="491.712" y="182.037" fill="none" stroke="#000000" stroke-width="1.6" width="47.035" height="23.505"/>
		<rect x="538.772" y="182.037" fill="none" stroke="#000000" stroke-width="1.6" width="47.034" height="23.505"/>
		<rect x="585.831" y="182.037" fill="none" stroke="#000000" stroke-width="1.6" width="47.034" height="23.505"/>
		<rect x="632.892" y="182.037" fill="none" stroke="#000000" stroke-width="1.6" width="47.034" height="23.505"/>
		<rect x="261.146" y="134.978" fill="none" stroke="#000000" stroke-width="1.6" width="141.153" height="47.035"/>
		<rect x="261.146" y="182.037" fill="none" stroke="#000000" stroke-width="1.6" width="47.035" height="117.624"/>
		<rect x="308.205" y="182.037" fill="none" stroke="#000000" stroke-width="1.6" width="47.035" height="117.624"/>
		<rect x="355.265" y="182.037" fill="none" stroke="#000000" stroke-width="1.6" width="47.035" height="117.624"/>
		<rect x="261.146" y="299.687" fill="none" stroke="#000000" stroke-width="1.6" width="47.035" height="32.916"/>
		<rect x="308.205" y="299.687" fill="none" stroke="#000000" stroke-width="1.6" width="47.035" height="32.916"/>
		<rect x="355.265" y="299.687" fill="none" stroke="#000000" stroke-width="1.6" width="47.035" height="32.916"/>
		<rect x="261.146" y="134.978" fill="none" stroke="#000000" stroke-width="1.6" width="141.153" height="197.625"/>
		<rect x="444.653" y="205.567" fill="none" stroke="#000000" stroke-width="1.6" width="141.154" height="47.036"/>
		<rect x="585.831" y="205.567" fill="none" stroke="#000000" stroke-width="1.6" width="94.095" height="47.036"/>
		<rect x="444.653" y="134.978" fill="none" stroke="#000000" stroke-width="1.6" width="94.094" height="47.035"/>
		<rect x="538.772" y="134.978" fill="none" stroke="#000000" stroke-width="1.6" width="141.153" height="47.035"/>
		<rect x="444.653" y="134.978" fill="none" stroke="#000000" stroke-width="1.6" width="94.094" height="70.564"/>
		<rect x="538.772" y="134.978" fill="none" stroke="#000000" stroke-width="1.6" width="141.153" height="70.564"/>
		<rect x="444.653" y="252.626" fill="none" stroke="#000000" stroke-width="1.6" width="70.565" height="47.035"/>
		<rect x="515.242" y="252.626" fill="none" stroke="#000000" stroke-width="1.6" width="70.564" height="47.035"/>
		<rect x="585.831" y="252.626" fill="none" stroke="#000000" stroke-width="1.6" width="47.034" height="47.035"/>
		<rect x="632.892" y="252.626" fill="none" stroke="#000000" stroke-width="1.6" width="47.034" height="47.035"/>
		<rect x="444.653" y="299.687" fill="none" stroke="#000000" stroke-width="1.6" width="70.565" height="32.916"/>
		<rect x="515.242" y="299.687" fill="none" stroke="#000000" stroke-width="1.6" width="70.564" height="32.916"/>
		<rect x="585.831" y="299.687" fill="none" stroke="#000000" stroke-width="1.6" width="47.034" height="32.916"/>
		<rect x="632.892" y="299.687" fill="none" stroke="#000000" stroke-width="1.6" width="47.034" height="32.916"/>
		<rect x="444.653" y="205.567" fill="none" stroke="#000000" stroke-width="1.6" width="141.154" height="127.036"/>
		<rect x="585.831" y="205.567" fill="none" stroke="#000000" stroke-width="1.6" width="94.095" height="127.036"/>
	</g>
	<g>
		<rect x="444.653" y="181.83" fill="none" stroke="#000000" stroke-width="1.6" width="47.035" height="23.505"/>
		<rect x="491.712" y="181.83" fill="none" stroke="#000000" stroke-width="1.6" width="47.035" height="23.505"/>
		<rect x="538.772" y="181.83" fill="none" stroke="#000000" stroke-width="1.6" width="47.034" height="23.505"/>
		<rect x="585.831" y="181.83" fill="none" stroke="#000000" stroke-width="1.6" width="47.034" height="23.505"/>
		<rect x="632.892" y="181.83" fill="none" stroke="#000000" stroke-width="1.6" width="47.034" height="23.505"/>
		<rect x="261.146" y="134.803" fill="none" stroke="#000000" stroke-width="1.6" width="141.153" height="47.035"/>
		<rect x="261.146" y="181.83" fill="none" stroke="#000000" stroke-width="1.6" width="47.035" height="117.624"/>
		<rect x="308.205" y="181.83" fill="none" stroke="#000000" stroke-width="1.6" width="47.035" height="117.624"/>
		<rect x="355.265" y="181.83" fill="none" stroke="#000000" stroke-width="1.6" width="47.035" height="117.624"/>
		<rect x="261.146" y="299.479" fill="none" stroke="#000000" stroke-width="1.6" width="47.035" height="32.916"/>
		<rect x="308.205" y="299.479" fill="none" stroke="#000000" stroke-width="1.6" width="47.035" height="32.916"/>
		<rect x="355.265" y="299.479" fill="none" stroke="#000000" stroke-width="1.6" width="47.035" height="32.916"/>
		<rect x="260.925" y="134.771" fill="none" stroke="#000000" stroke-width="1.6" width="141.154" height="197.625"/>
		<rect x="444.653" y="205.36" fill="none" stroke="#000000" stroke-width="1.6" width="141.154" height="47.036"/>
		<rect x="585.831" y="205.36" fill="none" stroke="#000000" stroke-width="1.6" width="94.095" height="47.036"/>
		<rect x="444.653" y="134.771" fill="none" stroke="#000000" stroke-width="1.6" width="94.094" height="47.035"/>
		<rect x="538.772" y="134.771" fill="none" stroke="#000000" stroke-width="1.6" width="141.153" height="47.035"/>
		<rect x="444.653" y="134.771" fill="none" stroke="#000000" stroke-width="1.6" width="94.094" height="70.564"/>
		<rect x="538.772" y="134.771" fill="none" stroke="#000000" stroke-width="1.6" width="141.153" height="70.564"/>
		<rect x="444.653" y="252.419" fill="none" stroke="#000000" stroke-width="1.6" width="70.565" height="47.035"/>
		<rect x="515.242" y="252.419" fill="none" stroke="#000000" stroke-width="1.6" width="70.564" height="47.035"/>
		<rect x="585.831" y="252.419" fill="none" stroke="#000000" stroke-width="1.6" width="47.034" height="47.035"/>
		<rect x="632.892" y="252.419" fill="none" stroke="#000000" stroke-width="1.6" width="47.034" height="47.035"/>
		<rect x="444.653" y="299.479" fill="none" stroke="#000000" stroke-width="1.6" width="70.565" height="32.916"/>
		<rect x="515.242" y="299.479" fill="none" stroke="#000000" stroke-width="1.6" width="70.564" height="32.916"/>
		<rect x="585.831" y="299.479" fill="none" stroke="#000000" stroke-width="1.6" width="47.034" height="32.916"/>
		<rect x="632.892" y="299.479" fill="none" stroke="#000000" stroke-width="1.6" width="47.034" height="32.916"/>
		<rect x="444.653" y="205.36" fill="none" stroke="#000000" stroke-width="1.6" width="141.154" height="127.036"/>
		<rect x="585.831" y="205.36" fill="none" stroke="#000000" stroke-width="1.6" width="94.095" height="127.036"/>
	</g>
</g>
<g id="text">
	<text transform="matrix(1 0 0 1 453.7627 200.8501)" font-family="'Arial-BoldMT'" font-size="10">PART</text>
	<text transform="matrix(1 0 0 1 500.8223 200.8501)" font-family="'Arial-BoldMT'" font-size="10">PART</text>
	<text transform="matrix(1 0 0 1 547.8818 200.8501)" font-family="'Arial-BoldMT'" font-size="10">PART</text>
	<text transform="matrix(1 0 0 1 594.9424 200.8501)" font-family="'Arial-BoldMT'" font-size="10">PART</text>
	<text transform="matrix(1 0 0 1 641.9756 200.8501)" font-family="'Arial-BoldMT'" font-size="10">PART</text>
	<text transform="matrix(1 0 0 1 318.98 167.9087)" font-family="'Arial-BoldMT'" font-size="10">DISK</text>
	<text transform="matrix(1 0 0 1 270.7554 200.8501)" font-family="'Arial-BoldMT'" font-size="10">PART</text>
	<text transform="matrix(1 0 0 1 317.8149 200.8501)" font-family="'Arial-BoldMT'" font-size="10">PART</text>
	<text transform="matrix(1 0 0 1 364.8745 200.8501)" font-family="'Arial-BoldMT'" font-size="10">PART</text>
	<text transform="matrix(1 0 0 1 278.2788 323.1787)" font-family="'Arial-BoldMT'" font-size="10">MP</text>
	<text transform="matrix(1 0 0 1 325.3374 323.1787)" font-family="'Arial-BoldMT'" font-size="10">MP</text>
	<text transform="matrix(1 0 0 1 372.3975 323.1787)" font-family="'Arial-BoldMT'" font-size="10">MP</text>
	<text transform="matrix(1 0 0 1 473.4028 323.1787)" font-family="'Arial-BoldMT'" font-size="10">MP</text>
	<text transform="matrix(1 0 0 1 545.4932 323.1787)" font-family="'Arial-BoldMT'" font-size="10">MP</text>
	<text transform="matrix(1 0 0 1 602.4639 323.1787)" font-family="'Arial-BoldMT'" font-size="10">MP</text>
	<text transform="matrix(1 0 0 1 649.999 323.1787)" font-family="'Arial-BoldMT'" font-size="10">MP</text>
	<text transform="matrix(1 0 0 1 475.4468 167.9087)" font-family="'Arial-BoldMT'" font-size="10">DISK 1</text>
	<text transform="matrix(1 0 0 1 591.5713 167.9087)" font-family="'Arial-BoldMT'" font-size="10">DISK 2</text>
	<text transform="matrix(1 0 0 1 503.2451 233.792)" font-family="'Arial-BoldMT'" font-size="10">VG 1</text>
	<text transform="matrix(1 0 0 1 620.8936 233.792)" font-family="'Arial-BoldMT'" font-size="10">VG 2</text>
	<text transform="matrix(1 0 0 1 471.1387 280.8506)" font-family="'Arial-BoldMT'" font-size="10">LV 1</text>
	<text transform="matrix(1 0 0 1 539.3857 280.8506)" font-family="'Arial-BoldMT'" font-size="10">LV 2</text>
	<text transform="matrix(1 0 0 1 598.1982 280.8506)" font-family="'Arial-BoldMT'" font-size="10">LV 3</text>
	<text transform="matrix(1 0 0 1 645.2334 280.8506)" font-family="'Arial-BoldMT'" font-size="10">LV 4</text>
</g>
</svg>
