<?xml version="1.0" encoding="UTF-8" standalone="no"?>
<!-- Generator: Adobe Illustrator 14.0.0, SVG Export Plug-In . SVG Version: 6.00 Build 43363)  -->

<svg
   xmlns:v="http://schemas.microsoft.com/visio/2003/SVGExtensions/"
   xmlns:dc="http://purl.org/dc/elements/1.1/"
   xmlns:cc="http://creativecommons.org/ns#"
   xmlns:rdf="http://www.w3.org/1999/02/22-rdf-syntax-ns#"
   xmlns:svg="http://www.w3.org/2000/svg"
   xmlns="http://www.w3.org/2000/svg"
   xmlns:sodipodi="http://sodipodi.sourceforge.net/DTD/sodipodi-0.dtd"
   xmlns:inkscape="http://www.inkscape.org/namespaces/inkscape"
   version="1.1"
   id="Layer_1"
   x="0px"
   y="0px"
   width="212px"
   height="227.176px"
   viewBox="0 0 159 170.383"
   enable-background="new 0 0 159 170.383"
   xml:space="preserve"
   inkscape:version="0.48.1 "
   sodipodi:docname="webserver_groupresource_a.svg"><metadata
   id="metadata436"><rdf:RDF><cc:Work
       rdf:about=""><dc:format>image/svg+xml</dc:format><dc:type
         rdf:resource="http://purl.org/dc/dcmitype/StillImage" /></cc:Work></rdf:RDF></metadata><defs
   id="defs434" /><sodipodi:namedview
   pagecolor="#ffffff"
   bordercolor="#666666"
   borderopacity="1"
   objecttolerance="10"
   gridtolerance="10"
   guidetolerance="10"
   inkscape:pageopacity="0"
   inkscape:pageshadow="2"
   inkscape:window-width="1876"
   inkscape:window-height="904"
   id="namedview432"
   showgrid="false"
   inkscape:zoom="2.43"
   inkscape:cx="106"
   inkscape:cy="113.588"
   inkscape:window-x="0"
   inkscape:window-y="0"
   inkscape:window-maximized="0"
   inkscape:current-layer="group21-38" />
<v:documentProperties
   v:metric="true"
   v:langID="2052" />
<g
   id="g3">
	<title
   id="title5">svg2</title>
	<v:pageProperties
   v:pageScale="1"
   v:drawingScale="1"
   v:shadowOffsetY="-8.99999"
   v:shadowOffsetX="8.99999"
   v:drawingUnits="19">
		</v:pageProperties>
	<g
   id="group1-1"
   transform="translate(8.99999,-78.2114)">
		<title
   id="title8">base</title>
		<g
   id="shape2-2"
   transform="translate(27,-38.6249)">
			<title
   id="title11">path5</title>
			<path
   fill="#D2D3D4"
   d="M91.5,167.01c0,1.86-1.51,3.37-3.37,3.37H3.37c-1.86,0-3.37-1.51-3.37-3.37v-46.8     c0-1.86,1.51-3.38,3.37-3.38h84.76c1.86,0,3.37,1.52,3.37,3.38V167.01z"
   id="path13" />
		</g>
		<g
   id="shape3-4"
   transform="translate(33.6959,-45.3207)">
			<title
   id="title16">circle11</title>
			<ellipse
   fill="#629E1F"
   cx="10.769"
   cy="159.614"
   rx="10.769"
   ry="10.769"
   id="ellipse18"
   d="m 21.538,159.614 c 0,5.94755 -4.821445,10.769 -10.769,10.769 C 4.8214456,170.383 0,165.56155 0,159.614 c 0,-5.94756 4.8214456,-10.769 10.769,-10.769 5.947555,0 10.769,4.82144 10.769,10.769 z" />
		</g>
		<g
   id="group4-6"
   transform="translate(36.4326,-52.5674)">
			<title
   id="title21">g13</title>
			<g
   id="shape5-7"
   transform="translate(0,-0.000749999)">
				<title
   id="title24">path15</title>
				<path
   fill="#FFFFFF"
   d="M1.95,168.95l-0.55,1.43H0l2.65-6.96h1.02l2.58,6.96H4.83l-0.52-1.43H1.95z M3.1,165.4H3.08l-0.75,2.47      h1.61L3.1,165.4z"
   id="path26" />
			</g>
			<g
   id="shape6-9"
   transform="translate(6.97499,5.68434E-014)">
				<title
   id="title29">path17</title>
				<path
   fill="#FFFFFF"
   d="M1.32,170.38H0v-6.78h1.8c1.42,0,2.35,0.561,2.35,2.101c0,1.439-0.78,2.14-2.17,2.14H1.32V170.38z       M1.32,166.75H1.59c0.79,0,1.21-0.18,1.21-1.06c0-0.87-0.51-1-1.24-1H1.32V166.75z"
   id="path31" />
			</g>
			<g
   id="shape7-11"
   transform="translate(12.0503,5.68434E-014)">
				<title
   id="title34">path19</title>
				<path
   fill="#FFFFFF"
   d="M1.32,170.38H0v-6.78h1.8c1.42,0,2.35,0.561,2.35,2.101c0,1.439-0.779,2.14-2.17,2.14H1.32V170.38z       M1.32,166.75H1.59c0.79,0,1.21-0.18,1.21-1.06c0-0.87-0.51-1-1.24-1H1.32V166.75z"
   id="path36" />
			</g>
		</g>
		<g
   id="shape8-13"
   transform="translate(61.9822,-45.3207)">
			<title
   id="title39">circle29</title>
			<ellipse
   fill="#E67814"
   cx="10.769"
   cy="159.614"
   rx="10.769"
   ry="10.769"
   id="ellipse41"
   d="m 21.538,159.614 c 0,5.94755 -4.821445,10.769 -10.769,10.769 C 4.8214456,170.383 0,165.56155 0,159.614 c 0,-5.94756 4.8214456,-10.769 10.769,-10.769 5.947555,0 10.769,4.82144 10.769,10.769 z" />
		</g>
		<g
   id="group9-15"
   transform="translate(64.7189,-52.5674)">
			<title
   id="title44">g31</title>
			<g
   id="shape10-16"
   transform="translate(0,-0.000749999)">
				<title
   id="title47">path33</title>
				<path
   fill="#FFFFFF"
   d="M1.95,168.95l-0.55,1.43H0l2.65-6.96h1.02l2.58,6.96H4.83l-0.52-1.43H1.95z M3.1,165.4H3.08l-0.75,2.47      h1.61L3.1,165.4z"
   id="path49" />
			</g>
			<g
   id="shape11-18"
   transform="translate(6.97499,5.68434E-014)">
				<title
   id="title52">path35</title>
				<path
   fill="#FFFFFF"
   d="M1.32,170.38H0v-6.78h1.8c1.42,0,2.35,0.561,2.35,2.101c0,1.439-0.779,2.14-2.17,2.14H1.32V170.38z       M1.32,166.75H1.59c0.79,0,1.21-0.18,1.21-1.06c0-0.87-0.51-1-1.24-1H1.32V166.75z"
   id="path54" />
			</g>
			<g
   id="shape12-20"
   transform="translate(12.051,5.68434E-014)">
				<title
   id="title57">path37</title>
				<path
   fill="#FFFFFF"
   d="M1.32,170.38H0v-6.78h1.8c1.42,0,2.35,0.561,2.35,2.101c0,1.439-0.779,2.14-2.17,2.14H1.32V170.38z       M1.32,166.75H1.59c0.79,0,1.21-0.18,1.21-1.06c0-0.87-0.51-1-1.24-1H1.32V166.75z"
   id="path59" />
			</g>
		</g>
		<g
   id="shape13-22"
   transform="translate(90.2692,-45.3207)">
			<title
   id="title62">circle43</title>
			<ellipse
   fill="#1C82B9"
   cx="10.769"
   cy="159.614"
   rx="10.769"
   ry="10.769"
   id="ellipse64"
   d="m 21.538,159.614 c 0,5.94755 -4.821445,10.769 -10.769,10.769 C 4.8214456,170.383 0,165.56155 0,159.614 c 0,-5.94756 4.8214456,-10.769 10.769,-10.769 5.947555,0 10.769,4.82144 10.769,10.769 z" />
		</g>
		<g
   id="group14-24"
   transform="translate(93.0059,-52.5674)">
			<title
   id="title67">g45</title>
			<g
   id="shape15-25"
   transform="translate(0,-0.000749999)">
				<title
   id="title70">path47</title>
				<path
   fill="#FFFFFF"
   d="M1.95,168.95l-0.55,1.43H0l2.65-6.96h1.02l2.58,6.96H4.83l-0.52-1.43H1.95z M3.1,165.4H3.08l-0.75,2.47      h1.61L3.1,165.4z"
   id="path72" />
			</g>
			<g
   id="shape16-27"
   transform="translate(6.97499,5.68434E-014)">
				<title
   id="title75">path49</title>
				<path
   fill="#FFFFFF"
   d="M1.32,170.38H0v-6.78h1.8c1.42,0,2.35,0.561,2.35,2.101c0,1.439-0.779,2.14-2.17,2.14H1.32V170.38z       M1.32,166.75H1.59c0.79,0,1.21-0.18,1.21-1.06c0-0.87-0.51-1-1.24-1H1.32V166.75z"
   id="path77" />
			</g>
			<g
   id="shape17-29"
   transform="translate(12.051,5.68434E-014)">
				<title
   id="title80">path51</title>
				<path
   fill="#FFFFFF"
   d="M1.32,170.38H0.001v-6.78h1.8c1.42,0,2.35,0.561,2.35,2.101c0,1.439-0.78,2.14-2.17,2.14H1.32V170.38z       M1.32,166.75H1.59c0.79,0,1.21-0.18,1.21-1.06c0-0.87-0.511-1-1.24-1H1.32V166.75z"
   id="path82" />
			</g>
		</g>
		<g
   id="shape18-31"
   transform="translate(35.6249,4.54747E-013)">
			<title
   id="title85">path53</title>
			<path
   fill="#629E1F"
   fill-opacity="0.5"
   d="M74.25,167.01c0,1.86-1.51,3.37-3.38,3.37H3.37c-1.86,0-3.37-1.51-3.37-3.37v-18.38     c0-1.86,1.51-3.37,3.37-3.37h67.5c1.87,0,3.38,1.51,3.38,3.37V167.01z"
   id="path87" />
		</g>
		<g
   id="shape19-33"
   transform="translate(0,-12.5625)">
			<title
   id="title90">line55</title>
			<path
   fill="none"
   d="M0,170.38h26.5H0z"
   id="path92" />
			<path
   fill="none"
   stroke="#666666"
   stroke-width="1.5"
   stroke-miterlimit="3"
   d="M0,170.38h26.5"
   id="path94" />
		</g>
		<g
   id="shape20-36"
   transform="translate(24.1305,-10.1903)">
			<title
   id="title97">polygon57</title>
			<path
   fill="#666666"
   d="M0,165.64v4.74l4.74-2.37L0,165.64z"
   id="path99" />
		</g>
	</g>
	<g
   id="group21-38"
   transform="translate(0,-0.00299859)">
		<title
   id="title102">text</title>
		<g
   id="shape22-39"
   transform="translate(65.862,-158.567)">
			<title
   id="title105">text60</title>
			<desc
   id="desc107">Web</desc>
			<v:userDefs />
			<v:textBlock
   v:margins="rect(0,0,0,0)" />
			<v:textRect
   width="144.1"
   height="3"
   cy="168.882"
   cx="72.0499" />
			<rect
   x="0"
   y="167.382"
   fill="none"
   width="144.1"
   height="3"
   id="rect109" />
			<g
   enable-background="new    "
   id="g111">
				<path
   d="M-7.787,170.83l-1.14-4.295h0.583l0.653,2.815c0.07,0.295,0.131,0.588,0.182,0.879c0.109-0.459,0.174-0.724,0.193-0.794      l0.817-2.9h0.686l0.615,2.174c0.154,0.539,0.266,1.046,0.334,1.521c0.055-0.271,0.126-0.583,0.214-0.935l0.674-2.76h0.571      l-1.178,4.295H-5.13l-0.905-3.272c-0.076-0.273-0.121-0.441-0.135-0.504c-0.045,0.197-0.087,0.365-0.126,0.504l-0.911,3.272      H-7.787z"
   id="path113" />
				<path
   d="M-0.92,169.828l0.545,0.067c-0.086,0.318-0.245,0.565-0.478,0.741s-0.529,0.264-0.891,0.264      c-0.455,0-0.816-0.14-1.083-0.42s-0.4-0.674-0.4-1.18c0-0.523,0.135-0.93,0.404-1.219s0.619-0.434,1.049-0.434      c0.416,0,0.756,0.142,1.02,0.425s0.396,0.682,0.396,1.195c0,0.031-0.001,0.078-0.003,0.141h-2.32      c0.02,0.342,0.116,0.604,0.29,0.785s0.391,0.272,0.65,0.272c0.193,0,0.358-0.051,0.495-0.152S-1,170.05-0.92,169.828z       M-2.651,168.975h1.737c-0.023-0.262-0.09-0.458-0.199-0.589c-0.168-0.203-0.386-0.305-0.653-0.305      c-0.242,0-0.446,0.081-0.611,0.243S-2.634,168.704-2.651,168.975z"
   id="path115" />
				<path
   d="M0.773,170.83H0.284v-4.295h0.527v1.532c0.223-0.279,0.507-0.419,0.853-0.419c0.191,0,0.373,0.039,0.543,0.116      s0.312,0.186,0.422,0.325s0.197,0.308,0.259,0.505s0.094,0.408,0.094,0.633c0,0.533-0.132,0.945-0.396,1.236      s-0.58,0.437-0.949,0.437c-0.367,0-0.655-0.153-0.864-0.46V170.83z M0.768,169.25c0,0.373,0.051,0.643,0.152,0.809      c0.166,0.271,0.391,0.407,0.674,0.407c0.23,0,0.43-0.1,0.598-0.3s0.252-0.499,0.252-0.896c0-0.406-0.081-0.706-0.242-0.899      s-0.356-0.29-0.584-0.29c-0.23,0-0.43,0.101-0.598,0.301S0.768,168.872,0.768,169.25z"
   id="path117" />
			</g>
			<g
   enable-background="new    "
   id="g119">
				<path
   d="M6.091,169.033c0,0.484-0.063,0.906-0.188,1.266c-0.125,0.359-0.36,0.711-0.703,1.055l-0.07-0.047      c0.437-0.547,0.656-1.313,0.656-2.297c0-1.422-0.008-2.375-0.023-2.859l0.352,0.234h0.891l0.211-0.234l0.328,0.328l-0.188,0.141      v4.148c0,0.25-0.156,0.438-0.469,0.563c-0.032-0.203-0.25-0.375-0.656-0.516v-0.094c0.406,0.094,0.645,0.125,0.715,0.094      s0.105-0.094,0.105-0.188v-1.594H6.091z M6.091,166.525v1.102h0.961v-1.102H6.091z M6.091,167.767v1.125h0.961v-1.125H6.091z       M10.122,168.634c-0.203,0.656-0.414,1.148-0.633,1.477c0.375,0.406,0.765,0.633,1.172,0.68v0.094      c-0.25,0.031-0.391,0.117-0.422,0.258c-0.344-0.219-0.648-0.492-0.914-0.82c-0.313,0.328-0.68,0.594-1.102,0.797v0.117      L7.896,171.4c0.015-0.641,0.023-1.512,0.023-2.613s-0.008-1.98-0.023-2.637l0.375,0.234H9.63l0.211-0.234l0.352,0.305      l-0.188,0.117c-0.016,0.266-0.035,0.52-0.059,0.762s-0.079,0.41-0.164,0.504c-0.086,0.094-0.238,0.172-0.457,0.234      c0-0.172-0.188-0.313-0.563-0.422v-0.094c0.39,0.078,0.621,0.105,0.691,0.082s0.121-0.109,0.152-0.258      c0.031-0.148,0.055-0.434,0.07-0.855H8.224v1.898h1.547l0.188-0.211l0.352,0.305L10.122,168.634z M8.224,168.564v2.438      c0.359-0.234,0.671-0.531,0.938-0.891c-0.281-0.422-0.492-0.938-0.633-1.547H8.224z M8.669,168.564      c0.156,0.531,0.367,0.969,0.633,1.313c0.203-0.328,0.367-0.766,0.492-1.313H8.669z"
   id="path121" />
				<path
   d="M12.982,165.892l0.492,0.281c-0.141,0.063-0.266,0.188-0.375,0.375h1.664l0.211-0.234l0.422,0.352l-0.258,0.141      c-0.266,0.469-0.602,0.875-1.008,1.219c0.359,0.25,0.773,0.438,1.242,0.563s0.883,0.188,1.242,0.188v0.094      c-0.297,0.063-0.461,0.18-0.492,0.352c-0.266-0.047-0.621-0.164-1.066-0.352s-0.824-0.414-1.137-0.68      c-0.391,0.281-0.817,0.523-1.277,0.727c-0.461,0.203-0.926,0.367-1.395,0.492l-0.07-0.094c0.531-0.172,1-0.363,1.406-0.574      c0.406-0.211,0.789-0.457,1.148-0.738c-0.297-0.297-0.586-0.664-0.867-1.102c-0.125,0.219-0.285,0.438-0.48,0.656      c-0.196,0.219-0.434,0.43-0.715,0.633l-0.07-0.047c0.296-0.281,0.578-0.637,0.844-1.066      C12.708,166.646,12.888,166.251,12.982,165.892z M15.396,169.548c-0.078,0.797-0.172,1.293-0.281,1.488      s-0.313,0.324-0.609,0.387c0-0.156-0.227-0.336-0.68-0.539l0.023-0.094c0.391,0.094,0.652,0.141,0.785,0.141      s0.23-0.148,0.293-0.445s0.109-0.633,0.141-1.008h-1.359c-0.156,0.625-0.442,1.074-0.855,1.348      c-0.414,0.273-0.855,0.48-1.324,0.621l-0.07-0.094c0.469-0.172,0.871-0.395,1.207-0.668c0.336-0.273,0.574-0.676,0.715-1.207      h-0.586c-0.203,0-0.391,0.023-0.563,0.07l-0.211-0.211h1.383c0.062-0.328,0.094-0.594,0.094-0.797l0.492,0.258l-0.164,0.141      c-0.016,0.109-0.047,0.242-0.094,0.398h1.289l0.164-0.211l0.398,0.281L15.396,169.548z M12.935,166.783      c0.343,0.422,0.671,0.773,0.984,1.055c0.359-0.328,0.648-0.711,0.867-1.148h-1.758L12.935,166.783z"
   id="path123" />
				<path
   d="M21.817,169.712c0,0.656,0.008,1.102,0.023,1.336l-0.352,0.141v-0.375h-1.055v0.352l-0.328,0.117      c0.016-0.328,0.023-0.652,0.023-0.973s-0.008-0.629-0.023-0.926l0.328,0.164h0.984l0.047-0.047      c-0.531-0.297-0.93-0.641-1.195-1.031h-0.703c-0.406,0.484-0.852,0.844-1.336,1.078h0.984l0.164-0.211l0.352,0.281l-0.164,0.141      c0,0.656,0.008,1.086,0.023,1.289l-0.328,0.117v-0.352h-0.914v0.305l-0.328,0.117c0.016-0.266,0.023-0.547,0.023-0.844      s0-0.547,0-0.75c-0.313,0.109-0.609,0.195-0.891,0.258l-0.023-0.07c0.438-0.156,0.82-0.34,1.148-0.551s0.633-0.48,0.914-0.809      h-1.125c-0.203,0-0.391,0.023-0.563,0.07l-0.211-0.211h1.969c0.141-0.219,0.266-0.445,0.375-0.68l0.445,0.305      c-0.156,0.063-0.305,0.188-0.445,0.375h1.477c-0.078-0.219-0.234-0.406-0.469-0.563l0.047-0.07      c0.297,0.078,0.5,0.16,0.609,0.246s0.094,0.215-0.047,0.387h0.469l0.328-0.328l0.469,0.469h-2.109      c0.266,0.25,0.574,0.461,0.926,0.633s0.785,0.266,1.301,0.281v0.094c-0.25,0.031-0.398,0.141-0.445,0.328l-0.352-0.117      L21.817,169.712z M17.95,167.955c0.016-0.313,0.023-0.621,0.023-0.926s-0.008-0.598-0.023-0.879l0.328,0.211h0.914l0.164-0.211      l0.375,0.305l-0.211,0.141c0,0.563,0.008,0.93,0.023,1.102l-0.328,0.141v-0.281h-0.938v0.234L17.95,167.955z M18.278,166.501      v0.914h0.938v-0.914H18.278z M18.349,169.689v0.984h0.914v-0.984H18.349z M20.247,167.837c0.016-0.281,0.023-0.566,0.023-0.855      s-0.008-0.566-0.023-0.832l0.328,0.211h0.891l0.164-0.211l0.352,0.281l-0.188,0.164c0,0.516,0.008,0.875,0.023,1.078      l-0.328,0.117v-0.234h-0.914v0.164L20.247,167.837z M20.435,169.689v0.984h1.055v-0.984H20.435z M20.575,166.501v0.914h0.914      v-0.914H20.575z"
   id="path125" />
				<path
   d="M23.2,170.603c0.188-0.031,0.495-0.102,0.926-0.211c0.43-0.109,0.809-0.219,1.137-0.328l0.047,0.117      c-0.22,0.078-0.548,0.215-0.984,0.41c-0.438,0.195-0.719,0.348-0.844,0.457L23.2,170.603z M23.833,169.408      c0.594-0.094,1.031-0.172,1.313-0.234l0.023,0.094c-0.203,0.063-0.48,0.152-0.832,0.27s-0.598,0.23-0.738,0.34l-0.258-0.422      c0.155-0.047,0.316-0.172,0.48-0.375s0.401-0.555,0.715-1.055c-0.234,0.047-0.442,0.105-0.621,0.176      c-0.18,0.07-0.325,0.137-0.434,0.199l-0.211-0.398c0.155-0.031,0.352-0.309,0.586-0.832s0.375-0.918,0.422-1.184l0.422,0.281      c-0.141,0.141-0.285,0.352-0.434,0.633c-0.149,0.281-0.363,0.648-0.645,1.102l0.961-0.094c0.155-0.297,0.281-0.594,0.375-0.891      l0.398,0.281c-0.079,0.078-0.234,0.301-0.469,0.668S24.302,168.814,23.833,169.408z M25.638,167.58      c0-0.641-0.009-1.094-0.023-1.359l0.328,0.211h1.477l0.188-0.258l0.375,0.305l-0.211,0.188v4.219h0.164l0.352-0.328l0.398,0.469      h-3.141c-0.203,0-0.391,0.023-0.563,0.07l-0.211-0.211h0.867V167.58z M25.942,166.572v1.289h1.5v-1.289H25.942z M25.942,168.001      v1.313h1.5v-1.313H25.942z M25.942,169.455v1.43h1.5v-1.43H25.942z"
   id="path127" />
				<path
   d="M31.169,166.361l0.07,0.047c-0.375,0.453-0.642,0.777-0.797,0.973c-0.156,0.195-0.255,0.367-0.293,0.516      c-0.039,0.148-0.059,0.332-0.059,0.551s-0.082,0.277-0.246,0.176s-0.211-0.234-0.141-0.398s0.117-0.297,0.141-0.398      s-0.129-0.207-0.457-0.316l0.023-0.07c0.234,0.031,0.378,0.043,0.434,0.035c0.055-0.008,0.132-0.035,0.234-0.082      C30.181,167.345,30.544,167.001,31.169,166.361z M31.661,169.103l0.586,0.305l-0.234,0.164c-0.063,0.484-0.18,0.824-0.352,1.02      c-0.173,0.195-0.438,0.359-0.797,0.492c-0.36,0.133-0.844,0.238-1.453,0.316l-0.023-0.07c0.39-0.078,0.773-0.191,1.148-0.34      s0.633-0.309,0.773-0.48s0.234-0.363,0.281-0.574S31.661,169.447,31.661,169.103z M29.692,166.126      c0.422,0.078,0.671,0.164,0.75,0.258c0.078,0.094,0.082,0.219,0.012,0.375s-0.156,0.145-0.258-0.035      c-0.103-0.18-0.285-0.355-0.551-0.527L29.692,166.126z M30.232,170.462c0.015-0.391,0.023-0.723,0.023-0.996      s-0.009-0.566-0.023-0.879l0.328,0.141h2.484l0.141-0.211l0.375,0.258l-0.188,0.164c0,0.531,0.008,0.938,0.023,1.219      l-0.328,0.164v-1.453H30.56v1.453L30.232,170.462z M32.247,166.876l0.492,0.211l-0.164,0.094l-0.023,0.094      c0.39,0.578,1.022,0.922,1.898,1.031v0.07c-0.281,0.031-0.454,0.133-0.516,0.305c-0.703-0.344-1.188-0.773-1.453-1.289      c-0.267,0.672-1,1.07-2.203,1.195l-0.023-0.07c0.75-0.172,1.269-0.398,1.559-0.68C32.103,167.556,32.247,167.236,32.247,166.876      z M33.185,167.298l0.375-0.633h-1.734c-0.267,0.344-0.571,0.625-0.914,0.844l-0.047-0.047c0.249-0.234,0.453-0.48,0.609-0.738      c0.155-0.258,0.281-0.527,0.375-0.809l0.445,0.234l-0.188,0.094l-0.234,0.281h1.664l0.188-0.258l0.422,0.375      c-0.22,0.031-0.516,0.266-0.891,0.703L33.185,167.298z M31.942,170.509v-0.094c0.594,0.094,1.063,0.18,1.406,0.258      c0.343,0.078,0.547,0.168,0.609,0.27c0.062,0.102,0.09,0.219,0.082,0.352c-0.009,0.133-0.114,0.129-0.316-0.012      c-0.203-0.141-0.445-0.273-0.727-0.398S32.364,170.634,31.942,170.509z"
   id="path129" />
				<path
   d="M35.153,167.486c0.547,0.25,0.82,0.453,0.82,0.609s-0.047,0.285-0.141,0.387s-0.176,0.047-0.246-0.164      s-0.231-0.465-0.48-0.762L35.153,167.486z M36.911,166.853c-0.484,1.703-0.747,2.656-0.785,2.859      c-0.039,0.203-0.063,0.445-0.07,0.727c-0.009,0.281-0.009,0.477,0,0.586c0.008,0.109-0.082,0.125-0.27,0.047      s-0.234-0.27-0.141-0.574s0.094-0.5,0-0.586s-0.258-0.16-0.492-0.223v-0.094c0.281,0.031,0.457,0.043,0.527,0.035      s0.148-0.078,0.234-0.211c0.085-0.133,0.387-0.996,0.902-2.59L36.911,166.853z M35.669,166.126      c0.453,0.188,0.703,0.348,0.75,0.48s0.02,0.273-0.082,0.422c-0.103,0.148-0.188,0.117-0.258-0.094s-0.223-0.457-0.457-0.738      L35.669,166.126z M37.919,169.455c0.015-0.406,0.023-0.789,0.023-1.148s-0.009-0.727-0.023-1.102l0.328,0.188h0.328      c0.155-0.359,0.249-0.633,0.281-0.82h-1.43c0,0.641-0.004,1.258-0.012,1.852c-0.009,0.594-0.121,1.125-0.34,1.594      c-0.22,0.469-0.548,0.914-0.984,1.336l-0.047-0.07c0.39-0.484,0.664-0.98,0.82-1.488c0.155-0.508,0.234-1.133,0.234-1.875      s-0.009-1.316-0.023-1.723l0.352,0.234h2.438l0.328-0.328l0.445,0.469h-1.664l0.375,0.211c-0.126,0.047-0.223,0.105-0.293,0.176      s-0.185,0.215-0.34,0.434h1.055l0.164-0.234l0.352,0.305l-0.188,0.164c0,0.969,0.008,1.516,0.023,1.641l-0.328,0.164v-0.234      h-0.609v1.547c0.015,0.313-0.149,0.516-0.492,0.609c-0.016-0.219-0.203-0.367-0.563-0.445v-0.094      c0.202,0.016,0.375,0.027,0.516,0.035s0.211-0.051,0.211-0.176v-1.477h-0.609v0.117L37.919,169.455z M38.06,169.595l0.422,0.328      c-0.173,0.078-0.355,0.227-0.551,0.445c-0.196,0.219-0.496,0.477-0.902,0.773l-0.047-0.07      C37.544,170.525,37.903,170.033,38.06,169.595z M38.247,167.533v0.68h1.547v-0.68H38.247z M38.247,168.353v0.703h1.547v-0.703      H38.247z M39.396,169.759l0.047-0.07c0.516,0.328,0.828,0.563,0.938,0.703c0.108,0.141,0.117,0.313,0.023,0.516      s-0.196,0.168-0.305-0.105C39.989,170.529,39.755,170.181,39.396,169.759z"
   id="path131" />
			</g>
			<v:paragraph />
			<v:tabList />
		</g>
		<g
   id="shape23-43"
   transform="translate(67.0265,-92.2685)">
			<title
   id="title134">text66</title>
			<desc
   id="desc136">IP (192.68.1.1.180)</desc>
			<v:userDefs />
			<v:textBlock
   v:margins="rect(0,0,0,0)" />
			<v:textRect
   width="156.11"
   height="3"
   cy="168.882"
   cx="78.0499" />
			<rect
   x="0"
   y="167.383"
   fill="none"
   width="156.101"
   height="3"
   id="rect138" />
			<g
   enable-background="new    "
   id="g140">
				<path
   d="M-15.45,170.83v-4.295h0.568v4.295H-15.45z"
   id="path142" />
				<path
   d="M-13.88,170.83v-4.295h1.62c0.285,0,0.503,0.014,0.653,0.041c0.211,0.035,0.388,0.103,0.53,0.201      s0.257,0.236,0.344,0.414s0.13,0.373,0.13,0.586c0,0.365-0.116,0.675-0.349,0.928s-0.652,0.379-1.26,0.379h-1.102v1.746H-13.88z       M-13.311,168.577h1.11c0.367,0,0.628-0.068,0.782-0.205s0.231-0.329,0.231-0.577c0-0.18-0.045-0.333-0.136-0.461      s-0.21-0.213-0.359-0.254c-0.096-0.025-0.272-0.038-0.53-0.038h-1.099V168.577z"
   id="path144" />
			</g>
			<g
   enable-background="new    "
   id="g146">
				<path
   d="M-7.329,170.135l0.938-0.328l0.023,0.117c-1.125,0.484-1.758,0.82-1.898,1.008l-0.281-0.422      c0.188-0.047,0.484-0.141,0.891-0.281v-2.109h-0.094c-0.203,0-0.391,0.023-0.563,0.07l-0.211-0.211h0.867V166.9      c0-0.219-0.008-0.484-0.023-0.797l0.539,0.258l-0.188,0.164v1.453h0.234l0.258-0.258l0.398,0.398h-0.891V170.135z       M-4.704,169.408c0.375,0.047,0.586,0.063,0.633,0.047s0.07-0.07,0.07-0.164v-1.711l-0.844,0.328      c0,1.031,0.008,1.758,0.023,2.18l-0.352,0.164c0.015-0.547,0.023-1.289,0.023-2.227l-0.727,0.281v2.273      c0,0.188,0.102,0.281,0.305,0.281h1.781c0.172-0.031,0.27-0.156,0.293-0.375s0.035-0.477,0.035-0.773h0.117      c0.015,0.313,0.039,0.547,0.07,0.703c0.031,0.156,0.117,0.266,0.258,0.328c-0.125,0.266-0.305,0.398-0.539,0.398h-2.133      c-0.328,0-0.492-0.18-0.492-0.539V168.4l-0.516,0.188l-0.141,0.117l-0.234-0.117l0.891-0.328v-0.844      c0-0.203-0.008-0.445-0.023-0.727l0.492,0.258l-0.164,0.141v1.078l0.727-0.281v-1.125c0-0.281-0.008-0.547-0.023-0.797      l0.539,0.234l-0.211,0.188v1.383l0.773-0.328l0.188-0.234l0.375,0.281l-0.188,0.188v1.781c0,0.094-0.035,0.184-0.105,0.27      s-0.176,0.16-0.316,0.223c-0.016-0.172-0.211-0.32-0.586-0.445V169.408z"
   id="path148" />
				<path
   d="M-1.634,166.713c0-0.234-0.008-0.484-0.023-0.75l0.586,0.258l-0.211,0.164v1.43h0.352l0.258-0.258l0.398,0.398h-1.008      v2.039l0.938-0.328l0.023,0.094c-1.172,0.531-1.813,0.883-1.922,1.055l-0.281-0.469c0.328-0.063,0.625-0.141,0.891-0.234v-2.156      h-0.117c-0.203,0-0.391,0.023-0.563,0.07l-0.211-0.211h0.891V166.713z M1.015,166.924c0-0.219-0.008-0.531-0.023-0.938      l0.563,0.258l-0.211,0.188v1.781h0.75l0.305-0.305l0.445,0.445h-1.5v2.578h0.75l0.352-0.352l0.492,0.492h-3.258      c-0.203,0-0.391,0.023-0.563,0.07l-0.211-0.211h1.031v-2.859c0-0.188-0.008-0.391-0.023-0.609l0.563,0.305l-0.211,0.164v3h0.75      V166.924z"
   id="path150" />
			</g>
			<text
   transform="matrix(1 0 0 1 19.2174 170.8298)"
   font-family="'SimSun'"
   font-size="5.9999"
   id="text152"> </text>

			<g
   id="g154">
				<path
   d="M7.621,172.093c-0.291-0.367-0.537-0.797-0.738-1.289s-0.302-1.002-0.302-1.529c0-0.465,0.075-0.91,0.226-1.336      c0.176-0.494,0.447-0.986,0.814-1.477h0.378c-0.236,0.406-0.393,0.696-0.469,0.87c-0.119,0.27-0.213,0.551-0.281,0.844      c-0.084,0.365-0.126,0.732-0.126,1.102c0,0.939,0.292,1.878,0.876,2.815H7.621z"
   id="path156" />
				<path
   d="M10.451,170.83H9.923v-3.36c-0.127,0.121-0.293,0.242-0.5,0.363s-0.391,0.212-0.555,0.272v-0.51      c0.295-0.139,0.553-0.307,0.773-0.504s0.377-0.389,0.469-0.574h0.34V170.83z"
   id="path158" />
				<path
   d="M11.88,169.837l0.507-0.047c0.043,0.238,0.125,0.411,0.246,0.519s0.276,0.161,0.466,0.161      c0.162,0,0.304-0.037,0.427-0.111c0.121-0.074,0.222-0.173,0.3-0.297s0.144-0.292,0.196-0.503s0.079-0.426,0.079-0.645      c0-0.023-0.001-0.059-0.003-0.105c-0.105,0.168-0.25,0.305-0.432,0.409c-0.184,0.104-0.381,0.156-0.594,0.156      c-0.355,0-0.656-0.129-0.902-0.387s-0.369-0.598-0.369-1.02c0-0.436,0.128-0.786,0.385-1.052s0.579-0.398,0.965-0.398      c0.279,0,0.534,0.075,0.767,0.226c0.23,0.15,0.406,0.365,0.527,0.644c0.119,0.278,0.18,0.681,0.18,1.208      c0,0.549-0.06,0.986-0.179,1.312s-0.296,0.572-0.532,0.742c-0.234,0.17-0.511,0.255-0.827,0.255      c-0.336,0-0.61-0.093-0.823-0.279S11.923,170.175,11.88,169.837z M14.04,167.941c0-0.303-0.08-0.543-0.242-0.721      c-0.16-0.178-0.354-0.267-0.581-0.267c-0.234,0-0.438,0.096-0.612,0.287s-0.261,0.439-0.261,0.744      c0,0.273,0.083,0.496,0.248,0.667s0.369,0.256,0.611,0.256c0.244,0,0.445-0.085,0.602-0.256      C13.962,168.481,14.04,168.244,14.04,167.941z"
   id="path160" />
				<path
   d="M17.91,170.323v0.507h-2.839c-0.004-0.127,0.017-0.249,0.062-0.366c0.072-0.193,0.188-0.384,0.347-0.571      c0.16-0.188,0.39-0.404,0.69-0.65c0.467-0.383,0.782-0.686,0.946-0.909s0.246-0.436,0.246-0.635      c0-0.209-0.074-0.385-0.225-0.528c-0.148-0.144-0.344-0.216-0.584-0.216c-0.254,0-0.457,0.076-0.609,0.229      s-0.229,0.363-0.231,0.633l-0.542-0.056c0.037-0.404,0.177-0.712,0.419-0.924s0.567-0.318,0.976-0.318      c0.412,0,0.738,0.114,0.979,0.343s0.36,0.512,0.36,0.85c0,0.172-0.035,0.341-0.105,0.507s-0.187,0.341-0.351,0.524      c-0.162,0.184-0.434,0.436-0.813,0.756c-0.316,0.266-0.52,0.446-0.609,0.541s-0.164,0.189-0.223,0.285H17.91z"
   id="path162" />
				<path
   d="M18.771,170.83v-0.601h0.601v0.601H18.771z"
   id="path164" />
				<path
   d="M22.878,167.587l-0.523,0.041c-0.047-0.207-0.113-0.357-0.199-0.451c-0.143-0.15-0.318-0.226-0.527-0.226      c-0.168,0-0.316,0.047-0.443,0.141c-0.166,0.121-0.297,0.298-0.393,0.53s-0.145,0.563-0.148,0.993      c0.127-0.193,0.281-0.337,0.465-0.431s0.377-0.141,0.578-0.141c0.352,0,0.65,0.13,0.897,0.389s0.37,0.593,0.37,1.003      c0,0.27-0.058,0.521-0.174,0.752s-0.275,0.408-0.479,0.531s-0.434,0.185-0.691,0.185c-0.439,0-0.799-0.161-1.076-0.484      s-0.416-0.856-0.416-1.599c0-0.83,0.154-1.434,0.461-1.811c0.268-0.328,0.627-0.492,1.08-0.492c0.338,0,0.615,0.095,0.831,0.284      S22.835,167.253,22.878,167.587z M20.725,169.438c0,0.182,0.038,0.355,0.115,0.521s0.186,0.293,0.324,0.38      s0.283,0.13,0.436,0.13c0.223,0,0.414-0.09,0.574-0.27s0.24-0.424,0.24-0.732c0-0.297-0.078-0.53-0.236-0.701      s-0.357-0.257-0.598-0.257c-0.238,0-0.441,0.086-0.607,0.257S20.725,169.161,20.725,169.438z"
   id="path166" />
				<path
   d="M24.29,168.501c-0.219-0.08-0.381-0.194-0.486-0.343s-0.158-0.326-0.158-0.533c0-0.313,0.113-0.575,0.338-0.788      s0.523-0.319,0.896-0.319c0.375,0,0.676,0.109,0.904,0.327s0.344,0.482,0.344,0.795c0,0.199-0.053,0.373-0.157,0.521      s-0.263,0.261-0.476,0.341c0.264,0.086,0.464,0.225,0.602,0.416s0.207,0.42,0.207,0.686c0,0.367-0.131,0.676-0.391,0.926      s-0.602,0.375-1.025,0.375s-0.766-0.125-1.025-0.376s-0.389-0.564-0.389-0.939c0-0.279,0.07-0.513,0.212-0.701      S24.028,168.569,24.29,168.501z M24.014,169.591c0,0.15,0.036,0.296,0.107,0.437s0.178,0.25,0.318,0.327      s0.291,0.115,0.453,0.115c0.252,0,0.461-0.081,0.625-0.243s0.246-0.368,0.246-0.618c0-0.254-0.085-0.464-0.254-0.63      s-0.381-0.249-0.635-0.249c-0.248,0-0.453,0.082-0.616,0.246S24.014,169.344,24.014,169.591z M24.184,167.607      c0,0.203,0.066,0.369,0.197,0.498s0.301,0.193,0.51,0.193c0.203,0,0.369-0.063,0.499-0.191s0.194-0.285,0.194-0.471      c0-0.193-0.066-0.355-0.2-0.487s-0.3-0.198-0.499-0.198c-0.201,0-0.369,0.064-0.502,0.193S24.184,167.427,24.184,167.607z"
   id="path168" />
				<path
   d="M27.112,170.83v-0.601h0.6v0.601H27.112z"
   id="path170" />
				<path
   d="M30.469,170.83h-0.527v-3.36c-0.127,0.121-0.294,0.242-0.5,0.363s-0.391,0.212-0.555,0.272v-0.51      c0.295-0.139,0.553-0.307,0.773-0.504s0.377-0.389,0.469-0.574h0.34V170.83z"
   id="path172" />
				<path
   d="M32.116,170.83v-0.601h0.6v0.601H32.116z"
   id="path174" />
				<path
   d="M35.473,170.83h-0.527v-3.36c-0.127,0.121-0.294,0.242-0.5,0.363s-0.391,0.212-0.555,0.272v-0.51      c0.295-0.139,0.553-0.307,0.773-0.504s0.377-0.389,0.469-0.574h0.34V170.83z"
   id="path176" />
				<path
   d="M37.12,170.83v-0.601h0.6v0.601H37.12z"
   id="path178" />
				<path
   d="M40.477,170.83H39.95v-3.36c-0.127,0.121-0.294,0.242-0.5,0.363s-0.391,0.212-0.555,0.272v-0.51      c0.295-0.139,0.553-0.307,0.773-0.504s0.377-0.389,0.469-0.574h0.34V170.83z"
   id="path180" />
				<path
   d="M42.639,168.501c-0.219-0.08-0.381-0.194-0.486-0.343s-0.158-0.326-0.158-0.533c0-0.313,0.111-0.575,0.336-0.788      s0.523-0.319,0.896-0.319c0.375,0,0.678,0.109,0.906,0.327s0.342,0.482,0.342,0.795c0,0.199-0.052,0.373-0.156,0.521      s-0.264,0.261-0.477,0.341c0.264,0.086,0.465,0.225,0.603,0.416s0.206,0.42,0.206,0.686c0,0.367-0.129,0.676-0.389,0.926      s-0.602,0.375-1.025,0.375s-0.766-0.125-1.025-0.376s-0.391-0.564-0.391-0.939c0-0.279,0.071-0.513,0.213-0.701      S42.378,168.569,42.639,168.501z M42.364,169.591c0,0.15,0.035,0.296,0.106,0.437s0.177,0.25,0.317,0.327      s0.293,0.115,0.455,0.115c0.252,0,0.459-0.081,0.623-0.243s0.246-0.368,0.246-0.618c0-0.254-0.084-0.464-0.253-0.63      s-0.38-0.249-0.634-0.249c-0.248,0-0.454,0.082-0.617,0.246S42.364,169.344,42.364,169.591z M42.534,167.607      c0,0.203,0.064,0.369,0.195,0.498s0.301,0.193,0.51,0.193c0.203,0,0.37-0.063,0.5-0.191s0.195-0.285,0.195-0.471      c0-0.193-0.067-0.355-0.201-0.487s-0.301-0.198-0.5-0.198c-0.201,0-0.367,0.064-0.5,0.193S42.534,167.427,42.534,167.607z"
   id="path182" />
				<path
   d="M45.165,168.712c0-0.508,0.052-0.916,0.156-1.226s0.26-0.549,0.466-0.717s0.466-0.252,0.778-0.252      c0.23,0,0.432,0.047,0.605,0.14s0.318,0.227,0.432,0.401s0.201,0.388,0.266,0.639s0.098,0.589,0.098,1.015      c0,0.504-0.053,0.911-0.156,1.221s-0.258,0.549-0.464,0.718s-0.466,0.253-0.78,0.253c-0.414,0-0.74-0.148-0.977-0.445      C45.305,170.1,45.165,169.518,45.165,168.712z M45.706,168.712c0,0.705,0.083,1.175,0.248,1.408s0.369,0.35,0.611,0.35      s0.445-0.117,0.61-0.352s0.247-0.703,0.247-1.406c0-0.707-0.082-1.177-0.247-1.409s-0.37-0.349-0.616-0.349      c-0.242,0-0.436,0.103-0.58,0.308C45.797,167.523,45.706,168.007,45.706,168.712z"
   id="path184" />
				<path
   d="M48.993,172.093h-0.378c0.584-0.938,0.876-1.876,0.876-2.815c0-0.367-0.042-0.731-0.126-1.093      c-0.066-0.293-0.159-0.574-0.278-0.844c-0.076-0.176-0.233-0.469-0.472-0.879h0.378c0.367,0.49,0.639,0.982,0.814,1.477      c0.15,0.426,0.226,0.871,0.226,1.336c0,0.527-0.101,1.037-0.304,1.529C49.528,171.296,49.282,171.725,48.993,172.093z"
   id="path186" />
			</g>
			<v:paragraph />
			<v:tabList />
		</g>
		<g
   id="shape24-48"
   transform="translate(44.6249,-39.5834)">
			<title
   id="title189">path72</title>
			<path
   fill="#E67814"
   fill-opacity="0.5"
   d="M74.25,167.01c0,1.86-1.51,3.37-3.37,3.37H3.38c-1.87,0-3.38-1.51-3.38-3.37v-18.38     c0-1.859,1.51-3.37,3.38-3.37h67.5c1.86,0,3.37,1.511,3.37,3.37V167.01z"
   id="path191" />
		</g>
		<g
   id="shape25-50"
   transform="translate(66.0304,-53.6435)">
			<title
   id="title194">text74</title>
			<desc
   id="desc196">(Reiser)</desc>
			<v:userDefs />
			<v:textBlock
   v:margins="rect(0,0,0,0)" />
			<v:textRect
   width="114.11"
   height="3"
   cy="168.882"
   cx="57.0499" />
			<rect
   x="0"
   y="167.383"
   fill="none"
   width="114.101"
   height="3"
   id="rect198" />
			<g
   enable-background="new    "
   id="g200">
				<path
   d="M-7.588,167.197h4.359l0.375-0.375l0.516,0.516h-1.453c-0.203,1.016-0.547,1.859-1.031,2.531      c0.625,0.563,1.445,0.883,2.461,0.961v0.094c-0.297,0.047-0.469,0.164-0.516,0.352c-0.953-0.281-1.672-0.688-2.156-1.219      c-0.735,0.672-1.625,1.109-2.672,1.313l-0.023-0.07c1.016-0.297,1.852-0.781,2.508-1.453c-0.454-0.672-0.773-1.508-0.961-2.508      h-0.633c-0.203,0-0.391,0.023-0.563,0.07L-7.588,167.197z M-6.041,167.338c0.219,0.906,0.554,1.664,1.008,2.273      c0.406-0.609,0.695-1.367,0.867-2.273H-6.041z M-5.361,166.002c0.219,0.141,0.395,0.289,0.527,0.445      c0.132,0.156,0.132,0.32,0,0.492c-0.133,0.172-0.223,0.133-0.27-0.117s-0.156-0.508-0.328-0.773L-5.361,166.002z"
   id="path202" />
				<path
   d="M-0.791,171.439c0.015-0.484,0.023-0.859,0.023-1.125v-2.484c-0.407,0.609-0.727,1.031-0.961,1.266l-0.07-0.07      c0.125-0.172,0.27-0.391,0.434-0.656s0.348-0.617,0.551-1.055c0.203-0.438,0.383-0.906,0.539-1.406l0.492,0.328l-0.188,0.141      c-0.297,0.531-0.492,0.883-0.586,1.055l0.305,0.211l-0.188,0.164v2.438c0,0.281,0.008,0.609,0.023,0.984L-0.791,171.439z       M1.717,167.502c0-0.594-0.008-1.125-0.023-1.594l0.563,0.258l-0.211,0.164v1.172h0.727l0.281-0.281l0.422,0.422h-1.43v1.359      h0.984l0.281-0.281l0.422,0.422H2.045c0,1.188,0.008,1.898,0.023,2.133l-0.375,0.164c0.015-0.766,0.023-1.531,0.023-2.297H0.686      c-0.203,0-0.391,0.023-0.563,0.07l-0.211-0.211h1.805v-1.359H0.709c-0.188,0.438-0.398,0.813-0.633,1.125l-0.07-0.047      c0.172-0.359,0.308-0.719,0.41-1.078c0.102-0.359,0.184-0.75,0.246-1.172l0.492,0.258l-0.188,0.141      c-0.063,0.172-0.133,0.383-0.211,0.633H1.717z"
   id="path204" />
				<path
   d="M6.1,169.517l0.422,0.422c-0.125,0-0.383,0.152-0.773,0.457c-0.391,0.305-0.844,0.566-1.359,0.785l-0.047-0.07      c0.343-0.203,0.676-0.441,0.996-0.715C5.658,170.123,5.912,169.83,6.1,169.517z M8.654,169.002l-1.289,0.094v1.547      c0.031,0.375-0.149,0.617-0.539,0.727c0-0.25-0.243-0.43-0.727-0.539v-0.094c0.406,0.047,0.668,0.07,0.785,0.07      s0.167-0.109,0.152-0.328v-1.336c-0.438,0.031-0.793,0.074-1.066,0.129c-0.273,0.055-0.489,0.113-0.645,0.176l-0.234-0.445      c0.172-0.016,0.441-0.109,0.809-0.281c0.367-0.172,0.879-0.461,1.535-0.867c-0.625,0.063-1.063,0.121-1.313,0.176      c-0.25,0.055-0.454,0.121-0.609,0.199l-0.234-0.469c0.219-0.016,0.488-0.145,0.809-0.387c0.32-0.242,0.582-0.512,0.785-0.809      c-0.922,0.063-1.563,0.094-1.922,0.094v-0.094c0.938-0.078,1.703-0.168,2.297-0.27c0.594-0.102,1.093-0.23,1.5-0.387      l0.352,0.445c-0.234-0.016-0.551,0-0.949,0.047s-0.793,0.094-1.184,0.141l0.469,0.234c-0.203,0.031-0.48,0.188-0.832,0.469      s-0.621,0.461-0.809,0.539l1.852-0.07c0.296-0.203,0.523-0.406,0.68-0.609l0.445,0.375c-0.172,0.016-0.372,0.09-0.598,0.223      c-0.227,0.133-0.618,0.355-1.172,0.668c-0.555,0.313-0.965,0.531-1.23,0.656l2.789-0.141c-0.234-0.234-0.43-0.406-0.586-0.516      l0.047-0.07c0.422,0.156,0.73,0.293,0.926,0.41c0.195,0.117,0.296,0.242,0.305,0.375c0.008,0.133-0.023,0.254-0.094,0.363      s-0.141,0.102-0.211-0.023S8.779,169.158,8.654,169.002z M7.74,169.611c0.734,0.313,1.191,0.531,1.371,0.656      c0.179,0.125,0.277,0.262,0.293,0.41c0.015,0.148-0.016,0.281-0.094,0.398c-0.079,0.117-0.191,0.039-0.34-0.234      c-0.149-0.273-0.574-0.66-1.277-1.16L7.74,169.611z"
   id="path206" />
				<path
   d="M10.927,169.119c0.172-0.016,0.68-0.078,1.523-0.188l0.023,0.094c-0.375,0.078-0.719,0.164-1.031,0.258      c-0.313,0.094-0.547,0.203-0.703,0.328l-0.281-0.492c0.141-0.031,0.336-0.184,0.586-0.457c0.25-0.273,0.469-0.543,0.656-0.809      c-0.234,0.047-0.438,0.09-0.609,0.129c-0.172,0.039-0.336,0.113-0.492,0.223l-0.234-0.398c0.172-0.047,0.375-0.262,0.609-0.645      s0.422-0.793,0.563-1.23l0.445,0.305c-0.125,0.078-0.266,0.238-0.422,0.48c-0.156,0.242-0.422,0.605-0.797,1.09      c0.406-0.031,0.742-0.055,1.008-0.07c0.125-0.172,0.25-0.398,0.375-0.68l0.422,0.328c-0.141,0.063-0.348,0.258-0.621,0.586      C11.673,168.299,11.334,168.681,10.927,169.119z M10.388,170.361c0.156-0.016,0.402-0.059,0.738-0.129      c0.336-0.07,0.8-0.176,1.395-0.316l0.023,0.094c-0.328,0.109-0.695,0.238-1.102,0.387c-0.407,0.148-0.68,0.301-0.82,0.457      L10.388,170.361z M13.271,168.65l0.352-0.07l-0.023,0.586c-0.047,0.766-0.211,1.285-0.492,1.559s-0.711,0.496-1.289,0.668      l-0.023-0.07c0.437-0.219,0.758-0.43,0.961-0.633c0.203-0.203,0.34-0.457,0.41-0.762S13.271,169.197,13.271,168.65z       M12.498,168.463c0.172-0.047,0.378-0.227,0.621-0.539c0.242-0.313,0.418-0.609,0.527-0.891H13.13      c-0.203,0-0.391,0.023-0.563,0.07l-0.211-0.211h2.531l0.328-0.328l0.398,0.469h-1.852l0.352,0.281      c-0.156,0.047-0.32,0.156-0.492,0.328c-0.172,0.172-0.414,0.445-0.727,0.82l1.945-0.094c-0.173-0.203-0.367-0.406-0.586-0.609      l0.047-0.07c0.266,0.125,0.504,0.25,0.715,0.375s0.336,0.242,0.375,0.352c0.038,0.109,0.023,0.23-0.047,0.363      s-0.133,0.148-0.188,0.047c-0.056-0.102-0.129-0.215-0.223-0.34c-0.469,0.047-0.911,0.098-1.324,0.152      c-0.414,0.055-0.715,0.145-0.902,0.27L12.498,168.463z M13.435,166.002l0.047-0.07c0.39,0.188,0.609,0.34,0.656,0.457      s0.015,0.246-0.094,0.387c-0.109,0.141-0.191,0.102-0.246-0.117C13.743,166.439,13.623,166.22,13.435,166.002z M14.185,168.533      l0.305-0.047v0.703v1.477c-0.016,0.203,0.102,0.297,0.352,0.281h0.188c0.155,0,0.242-0.066,0.258-0.199      c0.015-0.133,0.031-0.363,0.047-0.691h0.117c0,0.25,0.015,0.449,0.047,0.598c0.031,0.148,0.102,0.23,0.211,0.246      c-0.079,0.219-0.234,0.328-0.469,0.328h-0.586c-0.313,0.016-0.469-0.125-0.469-0.422V168.533z"
   id="path208" />
			</g>
			<text
   transform="matrix(1 0 0 1 23.9899 170.8298)"
   font-family="'SimSun'"
   font-size="5.9999"
   id="text210"> </text>

			<g
   enable-background="new    "
   id="g212">
				<path
   d="M20.393,172.093c-0.291-0.367-0.537-0.797-0.738-1.289s-0.302-1.002-0.302-1.529c0-0.465,0.075-0.91,0.226-1.336      c0.176-0.494,0.447-0.986,0.814-1.477h0.378c-0.236,0.406-0.393,0.696-0.469,0.87c-0.119,0.27-0.213,0.551-0.281,0.844      c-0.084,0.365-0.126,0.732-0.126,1.102c0,0.939,0.292,1.878,0.876,2.815H20.393z"
   id="path214" />
			</g>
			<g
   enable-background="new    "
   id="g216">
				<path
   d="M21.46,170.83v-4.295h1.904c0.383,0,0.674,0.039,0.873,0.116s0.358,0.213,0.478,0.408s0.179,0.411,0.179,0.647      c0,0.305-0.099,0.562-0.296,0.771s-0.502,0.342-0.914,0.398c0.15,0.072,0.265,0.144,0.343,0.214      c0.166,0.152,0.323,0.343,0.472,0.571l0.747,1.169H24.53l-0.568-0.894c-0.166-0.258-0.303-0.455-0.41-0.592      s-0.203-0.232-0.289-0.287c-0.084-0.055-0.171-0.093-0.259-0.114c-0.064-0.014-0.17-0.021-0.316-0.021h-0.659v1.907H21.46z       M22.028,168.43h1.222c0.26,0,0.463-0.026,0.609-0.08s0.258-0.14,0.334-0.258s0.114-0.247,0.114-0.386      c0-0.203-0.074-0.37-0.221-0.501c-0.148-0.131-0.381-0.196-0.699-0.196h-1.359V168.43z"
   id="path218" />
				<path
   d="M27.846,169.828l0.545,0.067c-0.086,0.318-0.245,0.565-0.478,0.741s-0.529,0.264-0.891,0.264      c-0.455,0-0.815-0.14-1.083-0.42c-0.266-0.28-0.399-0.674-0.399-1.18c0-0.523,0.135-0.93,0.404-1.219s0.619-0.434,1.049-0.434      c0.416,0,0.756,0.142,1.02,0.425s0.396,0.682,0.396,1.195c0,0.031-0.001,0.078-0.003,0.141h-2.32      c0.02,0.342,0.116,0.604,0.29,0.785s0.391,0.272,0.65,0.272c0.193,0,0.358-0.051,0.495-0.152S27.766,170.051,27.846,169.828z       M26.115,168.975h1.737c-0.023-0.262-0.09-0.458-0.199-0.589c-0.168-0.203-0.386-0.305-0.653-0.305      c-0.242,0-0.446,0.081-0.61,0.243C26.223,168.487,26.132,168.704,26.115,168.975z"
   id="path220" />
				<path
   d="M29.056,167.141v-0.606h0.527v0.606H29.056z M29.056,170.83v-3.111h0.527v3.111H29.056z"
   id="path222" />
				<path
   d="M30.175,169.901l0.521-0.082c0.029,0.209,0.11,0.369,0.245,0.48c0.133,0.111,0.32,0.167,0.561,0.167      c0.242,0,0.422-0.049,0.539-0.147s0.176-0.215,0.176-0.348c0-0.119-0.052-0.213-0.155-0.281      c-0.072-0.047-0.252-0.106-0.539-0.179c-0.387-0.098-0.655-0.182-0.804-0.253c-0.15-0.071-0.264-0.17-0.34-0.296      c-0.078-0.126-0.116-0.266-0.116-0.418c0-0.139,0.032-0.267,0.095-0.385c0.064-0.118,0.15-0.217,0.26-0.295      c0.082-0.061,0.193-0.111,0.336-0.153c0.141-0.042,0.293-0.063,0.455-0.063c0.244,0,0.459,0.035,0.643,0.105      c0.186,0.07,0.321,0.166,0.409,0.286s0.148,0.28,0.182,0.481l-0.516,0.07c-0.023-0.16-0.091-0.285-0.204-0.375      c-0.111-0.09-0.271-0.135-0.476-0.135c-0.242,0-0.415,0.04-0.519,0.12s-0.155,0.174-0.155,0.281c0,0.068,0.021,0.13,0.064,0.185      c0.043,0.057,0.11,0.104,0.202,0.141c0.053,0.02,0.208,0.064,0.466,0.135c0.373,0.1,0.634,0.182,0.78,0.245      c0.148,0.063,0.264,0.155,0.348,0.276s0.126,0.271,0.126,0.451c0,0.176-0.052,0.342-0.153,0.497      c-0.104,0.155-0.251,0.275-0.444,0.36c-0.193,0.084-0.412,0.127-0.656,0.127c-0.404,0-0.712-0.084-0.925-0.252      C30.37,170.48,30.234,170.231,30.175,169.901z"
   id="path224" />
				<path
   d="M35.516,169.828l0.545,0.067c-0.086,0.318-0.245,0.565-0.478,0.741s-0.529,0.264-0.891,0.264      c-0.455,0-0.815-0.14-1.083-0.42c-0.266-0.28-0.399-0.674-0.399-1.18c0-0.523,0.135-0.93,0.404-1.219s0.619-0.434,1.049-0.434      c0.416,0,0.756,0.142,1.02,0.425s0.396,0.682,0.396,1.195c0,0.031-0.001,0.078-0.003,0.141h-2.32      c0.02,0.342,0.116,0.604,0.29,0.785s0.391,0.272,0.65,0.272c0.193,0,0.358-0.051,0.495-0.152S35.436,170.051,35.516,169.828z       M33.785,168.975h1.737c-0.023-0.262-0.09-0.458-0.199-0.589c-0.168-0.203-0.386-0.305-0.653-0.305      c-0.242,0-0.446,0.081-0.61,0.243C33.893,168.487,33.802,168.704,33.785,168.975z"
   id="path226" />
				<path
   d="M36.717,170.83v-3.111h0.475v0.472c0.121-0.221,0.232-0.366,0.335-0.437s0.216-0.105,0.339-0.105      c0.178,0,0.357,0.057,0.541,0.17l-0.182,0.489c-0.129-0.076-0.258-0.114-0.387-0.114c-0.115,0-0.219,0.035-0.311,0.104      s-0.156,0.165-0.195,0.288c-0.059,0.188-0.088,0.393-0.088,0.615v1.629H36.717z"
   id="path228" />
			</g>
			<g
   enable-background="new    "
   id="g230">
				<path
   d="M39.067,172.093h-0.379c0.584-0.938,0.877-1.876,0.877-2.815c0-0.367-0.043-0.731-0.127-1.093      c-0.066-0.293-0.158-0.574-0.277-0.844c-0.076-0.176-0.234-0.469-0.473-0.879h0.379c0.367,0.49,0.639,0.982,0.814,1.477      c0.15,0.426,0.225,0.871,0.225,1.336c0,0.527-0.101,1.037-0.303,1.529S39.356,171.725,39.067,172.093z"
   id="path232" />
			</g>
			<v:paragraph />
			<v:tabList />
		</g>
		<g
   id="shape26-57"
   transform="translate(44.6249,-0.959249)">
			<title
   id="title235">path80</title>
			<path
   fill="#1C82B9"
   fill-opacity="0.5"
   d="M74.25,167.01c0,1.86-1.51,3.37-3.37,3.37H3.38c-1.87,0-3.38-1.51-3.38-3.37v-18.38     c0-1.859,1.51-3.37,3.38-3.37h67.5c1.86,0,3.37,1.511,3.37,3.37V167.01z"
   id="path237" />
		</g>
		<g
   id="shape27-59"
   transform="translate(53.1896,-15.0186)">
			<title
   id="title240">text82</title>
			<desc
   id="desc242">Web (Apache)</desc>
			<v:userDefs />
			<v:textBlock
   v:margins="rect(0,0,0,0)" />
			<v:textRect
   width="162.11"
   height="3"
   cy="168.882"
   cx="81.0499" />
			<rect
   x="0"
   y="167.383"
   fill="none"
   width="162.101"
   height="3"
   id="rect244" />
			<g
   enable-background="new    "
   id="g246"
   transform="translate(9.5679576,0)">
				<path
   d="m -2.797,170.83 -1.14,-4.295 h 0.583 l 0.653,2.815 c 0.07,0.295 0.131,0.588 0.182,0.879 0.109,-0.459 0.174,-0.724 0.193,-0.794 l 0.817,-2.9 h 0.686 l 0.615,2.174 c 0.154,0.539 0.266,1.046 0.334,1.521 0.055,-0.271 0.126,-0.583 0.214,-0.935 l 0.674,-2.76 H 1.585 L 0.407,170.83 H -0.14 l -0.905,-3.272 c -0.076,-0.273 -0.121,-0.441 -0.135,-0.504 -0.045,0.197 -0.087,0.365 -0.126,0.504 l -0.911,3.272 h -0.58 z"
   id="path248"
   inkscape:connector-curvature="0" />
				<path
   d="m 4.07,169.828 0.545,0.067 c -0.086,0.318 -0.245,0.565 -0.478,0.741 -0.233,0.176 -0.529,0.264 -0.89,0.264 -0.455,0 -0.816,-0.14 -1.083,-0.42 -0.267,-0.28 -0.4,-0.674 -0.4,-1.18 0,-0.523 0.135,-0.93 0.404,-1.219 0.269,-0.289 0.619,-0.434 1.049,-0.434 0.416,0 0.756,0.142 1.02,0.425 0.264,0.283 0.396,0.682 0.396,1.195 0,0.031 -0.001,0.078 -0.003,0.141 H 2.31 c 0.02,0.342 0.116,0.604 0.29,0.785 0.174,0.181 0.391,0.272 0.65,0.272 0.193,0 0.358,-0.051 0.495,-0.152 0.137,-0.101 0.245,-0.262 0.325,-0.485 z m -1.731,-0.853 h 1.737 c -0.023,-0.262 -0.09,-0.458 -0.199,-0.589 -0.168,-0.203 -0.386,-0.305 -0.653,-0.305 -0.242,0 -0.446,0.081 -0.611,0.243 -0.165,0.162 -0.256,0.38 -0.274,0.651 z"
   id="path250"
   inkscape:connector-curvature="0" />
				<path
   d="M 5.764,170.83 H 5.275 v -4.295 h 0.527 v 1.532 c 0.223,-0.279 0.507,-0.419 0.853,-0.419 0.191,0 0.373,0.039 0.543,0.116 0.17,0.077 0.312,0.186 0.422,0.325 0.11,0.139 0.197,0.308 0.259,0.505 0.062,0.197 0.094,0.408 0.094,0.633 0,0.533 -0.132,0.945 -0.396,1.236 -0.264,0.291 -0.58,0.437 -0.949,0.437 -0.367,0 -0.655,-0.153 -0.864,-0.46 v 0.39 z m -0.006,-1.579 c 0,0.373 0.051,0.643 0.152,0.809 0.166,0.271 0.391,0.407 0.674,0.407 0.23,0 0.43,-0.1 0.598,-0.3 0.168,-0.2 0.252,-0.499 0.252,-0.896 0,-0.406 -0.081,-0.706 -0.242,-0.899 -0.161,-0.193 -0.356,-0.29 -0.584,-0.29 -0.23,0 -0.43,0.101 -0.598,0.301 -0.168,0.2 -0.252,0.489 -0.252,0.868 z"
   id="path252"
   inkscape:connector-curvature="0" />
			</g>
			<g
   enable-background="new    "
   id="g254"
   transform="translate(9.5679576,0)">
				<path
   d="m 11.081,169.033 c 0,0.484 -0.063,0.906 -0.188,1.266 -0.125,0.359 -0.36,0.711 -0.703,1.055 l -0.07,-0.047 c 0.437,-0.547 0.656,-1.313 0.656,-2.297 0,-1.422 -0.008,-2.375 -0.023,-2.859 l 0.352,0.234 h 0.891 l 0.211,-0.234 0.328,0.328 -0.188,0.141 v 4.148 c 0,0.25 -0.156,0.438 -0.469,0.563 -0.032,-0.203 -0.25,-0.375 -0.656,-0.516 v -0.094 c 0.406,0.094 0.645,0.125 0.715,0.094 0.07,-0.031 0.105,-0.094 0.105,-0.188 v -1.594 h -0.961 z m 0,-2.508 v 1.102 h 0.961 v -1.102 h -0.961 z m 0,1.242 v 1.125 h 0.961 v -1.125 h -0.961 z m 4.031,0.868 c -0.203,0.656 -0.414,1.148 -0.633,1.477 0.375,0.406 0.765,0.633 1.172,0.68 v 0.094 c -0.25,0.031 -0.391,0.117 -0.422,0.258 -0.344,-0.219 -0.648,-0.492 -0.914,-0.82 -0.313,0.328 -0.68,0.594 -1.102,0.797 v 0.117 l -0.328,0.164 c 0.015,-0.641 0.023,-1.512 0.023,-2.613 0,-1.101 -0.008,-1.98 -0.023,-2.637 l 0.375,0.234 h 1.359 l 0.211,-0.234 0.352,0.305 -0.188,0.117 c -0.016,0.266 -0.035,0.52 -0.059,0.762 -0.024,0.242 -0.079,0.41 -0.164,0.504 -0.086,0.094 -0.238,0.172 -0.457,0.234 0,-0.172 -0.188,-0.313 -0.563,-0.422 v -0.094 c 0.39,0.078 0.621,0.105 0.691,0.082 0.07,-0.023 0.121,-0.109 0.152,-0.258 0.031,-0.148 0.055,-0.434 0.07,-0.855 h -1.453 v 1.898 h 1.547 l 0.188,-0.211 0.352,0.305 -0.186,0.116 z m -1.899,-0.071 v 2.438 c 0.359,-0.234 0.671,-0.531 0.938,-0.891 -0.281,-0.422 -0.492,-0.938 -0.633,-1.547 h -0.305 z m 0.446,0 c 0.156,0.531 0.367,0.969 0.633,1.313 0.203,-0.328 0.367,-0.766 0.492,-1.313 h -1.125 z"
   id="path256"
   inkscape:connector-curvature="0" />
				<path
   d="m 17.971,165.892 0.492,0.281 c -0.141,0.063 -0.266,0.188 -0.375,0.375 h 1.664 l 0.211,-0.234 0.422,0.352 -0.258,0.141 c -0.266,0.469 -0.602,0.875 -1.008,1.219 0.359,0.25 0.773,0.438 1.242,0.563 0.469,0.125 0.882,0.188 1.242,0.188 v 0.094 c -0.297,0.063 -0.461,0.18 -0.492,0.352 -0.266,-0.047 -0.621,-0.164 -1.066,-0.352 -0.445,-0.188 -0.824,-0.414 -1.137,-0.68 -0.391,0.281 -0.817,0.523 -1.277,0.727 -0.461,0.203 -0.926,0.367 -1.395,0.492 l -0.07,-0.094 c 0.531,-0.172 1,-0.363 1.406,-0.574 0.406,-0.211 0.789,-0.457 1.148,-0.738 -0.297,-0.297 -0.586,-0.664 -0.867,-1.102 -0.125,0.219 -0.285,0.438 -0.48,0.656 -0.196,0.219 -0.434,0.43 -0.715,0.633 l -0.07,-0.047 c 0.296,-0.281 0.578,-0.637 0.844,-1.066 0.266,-0.432 0.446,-0.826 0.539,-1.186 z m 2.414,3.657 c -0.079,0.797 -0.172,1.293 -0.281,1.488 -0.109,0.195 -0.313,0.324 -0.609,0.387 0,-0.156 -0.227,-0.336 -0.68,-0.539 l 0.023,-0.094 c 0.39,0.094 0.652,0.141 0.785,0.141 0.132,0 0.23,-0.148 0.293,-0.445 0.062,-0.297 0.109,-0.633 0.141,-1.008 h -1.359 c -0.156,0.625 -0.442,1.074 -0.855,1.348 -0.414,0.273 -0.855,0.48 -1.324,0.621 l -0.07,-0.094 c 0.469,-0.172 0.871,-0.395 1.207,-0.668 0.336,-0.273 0.574,-0.676 0.715,-1.207 h -0.586 c -0.203,0 -0.391,0.023 -0.563,0.07 l -0.211,-0.211 h 1.383 c 0.062,-0.328 0.094,-0.594 0.094,-0.797 l 0.492,0.258 -0.164,0.141 c -0.016,0.109 -0.047,0.242 -0.094,0.398 h 1.289 l 0.164,-0.211 0.398,0.281 -0.188,0.141 z m -2.461,-2.766 c 0.343,0.422 0.671,0.773 0.984,1.055 0.359,-0.328 0.648,-0.711 0.867,-1.148 h -1.758 l -0.093,0.093 z"
   id="path258"
   inkscape:connector-curvature="0" />
				<path
   d="m 26.807,169.713 c 0,0.656 0.008,1.102 0.023,1.336 l -0.352,0.141 v -0.375 h -1.055 v 0.352 l -0.328,0.117 c 0.015,-0.328 0.023,-0.652 0.023,-0.973 0,-0.321 -0.008,-0.629 -0.023,-0.926 l 0.328,0.164 h 0.984 l 0.047,-0.047 c -0.531,-0.297 -0.93,-0.641 -1.195,-1.031 h -0.703 c -0.407,0.484 -0.852,0.844 -1.336,1.078 h 0.984 l 0.164,-0.211 0.352,0.281 -0.164,0.141 c 0,0.656 0.008,1.086 0.023,1.289 l -0.328,0.117 v -0.352 h -0.914 v 0.305 l -0.328,0.117 c 0.015,-0.266 0.023,-0.547 0.023,-0.844 0,-0.297 0,-0.547 0,-0.75 -0.313,0.109 -0.609,0.195 -0.891,0.258 l -0.023,-0.07 c 0.437,-0.156 0.82,-0.34 1.148,-0.551 0.328,-0.211 0.633,-0.48 0.914,-0.809 h -1.125 c -0.203,0 -0.391,0.023 -0.563,0.07 l -0.211,-0.211 h 1.969 c 0.141,-0.219 0.266,-0.445 0.375,-0.68 l 0.445,0.305 c -0.156,0.063 -0.305,0.188 -0.445,0.375 h 1.477 c -0.079,-0.219 -0.234,-0.406 -0.469,-0.563 l 0.047,-0.07 c 0.296,0.078 0.5,0.16 0.609,0.246 0.109,0.086 0.094,0.215 -0.047,0.387 h 0.469 l 0.328,-0.328 0.469,0.469 h -2.109 c 0.266,0.25 0.574,0.461 0.926,0.633 0.352,0.172 0.785,0.266 1.301,0.281 v 0.094 c -0.25,0.031 -0.398,0.141 -0.445,0.328 l -0.352,-0.117 -0.022,0.024 z m -3.867,-1.758 c 0.015,-0.313 0.023,-0.621 0.023,-0.926 0,-0.305 -0.008,-0.598 -0.023,-0.879 l 0.328,0.211 h 0.914 l 0.164,-0.211 0.375,0.305 -0.211,0.141 c 0,0.563 0.008,0.93 0.023,1.102 l -0.328,0.141 v -0.281 h -0.938 v 0.234 l -0.327,0.163 z m 0.328,-1.453 v 0.914 h 0.938 v -0.914 h -0.938 z m 0.07,3.187 v 0.984 h 0.914 v -0.984 h -0.914 z m 1.899,-1.851 c 0.015,-0.281 0.023,-0.566 0.023,-0.855 0,-0.289 -0.008,-0.566 -0.023,-0.832 l 0.328,0.211 h 0.891 l 0.164,-0.211 0.352,0.281 -0.188,0.164 c 0,0.516 0.008,0.875 0.023,1.078 l -0.328,0.117 v -0.234 h -0.914 v 0.164 l -0.328,0.117 z m 0.187,1.851 v 0.984 h 1.055 v -0.984 h -1.055 z m 0.141,-3.187 v 0.914 h 0.914 v -0.914 h -0.914 z"
   id="path260"
   inkscape:connector-curvature="0" />
				<path
   d="m 29.337,165.939 0.539,0.305 -0.234,0.117 c -0.047,0.141 -0.109,0.359 -0.188,0.656 h 0.844 l 0.281,-0.281 0.375,0.422 h -1.547 l -0.469,1.453 h 0.656 c 0,-0.266 -0.008,-0.633 -0.023,-1.102 l 0.516,0.258 -0.188,0.164 v 0.68 h 0.422 l 0.258,-0.281 0.375,0.422 H 29.9 v 0.797 l 0.938,-0.258 0.023,0.094 -0.961,0.375 c 0,0.594 0.008,1.094 0.023,1.5 l -0.352,0.164 c 0.016,-0.563 0.023,-1.078 0.023,-1.547 -0.656,0.234 -1.008,0.414 -1.055,0.539 l -0.258,-0.469 c 0.219,-0.031 0.656,-0.133 1.313,-0.305 v -0.891 h -0.633 l -0.188,0.164 -0.305,-0.375 c 0.125,-0.031 0.234,-0.188 0.328,-0.469 0.094,-0.281 0.188,-0.586 0.281,-0.914 h -0.234 c -0.125,0 -0.273,0.023 -0.445,0.07 l -0.211,-0.211 h 0.938 c 0.127,-0.53 0.197,-0.889 0.212,-1.077 z m 2.274,1.828 0.609,0.305 -0.188,0.141 c 0.188,1.563 0.711,2.492 1.57,2.789 v 0.094 c -0.25,-0.016 -0.438,0.055 -0.563,0.211 -0.641,-0.641 -1.008,-1.594 -1.102,-2.859 -0.031,0.797 -0.199,1.426 -0.504,1.887 -0.305,0.461 -0.746,0.824 -1.324,1.09 l -0.047,-0.047 c 0.516,-0.359 0.883,-0.742 1.102,-1.148 0.219,-0.406 0.348,-0.801 0.387,-1.184 0.039,-0.383 0.06,-0.81 0.06,-1.279 z m 0.984,0.399 0.328,-0.727 h -1.5 c -0.234,0.375 -0.461,0.68 -0.68,0.914 l -0.07,-0.047 c 0.438,-0.703 0.734,-1.469 0.891,-2.297 l 0.516,0.305 -0.211,0.117 c -0.125,0.25 -0.258,0.539 -0.398,0.867 h 1.43 l 0.211,-0.258 0.422,0.445 c -0.266,0.016 -0.555,0.258 -0.867,0.727 l -0.072,-0.046 z"
   id="path262"
   inkscape:connector-curvature="0" />
				<path
   d="m 35.103,171.447 c 0.016,-0.484 0.023,-0.859 0.023,-1.125 v -2.484 c -0.406,0.609 -0.727,1.031 -0.961,1.266 l -0.07,-0.07 c 0.125,-0.172 0.27,-0.391 0.434,-0.656 0.164,-0.265 0.348,-0.617 0.551,-1.055 0.203,-0.438 0.383,-0.906 0.539,-1.406 l 0.492,0.328 -0.188,0.141 c -0.297,0.531 -0.492,0.883 -0.586,1.055 l 0.305,0.211 -0.188,0.164 v 2.438 c 0,0.281 0.008,0.609 0.023,0.984 l -0.374,0.209 z m 2.508,-3.937 c 0,-0.594 -0.008,-1.125 -0.023,-1.594 l 0.563,0.258 -0.211,0.164 v 1.172 h 0.727 l 0.281,-0.281 0.422,0.422 h -1.43 v 1.359 h 0.984 l 0.281,-0.281 0.422,0.422 h -1.688 c 0,1.188 0.008,1.898 0.023,2.133 l -0.375,0.164 c 0.016,-0.766 0.023,-1.531 0.023,-2.297 h -1.03 c -0.203,0 -0.391,0.023 -0.563,0.07 l -0.211,-0.211 h 1.805 v -1.359 h -1.008 c -0.188,0.438 -0.398,0.813 -0.633,1.125 l -0.07,-0.047 c 0.172,-0.359 0.309,-0.719 0.41,-1.078 0.101,-0.359 0.184,-0.75 0.246,-1.172 l 0.492,0.258 -0.188,0.141 c -0.063,0.172 -0.133,0.383 -0.211,0.633 h 0.962 z"
   id="path264"
   inkscape:connector-curvature="0" />
			</g>
			<text
   transform="matrix(1 0 0 1 43.8844 170.83)"
   font-family="'SimSun'"
   font-size="5.9999"
   id="text266"> </text>

			<g
   id="g268"
   transform="translate(-23.765572,8.0247386)">
				<path
   d="m 42.289,172.093 c -0.291,-0.367 -0.537,-0.797 -0.738,-1.289 -0.201,-0.492 -0.303,-1.002 -0.303,-1.529 0,-0.465 0.076,-0.91 0.227,-1.336 0.176,-0.494 0.447,-0.986 0.814,-1.477 h 0.377 c -0.236,0.406 -0.393,0.696 -0.469,0.87 -0.119,0.27 -0.213,0.551 -0.281,0.844 -0.084,0.365 -0.125,0.732 -0.125,1.102 0,0.939 0.291,1.878 0.875,2.815 h -0.377 z"
   id="path270"
   inkscape:connector-curvature="0" />
				<path
   d="m 42.875,170.83 1.648,-4.295 h 0.613 l 1.758,4.295 h -0.648 l -0.5,-1.301 h -1.797 l -0.471,1.301 h -0.603 z m 1.238,-1.764 h 1.457 l -0.449,-1.189 c -0.137,-0.361 -0.238,-0.658 -0.305,-0.891 -0.055,0.275 -0.131,0.549 -0.23,0.82 l -0.473,1.26 z"
   id="path272"
   inkscape:connector-curvature="0" />
				<path
   d="m 47.281,172.022 v -4.304 h 0.48 v 0.404 c 0.113,-0.158 0.24,-0.276 0.383,-0.355 0.143,-0.079 0.316,-0.119 0.52,-0.119 0.266,0 0.5,0.068 0.703,0.205 0.203,0.137 0.355,0.33 0.459,0.579 0.104,0.249 0.156,0.521 0.156,0.818 0,0.318 -0.058,0.605 -0.172,0.86 -0.114,0.255 -0.28,0.45 -0.498,0.586 -0.218,0.135 -0.447,0.203 -0.688,0.203 -0.176,0 -0.333,-0.037 -0.473,-0.111 -0.14,-0.074 -0.254,-0.168 -0.344,-0.281 v 1.515 h -0.526 z m 0.476,-2.73 c 0,0.4 0.082,0.696 0.244,0.888 0.162,0.192 0.357,0.287 0.588,0.287 0.234,0 0.436,-0.099 0.603,-0.297 0.167,-0.198 0.251,-0.506 0.251,-0.922 0,-0.396 -0.082,-0.693 -0.245,-0.891 -0.163,-0.198 -0.358,-0.296 -0.585,-0.296 -0.225,0 -0.423,0.105 -0.596,0.315 -0.173,0.21 -0.26,0.515 -0.26,0.916 z"
   id="path274"
   inkscape:connector-curvature="0" />
				<path
   d="m 52.648,170.446 c -0.195,0.166 -0.384,0.283 -0.564,0.352 -0.18,0.069 -0.375,0.103 -0.582,0.103 -0.342,0 -0.604,-0.083 -0.787,-0.25 -0.183,-0.167 -0.275,-0.381 -0.275,-0.641 0,-0.152 0.034,-0.291 0.104,-0.417 0.07,-0.126 0.16,-0.228 0.272,-0.304 0.112,-0.076 0.239,-0.134 0.38,-0.173 0.104,-0.027 0.26,-0.054 0.469,-0.079 0.426,-0.051 0.738,-0.111 0.939,-0.182 0.002,-0.072 0.004,-0.118 0.004,-0.138 0,-0.215 -0.051,-0.366 -0.15,-0.454 -0.135,-0.119 -0.334,-0.179 -0.6,-0.179 -0.248,0 -0.432,0.044 -0.55,0.131 -0.118,0.087 -0.206,0.24 -0.263,0.461 l -0.516,-0.07 c 0.047,-0.221 0.125,-0.398 0.232,-0.534 0.107,-0.136 0.262,-0.24 0.465,-0.313 0.203,-0.073 0.439,-0.11 0.707,-0.11 0.266,0 0.48,0.031 0.646,0.094 0.166,0.063 0.289,0.142 0.367,0.236 0.078,0.094 0.133,0.214 0.164,0.358 0.018,0.09 0.025,0.252 0.025,0.486 v 0.703 c 0,0.49 0.012,0.801 0.034,0.931 0.022,0.13 0.067,0.254 0.134,0.373 h -0.551 c -0.053,-0.109 -0.088,-0.237 -0.104,-0.384 z m -0.045,-1.178 c -0.191,0.078 -0.479,0.145 -0.861,0.199 -0.217,0.031 -0.369,0.066 -0.459,0.105 -0.09,0.039 -0.16,0.097 -0.209,0.172 -0.049,0.075 -0.072,0.158 -0.072,0.25 0,0.141 0.053,0.258 0.159,0.352 0.106,0.094 0.263,0.141 0.468,0.141 0.203,0 0.383,-0.044 0.541,-0.133 0.158,-0.089 0.275,-0.211 0.35,-0.365 0.057,-0.119 0.084,-0.295 0.084,-0.527 v -0.194 z"
   id="path276"
   inkscape:connector-curvature="0" />
				<path
   d="m 55.984,169.69 0.52,0.067 c -0.057,0.357 -0.202,0.638 -0.436,0.84 -0.234,0.202 -0.52,0.303 -0.859,0.303 -0.426,0 -0.769,-0.139 -1.027,-0.417 -0.258,-0.278 -0.389,-0.678 -0.389,-1.197 0,-0.336 0.057,-0.63 0.168,-0.882 0.111,-0.252 0.28,-0.44 0.508,-0.566 0.228,-0.126 0.475,-0.189 0.742,-0.189 0.338,0 0.615,0.086 0.83,0.257 0.215,0.171 0.352,0.413 0.412,0.728 l -0.512,0.079 c -0.049,-0.209 -0.136,-0.366 -0.26,-0.472 -0.124,-0.106 -0.273,-0.158 -0.449,-0.158 -0.266,0 -0.482,0.096 -0.648,0.286 -0.166,0.19 -0.248,0.491 -0.248,0.903 0,0.418 0.08,0.722 0.24,0.911 0.16,0.189 0.369,0.284 0.627,0.284 0.207,0 0.379,-0.063 0.518,-0.19 0.139,-0.127 0.226,-0.323 0.263,-0.587 z"
   id="path278"
   inkscape:connector-curvature="0" />
				<path
   d="m 56.954,170.83 v -4.295 h 0.527 v 1.541 c 0.246,-0.285 0.557,-0.428 0.932,-0.428 0.23,0 0.431,0.046 0.601,0.137 0.17,0.091 0.291,0.216 0.365,0.376 0.072,0.16 0.109,0.393 0.109,0.697 v 1.972 h -0.527 v -1.972 c 0,-0.264 -0.057,-0.455 -0.172,-0.575 -0.113,-0.12 -0.275,-0.181 -0.484,-0.181 -0.156,0 -0.303,0.041 -0.441,0.122 -0.137,0.081 -0.235,0.19 -0.294,0.329 -0.059,0.139 -0.088,0.33 -0.088,0.574 v 1.702 h -0.528 z"
   id="path280"
   inkscape:connector-curvature="0" />
				<path
   d="m 62.421,169.828 0.545,0.067 c -0.086,0.318 -0.245,0.565 -0.478,0.741 -0.233,0.176 -0.529,0.264 -0.891,0.264 -0.455,0 -0.816,-0.14 -1.082,-0.42 -0.268,-0.28 -0.4,-0.674 -0.4,-1.18 0,-0.523 0.135,-0.93 0.404,-1.219 0.269,-0.289 0.619,-0.434 1.049,-0.434 0.416,0 0.756,0.142 1.02,0.425 0.264,0.283 0.396,0.682 0.396,1.195 0,0.031 -0.001,0.078 -0.003,0.141 h -2.32 c 0.02,0.342 0.116,0.604 0.29,0.785 0.174,0.181 0.391,0.272 0.65,0.272 0.193,0 0.358,-0.051 0.495,-0.152 0.137,-0.101 0.244,-0.262 0.325,-0.485 z m -1.732,-0.853 h 1.737 c -0.023,-0.262 -0.09,-0.458 -0.199,-0.589 -0.168,-0.203 -0.386,-0.305 -0.653,-0.305 -0.242,0 -0.445,0.081 -0.611,0.243 -0.165,0.163 -0.256,0.38 -0.274,0.651 z"
   id="path282"
   inkscape:connector-curvature="0" />
				<path
   d="m 63.973,172.093 h -0.378 c 0.584,-0.938 0.876,-1.876 0.876,-2.815 0,-0.367 -0.042,-0.731 -0.126,-1.093 -0.066,-0.293 -0.159,-0.574 -0.278,-0.844 -0.076,-0.176 -0.233,-0.469 -0.472,-0.879 h 0.378 c 0.367,0.49 0.639,0.982 0.814,1.477 0.15,0.426 0.226,0.871 0.226,1.336 0,0.527 -0.102,1.037 -0.303,1.529 -0.203,0.492 -0.448,0.921 -0.737,1.289 z"
   id="path284"
   inkscape:connector-curvature="0" />
			</g>
			<v:paragraph />
			<v:tabList />
		</g>
		<g
   id="shape28-64">
			<title
   id="title287">path88</title>
			<path
   fill="#666666"
   d="M4.5,66.881c2.49,0,4.5,2.02,4.5,4.5v94.5c0,2.489-2.01,4.5-4.5,4.5s-4.5-2.011-4.5-4.5v-94.5     C0,68.9,2.01,66.881,4.5,66.881z"
   id="path289" />
		</g>
		<g
   id="shape29-66"
   transform="translate(-163.819,129.91) rotate(-90)">
			<title
   id="title292">text90</title>
			<desc
   id="desc294" />
			<v:userDefs />
			<v:textBlock
   v:margins="rect(0,0,0,0)" />
			<v:textRect
   width="54.67"
   height="3"
   cy="168.882"
   cx="27.3349" />
			
				<rect
   x="25.835"
   y="141.547"
   transform="matrix(-2.547107e-006 -1 1 -2.547107e-006 -141.5472 196.2177)"
   fill="none"
   width="3"
   height="54.67"
   id="rect296" />
			<g
   enable-background="new    "
   id="g298">
				<path
   fill="#FFFFFF"
   d="M2.108,166.204v2.414l-0.328,0.211c0.016-0.391,0.023-0.859,0.023-1.406      c-0.328,0.203-0.598,0.387-0.809,0.551s-0.324,0.293-0.34,0.387l-0.328-0.398c0.266-0.078,0.758-0.305,1.477-0.68      c0-0.797-0.008-1.305-0.023-1.523l0.539,0.305L2.108,166.204z M2.226,166.93h1.43c0-0.531-0.008-0.898-0.023-1.102l0.539,0.234      l-0.211,0.164v0.703h0.844l0.328-0.328l0.445,0.469H3.96v0.984h0.633l0.328-0.281l0.422,0.422H3.257      c-0.203,0-0.391,0.023-0.563,0.07l-0.211-0.211h1.172v-0.984H2.999c-0.203,0-0.391,0.023-0.563,0.07L2.226,166.93z       M0.655,166.25c0.422,0.172,0.668,0.309,0.738,0.41s0.063,0.23-0.023,0.387S1.202,167.188,1.124,167s-0.25-0.422-0.516-0.703      L0.655,166.25z M2.929,168.993c0-0.188-0.148-0.414-0.445-0.68l0.047-0.047c0.375,0.125,0.602,0.242,0.68,0.352      s0.055,0.234-0.07,0.375h1.594l0.398-0.352l0.492,0.492H3.116c0.172,0.266,0.43,0.57,0.773,0.914      c0.391-0.344,0.656-0.641,0.797-0.891l0.398,0.398c-0.125,0.016-0.262,0.063-0.41,0.141s-0.379,0.219-0.691,0.422      c0.188,0.156,0.434,0.293,0.738,0.41s0.637,0.191,0.996,0.223v0.094c-0.266,0.047-0.438,0.164-0.516,0.352      c-0.453-0.188-0.855-0.426-1.207-0.715s-0.691-0.738-1.02-1.348c-0.219,0.203-0.445,0.398-0.68,0.586v0.984l1.219-0.375      l0.047,0.07c-0.844,0.375-1.313,0.664-1.406,0.867l-0.281-0.398c0.094-0.078,0.133-0.164,0.117-0.258v-0.68      c-0.5,0.313-1.078,0.563-1.734,0.75l-0.023-0.07c0.922-0.391,1.695-0.883,2.32-1.477h-1.43c-0.203,0-0.391,0.023-0.563,0.07      l-0.211-0.211H2.929z"
   id="path300" />
				<path
   fill="#FFFFFF"
   d="M7.733,165.805l0.492,0.188l-0.164,0.164v0.469h0.445l0.281-0.258l0.398,0.398H8.062v0.609h1.406      c-0.016-0.625-0.031-1.148-0.047-1.57l0.516,0.234l-0.188,0.164c0,0.516,0.008,0.906,0.023,1.172h1.148l0.352-0.305l0.445,0.445      H9.796c0.047,0.672,0.164,1.289,0.352,1.852c0.313-0.5,0.547-1.023,0.703-1.57l0.445,0.305l-0.188,0.164      c-0.234,0.5-0.508,0.977-0.82,1.43c0.234,0.438,0.57,0.781,1.008,1.031l0.211-1.031l0.094,0.023      c-0.031,0.422-0.039,0.734-0.023,0.938s0.051,0.363,0.105,0.48s-0.008,0.148-0.188,0.094s-0.41-0.191-0.691-0.41      s-0.523-0.508-0.727-0.867c-0.484,0.563-1.023,0.992-1.617,1.289l-0.047-0.07c0.625-0.438,1.125-0.938,1.5-1.5      c-0.219-0.547-0.359-1.266-0.422-2.156H7.03c-0.203,0-0.391,0.023-0.563,0.07l-0.211-0.211h1.5v-0.609H7.429      c-0.203,0-0.391,0.023-0.563,0.07l-0.211-0.211h1.102C7.757,166.329,7.749,166.055,7.733,165.805z M10.218,166.133      c0.313,0.125,0.535,0.23,0.668,0.316s0.191,0.188,0.176,0.305s-0.059,0.211-0.129,0.281s-0.145,0.02-0.223-0.152      s-0.258-0.398-0.539-0.68L10.218,166.133z M6.468,170.188c0.219-0.016,0.68-0.078,1.383-0.188v-0.633H7.077l-0.164,0.141      l-0.258-0.305c0.125,0,0.328-0.273,0.609-0.82H7.077c-0.188,0-0.367,0.023-0.539,0.07l-0.211-0.211h1.008      c0.125-0.266,0.211-0.484,0.258-0.656l0.422,0.258l-0.164,0.07c-0.047,0.063-0.109,0.172-0.188,0.328H8.53l0.305-0.281      l0.375,0.422H7.593l-0.492,0.844h0.75c0-0.234-0.008-0.469-0.023-0.703l0.469,0.211l-0.141,0.164v0.328h0.469l0.258-0.281      l0.375,0.422H8.155v0.586l1.031-0.141l0.023,0.07l-1.055,0.258c0,0.391,0.008,0.695,0.023,0.914l-0.352,0.141      c0.016-0.484,0.023-0.813,0.023-0.984c-0.703,0.141-1.094,0.266-1.172,0.375L6.468,170.188z"
   id="path302" />
				<path
   fill="#FFFFFF"
   d="M14.976,169.93c0.016-0.484,0.023-0.973,0.023-1.465s-0.008-0.973-0.023-1.441l0.328,0.188h0.492      c0.094-0.438,0.141-0.719,0.141-0.844h-0.422c-0.203,0-0.391,0.023-0.563,0.07l-0.211-0.211h2.32l0.281-0.281l0.398,0.422      h-1.359c-0.109,0.094-0.258,0.375-0.445,0.844h1.055l0.141-0.234l0.375,0.281l-0.164,0.164v1.289      c0,0.266,0.008,0.586,0.023,0.961l-0.328,0.188v-2.508h-1.734v2.391L14.976,169.93z M14.53,169.25      c0,0.719,0.008,1.211,0.023,1.477l-0.328,0.188c0.016-0.234,0.023-0.633,0.023-1.195v-2.25c0-0.766-0.008-1.258-0.023-1.477      l0.445,0.234l-0.141,0.141V169.25z M12.772,166.039l0.492,0.234l-0.188,0.164c0,0.5,0,1.023,0,1.57s-0.023,1.063-0.07,1.547      s-0.273,0.984-0.68,1.5l-0.07-0.047c0.313-0.547,0.48-1.203,0.504-1.969s0.035-1.297,0.035-1.594S12.788,166.68,12.772,166.039z       M13.476,170.118c0.016-0.641,0.023-1.25,0.023-1.828s-0.008-1.125-0.023-1.641l0.445,0.211L13.78,167v2.156      c0,0.156,0.008,0.406,0.023,0.75L13.476,170.118z M16.522,167.961l-0.188,0.164c0,0.375-0.012,0.781-0.035,1.219      s-0.164,0.809-0.422,1.113s-0.723,0.574-1.395,0.809l-0.023-0.07c0.609-0.313,1.016-0.609,1.219-0.891s0.313-0.664,0.328-1.148      s0.016-0.961,0-1.43L16.522,167.961z M16.382,169.789c0.609,0.313,0.977,0.543,1.102,0.691s0.156,0.316,0.094,0.504      s-0.141,0.199-0.234,0.035s-0.203-0.324-0.328-0.48s-0.352-0.383-0.68-0.68L16.382,169.789z"
   id="path304" />
				<path
   fill="#FFFFFF"
   d="M20.812,165.782c0.281,0.094,0.477,0.184,0.586,0.27s0.152,0.18,0.129,0.281s-0.07,0.176-0.141,0.223      s-0.141-0.016-0.211-0.188s-0.207-0.344-0.41-0.516L20.812,165.782z M18.937,166.391l0.352,0.211h3.445l0.352-0.352l0.492,0.492      h-4.289c0,0.609-0.008,1.152-0.023,1.629s-0.09,0.945-0.223,1.406s-0.387,0.941-0.762,1.441l-0.07-0.047      c0.313-0.547,0.512-1.051,0.598-1.512s0.133-0.961,0.141-1.5S18.952,167.032,18.937,166.391z M20.507,170.68      c0.266,0.031,0.469,0.047,0.609,0.047s0.219-0.086,0.234-0.258v-1.711h-1.172c-0.203,0-0.391,0.023-0.563,0.07l-0.211-0.211      h1.992c0-0.125-0.07-0.262-0.211-0.41s-0.289-0.285-0.445-0.41l0.047-0.07c0.219,0.063,0.469,0.172,0.75,0.328l0.914-0.703      h-1.898c-0.203,0-0.391,0.023-0.563,0.07l-0.211-0.211h2.695l0.258-0.234l0.398,0.492c-0.172,0-0.371,0.051-0.598,0.152      s-0.527,0.27-0.902,0.504c0.078,0.094,0.109,0.18,0.094,0.258s-0.063,0.156-0.141,0.234h1.406l0.211-0.258l0.445,0.445      c-0.266,0-0.555,0.203-0.867,0.609l-0.094-0.047l0.328-0.609h-1.359v1.805c0,0.313-0.156,0.539-0.469,0.68      c-0.047-0.203-0.273-0.352-0.68-0.445V170.68z"
   id="path306" />
				<v:paragraph />
				<v:tabList />
			</g>
		</g>
		<g
   id="shape30-69"
   transform="translate(40.1249,-86.2689)">
			<title
   id="title309">circle92</title>
			<ellipse
   fill="#629E1F"
   cx="4.5"
   cy="165.882"
   rx="4.5"
   ry="4.5"
   id="ellipse311"
   d="m 9,165.882 c 0,2.48529 -2.0147186,4.5 -4.5,4.5 -2.4852814,0 -4.5,-2.01471 -4.5,-4.5 0,-2.48528 2.0147186,-4.5 4.5,-4.5 2.4852814,0 4.5,2.01472 4.5,4.5 z" />
		</g>
		<g
   id="shape31-71"
   transform="translate(42.7189,-88.706)">
			<title
   id="title314">text94</title>
			<desc
   id="desc316">1</desc>
			<v:userDefs />
			<v:textBlock
   v:margins="rect(0,0,0,0)" />
			<v:textRect
   width="6.12"
   height="3"
   cy="168.882"
   cx="3.05" />
			<path
   style="fill:none"
   d="m 0,167.383 6.1009998,0 0,3 L 0,170.383 z"
   id="rect318" />
			
				<g
   transform="matrix(1 0 0 1 -0.0097 170.6805)"
   style="font-size:5.99989986px;fill:#ffffff;font-family:ArialMT"
   id="text320"><path
     d="m 2.2353143,0 -0.527335,0 0,-3.3602955 c -0.1269526,0.121095 -0.2934535,0.2421866 -0.4995034,0.3632752 -0.2060522,0.1210946 -0.39110755,0.2119133 -0.55516649,0.2724564 l 0,-0.5097571 C 0.94822541,-3.3729872 1.2060334,-3.540953 1.426734,-3.7382189 1.6474318,-3.9354773 1.803679,-4.1268801 1.8954762,-4.312428 l 0.3398381,0 z"
     style="font-size:5.99989986px;fill:#ffffff;font-family:ArialMT"
     id="path3415" /></g>
		</g>
		<g
   id="shape32-74"
   transform="translate(8.99999,-52.1459)">
			<title
   id="title323">line96</title>
			<path
   fill="none"
   d="M0,170.38h26.5H0z"
   id="path325" />
			<path
   fill="none"
   stroke="#666666"
   stroke-width="1.5"
   stroke-miterlimit="3"
   d="M0,170.38h26.5"
   id="path327" />
		</g>
		<g
   id="shape33-77"
   transform="translate(33.1304,-49.7737)">
			<title
   id="title330">polygon98</title>
			<path
   fill="#666666"
   d="M0,165.641v4.739l4.74-2.37L0,165.641z"
   id="path332" />
		</g>
		<g
   id="shape34-79"
   transform="translate(40.1249,-47.6439)">
			<title
   id="title335">circle100</title>
			<ellipse
   fill="#E67814"
   cx="4.5"
   cy="165.882"
   rx="4.5"
   ry="4.5"
   id="ellipse337"
   d="m 9,165.882 c 0,2.48529 -2.0147186,4.5 -4.5,4.5 -2.4852814,0 -4.5,-2.01471 -4.5,-4.5 0,-2.48528 2.0147186,-4.5 4.5,-4.5 2.4852814,0 4.5,2.01472 4.5,4.5 z" />
		</g>
		<g
   id="shape35-81"
   transform="translate(42.9065,-50.081)">
			<title
   id="title340">text102</title>
			<desc
   id="desc342">2</desc>
			<v:userDefs />
			<v:textBlock
   v:margins="rect(0,0,0,0)" />
			<v:textRect
   width="6.12"
   height="3"
   cy="168.882"
   cx="3.05" />
			<path
   style="fill:none"
   d="m 0,167.383 6.0999999,0 0,3 L 0,170.383 z"
   id="rect344" />
			
				<g
   transform="matrix(1 0 0 1 -0.0098 170.6805)"
   style="font-size:5.99989986px;fill:#ffffff;font-family:ArialMT"
   id="text346"><path
     d="M 3.0204574,-0.50682748 3.0204574,0 0.18163759,0 C 0.17773123,-0.12695088 0.19823868,-0.24901903 0.24316,-0.36620483 0.31542411,-0.55956041 0.43114472,-0.74998673 0.59032218,-0.93748435 0.74949846,-1.1249801 0.97947486,-1.3417731 1.2802521,-1.5878641 1.7470394,-1.9706683 2.0624635,-2.2738856 2.2265253,-2.4975169 2.3905827,-2.7211433 2.4726125,-2.9325653 2.472615,-3.1317837 2.4726125,-3.3407612 2.3979068,-3.5170276 2.2484976,-3.6605834 2.099084,-3.8041319 1.9042632,-3.875908 1.6640347,-3.8759119 c -0.2539034,3.9e-6 -0.4570248,0.076174 -0.6093648,0.2285118 -0.15234211,0.1523447 -0.22948918,0.3632785 -0.23144145,0.632802 l -0.54198314,-0.055663 c 0.0371084,-0.4042866 0.1767544,-0.7123866 0.41893832,-0.9243009 0.24218251,-0.2119064 0.56737207,-0.3178615 0.97556967,-0.3178658 0.4121004,4.3e-6 0.7382665,0.1142601 0.9784993,0.3427677 0.2402274,0.2285155 0.3603425,0.5117137 0.3603455,0.8495952 -3e-6,0.1718751 -0.035159,0.3408174 -0.105467,0.5068275 -0.070314,0.1660153 -0.1870113,0.3408169 -0.3500918,0.5244053 -0.1630856,0.1835926 -0.4340769,0.4355412 -0.8129747,0.7558467 -0.3164024,0.2656217 -0.5195238,0.44579426 -0.6093648,0.54051836 -0.089843,0.0947257 -0.16406076,0.18993884 -0.22265256,0.28563976 z"
     style="font-size:5.99989986px;fill:#ffffff;font-family:ArialMT"
     id="path3419" /></g>
		</g>
		<g
   id="shape36-84"
   transform="translate(8.99999,-13.521)">
			<title
   id="title349">line104</title>
			<path
   fill="none"
   d="M0,170.38h26.5H0z"
   id="path351" />
			<path
   fill="none"
   stroke="#666666"
   stroke-width="1.5"
   stroke-miterlimit="3"
   d="M0,170.38h26.5"
   id="path353" />
		</g>
		<g
   id="shape37-87"
   transform="translate(33.1304,-11.1488)">
			<title
   id="title356">polygon106</title>
			<path
   fill="#666666"
   d="M0,165.64v4.74l4.74-2.37L0,165.64z"
   id="path358" />
		</g>
		<g
   id="shape38-89"
   transform="translate(40.1249,-9.01899)">
			<title
   id="title361">circle108</title>
			<ellipse
   fill="#1C82B9"
   cx="4.5"
   cy="165.882"
   rx="4.5"
   ry="4.5"
   id="ellipse363"
   d="m 9,165.882 c 0,2.48529 -2.0147186,4.5 -4.5,4.5 -2.4852814,0 -4.5,-2.01471 -4.5,-4.5 0,-2.48528 2.0147186,-4.5 4.5,-4.5 2.4852814,0 4.5,2.01472 4.5,4.5 z" />
		</g>
		<g
   id="shape39-91"
   transform="translate(42.9065,-11.4561)">
			<title
   id="title366">text110</title>
			<desc
   id="desc368">3</desc>
			<v:userDefs />
			<v:textBlock
   v:margins="rect(0,0,0,0)" />
			<v:textRect
   width="6.12"
   height="3"
   cy="168.882"
   cx="3.05" />
			<path
   style="fill:none"
   d="m 0,167.383 6.0999999,0 0,3 L 0,170.383 z"
   id="rect370" />
			
				<g
   transform="matrix(1 0 0 1 -0.0098 170.6796)"
   style="font-size:5.99989986px;fill:#ffffff;font-family:ArialMT"
   id="text372"><path
     d="m 0.25194892,-1.1337701 0.52733495,-0.070311 c 0.060545,0.29882408 0.16357055,0.5141523 0.30907683,0.64598535 0.1455042,0.13183416 0.3227472,0.19775096 0.5317294,0.1977506 0.2480409,3.6e-7 0.4575099,-0.0859356 0.6284075,-0.2578082 C 2.4193908,-0.79002509 2.5048385,-1.0029119 2.504841,-1.256815 2.5048385,-1.4989969 2.4257383,-1.6987004 2.2675403,-1.8559261 2.1093377,-2.013148 1.9081694,-2.0917599 1.6640347,-2.091762 c -0.099609,2.1e-6 -0.2236305,0.019533 -0.3720641,0.058593 l 0.058593,-0.4628829 c 0.035154,0.00391 0.063474,0.00586 0.08496,0.00586 0.224604,2.5e-6 0.4267488,-0.05859 0.6064352,-0.1757783 C 2.2216404,-2.7831539 2.3114825,-2.9638148 2.3114849,-3.2079543 2.3114825,-3.401307 2.246054,-3.5614604 2.1151991,-3.688415 1.9843399,-3.8153622 1.8153976,-3.8788376 1.6083716,-3.8788415 c -0.2050761,3.9e-6 -0.3759715,0.064456 -0.5126868,0.1933561 -0.13671739,0.1289077 -0.22460646,0.3222636 -0.26366744,0.5800685 L 0.30468241,-3.1991654 C 0.3691341,-3.5526715 0.51561588,-3.8265925 0.74412821,-4.020929 0.97263904,-4.2152575 1.2568137,-4.3124237 1.596653,-4.312428 c 0.2343693,4.3e-6 0.4501858,0.050296 0.6474502,0.1508764 0.1972599,0.1005883 0.3481361,0.2377929 0.4526291,0.4116142 0.1044877,0.1738288 0.1567328,0.3583958 0.1567357,0.5537017 -2.9e-6,0.1855468 -0.049807,0.3544891 -0.1494116,0.5068275 -0.09961,0.1523437 -0.2470686,0.2734353 -0.4423754,0.3632751 0.2538995,0.058595 0.4511616,0.180175 0.591787,0.3647401 0.1406197,0.184569 0.2109309,0.4155219 0.210934,0.6928595 -3.1e-6,0.37499462 -0.1367194,0.69286009 -0.4101494,0.95359735 C 2.3808173,-0.05419826 2.0351202,0.07617053 1.6171605,0.0761706 1.2402124,0.07617053 0.92722969,-0.03613217 0.67821134,-0.26073784 0.42919163,-0.48534298 0.2871043,-0.77635345 0.25194892,-1.1337701 z"
     style="font-size:5.99989986px;fill:#ffffff;font-family:ArialMT"
     id="path3423" /></g>
		</g>
		<g
   id="shape40-94"
   transform="translate(150,249.998) rotate(180)">
			<title
   id="title375">line112</title>
			<path
   fill="none"
   d="M0,170.38h26.5H0z"
   id="path377" />
			<path
   fill="none"
   stroke="#666666"
   stroke-width="1.5"
   stroke-miterlimit="3"
   d="M0,170.38h26.5"
   id="path379" />
		</g>
		<g
   id="shape41-97"
   transform="translate(121.125,-88.3986)">
			<title
   id="title382">polygon114</title>
			<path
   fill="#666666"
   d="M4.74,165.641v4.739L0,168.01L4.74,165.641z"
   id="path384" />
		</g>
		<g
   id="shape42-99"
   transform="translate(150,0)">
			<title
   id="title387">path116</title>
			<path
   fill="#666666"
   d="M4.5,66.881c2.49,0,4.5,2.02,4.5,4.5v94.5c0,2.489-2.01,4.5-4.5,4.5s-4.5-2.011-4.5-4.5v-94.5     C0,68.9,2.01,66.881,4.5,66.881z"
   id="path389" />
		</g>
		<g
   id="shape43-101"
   transform="translate(-13.82,129.91) rotate(-90)">
			<title
   id="title392">text118</title>
			<desc
   id="desc394" />
			<v:userDefs />
			<v:textBlock
   v:margins="rect(0,0,0,0)" />
			<v:textRect
   width="95.85"
   height="3"
   cy="168.882"
   cx="47.9225" />
			
				<rect
   x="46.422"
   y="120.96"
   transform="matrix(-2.547107e-006 -1 1 -2.547107e-006 -120.9598 216.805)"
   fill="none"
   width="3"
   height="95.845"
   id="rect396" />
			<g
   enable-background="new    "
   id="g398">
				<path
   fill="#FFFFFF"
   d="M4.452,166.532l-0.234,0.164c-0.328,0.547-0.656,1-0.984,1.359c0.219,0.156,0.551,0.316,0.996,0.48      s0.941,0.277,1.488,0.34v0.094c-0.281,0.016-0.453,0.117-0.516,0.305c-0.234-0.047-0.578-0.168-1.031-0.363      s-0.844-0.418-1.172-0.668c-0.406,0.313-0.82,0.57-1.242,0.773l0.141,0.094h2.016l0.164-0.188l0.375,0.305l-0.188,0.141v0.984      c0,0.234,0.008,0.477,0.023,0.727l-0.352,0.164v-0.469H1.897v0.352l-0.352,0.141c0.016-0.359,0.023-0.656,0.023-0.891v-1.266      c-0.281,0.172-0.695,0.344-1.242,0.516l-0.023-0.094c0.578-0.25,1.082-0.512,1.512-0.785s0.754-0.512,0.973-0.715      c-0.313-0.359-0.586-0.766-0.82-1.219c-0.141,0.188-0.301,0.359-0.48,0.516s-0.395,0.313-0.645,0.469l-0.047-0.094      c0.344-0.297,0.629-0.617,0.855-0.961s0.402-0.672,0.527-0.984l0.469,0.328l-0.211,0.117l-0.188,0.234H3.89l0.188-0.234      L4.452,166.532z M2.179,166.579l-0.117,0.141c0.266,0.422,0.578,0.797,0.938,1.125c0.313-0.359,0.602-0.781,0.867-1.266H2.179z       M1.897,169.25v1.383h2.039v-1.383H1.897z"
   id="path400" />
				<path
   fill="#FFFFFF"
   d="M9.304,166.016l-0.211,0.141c0.422,0.641,0.863,1.121,1.324,1.441s0.902,0.512,1.324,0.574v0.094      c-0.25,0.016-0.43,0.117-0.539,0.305c-0.469-0.25-0.867-0.547-1.195-0.891s-0.656-0.805-0.984-1.383      c-0.359,0.625-0.742,1.125-1.148,1.5s-0.945,0.703-1.617,0.984l-0.023-0.094c0.672-0.328,1.23-0.781,1.676-1.359      s0.746-1.109,0.902-1.594L9.304,166.016z M8.788,171.289c0.016-0.625,0.023-1.063,0.023-1.313v-1.547      c0-0.281-0.008-0.617-0.023-1.008l0.563,0.305l-0.188,0.141v2.344c0,0.266,0.008,0.547,0.023,0.844L8.788,171.289z"
   id="path402" />
				<path
   fill="#FFFFFF"
   d="M16.288,167.141l0.375-0.633h-1.734c-0.266,0.344-0.57,0.625-0.914,0.844l-0.047-0.047      c0.25-0.234,0.453-0.48,0.609-0.738s0.281-0.527,0.375-0.809l0.445,0.234l-0.188,0.094l-0.234,0.281h1.664l0.188-0.258      l0.422,0.375c-0.219,0.031-0.516,0.266-0.891,0.703L16.288,167.141z M12.796,165.969c0.422,0.078,0.672,0.164,0.75,0.258      s0.082,0.219,0.012,0.375s-0.156,0.145-0.258-0.035s-0.285-0.355-0.551-0.527L12.796,165.969z M14.272,166.204l0.07,0.047      c-0.375,0.453-0.641,0.777-0.797,0.973s-0.254,0.367-0.293,0.516s-0.059,0.332-0.059,0.551s-0.082,0.277-0.246,0.176      s-0.211-0.234-0.141-0.398s0.117-0.297,0.141-0.398s-0.129-0.207-0.457-0.316l0.023-0.07c0.234,0.031,0.379,0.043,0.434,0.035      s0.133-0.035,0.234-0.082S13.647,166.844,14.272,166.204z M15.351,166.719l0.492,0.211l-0.164,0.094l-0.023,0.094      c0.391,0.578,1.023,0.922,1.898,1.031v0.07c-0.281,0.031-0.453,0.133-0.516,0.305c-0.703-0.344-1.188-0.773-1.453-1.289      c-0.266,0.672-1,1.07-2.203,1.195l-0.023-0.07c0.75-0.172,1.27-0.398,1.559-0.68S15.351,167.079,15.351,166.719z       M13.335,170.305c0.016-0.391,0.023-0.723,0.023-0.996s-0.008-0.566-0.023-0.879l0.328,0.141h2.484l0.141-0.211l0.375,0.258      l-0.188,0.164c0,0.531,0.008,0.938,0.023,1.219l-0.328,0.164v-1.453h-2.508v1.453L13.335,170.305z M14.765,168.946l0.586,0.305      l-0.234,0.164c-0.063,0.484-0.18,0.824-0.352,1.02s-0.438,0.359-0.797,0.492s-0.844,0.238-1.453,0.316l-0.023-0.07      c0.391-0.078,0.773-0.191,1.148-0.34s0.633-0.309,0.773-0.48s0.234-0.363,0.281-0.574S14.765,169.289,14.765,168.946z       M15.046,170.352v-0.094c0.594,0.094,1.063,0.18,1.406,0.258s0.547,0.168,0.609,0.27s0.09,0.219,0.082,0.352      s-0.113,0.129-0.316-0.012s-0.445-0.273-0.727-0.398S15.468,170.477,15.046,170.352z"
   id="path404" />
				<path
   fill="#FFFFFF"
   d="M21.022,169.297c0.016-0.406,0.023-0.789,0.023-1.148s-0.008-0.727-0.023-1.102l0.328,0.188h0.328      c0.156-0.359,0.25-0.633,0.281-0.82h-1.43c0,0.641-0.004,1.258-0.012,1.852s-0.121,1.125-0.34,1.594s-0.547,0.914-0.984,1.336      l-0.047-0.07c0.391-0.484,0.664-0.98,0.82-1.488s0.234-1.133,0.234-1.875s-0.008-1.316-0.023-1.723l0.352,0.234h2.438      l0.328-0.328l0.445,0.469h-1.664l0.375,0.211c-0.125,0.047-0.223,0.105-0.293,0.176s-0.184,0.215-0.34,0.434h1.055L23.038,167      l0.352,0.305l-0.188,0.164c0,0.969,0.008,1.516,0.023,1.641l-0.328,0.164v-0.234h-0.609v1.547      c0.016,0.313-0.148,0.516-0.492,0.609c-0.016-0.219-0.203-0.367-0.563-0.445v-0.094c0.203,0.016,0.375,0.027,0.516,0.035      s0.211-0.051,0.211-0.176v-1.477h-0.609v0.117L21.022,169.297z M18.772,165.969c0.453,0.188,0.703,0.348,0.75,0.48      s0.02,0.273-0.082,0.422s-0.188,0.117-0.258-0.094s-0.223-0.457-0.457-0.738L18.772,165.969z M20.015,166.696      c-0.484,1.703-0.746,2.656-0.785,2.859s-0.063,0.445-0.07,0.727s-0.008,0.477,0,0.586s-0.082,0.125-0.27,0.047      s-0.234-0.27-0.141-0.574s0.094-0.5,0-0.586s-0.258-0.16-0.492-0.223v-0.094c0.281,0.031,0.457,0.043,0.527,0.035      s0.148-0.078,0.234-0.211s0.387-0.996,0.902-2.59L20.015,166.696z M18.257,167.329c0.547,0.25,0.82,0.453,0.82,0.609      s-0.047,0.285-0.141,0.387s-0.176,0.047-0.246-0.164s-0.23-0.465-0.48-0.762L18.257,167.329z M21.351,167.375v0.68h1.547v-0.68      H21.351z M21.351,168.196v0.703h1.547v-0.703H21.351z M21.163,169.438l0.422,0.328c-0.172,0.078-0.355,0.227-0.551,0.445      s-0.496,0.477-0.902,0.773l-0.047-0.07C20.647,170.368,21.007,169.875,21.163,169.438z M22.499,169.602l0.047-0.07      c0.516,0.328,0.828,0.563,0.938,0.703s0.117,0.313,0.023,0.516s-0.195,0.168-0.305-0.105S22.858,170.024,22.499,169.602z"
   id="path406" />
				<v:paragraph />
				<v:tabList />
			</g>
		</g>
		<g
   id="shape44-104"
   transform="translate(150,288.623) rotate(180)">
			<title
   id="title409">line120</title>
			<path
   fill="none"
   d="M0,170.38h26.5H0z"
   id="path411" />
			<path
   fill="none"
   stroke="#666666"
   stroke-width="1.5"
   stroke-miterlimit="3"
   d="M0,170.38h26.5"
   id="path413" />
		</g>
		<g
   id="shape45-107"
   transform="translate(121.125,-49.7737)">
			<title
   id="title416">polygon122</title>
			<path
   fill="#666666"
   d="M4.74,165.641v4.739L0,168.01L4.74,165.641z"
   id="path418" />
		</g>
		<g
   id="shape46-109"
   transform="translate(150,327.248) rotate(180)">
			<title
   id="title421">line124</title>
			<path
   fill="none"
   d="M0,170.38h26.5H0z"
   id="path423" />
			<path
   fill="none"
   stroke="#666666"
   stroke-width="1.5"
   stroke-miterlimit="3"
   d="M0,170.38h26.5"
   id="path425" />
		</g>
		<g
   id="shape47-112"
   transform="translate(121.125,-11.1488)">
			<title
   id="title428">polygon126</title>
			<path
   fill="#666666"
   d="M4.74,165.64v4.74L0,168.01L4.74,165.64z"
   id="path430" />
		</g>
	</g>
</g>
</svg>