<?xml version="1.0" encoding="UTF-8" standalone="no"?>
<!-- Generator: Adobe Illustrator 15.1.0, SVG Export Plug-In . SVG Version: 6.00 Build 0)  -->

<svg
   xmlns:dc="http://purl.org/dc/elements/1.1/"
   xmlns:cc="http://creativecommons.org/ns#"
   xmlns:rdf="http://www.w3.org/1999/02/22-rdf-syntax-ns#"
   xmlns:svg="http://www.w3.org/2000/svg"
   xmlns="http://www.w3.org/2000/svg"
   xmlns:sodipodi="http://sodipodi.sourceforge.net/DTD/sodipodi-0.dtd"
   xmlns:inkscape="http://www.inkscape.org/namespaces/inkscape"
   version="1.1"
   x="0px"
   y="0px"
   width="420.6px"
   height="199.432px"
   viewBox="260.125 133.971 420.6 199.432"
   enable-background="new 260.125 133.971 420.6 199.432"
   xml:space="preserve"
   id="svg2"
   inkscape:version="0.48.1 "
   sodipodi:docname="lvm.svg"><metadata
   id="metadata178"><rdf:RDF><cc:Work
       rdf:about=""><dc:format>image/svg+xml</dc:format><dc:type
         rdf:resource="http://purl.org/dc/dcmitype/StillImage" /></cc:Work></rdf:RDF></metadata><defs
   id="defs176" /><sodipodi:namedview
   pagecolor="#ffffff"
   bordercolor="#666666"
   borderopacity="1"
   objecttolerance="10"
   gridtolerance="10"
   guidetolerance="10"
   inkscape:pageopacity="0"
   inkscape:pageshadow="2"
   inkscape:window-width="1920"
   inkscape:window-height="1033"
   id="namedview174"
   showgrid="false"
   inkscape:zoom="2.42"
   inkscape:cx="210.3"
   inkscape:cy="99.716003"
   inkscape:window-x="-4"
   inkscape:window-y="-4"
   inkscape:window-maximized="1"
   inkscape:current-layer="text" />
<g
   id="Layer_1">
	<g
   id="g5">
		<rect
   x="444.653"
   y="182.037"
   fill="none"
   stroke="#000000"
   stroke-width="1.6"
   width="47.035"
   height="23.505"
   id="rect7" />
		<rect
   x="491.712"
   y="182.037"
   fill="none"
   stroke="#000000"
   stroke-width="1.6"
   width="47.035"
   height="23.505"
   id="rect9" />
		<rect
   x="538.772"
   y="182.037"
   fill="none"
   stroke="#000000"
   stroke-width="1.6"
   width="47.034"
   height="23.505"
   id="rect11" />
		<rect
   x="585.831"
   y="182.037"
   fill="none"
   stroke="#000000"
   stroke-width="1.6"
   width="47.034"
   height="23.505"
   id="rect13" />
		<rect
   x="632.892"
   y="182.037"
   fill="none"
   stroke="#000000"
   stroke-width="1.6"
   width="47.034"
   height="23.505"
   id="rect15" />
		<rect
   x="261.146"
   y="134.978"
   fill="none"
   stroke="#000000"
   stroke-width="1.6"
   width="141.153"
   height="47.035"
   id="rect17" />
		<rect
   x="261.146"
   y="182.037"
   fill="none"
   stroke="#000000"
   stroke-width="1.6"
   width="47.035"
   height="117.624"
   id="rect19" />
		<rect
   x="308.205"
   y="182.037"
   fill="none"
   stroke="#000000"
   stroke-width="1.6"
   width="47.035"
   height="117.624"
   id="rect21" />
		<rect
   x="355.265"
   y="182.037"
   fill="none"
   stroke="#000000"
   stroke-width="1.6"
   width="47.035"
   height="117.624"
   id="rect23" />
		<rect
   x="261.146"
   y="299.687"
   fill="none"
   stroke="#000000"
   stroke-width="1.6"
   width="47.035"
   height="32.916"
   id="rect25" />
		<rect
   x="308.205"
   y="299.687"
   fill="none"
   stroke="#000000"
   stroke-width="1.6"
   width="47.035"
   height="32.916"
   id="rect27" />
		<rect
   x="355.265"
   y="299.687"
   fill="none"
   stroke="#000000"
   stroke-width="1.6"
   width="47.035"
   height="32.916"
   id="rect29" />
		<rect
   x="261.146"
   y="134.978"
   fill="none"
   stroke="#000000"
   stroke-width="1.6"
   width="141.153"
   height="197.625"
   id="rect31" />
		<rect
   x="444.653"
   y="205.567"
   fill="none"
   stroke="#000000"
   stroke-width="1.6"
   width="141.154"
   height="47.036"
   id="rect33" />
		<rect
   x="585.831"
   y="205.567"
   fill="none"
   stroke="#000000"
   stroke-width="1.6"
   width="94.095"
   height="47.036"
   id="rect35" />
		<rect
   x="444.653"
   y="134.978"
   fill="none"
   stroke="#000000"
   stroke-width="1.6"
   width="94.094"
   height="47.035"
   id="rect37" />
		<rect
   x="538.772"
   y="134.978"
   fill="none"
   stroke="#000000"
   stroke-width="1.6"
   width="141.153"
   height="47.035"
   id="rect39" />
		<rect
   x="444.653"
   y="134.978"
   fill="none"
   stroke="#000000"
   stroke-width="1.6"
   width="94.094"
   height="70.564"
   id="rect41" />
		<rect
   x="538.772"
   y="134.978"
   fill="none"
   stroke="#000000"
   stroke-width="1.6"
   width="141.153"
   height="70.564"
   id="rect43" />
		<rect
   x="444.653"
   y="252.626"
   fill="none"
   stroke="#000000"
   stroke-width="1.6"
   width="70.565"
   height="47.035"
   id="rect45" />
		<rect
   x="515.242"
   y="252.626"
   fill="none"
   stroke="#000000"
   stroke-width="1.6"
   width="70.564"
   height="47.035"
   id="rect47" />
		<rect
   x="585.831"
   y="252.626"
   fill="none"
   stroke="#000000"
   stroke-width="1.6"
   width="47.034"
   height="47.035"
   id="rect49" />
		<rect
   x="632.892"
   y="252.626"
   fill="none"
   stroke="#000000"
   stroke-width="1.6"
   width="47.034"
   height="47.035"
   id="rect51" />
		<rect
   x="444.653"
   y="299.687"
   fill="none"
   stroke="#000000"
   stroke-width="1.6"
   width="70.565"
   height="32.916"
   id="rect53" />
		<rect
   x="515.242"
   y="299.687"
   fill="none"
   stroke="#000000"
   stroke-width="1.6"
   width="70.564"
   height="32.916"
   id="rect55" />
		<rect
   x="585.831"
   y="299.687"
   fill="none"
   stroke="#000000"
   stroke-width="1.6"
   width="47.034"
   height="32.916"
   id="rect57" />
		<rect
   x="632.892"
   y="299.687"
   fill="none"
   stroke="#000000"
   stroke-width="1.6"
   width="47.034"
   height="32.916"
   id="rect59" />
		<rect
   x="444.653"
   y="205.567"
   fill="none"
   stroke="#000000"
   stroke-width="1.6"
   width="141.154"
   height="127.036"
   id="rect61" />
		<rect
   x="585.831"
   y="205.567"
   fill="none"
   stroke="#000000"
   stroke-width="1.6"
   width="94.095"
   height="127.036"
   id="rect63" />
	</g>
	<g
   id="g65">
		<rect
   x="444.653"
   y="181.83"
   fill="none"
   stroke="#000000"
   stroke-width="1.6"
   width="47.035"
   height="23.505"
   id="rect67" />
		<rect
   x="491.712"
   y="181.83"
   fill="none"
   stroke="#000000"
   stroke-width="1.6"
   width="47.035"
   height="23.505"
   id="rect69" />
		<rect
   x="538.772"
   y="181.83"
   fill="none"
   stroke="#000000"
   stroke-width="1.6"
   width="47.034"
   height="23.505"
   id="rect71" />
		<rect
   x="585.831"
   y="181.83"
   fill="none"
   stroke="#000000"
   stroke-width="1.6"
   width="47.034"
   height="23.505"
   id="rect73" />
		<rect
   x="632.892"
   y="181.83"
   fill="none"
   stroke="#000000"
   stroke-width="1.6"
   width="47.034"
   height="23.505"
   id="rect75" />
		<rect
   x="261.146"
   y="134.803"
   fill="none"
   stroke="#000000"
   stroke-width="1.6"
   width="141.153"
   height="47.035"
   id="rect77" />
		<rect
   x="261.146"
   y="181.83"
   fill="none"
   stroke="#000000"
   stroke-width="1.6"
   width="47.035"
   height="117.624"
   id="rect79" />
		<rect
   x="308.205"
   y="181.83"
   fill="none"
   stroke="#000000"
   stroke-width="1.6"
   width="47.035"
   height="117.624"
   id="rect81" />
		<rect
   x="355.265"
   y="181.83"
   fill="none"
   stroke="#000000"
   stroke-width="1.6"
   width="47.035"
   height="117.624"
   id="rect83" />
		<rect
   x="261.146"
   y="299.479"
   fill="none"
   stroke="#000000"
   stroke-width="1.6"
   width="47.035"
   height="32.916"
   id="rect85" />
		<rect
   x="308.205"
   y="299.479"
   fill="none"
   stroke="#000000"
   stroke-width="1.6"
   width="47.035"
   height="32.916"
   id="rect87" />
		<rect
   x="355.265"
   y="299.479"
   fill="none"
   stroke="#000000"
   stroke-width="1.6"
   width="47.035"
   height="32.916"
   id="rect89" />
		<rect
   x="260.925"
   y="134.771"
   fill="none"
   stroke="#000000"
   stroke-width="1.6"
   width="141.154"
   height="197.625"
   id="rect91" />
		<rect
   x="444.653"
   y="205.36"
   fill="none"
   stroke="#000000"
   stroke-width="1.6"
   width="141.154"
   height="47.036"
   id="rect93" />
		<rect
   x="585.831"
   y="205.36"
   fill="none"
   stroke="#000000"
   stroke-width="1.6"
   width="94.095"
   height="47.036"
   id="rect95" />
		<rect
   x="444.653"
   y="134.771"
   fill="none"
   stroke="#000000"
   stroke-width="1.6"
   width="94.094"
   height="47.035"
   id="rect97" />
		<rect
   x="538.772"
   y="134.771"
   fill="none"
   stroke="#000000"
   stroke-width="1.6"
   width="141.153"
   height="47.035"
   id="rect99" />
		<rect
   x="444.653"
   y="134.771"
   fill="none"
   stroke="#000000"
   stroke-width="1.6"
   width="94.094"
   height="70.564"
   id="rect101" />
		<rect
   x="538.772"
   y="134.771"
   fill="none"
   stroke="#000000"
   stroke-width="1.6"
   width="141.153"
   height="70.564"
   id="rect103" />
		<rect
   x="444.653"
   y="252.419"
   fill="none"
   stroke="#000000"
   stroke-width="1.6"
   width="70.565"
   height="47.035"
   id="rect105" />
		<rect
   x="515.242"
   y="252.419"
   fill="none"
   stroke="#000000"
   stroke-width="1.6"
   width="70.564"
   height="47.035"
   id="rect107" />
		<rect
   x="585.831"
   y="252.419"
   fill="none"
   stroke="#000000"
   stroke-width="1.6"
   width="47.034"
   height="47.035"
   id="rect109" />
		<rect
   x="632.892"
   y="252.419"
   fill="none"
   stroke="#000000"
   stroke-width="1.6"
   width="47.034"
   height="47.035"
   id="rect111" />
		<rect
   x="444.653"
   y="299.479"
   fill="none"
   stroke="#000000"
   stroke-width="1.6"
   width="70.565"
   height="32.916"
   id="rect113" />
		<rect
   x="515.242"
   y="299.479"
   fill="none"
   stroke="#000000"
   stroke-width="1.6"
   width="70.564"
   height="32.916"
   id="rect115" />
		<rect
   x="585.831"
   y="299.479"
   fill="none"
   stroke="#000000"
   stroke-width="1.6"
   width="47.034"
   height="32.916"
   id="rect117" />
		<rect
   x="632.892"
   y="299.479"
   fill="none"
   stroke="#000000"
   stroke-width="1.6"
   width="47.034"
   height="32.916"
   id="rect119" />
		<rect
   x="444.653"
   y="205.36"
   fill="none"
   stroke="#000000"
   stroke-width="1.6"
   width="141.154"
   height="127.036"
   id="rect121" />
		<rect
   x="585.831"
   y="205.36"
   fill="none"
   stroke="#000000"
   stroke-width="1.6"
   width="94.095"
   height="127.036"
   id="rect123" />
	</g>
</g>
<g
   id="text">
	<g
   style="font-size:10px;font-family:Arial-BoldMT"
   id="text126"
   transform="translate(0,-2)"><path
     d="m 465.47754,194.9126 0,0.95703 c -10e-6,0.16927 -0.0358,0.28646 -0.10742,0.35156 -0.0716,0.0716 -0.19207,0.10743 -0.36133,0.10742 l -4.49219,0 c -0.17578,1e-5 -0.29948,-0.0391 -0.37109,-0.11718 -0.0651,-0.0651 -0.0977,-0.17904 -0.0977,-0.3418 l 0,-0.95703 z m 0,-1.2793 0,0.79102 -5.42969,0 0,-0.79102 c 0,-0.0911 -0.0325,-0.16275 -0.0976,-0.21484 -0.0521,-0.0521 -0.11719,-0.0781 -0.19532,-0.0781 -0.0846,1e-5 -0.15299,0.026 -0.20508,0.0781 -0.0586,0.0521 -0.0879,0.12696 -0.0879,0.22461 l 0,2.34375 c 0,0.23438 0.0716,0.42969 0.21485,0.58593 0.15625,0.16277 0.36458,0.24415 0.625,0.24414 l 4.81445,0 c 0.30598,1e-5 0.54036,-0.0749 0.70313,-0.2246 0.16275,-0.14323 0.24413,-0.3418 0.24414,-0.59571 l 0,-2.37304 c -10e-6,-0.0911 -0.0326,-0.16276 -0.0977,-0.21485 -0.0521,-0.0456 -0.1172,-0.0684 -0.19531,-0.0684 -0.0847,1e-5 -0.153,0.026 -0.20508,0.0781 -0.0586,0.0521 -0.0879,0.1237 -0.0879,0.21484 z m 1.09375,4.30664 -7.59766,0 c -0.18229,0 -0.27669,0.0814 -0.2832,0.24414 -0.007,0.16928 0.0749,0.25391 0.24414,0.25391 l 3.54492,0 0,2.61719 c 0,0.0911 0.0293,0.16601 0.0879,0.22461 0.0521,0.0456 0.11719,0.0684 0.19532,0.0684 0.0716,0 0.13345,-0.026 0.18554,-0.0781 0.0651,-0.0586 0.0976,-0.13346 0.0977,-0.22461 l 0,-2.60742 3.54492,0 c 0.16926,0 0.2539,-0.0846 0.25391,-0.25391 -0.007,-0.16276 -0.0977,-0.24414 -0.27344,-0.24414 z"
     style="font-style:normal;font-variant:normal;font-weight:normal;font-stretch:normal;font-family:Gulim;-inkscape-font-specification:Gulim"
     id="path3099"
     inkscape:connector-curvature="0" /><path
     d="m 475.8877,193.33057 -6.26954,0 c -0.18229,0 -0.27018,0.0814 -0.26367,0.24414 0,0.16927 0.0879,0.25391 0.26367,0.2539 l 6.29883,0 c 0.0781,1e-5 0.14322,-0.026 0.19531,-0.0781 0.0391,-0.0521 0.0586,-0.11067 0.0586,-0.17578 -1e-5,-0.0651 -0.026,-0.12369 -0.0781,-0.17578 -0.0521,-0.0456 -0.12045,-0.0684 -0.20507,-0.0684 z m 0.0293,2.32422 -1.20117,0 0.30273,-1.36719 c 0.0195,-0.0846 0.003,-0.15625 -0.0488,-0.21485 -0.0456,-0.0521 -0.11069,-0.0814 -0.19532,-0.0879 -0.0781,-0.006 -0.14974,0.01 -0.21484,0.0488 -0.0716,0.0391 -0.11068,0.10417 -0.11719,0.19531 l -0.30273,1.42579 -2.75391,0 -0.30273,-1.45508 c -0.013,-0.0911 -0.0521,-0.1595 -0.11719,-0.20508 -0.0651,-0.0391 -0.13672,-0.0553 -0.21484,-0.0488 -0.0781,0.007 -0.13998,0.0358 -0.18555,0.0879 -0.0521,0.0586 -0.0684,0.13347 -0.0488,0.22461 l 0.29297,1.39649 -1.20117,0 c -0.16927,0 -0.25391,0.0814 -0.25391,0.24414 -0.007,0.16927 0.0684,0.25391 0.22461,0.2539 l 6.38672,0 c 0.14973,1e-5 0.21809,-0.0846 0.20508,-0.2539 -0.007,-0.16276 -0.0912,-0.24414 -0.25391,-0.24414 z m 0.66406,1.31835 -7.60742,0 c -0.19531,1e-5 -0.29297,0.0781 -0.29297,0.23438 0,0.16276 0.0944,0.24414 0.28321,0.24414 l 3.51562,0 0,0.81055 c 0,0.0911 0.0293,0.16602 0.0879,0.22461 0.0521,0.0456 0.11719,0.0684 0.19532,0.0684 0.0716,0 0.13345,-0.026 0.18554,-0.0781 0.0651,-0.0586 0.0976,-0.13672 0.0977,-0.23437 l 0,-0.79102 3.55469,0 c 0.16275,0 0.24413,-0.0814 0.24414,-0.24414 -0.007,-0.15625 -0.0944,-0.23437 -0.26368,-0.23438 z m -1.37695,1.41602 -4.92187,0 c -0.25391,0 -0.45573,0.0684 -0.60547,0.20508 -0.14323,0.13672 -0.21485,0.32552 -0.21485,0.5664 l 0,1.22071 c 0,0.22786 0.0716,0.4069 0.21485,0.53711 0.13671,0.13021 0.33528,0.19531 0.5957,0.19531 l 5.00977,0 c 0.23436,0 0.42317,-0.0716 0.5664,-0.21484 0.14322,-0.13672 0.21484,-0.31576 0.21485,-0.53711 l 0,-1.2793 c -10e-6,-0.20833 -0.0814,-0.37435 -0.24414,-0.49805 -0.15626,-0.1302 -0.36134,-0.19531 -0.61524,-0.19531 z m 0.27344,0.83008 0,1.08398 c -1e-5,0.11068 -0.0358,0.19206 -0.10742,0.24414 -0.0651,0.0456 -0.16928,0.0684 -0.3125,0.0684 l -4.57032,0 c -0.16927,0 -0.28646,-0.026 -0.35156,-0.0781 -0.0586,-0.0521 -0.0879,-0.14323 -0.0879,-0.27344 l 0,-1.01562 c 0,-0.13021 0.026,-0.22136 0.0781,-0.27344 0.0651,-0.0586 0.17578,-0.0879 0.33203,-0.0879 l 4.58008,0 c 0.14973,0 0.26041,0.026 0.33203,0.0781 0.0716,0.0456 0.10741,0.13021 0.10742,0.25391 z"
     style="font-style:normal;font-variant:normal;font-weight:normal;font-stretch:normal;font-family:Gulim;-inkscape-font-specification:Gulim"
     id="path3101"
     inkscape:connector-curvature="0" /></g>

	<g
   style="font-size:10px;font-family:Arial-BoldMT"
   id="text128"
   transform="translate(0,-2)"><path
     d="m 512.53714,194.9126 0,0.95703 c -10e-6,0.16927 -0.0358,0.28646 -0.10742,0.35156 -0.0716,0.0716 -0.19207,0.10743 -0.36133,0.10742 l -4.49219,0 c -0.17578,1e-5 -0.29948,-0.0391 -0.37109,-0.11718 -0.0651,-0.0651 -0.0977,-0.17904 -0.0977,-0.3418 l 0,-0.95703 z m 0,-1.2793 0,0.79102 -5.42969,0 0,-0.79102 c 0,-0.0911 -0.0325,-0.16275 -0.0976,-0.21484 -0.0521,-0.0521 -0.11719,-0.0781 -0.19532,-0.0781 -0.0846,1e-5 -0.15299,0.026 -0.20507,0.0781 -0.0586,0.0521 -0.0879,0.12696 -0.0879,0.22461 l 0,2.34375 c 0,0.23438 0.0716,0.42969 0.21485,0.58593 0.15625,0.16277 0.36458,0.24415 0.625,0.24414 l 4.81445,0 c 0.30598,1e-5 0.54036,-0.0749 0.70313,-0.2246 0.16275,-0.14323 0.24413,-0.3418 0.24414,-0.59571 l 0,-2.37304 c -10e-6,-0.0911 -0.0326,-0.16276 -0.0977,-0.21485 -0.0521,-0.0456 -0.11719,-0.0684 -0.19531,-0.0684 -0.0846,1e-5 -0.153,0.026 -0.20508,0.0781 -0.0586,0.0521 -0.0879,0.1237 -0.0879,0.21484 z m 1.09375,4.30664 -7.59766,0 c -0.18229,0 -0.27669,0.0814 -0.2832,0.24414 -0.007,0.16928 0.0749,0.25391 0.24414,0.25391 l 3.54492,0 0,2.61719 c 0,0.0911 0.0293,0.16601 0.0879,0.22461 0.0521,0.0456 0.11719,0.0684 0.19532,0.0684 0.0716,0 0.13345,-0.026 0.18554,-0.0781 0.0651,-0.0586 0.0976,-0.13346 0.0977,-0.22461 l 0,-2.60742 3.54492,0 c 0.16926,0 0.2539,-0.0846 0.25391,-0.25391 -0.007,-0.16276 -0.0977,-0.24414 -0.27344,-0.24414 z"
     style="font-style:normal;font-variant:normal;font-weight:normal;font-stretch:normal;font-family:Gulim;-inkscape-font-specification:Gulim"
     id="path3094"
     inkscape:connector-curvature="0" /><path
     d="m 522.9473,193.33057 -6.26954,0 c -0.18229,0 -0.27018,0.0814 -0.26367,0.24414 0,0.16927 0.0879,0.25391 0.26367,0.2539 l 6.29883,0 c 0.0781,1e-5 0.14322,-0.026 0.19532,-0.0781 0.039,-0.0521 0.0586,-0.11067 0.0586,-0.17578 -10e-6,-0.0651 -0.0261,-0.12369 -0.0781,-0.17578 -0.0521,-0.0456 -0.12045,-0.0684 -0.20507,-0.0684 z m 0.0293,2.32422 -1.20117,0 0.30274,-1.36719 c 0.0195,-0.0846 0.003,-0.15625 -0.0488,-0.21485 -0.0456,-0.0521 -0.11069,-0.0814 -0.19532,-0.0879 -0.0781,-0.006 -0.14974,0.01 -0.21484,0.0488 -0.0716,0.0391 -0.11068,0.10417 -0.11719,0.19531 l -0.30273,1.42579 -2.75391,0 -0.30273,-1.45508 c -0.013,-0.0911 -0.0521,-0.1595 -0.11719,-0.20508 -0.0651,-0.0391 -0.13672,-0.0553 -0.21484,-0.0488 -0.0781,0.007 -0.13998,0.0358 -0.18555,0.0879 -0.0521,0.0586 -0.0684,0.13347 -0.0488,0.22461 l 0.29297,1.39649 -1.20117,0 c -0.16927,0 -0.25391,0.0814 -0.25391,0.24414 -0.007,0.16927 0.0684,0.25391 0.22461,0.2539 l 6.38672,0 c 0.14973,1e-5 0.21809,-0.0846 0.20508,-0.2539 -0.007,-0.16276 -0.0911,-0.24414 -0.25391,-0.24414 z m 0.66407,1.31835 -7.60743,0 c -0.19531,1e-5 -0.29297,0.0781 -0.29297,0.23438 0,0.16276 0.0944,0.24414 0.28321,0.24414 l 3.51562,0 0,0.81055 c 0,0.0911 0.0293,0.16602 0.0879,0.22461 0.0521,0.0456 0.11719,0.0684 0.19532,0.0684 0.0716,0 0.13345,-0.026 0.18554,-0.0781 0.0651,-0.0586 0.0977,-0.13672 0.0977,-0.23437 l 0,-0.79102 3.55469,0 c 0.16275,0 0.24413,-0.0814 0.24414,-0.24414 -0.007,-0.15625 -0.0944,-0.23437 -0.26367,-0.23438 z m -1.37696,1.41602 -4.92187,0 c -0.25391,0 -0.45573,0.0684 -0.60547,0.20508 -0.14323,0.13672 -0.21485,0.32552 -0.21485,0.5664 l 0,1.22071 c 0,0.22786 0.0716,0.4069 0.21485,0.53711 0.13672,0.13021 0.33528,0.19531 0.5957,0.19531 l 5.00977,0 c 0.23436,0 0.42317,-0.0716 0.5664,-0.21484 0.14322,-0.13672 0.21484,-0.31576 0.21485,-0.53711 l 0,-1.2793 c -1e-5,-0.20833 -0.0814,-0.37435 -0.24414,-0.49805 -0.15626,-0.1302 -0.36134,-0.19531 -0.61524,-0.19531 z m 0.27344,0.83008 0,1.08398 c -10e-6,0.11068 -0.0358,0.19206 -0.10742,0.24414 -0.0651,0.0456 -0.16928,0.0684 -0.3125,0.0684 l -4.57031,0 c -0.16928,0 -0.28647,-0.026 -0.35157,-0.0781 -0.0586,-0.0521 -0.0879,-0.14323 -0.0879,-0.27344 l 0,-1.01562 c 0,-0.13021 0.026,-0.22136 0.0781,-0.27344 0.0651,-0.0586 0.17578,-0.0879 0.33203,-0.0879 l 4.58008,0 c 0.14973,0 0.26041,0.026 0.33203,0.0781 0.0716,0.0456 0.10741,0.13021 0.10742,0.25391 z"
     style="font-style:normal;font-variant:normal;font-weight:normal;font-stretch:normal;font-family:Gulim;-inkscape-font-specification:Gulim"
     id="path3096"
     inkscape:connector-curvature="0" /></g>

	<g
   style="font-size:10px;font-family:Arial-BoldMT"
   id="text130"
   transform="translate(0,-2)"><path
     d="m 559.59662,194.9126 0,0.95703 c -10e-6,0.16927 -0.0358,0.28646 -0.10742,0.35156 -0.0716,0.0716 -0.19207,0.10743 -0.36133,0.10742 l -4.49219,0 c -0.17578,1e-5 -0.29948,-0.0391 -0.37109,-0.11718 -0.0651,-0.0651 -0.0977,-0.17904 -0.0977,-0.3418 l 0,-0.95703 z m 0,-1.2793 0,0.79102 -5.42969,0 0,-0.79102 c 0,-0.0911 -0.0326,-0.16275 -0.0977,-0.21484 -0.0521,-0.0521 -0.11718,-0.0781 -0.19531,-0.0781 -0.0846,1e-5 -0.15299,0.026 -0.20508,0.0781 -0.0586,0.0521 -0.0879,0.12696 -0.0879,0.22461 l 0,2.34375 c 0,0.23438 0.0716,0.42969 0.21485,0.58593 0.15625,0.16277 0.36458,0.24415 0.625,0.24414 l 4.81445,0 c 0.30598,1e-5 0.54036,-0.0749 0.70313,-0.2246 0.16275,-0.14323 0.24413,-0.3418 0.24414,-0.59571 l 0,-2.37304 c -10e-6,-0.0911 -0.0326,-0.16276 -0.0977,-0.21485 -0.0521,-0.0456 -0.1172,-0.0684 -0.19531,-0.0684 -0.0847,1e-5 -0.15301,0.026 -0.20508,0.0781 -0.0586,0.0521 -0.0879,0.1237 -0.0879,0.21484 z m 1.09375,4.30664 -7.59766,0 c -0.18229,0 -0.27669,0.0814 -0.2832,0.24414 -0.007,0.16928 0.0749,0.25391 0.24414,0.25391 l 3.54492,0 0,2.61719 c 0,0.0911 0.0293,0.16601 0.0879,0.22461 0.0521,0.0456 0.11718,0.0684 0.19531,0.0684 0.0716,0 0.13346,-0.026 0.18555,-0.0781 0.0651,-0.0586 0.0977,-0.13346 0.0977,-0.22461 l 0,-2.60742 3.54492,0 c 0.16926,0 0.2539,-0.0846 0.25391,-0.25391 -0.007,-0.16276 -0.0977,-0.24414 -0.27344,-0.24414 z"
     style="font-style:normal;font-variant:normal;font-weight:normal;font-stretch:normal;font-family:Gulim;-inkscape-font-specification:Gulim"
     id="path3089"
     inkscape:connector-curvature="0" /><path
     d="m 570.00677,193.33057 -6.26953,0 c -0.18229,0 -0.27018,0.0814 -0.26367,0.24414 0,0.16927 0.0879,0.25391 0.26367,0.2539 l 6.29883,0 c 0.0781,1e-5 0.14322,-0.026 0.19531,-0.0781 0.0391,-0.0521 0.0586,-0.11067 0.0586,-0.17578 -10e-6,-0.0651 -0.0261,-0.12369 -0.0781,-0.17578 -0.0521,-0.0456 -0.12045,-0.0684 -0.20508,-0.0684 z m 0.0293,2.32422 -1.20117,0 0.30273,-1.36719 c 0.0195,-0.0846 0.003,-0.15625 -0.0488,-0.21485 -0.0456,-0.0521 -0.11069,-0.0814 -0.19532,-0.0879 -0.0781,-0.006 -0.14974,0.01 -0.21484,0.0488 -0.0716,0.0391 -0.11068,0.10417 -0.11719,0.19531 l -0.30273,1.42579 -2.75391,0 -0.30273,-1.45508 c -0.013,-0.0911 -0.0521,-0.1595 -0.11719,-0.20508 -0.0651,-0.0391 -0.13672,-0.0553 -0.21484,-0.0488 -0.0781,0.007 -0.13998,0.0358 -0.18555,0.0879 -0.0521,0.0586 -0.0684,0.13347 -0.0488,0.22461 l 0.29297,1.39649 -1.20117,0 c -0.16927,0 -0.25391,0.0814 -0.25391,0.24414 -0.007,0.16927 0.0684,0.25391 0.22461,0.2539 l 6.38672,0 c 0.14973,1e-5 0.21809,-0.0846 0.20508,-0.2539 -0.007,-0.16276 -0.0912,-0.24414 -0.25391,-0.24414 z m 0.66406,1.31835 -7.60742,0 c -0.19531,1e-5 -0.29297,0.0781 -0.29297,0.23438 0,0.16276 0.0944,0.24414 0.28321,0.24414 l 3.51562,0 0,0.81055 c 0,0.0911 0.0293,0.16602 0.0879,0.22461 0.0521,0.0456 0.11718,0.0684 0.19531,0.0684 0.0716,0 0.13346,-0.026 0.18555,-0.0781 0.0651,-0.0586 0.0977,-0.13672 0.0977,-0.23437 l 0,-0.79102 3.55469,0 c 0.16275,0 0.24413,-0.0814 0.24414,-0.24414 -0.007,-0.15625 -0.0944,-0.23437 -0.26368,-0.23438 z m -1.37695,1.41602 -4.92187,0 c -0.25391,0 -0.45574,0.0684 -0.60547,0.20508 -0.14323,0.13672 -0.21485,0.32552 -0.21485,0.5664 l 0,1.22071 c 0,0.22786 0.0716,0.4069 0.21485,0.53711 0.13671,0.13021 0.33528,0.19531 0.5957,0.19531 l 5.00977,0 c 0.23436,0 0.42317,-0.0716 0.5664,-0.21484 0.14322,-0.13672 0.21484,-0.31576 0.21485,-0.53711 l 0,-1.2793 c -10e-6,-0.20833 -0.0814,-0.37435 -0.24414,-0.49805 -0.15626,-0.1302 -0.36134,-0.19531 -0.61524,-0.19531 z m 0.27344,0.83008 0,1.08398 c -10e-6,0.11068 -0.0358,0.19206 -0.10742,0.24414 -0.0651,0.0456 -0.16928,0.0684 -0.3125,0.0684 l -4.57032,0 c -0.16927,0 -0.28646,-0.026 -0.35156,-0.0781 -0.0586,-0.0521 -0.0879,-0.14323 -0.0879,-0.27344 l 0,-1.01562 c 0,-0.13021 0.026,-0.22136 0.0781,-0.27344 0.0651,-0.0586 0.17577,-0.0879 0.33203,-0.0879 l 4.58008,0 c 0.14973,0 0.2604,0.026 0.33203,0.0781 0.0716,0.0456 0.10741,0.13021 0.10742,0.25391 z"
     style="font-style:normal;font-variant:normal;font-weight:normal;font-stretch:normal;font-family:Gulim;-inkscape-font-specification:Gulim"
     id="path3091"
     inkscape:connector-curvature="0" /></g>

	<g
   style="font-size:10px;font-family:Arial-BoldMT"
   id="text132"
   transform="translate(0,-2)"><path
     d="m 606.65723,194.9126 0,0.95703 c -10e-6,0.16927 -0.0358,0.28646 -0.10743,0.35156 -0.0716,0.0716 -0.19206,0.10743 -0.36132,0.10742 l -4.49219,0 c -0.17578,1e-5 -0.29948,-0.0391 -0.37109,-0.11718 -0.0651,-0.0651 -0.0977,-0.17904 -0.0977,-0.3418 l 0,-0.95703 z m 0,-1.2793 0,0.79102 -5.42969,0 0,-0.79102 c 0,-0.0911 -0.0326,-0.16275 -0.0977,-0.21484 -0.0521,-0.0521 -0.11719,-0.0781 -0.19531,-0.0781 -0.0846,1e-5 -0.153,0.026 -0.20508,0.0781 -0.0586,0.0521 -0.0879,0.12696 -0.0879,0.22461 l 0,2.34375 c 0,0.23438 0.0716,0.42969 0.21485,0.58593 0.15624,0.16277 0.36458,0.24415 0.625,0.24414 l 4.81445,0 c 0.30598,1e-5 0.54036,-0.0749 0.70312,-0.2246 0.16276,-0.14323 0.24414,-0.3418 0.24414,-0.59571 l 0,-2.37304 c 0,-0.0911 -0.0326,-0.16276 -0.0977,-0.21485 -0.0521,-0.0456 -0.1172,-0.0684 -0.19531,-0.0684 -0.0847,1e-5 -0.15301,0.026 -0.20508,0.0781 -0.0586,0.0521 -0.0879,0.1237 -0.0879,0.21484 z m 1.09375,4.30664 -7.59766,0 c -0.18229,0 -0.27669,0.0814 -0.2832,0.24414 -0.007,0.16928 0.0749,0.25391 0.24414,0.25391 l 3.54492,0 0,2.61719 c -10e-6,0.0911 0.0293,0.16601 0.0879,0.22461 0.0521,0.0456 0.11718,0.0684 0.19531,0.0684 0.0716,0 0.13346,-0.026 0.18555,-0.0781 0.0651,-0.0586 0.0977,-0.13346 0.0977,-0.22461 l 0,-2.60742 3.54492,0 c 0.16926,0 0.25389,-0.0846 0.2539,-0.25391 -0.007,-0.16276 -0.0977,-0.24414 -0.27343,-0.24414 z"
     style="font-style:normal;font-variant:normal;font-weight:normal;font-stretch:normal;font-family:Gulim;-inkscape-font-specification:Gulim"
     id="path3084"
     inkscape:connector-curvature="0" /><path
     d="m 617.06738,193.33057 -6.26953,0 c -0.18229,0 -0.27018,0.0814 -0.26367,0.24414 0,0.16927 0.0879,0.25391 0.26367,0.2539 l 6.29883,0 c 0.0781,1e-5 0.14322,-0.026 0.19531,-0.0781 0.0391,-0.0521 0.0586,-0.11067 0.0586,-0.17578 -10e-6,-0.0651 -0.0261,-0.12369 -0.0781,-0.17578 -0.0521,-0.0456 -0.12045,-0.0684 -0.20508,-0.0684 z m 0.0293,2.32422 -1.20117,0 0.30273,-1.36719 c 0.0195,-0.0846 0.003,-0.15625 -0.0488,-0.21485 -0.0456,-0.0521 -0.11068,-0.0814 -0.19531,-0.0879 -0.0781,-0.006 -0.14974,0.01 -0.21484,0.0488 -0.0716,0.0391 -0.11069,0.10417 -0.11719,0.19531 l -0.30273,1.42579 -2.75391,0 -0.30273,-1.45508 c -0.013,-0.0911 -0.0521,-0.1595 -0.11719,-0.20508 -0.0651,-0.0391 -0.13672,-0.0553 -0.21485,-0.0488 -0.0781,0.007 -0.13997,0.0358 -0.18554,0.0879 -0.0521,0.0586 -0.0684,0.13347 -0.0488,0.22461 l 0.29297,1.39649 -1.20117,0 c -0.16928,0 -0.25391,0.0814 -0.25391,0.24414 -0.007,0.16927 0.0684,0.25391 0.22461,0.2539 l 6.38672,0 c 0.14973,1e-5 0.21809,-0.0846 0.20508,-0.2539 -0.007,-0.16276 -0.0912,-0.24414 -0.25391,-0.24414 z m 0.66406,1.31835 -7.60742,0 c -0.19531,1e-5 -0.29297,0.0781 -0.29297,0.23438 0,0.16276 0.0944,0.24414 0.2832,0.24414 l 3.51563,0 0,0.81055 c -10e-6,0.0911 0.0293,0.16602 0.0879,0.22461 0.0521,0.0456 0.11718,0.0684 0.19531,0.0684 0.0716,0 0.13346,-0.026 0.18555,-0.0781 0.0651,-0.0586 0.0977,-0.13672 0.0977,-0.23437 l 0,-0.79102 3.55468,0 c 0.16275,0 0.24413,-0.0814 0.24414,-0.24414 -0.007,-0.15625 -0.0944,-0.23437 -0.26367,-0.23438 z m -1.37695,1.41602 -4.92188,0 c -0.2539,0 -0.45573,0.0684 -0.60546,0.20508 -0.14324,0.13672 -0.21485,0.32552 -0.21485,0.5664 l 0,1.22071 c 0,0.22786 0.0716,0.4069 0.21485,0.53711 0.13671,0.13021 0.33528,0.19531 0.5957,0.19531 l 5.00976,0 c 0.23437,0 0.42317,-0.0716 0.56641,-0.21484 0.14322,-0.13672 0.21484,-0.31576 0.21484,-0.53711 l 0,-1.2793 c 0,-0.20833 -0.0814,-0.37435 -0.24414,-0.49805 -0.15625,-0.1302 -0.36133,-0.19531 -0.61523,-0.19531 z m 0.27344,0.83008 0,1.08398 c -10e-6,0.11068 -0.0358,0.19206 -0.10743,0.24414 -0.0651,0.0456 -0.16927,0.0684 -0.3125,0.0684 l -4.57031,0 c -0.16927,0 -0.28646,-0.026 -0.35156,-0.0781 -0.0586,-0.0521 -0.0879,-0.14323 -0.0879,-0.27344 l 0,-1.01562 c 0,-0.13021 0.026,-0.22136 0.0781,-0.27344 0.0651,-0.0586 0.17578,-0.0879 0.33204,-0.0879 l 4.58007,0 c 0.14974,0 0.26041,0.026 0.33203,0.0781 0.0716,0.0456 0.10742,0.13021 0.10743,0.25391 z"
     style="font-style:normal;font-variant:normal;font-weight:normal;font-stretch:normal;font-family:Gulim;-inkscape-font-specification:Gulim"
     id="path3086"
     inkscape:connector-curvature="0" /></g>

	<g
   style="font-size:10px;font-family:Arial-BoldMT"
   id="text134"
   transform="translate(0,-2)"><path
     d="m 653.69043,194.9126 0,0.95703 c -10e-6,0.16927 -0.0358,0.28646 -0.10742,0.35156 -0.0716,0.0716 -0.19207,0.10743 -0.36133,0.10742 l -4.49219,0 c -0.17578,1e-5 -0.29948,-0.0391 -0.37109,-0.11718 -0.0651,-0.0651 -0.0977,-0.17904 -0.0977,-0.3418 l 0,-0.95703 z m 0,-1.2793 0,0.79102 -5.42969,0 0,-0.79102 c 0,-0.0911 -0.0326,-0.16275 -0.0977,-0.21484 -0.0521,-0.0521 -0.11719,-0.0781 -0.19532,-0.0781 -0.0846,1e-5 -0.15299,0.026 -0.20507,0.0781 -0.0586,0.0521 -0.0879,0.12696 -0.0879,0.22461 l 0,2.34375 c 0,0.23438 0.0716,0.42969 0.21485,0.58593 0.15625,0.16277 0.36458,0.24415 0.625,0.24414 l 4.81445,0 c 0.30598,1e-5 0.54036,-0.0749 0.70313,-0.2246 0.16275,-0.14323 0.24413,-0.3418 0.24414,-0.59571 l 0,-2.37304 c -1e-5,-0.0911 -0.0326,-0.16276 -0.0977,-0.21485 -0.0521,-0.0456 -0.11719,-0.0684 -0.19531,-0.0684 -0.0846,1e-5 -0.153,0.026 -0.20508,0.0781 -0.0586,0.0521 -0.0879,0.1237 -0.0879,0.21484 z m 1.09375,4.30664 -7.59766,0 c -0.18229,0 -0.27669,0.0814 -0.2832,0.24414 -0.007,0.16928 0.0749,0.25391 0.24414,0.25391 l 3.54492,0 0,2.61719 c 0,0.0911 0.0293,0.16601 0.0879,0.22461 0.0521,0.0456 0.11719,0.0684 0.19532,0.0684 0.0716,0 0.13345,-0.026 0.18554,-0.0781 0.0651,-0.0586 0.0977,-0.13346 0.0977,-0.22461 l 0,-2.60742 3.54492,0 c 0.16926,0 0.2539,-0.0846 0.25391,-0.25391 -0.007,-0.16276 -0.0977,-0.24414 -0.27344,-0.24414 z"
     style="font-style:normal;font-variant:normal;font-weight:normal;font-stretch:normal;font-family:Gulim;-inkscape-font-specification:Gulim"
     id="path3079"
     inkscape:connector-curvature="0" /><path
     d="m 664.10059,193.33057 -6.26954,0 c -0.18229,0 -0.27018,0.0814 -0.26367,0.24414 0,0.16927 0.0879,0.25391 0.26367,0.2539 l 6.29883,0 c 0.0781,1e-5 0.14322,-0.026 0.19532,-0.0781 0.039,-0.0521 0.0586,-0.11067 0.0586,-0.17578 -10e-6,-0.0651 -0.026,-0.12369 -0.0781,-0.17578 -0.0521,-0.0456 -0.12045,-0.0684 -0.20507,-0.0684 z m 0.0293,2.32422 -1.20117,0 0.30274,-1.36719 c 0.0195,-0.0846 0.003,-0.15625 -0.0488,-0.21485 -0.0456,-0.0521 -0.11069,-0.0814 -0.19532,-0.0879 -0.0781,-0.006 -0.14974,0.01 -0.21484,0.0488 -0.0716,0.0391 -0.11068,0.10417 -0.11719,0.19531 l -0.30273,1.42579 -2.75391,0 -0.30273,-1.45508 c -0.013,-0.0911 -0.0521,-0.1595 -0.11719,-0.20508 -0.0651,-0.0391 -0.13672,-0.0553 -0.21484,-0.0488 -0.0781,0.007 -0.13998,0.0358 -0.18555,0.0879 -0.0521,0.0586 -0.0684,0.13347 -0.0488,0.22461 l 0.29297,1.39649 -1.20117,0 c -0.16927,0 -0.25391,0.0814 -0.25391,0.24414 -0.007,0.16927 0.0684,0.25391 0.22461,0.2539 l 6.38672,0 c 0.14973,1e-5 0.21809,-0.0846 0.20508,-0.2539 -0.007,-0.16276 -0.0912,-0.24414 -0.25391,-0.24414 z m 0.66407,1.31835 -7.60743,0 c -0.19531,1e-5 -0.29297,0.0781 -0.29297,0.23438 0,0.16276 0.0944,0.24414 0.28321,0.24414 l 3.51562,0 0,0.81055 c 0,0.0911 0.0293,0.16602 0.0879,0.22461 0.0521,0.0456 0.11719,0.0684 0.19532,0.0684 0.0716,0 0.13345,-0.026 0.18554,-0.0781 0.0651,-0.0586 0.0977,-0.13672 0.0977,-0.23437 l 0,-0.79102 3.55469,0 c 0.16275,0 0.24413,-0.0814 0.24414,-0.24414 -0.007,-0.15625 -0.0944,-0.23437 -0.26367,-0.23438 z m -1.37696,1.41602 -4.92187,0 c -0.25391,0 -0.45573,0.0684 -0.60547,0.20508 -0.14323,0.13672 -0.21485,0.32552 -0.21485,0.5664 l 0,1.22071 c 0,0.22786 0.0716,0.4069 0.21485,0.53711 0.13672,0.13021 0.33528,0.19531 0.5957,0.19531 l 5.00977,0 c 0.23436,0 0.42317,-0.0716 0.5664,-0.21484 0.14322,-0.13672 0.21484,-0.31576 0.21485,-0.53711 l 0,-1.2793 c -10e-6,-0.20833 -0.0814,-0.37435 -0.24414,-0.49805 -0.15626,-0.1302 -0.36134,-0.19531 -0.61524,-0.19531 z m 0.27344,0.83008 0,1.08398 c -10e-6,0.11068 -0.0358,0.19206 -0.10742,0.24414 -0.0651,0.0456 -0.16928,0.0684 -0.3125,0.0684 l -4.57031,0 c -0.16928,0 -0.28647,-0.026 -0.35157,-0.0781 -0.0586,-0.0521 -0.0879,-0.14323 -0.0879,-0.27344 l 0,-1.01562 c 0,-0.13021 0.026,-0.22136 0.0781,-0.27344 0.0651,-0.0586 0.17578,-0.0879 0.33203,-0.0879 l 4.58008,0 c 0.14973,0 0.26041,0.026 0.33203,0.0781 0.0716,0.0456 0.10741,0.13021 0.10742,0.25391 z"
     style="font-style:normal;font-variant:normal;font-weight:normal;font-stretch:normal;font-family:Gulim;-inkscape-font-specification:Gulim"
     id="path3081"
     inkscape:connector-curvature="0" /></g>

	<g
   transform="translate(318.98,167.9087)"
   style="font-size:10px;font-family:Arial-BoldMT"
   id="text136"><path
     d="m 5.4003906,-7.3730469 -3.0566406,0 c -0.3059916,7.4e-6 -0.550132,0.087898 -0.7324219,0.2636719 -0.1692723,0.1692778 -0.2539076,0.3971421 -0.2539062,0.6835938 l 0,5.0488281 c -1.4e-6,0.3385427 0.0944,0.59895909 0.2832031,0.78124998 0.1822898,0.17578166 0.4524719,0.2636722 0.8105469,0.26367187 0.7942676,3.3e-7 1.5331991,-0.0618486 2.2167968,-0.18554687 0.7617134,-0.1367181 1.4029888,-0.34179602 1.9238282,-0.61523438 0.084629,-0.052082 0.1399672,-0.1171862 0.1660156,-0.1953125 0.032545,-0.078124 0.032545,-0.1497381 0,-0.2148437 -0.026048,-0.071613 -0.071621,-0.1171859 -0.1367188,-0.1367188 -0.071621,-0.02604 -0.149746,-0.013019 -0.234375,0.039063 -0.4752663,0.2473972 -1.0612032,0.4459647 -1.7578125,0.5957031 -0.6901081,0.14323009 -1.4095084,0.21484461 -2.1582031,0.21484377 -0.1822939,8.4e-7 -0.3157573,-0.0423168 -0.4003906,-0.12695312 C 1.9791647,-1.048176 1.9335918,-1.1881499 1.9335937,-1.3769531 l 0,-5.0195313 c -1.9e-6,-0.1757747 0.029295,-0.2994724 0.087891,-0.3710937 0.065102,-0.071608 0.1790342,-0.107415 0.3417969,-0.1074219 l 3.0273437,0 c 0.1887965,6.9e-6 0.2864527,-0.084628 0.2929687,-0.2539062 -5.6e-6,-0.1627532 -0.094407,-0.2441333 -0.2832031,-0.2441407 z m 2.7441407,7.5683594 0,-7.5976562 c -8.2e-6,-0.084628 -0.03256,-0.1529873 -0.097656,-0.2050782 -0.052091,-0.039055 -0.1171954,-0.058586 -0.1953125,-0.058594 -0.084643,7.6e-6 -0.1530025,0.019539 -0.2050781,0.058594 -0.058601,0.052091 -0.087898,0.1204502 -0.087891,0.2050782 l 0,7.5976562 c -7.5e-6,0.0911456 0.029289,0.16601526 0.087891,0.22460938 0.052076,0.0520829 0.1204349,0.0781245 0.2050781,0.078125 0.078117,-5e-7 0.1432212,-0.0260421 0.1953125,-0.078125 0.065096,-0.0585941 0.097648,-0.13346383 0.097656,-0.22460938 z"
     style="font-style:normal;font-variant:normal;font-weight:normal;font-stretch:normal;font-family:Gulim;-inkscape-font-specification:Gulim"
     id="path3137" /><path
     d="m 14.716797,-7.2558594 c -5e-6,1.0091209 -0.348312,1.8717502 -1.044922,2.5878907 -0.598961,0.6184936 -1.302086,1.0091182 -2.109375,1.1718749 -0.104168,0.019535 -0.179038,0.061852 -0.224609,0.1269532 -0.04558,0.052087 -0.06511,0.1139355 -0.05859,0.1855468 0.01302,0.065107 0.04883,0.1171906 0.107422,0.15625 0.0651,0.039065 0.146483,0.052086 0.24414,0.039063 0.787758,-0.1562468 1.503903,-0.5305954 2.148438,-1.1230468 C 14.397782,-4.6647089 14.804683,-5.270177 15,-5.9277344 c 0.208328,0.651047 0.615229,1.2565151 1.220703,1.8164063 0.638014,0.585941 1.334628,0.9570344 2.089844,1.1132812 0.110669,0.019534 0.205069,0.00977 0.283203,-0.029297 0.0651,-0.039059 0.104158,-0.094398 0.117187,-0.1660156 0.01952,-0.071611 0.0065,-0.1367154 -0.03906,-0.1953125 -0.05209,-0.065101 -0.126962,-0.1074184 -0.224609,-0.1269531 -0.852873,-0.1757776 -1.572273,-0.5664022 -2.158204,-1.171875 -0.670578,-0.6966092 -1.005864,-1.5462177 -1.005859,-2.5488281 -5e-6,-0.1041594 -0.03256,-0.1887947 -0.09766,-0.2539063 -0.05209,-0.052076 -0.113937,-0.078117 -0.185547,-0.078125 -0.07813,7.6e-6 -0.143234,0.026049 -0.195312,0.078125 -0.0586,0.058601 -0.0879,0.1367261 -0.08789,0.234375 z m 4.072265,6.58203128 -7.578124,0 c -0.195314,6.7e-7 -0.29297,0.0813808 -0.292969,0.24414062 -10e-7,0.16927109 0.09766,0.25390643 0.292969,0.25390625 l 7.58789,0 c 0.08463,1.8e-7 0.152986,-0.0260415 0.205078,-0.078125 0.05207,-0.052083 0.07812,-0.11067672 0.07813,-0.17578125 -9e-6,-0.0651037 -0.02605,-0.12369736 -0.07813,-0.17578125 -0.05209,-0.0455723 -0.123707,-0.0683587 -0.214844,-0.0683594 z"
     style="font-style:normal;font-variant:normal;font-weight:normal;font-stretch:normal;font-family:Gulim;-inkscape-font-specification:Gulim"
     id="path3139" /><path
     d="m 27.324219,-4.5410156 c -0.781257,0.09115 -1.712245,0.1627648 -2.792969,0.2148437 -0.989587,0.052088 -1.920576,0.078129 -2.792969,0.078125 -0.195314,4.3e-6 -0.289715,0.081384 -0.283203,0.2441407 0.01302,0.1692746 0.10742,0.2539099 0.283203,0.2539062 0.872393,3.7e-6 1.822913,-0.029293 2.851563,-0.087891 1.002598,-0.05859 1.923821,-0.1334596 2.763672,-0.2246094 0.162753,-0.019527 0.237622,-0.1106729 0.224609,-0.2734375 -0.01303,-0.1627559 -0.09766,-0.2311152 -0.253906,-0.2050781 z m -0.05859,-2.8710938 -5.253906,0 c -0.175783,7.4e-6 -0.263674,0.084643 -0.263672,0.2539063 -2e-6,0.1692778 0.08463,0.2539131 0.253906,0.2539062 l 5.234375,0 c 0.162753,6.9e-6 0.283196,0.032559 0.361328,0.097656 0.07812,0.0586 0.11718,0.1530014 0.117188,0.2832031 l 0,1.8847656 c -8e-6,0.9700558 -0.03256,1.6731801 -0.09766,2.109375 -0.08464,0.5989603 -0.266934,1.2174493 -0.546875,1.85546878 l 0.595704,0 c 0.260408,-0.64452998 0.432934,-1.26627408 0.517578,-1.86523438 0.07812,-0.5078095 0.117179,-1.230465 0.117187,-2.1679687 l 0,-1.8457032 c -8e-6,-0.2604098 -0.09766,-0.468743 -0.292969,-0.625 -0.19532,-0.1562426 -0.442715,-0.2343676 -0.742187,-0.234375 z m 1.513672,6.73828128 -7.56836,0 c -0.09115,6.7e-7 -0.162761,0.0227871 -0.214843,0.0683594 -0.04557,0.0520839 -0.07162,0.11067758 -0.07813,0.17578125 -0.0065,0.0651045 0.0098,0.12369822 0.04883,0.17578125 0.03906,0.0520835 0.0944,0.0781252 0.166015,0.078125 l 7.72461,0 c 0.07161,1.8e-7 0.126944,-0.0260415 0.166015,-0.078125 0.03905,-0.052083 0.05858,-0.11067672 0.05859,-0.17578125 -0.0065,-0.0651037 -0.03582,-0.12369736 -0.08789,-0.17578125 -0.05209,-0.0455723 -0.123707,-0.0683587 -0.214844,-0.0683594 z"
     style="font-style:normal;font-variant:normal;font-weight:normal;font-stretch:normal;font-family:Gulim;-inkscape-font-specification:Gulim"
     id="path3141" /></g>

	<g
   style="font-size:10px;font-family:Arial-BoldMT"
   id="text138"
   transform="translate(0,-2)"><path
     d="m 282.47025,194.9126 0,0.95703 c -1e-5,0.16927 -0.0358,0.28646 -0.10743,0.35156 -0.0716,0.0716 -0.19206,0.10743 -0.36132,0.10742 l -4.49219,0 c -0.17579,1e-5 -0.29948,-0.0391 -0.3711,-0.11718 -0.0651,-0.0651 -0.0976,-0.17904 -0.0976,-0.3418 l 0,-0.95703 z m 0,-1.2793 0,0.79102 -5.42969,0 0,-0.79102 c 0,-0.0911 -0.0326,-0.16275 -0.0977,-0.21484 -0.0521,-0.0521 -0.11719,-0.0781 -0.19531,-0.0781 -0.0846,1e-5 -0.153,0.026 -0.20508,0.0781 -0.0586,0.0521 -0.0879,0.12696 -0.0879,0.22461 l 0,2.34375 c 0,0.23438 0.0716,0.42969 0.21484,0.58593 0.15625,0.16277 0.36459,0.24415 0.625,0.24414 l 4.81446,0 c 0.30598,1e-5 0.54035,-0.0749 0.70312,-0.2246 0.16275,-0.14323 0.24413,-0.3418 0.24414,-0.59571 l 0,-2.37304 c -10e-6,-0.0911 -0.0326,-0.16276 -0.0976,-0.21485 -0.0521,-0.0456 -0.1172,-0.0684 -0.19532,-0.0684 -0.0846,1e-5 -0.153,0.026 -0.20507,0.0781 -0.0586,0.0521 -0.0879,0.1237 -0.0879,0.21484 z m 1.09375,4.30664 -7.59766,0 c -0.18229,0 -0.27669,0.0814 -0.2832,0.24414 -0.007,0.16928 0.0749,0.25391 0.24414,0.25391 l 3.54492,0 0,2.61719 c -10e-6,0.0911 0.0293,0.16601 0.0879,0.22461 0.0521,0.0456 0.11718,0.0684 0.19531,0.0684 0.0716,0 0.13346,-0.026 0.18555,-0.0781 0.0651,-0.0586 0.0976,-0.13346 0.0976,-0.22461 l 0,-2.60742 3.54493,0 c 0.16926,0 0.25389,-0.0846 0.2539,-0.25391 -0.007,-0.16276 -0.0977,-0.24414 -0.27343,-0.24414 z"
     style="font-style:normal;font-variant:normal;font-weight:normal;font-stretch:normal;font-family:Gulim;-inkscape-font-specification:Gulim"
     id="path3114"
     inkscape:connector-curvature="0" /><path
     d="m 292.8804,193.33057 -6.26953,0 c -0.18229,0 -0.27018,0.0814 -0.26367,0.24414 0,0.16927 0.0879,0.25391 0.26367,0.2539 l 6.29883,0 c 0.0781,1e-5 0.14322,-0.026 0.19531,-0.0781 0.0391,-0.0521 0.0586,-0.11067 0.0586,-0.17578 0,-0.0651 -0.026,-0.12369 -0.0781,-0.17578 -0.0521,-0.0456 -0.12045,-0.0684 -0.20508,-0.0684 z m 0.0293,2.32422 -1.20117,0 0.30273,-1.36719 c 0.0195,-0.0846 0.003,-0.15625 -0.0488,-0.21485 -0.0456,-0.0521 -0.11068,-0.0814 -0.19531,-0.0879 -0.0781,-0.006 -0.14975,0.01 -0.21484,0.0488 -0.0716,0.0391 -0.11069,0.10417 -0.11719,0.19531 l -0.30274,1.42579 -2.7539,0 -0.30274,-1.45508 c -0.013,-0.0911 -0.0521,-0.1595 -0.11718,-0.20508 -0.0651,-0.0391 -0.13673,-0.0553 -0.21485,-0.0488 -0.0781,0.007 -0.13997,0.0358 -0.18554,0.0879 -0.0521,0.0586 -0.0684,0.13347 -0.0488,0.22461 l 0.29297,1.39649 -1.20118,0 c -0.16927,0 -0.2539,0.0814 -0.2539,0.24414 -0.007,0.16927 0.0684,0.25391 0.22461,0.2539 l 6.38672,0 c 0.14973,1e-5 0.21809,-0.0846 0.20507,-0.2539 -0.007,-0.16276 -0.0911,-0.24414 -0.2539,-0.24414 z m 0.66406,1.31835 -7.60742,0 c -0.19531,1e-5 -0.29297,0.0781 -0.29297,0.23438 0,0.16276 0.0944,0.24414 0.2832,0.24414 l 3.51563,0 0,0.81055 c -10e-6,0.0911 0.0293,0.16602 0.0879,0.22461 0.0521,0.0456 0.11718,0.0684 0.19531,0.0684 0.0716,0 0.13346,-0.026 0.18555,-0.0781 0.0651,-0.0586 0.0976,-0.13672 0.0976,-0.23437 l 0,-0.79102 3.55469,0 c 0.16275,0 0.24413,-0.0814 0.24414,-0.24414 -0.007,-0.15625 -0.0944,-0.23437 -0.26367,-0.23438 z m -1.37695,1.41602 -4.92188,0 c -0.25391,0 -0.45573,0.0684 -0.60547,0.20508 -0.14323,0.13672 -0.21484,0.32552 -0.21484,0.5664 l 0,1.22071 c 0,0.22786 0.0716,0.4069 0.21484,0.53711 0.13672,0.13021 0.33529,0.19531 0.59571,0.19531 l 5.00976,0 c 0.23437,0 0.42317,-0.0716 0.56641,-0.21484 0.14322,-0.13672 0.21483,-0.31576 0.21484,-0.53711 l 0,-1.2793 c -10e-6,-0.20833 -0.0814,-0.37435 -0.24414,-0.49805 -0.15626,-0.1302 -0.36133,-0.19531 -0.61523,-0.19531 z m 0.27344,0.83008 0,1.08398 c -1e-5,0.11068 -0.0358,0.19206 -0.10743,0.24414 -0.0651,0.0456 -0.16927,0.0684 -0.3125,0.0684 l -4.57031,0 c -0.16927,0 -0.28646,-0.026 -0.35156,-0.0781 -0.0586,-0.0521 -0.0879,-0.14323 -0.0879,-0.27344 l 0,-1.01562 c 0,-0.13021 0.026,-0.22136 0.0781,-0.27344 0.0651,-0.0586 0.17578,-0.0879 0.33203,-0.0879 l 4.58008,0 c 0.14973,0 0.26041,0.026 0.33203,0.0781 0.0716,0.0456 0.10742,0.13021 0.10743,0.25391 z"
     style="font-style:normal;font-variant:normal;font-weight:normal;font-stretch:normal;font-family:Gulim;-inkscape-font-specification:Gulim"
     id="path3116"
     inkscape:connector-curvature="0" /></g>

	<g
   transform="translate(317.8149,198.8501)"
   style="font-size:10px;font-family:Arial-BoldMT"
   id="text140"><path
     d="m 7.7148437,-5.9375 0,0.9570313 c -7.7e-6,0.1692756 -0.035815,0.286463 -0.1074218,0.3515625 -0.071622,0.071619 -0.1920647,0.1074263 -0.3613282,0.1074218 l -4.4921874,0 c -0.1757839,4.5e-6 -0.2994817,-0.039058 -0.3710938,-0.1171875 -0.065107,-0.065099 -0.097659,-0.1790316 -0.097656,-0.3417968 l 0,-0.9570313 z m 0,-1.2792969 0,0.7910157 -5.4296874,0 0,-0.7910157 c -2.3e-6,-0.091138 -0.032554,-0.162753 -0.097656,-0.2148437 -0.052086,-0.052076 -0.1171896,-0.078118 -0.1953125,-0.078125 -0.084637,7.5e-6 -0.1529966,0.026049 -0.2050781,0.078125 -0.058596,0.052091 -0.087892,0.1269604 -0.087891,0.2246094 l 0,2.34375 c -1.6e-6,0.2343796 0.071613,0.4296919 0.2148438,0.5859375 0.1562479,0.1627645 0.3645811,0.2441446 0.625,0.2441406 l 4.8144531,0 c 0.3059819,4e-6 0.5403567,-0.074866 0.703125,-0.2246094 0.1627522,-0.1432248 0.2441323,-0.3417923 0.2441407,-0.5957031 l 0,-2.3730469 c -8.4e-6,-0.091138 -0.03256,-0.162753 -0.097656,-0.2148437 -0.052091,-0.045565 -0.1171956,-0.068352 -0.1953125,-0.068359 -0.084643,7.5e-6 -0.1530026,0.026049 -0.2050781,0.078125 -0.058601,0.052091 -0.087898,0.1237052 -0.087891,0.2148437 z m 1.0937501,4.3066406 -7.5976563,0 c -0.1822927,3e-6 -0.27669364,0.081383 -0.28320312,0.2441407 -0.006511,0.1692733 0.0748688,0.2539086 0.24414062,0.2539062 l 3.5449219,0 0,2.61718753 c -4.7e-6,0.0911455 0.029292,0.16601525 0.087891,0.22460937 C 4.856766,0.47525994 4.9218701,0.49804638 5,0.49804688 c 0.07161,-5e-7 0.1334584,-0.0260421 0.1855469,-0.078125 0.065099,-0.0585941 0.097651,-0.13346383 0.097656,-0.22460938 l 0,-2.6074219 3.5449219,0 c 0.1692618,2.4e-6 0.2538972,-0.084633 0.2539063,-0.2539062 -0.00652,-0.1627576 -0.097665,-0.2441377 -0.2734375,-0.2441407 z"
     style="font-style:normal;font-variant:normal;font-weight:normal;font-stretch:normal;font-family:Gulim;-inkscape-font-specification:Gulim"
     id="path3109"
     inkscape:connector-curvature="0" /><path
     d="m 18.125,-7.5195312 -6.269531,0 c -0.182294,7.5e-6 -0.270184,0.081388 -0.263672,0.2441406 -2e-6,0.1692779 0.08789,0.2539132 0.263672,0.2539062 l 6.298828,0 c 0.07812,7e-6 0.143221,-0.026035 0.195312,-0.078125 0.03905,-0.052076 0.05859,-0.1106698 0.05859,-0.1757812 -8e-6,-0.065097 -0.02605,-0.1236905 -0.07813,-0.1757813 -0.05209,-0.045565 -0.120451,-0.068352 -0.205078,-0.068359 z m 0.0293,2.3242187 -1.201172,0 0.302734,-1.3671875 c 0.01952,-0.084629 0.0032,-0.1562433 -0.04883,-0.2148437 -0.04558,-0.052077 -0.110684,-0.081373 -0.195312,-0.087891 -0.07813,-0.0065 -0.149747,0.00977 -0.214844,0.048828 -0.07162,0.039069 -0.110684,0.1041733 -0.117188,0.1953125 l -0.302734,1.4257812 -2.753906,0 -0.302734,-1.4550781 c -0.01303,-0.091139 -0.05209,-0.1594984 -0.117188,-0.2050781 -0.06511,-0.039056 -0.136722,-0.055332 -0.214844,-0.048828 -0.07813,0.00652 -0.139977,0.035814 -0.185547,0.087891 -0.05209,0.058601 -0.06836,0.1334702 -0.04883,0.2246093 l 0.292969,1.3964844 -1.201172,0 c -0.169272,5.2e-6 -0.253908,0.081385 -0.253906,0.2441406 -0.0065,0.1692756 0.06836,0.253911 0.224609,0.2539063 l 6.386719,0 c 0.149731,4.7e-6 0.218091,-0.084631 0.205078,-0.2539063 -0.0065,-0.1627553 -0.09115,-0.2441354 -0.253906,-0.2441406 z m 0.664062,1.3183594 -7.607421,0 c -0.195314,3.9e-6 -0.29297,0.078129 -0.292969,0.234375 -1e-6,0.1627639 0.0944,0.244144 0.283203,0.2441406 l 3.515625,0 0,0.8105469 c -5e-6,0.091148 0.02929,0.166018 0.08789,0.2246093 0.05208,0.045575 0.117182,0.068362 0.195312,0.068359 0.07161,2.3e-6 0.133458,-0.026039 0.185547,-0.078125 0.0651,-0.058591 0.09765,-0.1367162 0.09766,-0.234375 l 0,-0.7910156 3.554688,0 c 0.162751,3.4e-6 0.244131,-0.081377 0.24414,-0.2441406 -0.0065,-0.1562462 -0.09441,-0.2343711 -0.263672,-0.234375 z m -1.376953,1.4160156 -4.921875,0 c -0.253908,2.5e-6 -0.455731,0.068362 -0.605468,0.2050781 -0.143231,0.1367209 -0.214846,0.3255228 -0.214844,0.5664063 l 0,1.2207031 c -2e-6,0.22786482 0.07161,0.4069011 0.214844,0.53710937 0.136716,0.13020814 0.335284,0.19531224 0.595703,0.19531251 l 5.009765,0 c 0.234367,-2.7e-7 0.423169,-0.0716148 0.566406,-0.21484376 0.143221,-0.13671866 0.214836,-0.31575494 0.214844,-0.53710937 l 0,-1.27929685 c -8e-6,-0.2083314 -0.08139,-0.3743468 -0.24414,-0.4980469 -0.156258,-0.1302059 -0.361336,-0.19531 -0.615235,-0.1953125 z m 0.273438,0.8300781 0,1.0839844 c -8e-6,0.11067752 -0.03581,0.19205765 -0.107422,0.24414062 -0.06511,0.0455732 -0.169278,0.0683596 -0.3125,0.0683594 l -4.570313,0 c -0.169273,2.3e-7 -0.28646,-0.0260414 -0.351562,-0.078125 -0.0586,-0.052083 -0.08789,-0.14322871 -0.08789,-0.2734375 l 0,-1.01562502 c -2e-6,-0.1302066 0.02604,-0.2213523 0.07813,-0.2734375 0.0651,-0.058592 0.175779,-0.087889 0.332032,-0.087891 l 4.580078,0 c 0.149732,1.9e-6 0.260409,0.026044 0.332031,0.078125 0.07161,0.045575 0.107414,0.1302101 0.107422,0.2539062 z"
     style="font-style:normal;font-variant:normal;font-weight:normal;font-stretch:normal;font-family:Gulim;-inkscape-font-specification:Gulim"
     id="path3111"
     inkscape:connector-curvature="0" /></g>

	<g
   style="font-size:10px;font-family:Arial-BoldMT"
   id="text142"
   transform="translate(0,-2)"><path
     d="m 376.58936,194.9126 0,0.95703 c -10e-6,0.16927 -0.0358,0.28646 -0.10743,0.35156 -0.0716,0.0716 -0.19206,0.10743 -0.36132,0.10742 l -4.49219,0 c -0.17579,1e-5 -0.29948,-0.0391 -0.3711,-0.11718 -0.0651,-0.0651 -0.0976,-0.17904 -0.0976,-0.3418 l 0,-0.95703 z m 0,-1.2793 0,0.79102 -5.42969,0 0,-0.79102 c 0,-0.0911 -0.0326,-0.16275 -0.0977,-0.21484 -0.0521,-0.0521 -0.11719,-0.0781 -0.19531,-0.0781 -0.0846,1e-5 -0.153,0.026 -0.20508,0.0781 -0.0586,0.0521 -0.0879,0.12696 -0.0879,0.22461 l 0,2.34375 c 0,0.23438 0.0716,0.42969 0.21484,0.58593 0.15625,0.16277 0.36459,0.24415 0.625,0.24414 l 4.81446,0 c 0.30598,1e-5 0.54035,-0.0749 0.70312,-0.2246 0.16275,-0.14323 0.24413,-0.3418 0.24414,-0.59571 l 0,-2.37304 c -10e-6,-0.0911 -0.0326,-0.16276 -0.0977,-0.21485 -0.0521,-0.0456 -0.1172,-0.0684 -0.19532,-0.0684 -0.0846,1e-5 -0.153,0.026 -0.20507,0.0781 -0.0586,0.0521 -0.0879,0.1237 -0.0879,0.21484 z m 1.09375,4.30664 -7.59766,0 c -0.18229,0 -0.27669,0.0814 -0.2832,0.24414 -0.007,0.16928 0.0749,0.25391 0.24414,0.25391 l 3.54492,0 0,2.61719 c -1e-5,0.0911 0.0293,0.16601 0.0879,0.22461 0.0521,0.0456 0.11718,0.0684 0.19531,0.0684 0.0716,0 0.13346,-0.026 0.18555,-0.0781 0.0651,-0.0586 0.0976,-0.13346 0.0976,-0.22461 l 0,-2.60742 3.54493,0 c 0.16926,0 0.25389,-0.0846 0.2539,-0.25391 -0.007,-0.16276 -0.0977,-0.24414 -0.27343,-0.24414 z"
     style="font-style:normal;font-variant:normal;font-weight:normal;font-stretch:normal;font-family:Gulim;-inkscape-font-specification:Gulim"
     id="path3104"
     inkscape:connector-curvature="0" /><path
     d="m 386.99951,193.33057 -6.26953,0 c -0.18229,0 -0.27018,0.0814 -0.26367,0.24414 0,0.16927 0.0879,0.25391 0.26367,0.2539 l 6.29883,0 c 0.0781,1e-5 0.14322,-0.026 0.19531,-0.0781 0.0391,-0.0521 0.0586,-0.11067 0.0586,-0.17578 0,-0.0651 -0.026,-0.12369 -0.0781,-0.17578 -0.0521,-0.0456 -0.12045,-0.0684 -0.20508,-0.0684 z m 0.0293,2.32422 -1.20117,0 0.30273,-1.36719 c 0.0195,-0.0846 0.003,-0.15625 -0.0488,-0.21485 -0.0456,-0.0521 -0.11068,-0.0814 -0.19531,-0.0879 -0.0781,-0.006 -0.14975,0.01 -0.21484,0.0488 -0.0716,0.0391 -0.11069,0.10417 -0.11719,0.19531 l -0.30274,1.42579 -2.7539,0 -0.30274,-1.45508 c -0.013,-0.0911 -0.0521,-0.1595 -0.11718,-0.20508 -0.0651,-0.0391 -0.13673,-0.0553 -0.21485,-0.0488 -0.0781,0.007 -0.13997,0.0358 -0.18554,0.0879 -0.0521,0.0586 -0.0684,0.13347 -0.0488,0.22461 l 0.29297,1.39649 -1.20118,0 c -0.16927,0 -0.2539,0.0814 -0.2539,0.24414 -0.007,0.16927 0.0684,0.25391 0.22461,0.2539 l 6.38672,0 c 0.14973,1e-5 0.21809,-0.0846 0.20507,-0.2539 -0.007,-0.16276 -0.0912,-0.24414 -0.2539,-0.24414 z m 0.66406,1.31835 -7.60742,0 c -0.19531,1e-5 -0.29297,0.0781 -0.29297,0.23438 0,0.16276 0.0944,0.24414 0.2832,0.24414 l 3.51563,0 0,0.81055 c -1e-5,0.0911 0.0293,0.16602 0.0879,0.22461 0.0521,0.0456 0.11718,0.0684 0.19531,0.0684 0.0716,0 0.13346,-0.026 0.18555,-0.0781 0.0651,-0.0586 0.0976,-0.13672 0.0976,-0.23437 l 0,-0.79102 3.55469,0 c 0.16275,0 0.24413,-0.0814 0.24414,-0.24414 -0.007,-0.15625 -0.0944,-0.23437 -0.26367,-0.23438 z m -1.37695,1.41602 -4.92188,0 c -0.25391,0 -0.45573,0.0684 -0.60547,0.20508 -0.14323,0.13672 -0.21484,0.32552 -0.21484,0.5664 l 0,1.22071 c 0,0.22786 0.0716,0.4069 0.21484,0.53711 0.13672,0.13021 0.33529,0.19531 0.59571,0.19531 l 5.00976,0 c 0.23437,0 0.42317,-0.0716 0.56641,-0.21484 0.14322,-0.13672 0.21483,-0.31576 0.21484,-0.53711 l 0,-1.2793 c -1e-5,-0.20833 -0.0814,-0.37435 -0.24414,-0.49805 -0.15626,-0.1302 -0.36133,-0.19531 -0.61523,-0.19531 z m 0.27344,0.83008 0,1.08398 c -10e-6,0.11068 -0.0358,0.19206 -0.10743,0.24414 -0.0651,0.0456 -0.16927,0.0684 -0.3125,0.0684 l -4.57031,0 c -0.16927,0 -0.28646,-0.026 -0.35156,-0.0781 -0.0586,-0.0521 -0.0879,-0.14323 -0.0879,-0.27344 l 0,-1.01562 c 0,-0.13021 0.026,-0.22136 0.0781,-0.27344 0.0651,-0.0586 0.17578,-0.0879 0.33203,-0.0879 l 4.58008,0 c 0.14973,0 0.26041,0.026 0.33203,0.0781 0.0716,0.0456 0.10742,0.13021 0.10743,0.25391 z"
     style="font-style:normal;font-variant:normal;font-weight:normal;font-stretch:normal;font-family:Gulim;-inkscape-font-specification:Gulim"
     id="path3106"
     inkscape:connector-curvature="0" /></g>

	<g
   transform="matrix(1 0 0 1 278.2788 323.1787)"
   style="font-size:10px;font-family:Arial-BoldMT"
   id="text144"><path
     d="m 0.7421875,0 0,-7.1582031 1.4257813,0 1.6943359,5.0683593 c 0.156246,0.4720069 0.2701781,0.8251966 0.3417969,1.0595704 0.081376,-0.2604154 0.2083289,-0.642902 0.3808593,-1.147461 l 1.7138672,-4.9804687 1.2744141,0 0,7.1582031 -0.913086,0 0,-5.9912109 L 4.5800781,0 3.7255859,0 1.6552734,-6.09375 l 0,6.09375 z"
     style="font-size:10px;font-family:Arial-BoldMT"
     id="path3216" /><path
     d="m 9.1113281,0 0,-7.1582031 2.7001949,0 c 0.475257,7.1e-6 0.838212,0.022794 1.088868,0.068359 0.351557,0.058601 0.646153,0.1700915 0.883789,0.3344726 0.237624,0.1643946 0.428868,0.3947004 0.57373,0.690918 0.144851,0.2962297 0.217279,0.6217502 0.217285,0.9765625 -6e-6,0.6087284 -0.193691,1.1238646 -0.581054,1.5454101 -0.387375,0.4215526 -1.087245,0.6323272 -2.09961,0.6323242 l -1.835937,0 0,2.9101563 z m 0.9472659,-3.7548828 1.850586,0 c 0.611975,3.7e-6 1.046545,-0.1139284 1.303711,-0.3417969 0.257156,-0.2278602 0.385737,-0.5484979 0.385742,-0.961914 -5e-6,-0.2994739 -0.07569,-0.5558213 -0.227051,-0.769043 C 13.22021,-6.0408468 13.020829,-6.1816344 12.773438,-6.25 c -0.15951,-0.042311 -0.454106,-0.06347 -0.88379,-0.063477 l -1.831054,0 z"
     style="font-size:10px;font-family:Arial-BoldMT"
     id="path3218" /></g>

	<g
   transform="matrix(1 0 0 1 325.3374 323.1787)"
   style="font-size:10px;font-family:Arial-BoldMT"
   id="text146"><path
     d="m 0.7421875,0 0,-7.1582031 1.4257813,0 1.6943359,5.0683593 c 0.156246,0.4720069 0.2701781,0.8251966 0.3417969,1.0595704 0.081376,-0.2604154 0.2083289,-0.642902 0.3808593,-1.147461 l 1.7138672,-4.9804687 1.2744141,0 0,7.1582031 -0.913086,0 0,-5.9912109 L 4.5800781,0 3.7255859,0 1.6552734,-6.09375 l 0,6.09375 z"
     style="font-size:10px;font-family:Arial-BoldMT"
     id="path3211" /><path
     d="m 9.1113281,0 0,-7.1582031 2.7001949,0 c 0.475257,7.1e-6 0.838212,0.022794 1.088868,0.068359 0.351557,0.058601 0.646153,0.1700915 0.883789,0.3344726 0.237624,0.1643946 0.428868,0.3947004 0.57373,0.690918 0.144851,0.2962297 0.217279,0.6217502 0.217285,0.9765625 -6e-6,0.6087284 -0.193691,1.1238646 -0.581054,1.5454101 -0.387375,0.4215526 -1.087245,0.6323272 -2.09961,0.6323242 l -1.835937,0 0,2.9101563 z m 0.9472659,-3.7548828 1.850586,0 c 0.611975,3.7e-6 1.046545,-0.1139284 1.303711,-0.3417969 0.257156,-0.2278602 0.385737,-0.5484979 0.385742,-0.961914 -5e-6,-0.2994739 -0.07569,-0.5558213 -0.227051,-0.769043 C 13.22021,-6.0408468 13.020829,-6.1816344 12.773438,-6.25 c -0.15951,-0.042311 -0.454106,-0.06347 -0.88379,-0.063477 l -1.831054,0 z"
     style="font-size:10px;font-family:Arial-BoldMT"
     id="path3213" /></g>

	<g
   transform="matrix(1 0 0 1 372.3975 323.1787)"
   style="font-size:10px;font-family:Arial-BoldMT"
   id="text148"><path
     d="m 0.7421875,0 0,-7.1582031 1.4257813,0 1.6943359,5.0683593 c 0.156246,0.4720069 0.2701781,0.8251966 0.3417969,1.0595704 0.081376,-0.2604154 0.2083289,-0.642902 0.3808593,-1.147461 l 1.7138672,-4.9804687 1.2744141,0 0,7.1582031 -0.913086,0 0,-5.9912109 L 4.5800781,0 3.7255859,0 1.6552734,-6.09375 l 0,6.09375 z"
     style="font-size:10px;font-family:Arial-BoldMT"
     id="path3206" /><path
     d="m 9.1113281,0 0,-7.1582031 2.7001949,0 c 0.475257,7.1e-6 0.838212,0.022794 1.088868,0.068359 0.351557,0.058601 0.646153,0.1700915 0.883789,0.3344726 0.237624,0.1643946 0.428868,0.3947004 0.57373,0.690918 0.144851,0.2962297 0.217279,0.6217502 0.217285,0.9765625 -6e-6,0.6087284 -0.193691,1.1238646 -0.581054,1.5454101 -0.387375,0.4215526 -1.087245,0.6323272 -2.09961,0.6323242 l -1.835937,0 0,2.9101563 z m 0.9472659,-3.7548828 1.850586,0 c 0.611975,3.7e-6 1.046545,-0.1139284 1.303711,-0.3417969 0.257156,-0.2278602 0.385737,-0.5484979 0.385742,-0.961914 -5e-6,-0.2994739 -0.07569,-0.5558213 -0.227051,-0.769043 C 13.22021,-6.0408468 13.020829,-6.1816344 12.773438,-6.25 c -0.15951,-0.042311 -0.454106,-0.06347 -0.88379,-0.063477 l -1.831054,0 z"
     style="font-size:10px;font-family:Arial-BoldMT"
     id="path3208" /></g>

	<g
   transform="matrix(1 0 0 1 473.4028 323.1787)"
   style="font-size:10px;font-family:Arial-BoldMT"
   id="text150"><path
     d="m 0.7421875,0 0,-7.1582031 1.4257813,0 1.6943359,5.0683593 c 0.156246,0.4720069 0.2701781,0.8251966 0.3417969,1.0595704 0.081376,-0.2604154 0.2083289,-0.642902 0.3808593,-1.147461 l 1.7138672,-4.9804687 1.2744141,0 0,7.1582031 -0.913086,0 0,-5.9912109 L 4.5800781,0 3.7255859,0 1.6552734,-6.09375 l 0,6.09375 z"
     style="font-size:10px;font-family:Arial-BoldMT"
     id="path3201" /><path
     d="m 9.1113281,0 0,-7.1582031 2.7001949,0 c 0.475257,7.1e-6 0.838212,0.022794 1.088868,0.068359 0.351557,0.058601 0.646153,0.1700915 0.883789,0.3344726 0.237624,0.1643946 0.428868,0.3947004 0.57373,0.690918 0.144851,0.2962297 0.217279,0.6217502 0.217285,0.9765625 -6e-6,0.6087284 -0.193691,1.1238646 -0.581054,1.5454101 -0.387375,0.4215526 -1.087245,0.6323272 -2.09961,0.6323242 l -1.835937,0 0,2.9101563 z m 0.9472659,-3.7548828 1.850586,0 c 0.611975,3.7e-6 1.046545,-0.1139284 1.303711,-0.3417969 0.257156,-0.2278602 0.385737,-0.5484979 0.385742,-0.961914 -5e-6,-0.2994739 -0.07569,-0.5558213 -0.227051,-0.769043 C 13.22021,-6.0408468 13.020829,-6.1816344 12.773438,-6.25 c -0.15951,-0.042311 -0.454106,-0.06347 -0.88379,-0.063477 l -1.831054,0 z"
     style="font-size:10px;font-family:Arial-BoldMT"
     id="path3203" /></g>

	<g
   transform="matrix(1 0 0 1 545.4932 323.1787)"
   style="font-size:10px;font-family:Arial-BoldMT"
   id="text152"><path
     d="m 0.7421875,0 0,-7.1582031 1.4257813,0 1.6943359,5.0683593 c 0.156246,0.4720069 0.2701781,0.8251966 0.3417969,1.0595704 0.081376,-0.2604154 0.2083289,-0.642902 0.3808593,-1.147461 l 1.7138672,-4.9804687 1.2744141,0 0,7.1582031 -0.913086,0 0,-5.9912109 L 4.5800781,0 3.7255859,0 1.6552734,-6.09375 l 0,6.09375 z"
     style="font-size:10px;font-family:Arial-BoldMT"
     id="path3196" /><path
     d="m 9.1113281,0 0,-7.1582031 2.7001949,0 c 0.475257,7.1e-6 0.838212,0.022794 1.088868,0.068359 0.351557,0.058601 0.646153,0.1700915 0.883789,0.3344726 0.237624,0.1643946 0.428868,0.3947004 0.57373,0.690918 0.144851,0.2962297 0.217279,0.6217502 0.217285,0.9765625 -6e-6,0.6087284 -0.193691,1.1238646 -0.581054,1.5454101 -0.387375,0.4215526 -1.087245,0.6323272 -2.09961,0.6323242 l -1.835937,0 0,2.9101563 z m 0.9472659,-3.7548828 1.850586,0 c 0.611975,3.7e-6 1.046545,-0.1139284 1.303711,-0.3417969 0.257156,-0.2278602 0.385737,-0.5484979 0.385742,-0.961914 -5e-6,-0.2994739 -0.07569,-0.5558213 -0.227051,-0.769043 C 13.22021,-6.0408468 13.020829,-6.1816344 12.773438,-6.25 c -0.15951,-0.042311 -0.454106,-0.06347 -0.88379,-0.063477 l -1.831054,0 z"
     style="font-size:10px;font-family:Arial-BoldMT"
     id="path3198" /></g>

	<g
   transform="matrix(1 0 0 1 602.4639 323.1787)"
   style="font-size:10px;font-family:Arial-BoldMT"
   id="text154"><path
     d="m 0.7421875,0 0,-7.1582031 1.4257813,0 1.6943359,5.0683593 c 0.156246,0.4720069 0.2701781,0.8251966 0.3417969,1.0595704 0.081376,-0.2604154 0.2083289,-0.642902 0.3808593,-1.147461 l 1.7138672,-4.9804687 1.2744141,0 0,7.1582031 -0.913086,0 0,-5.9912109 L 4.5800781,0 3.7255859,0 1.6552734,-6.09375 l 0,6.09375 z"
     style="font-size:10px;font-family:Arial-BoldMT"
     id="path3191" /><path
     d="m 9.1113281,0 0,-7.1582031 2.7001949,0 c 0.475257,7.1e-6 0.838212,0.022794 1.088868,0.068359 0.351557,0.058601 0.646153,0.1700915 0.883789,0.3344726 0.237624,0.1643946 0.428868,0.3947004 0.57373,0.690918 0.144851,0.2962297 0.217279,0.6217502 0.217285,0.9765625 -6e-6,0.6087284 -0.193691,1.1238646 -0.581054,1.5454101 -0.387375,0.4215526 -1.087245,0.6323272 -2.09961,0.6323242 l -1.835937,0 0,2.9101563 z m 0.9472659,-3.7548828 1.850586,0 c 0.611975,3.7e-6 1.046545,-0.1139284 1.303711,-0.3417969 0.257156,-0.2278602 0.385737,-0.5484979 0.385742,-0.961914 -5e-6,-0.2994739 -0.07569,-0.5558213 -0.227051,-0.769043 C 13.22021,-6.0408468 13.020829,-6.1816344 12.773438,-6.25 c -0.15951,-0.042311 -0.454106,-0.06347 -0.88379,-0.063477 l -1.831054,0 z"
     style="font-size:10px;font-family:Arial-BoldMT"
     id="path3193" /></g>

	<g
   transform="matrix(1 0 0 1 649.999 323.1787)"
   style="font-size:10px;font-family:Arial-BoldMT"
   id="text156"><path
     d="m 0.7421875,0 0,-7.1582031 1.4257813,0 1.6943359,5.0683593 c 0.156246,0.4720069 0.2701781,0.8251966 0.3417969,1.0595704 0.081376,-0.2604154 0.2083289,-0.642902 0.3808593,-1.147461 l 1.7138672,-4.9804687 1.2744141,0 0,7.1582031 -0.913086,0 0,-5.9912109 L 4.5800781,0 3.7255859,0 1.6552734,-6.09375 l 0,6.09375 z"
     style="font-size:10px;font-family:Arial-BoldMT"
     id="path3186" /><path
     d="m 9.1113281,0 0,-7.1582031 2.7001949,0 c 0.475257,7.1e-6 0.838212,0.022794 1.088868,0.068359 0.351557,0.058601 0.646153,0.1700915 0.883789,0.3344726 0.237624,0.1643946 0.428868,0.3947004 0.57373,0.690918 0.144851,0.2962297 0.217279,0.6217502 0.217285,0.9765625 -6e-6,0.6087284 -0.193691,1.1238646 -0.581054,1.5454101 -0.387375,0.4215526 -1.087245,0.6323272 -2.09961,0.6323242 l -1.835937,0 0,2.9101563 z m 0.9472659,-3.7548828 1.850586,0 c 0.611975,3.7e-6 1.046545,-0.1139284 1.303711,-0.3417969 0.257156,-0.2278602 0.385737,-0.5484979 0.385742,-0.961914 -5e-6,-0.2994739 -0.07569,-0.5558213 -0.227051,-0.769043 C 13.22021,-6.0408468 13.020829,-6.1816344 12.773438,-6.25 c -0.15951,-0.042311 -0.454106,-0.06347 -0.88379,-0.063477 l -1.831054,0 z"
     style="font-size:10px;font-family:Arial-BoldMT"
     id="path3188" /></g>

	<g
   transform="translate(475.4468,167.9087)"
   style="font-size:10px;font-family:Arial-BoldMT"
   id="text158"><path
     d="m 5.4003906,-7.3730469 -3.0566406,0 c -0.3059916,7.4e-6 -0.550132,0.087898 -0.7324219,0.2636719 -0.1692723,0.1692778 -0.2539076,0.3971421 -0.2539062,0.6835938 l 0,5.0488281 c -1.4e-6,0.3385427 0.0944,0.59895909 0.2832031,0.78124998 0.1822898,0.17578166 0.4524719,0.2636722 0.8105469,0.26367187 0.7942676,3.3e-7 1.5331991,-0.0618486 2.2167968,-0.18554687 0.7617134,-0.1367181 1.4029888,-0.34179602 1.9238282,-0.61523438 0.084629,-0.052082 0.1399672,-0.1171862 0.1660156,-0.1953125 0.032545,-0.078124 0.032545,-0.1497381 0,-0.2148437 -0.026048,-0.071613 -0.071621,-0.1171859 -0.1367188,-0.1367188 -0.071621,-0.02604 -0.149746,-0.013019 -0.234375,0.039063 -0.4752663,0.2473972 -1.0612032,0.4459647 -1.7578125,0.5957031 -0.6901081,0.14323009 -1.4095084,0.21484461 -2.1582031,0.21484377 -0.1822939,8.4e-7 -0.3157573,-0.0423168 -0.4003906,-0.12695312 C 1.9791647,-1.048176 1.9335918,-1.1881499 1.9335937,-1.3769531 l 0,-5.0195313 c -1.9e-6,-0.1757747 0.029295,-0.2994724 0.087891,-0.3710937 0.065102,-0.071608 0.1790342,-0.107415 0.3417969,-0.1074219 l 3.0273437,0 c 0.1887965,6.9e-6 0.2864527,-0.084628 0.2929687,-0.2539062 -5.6e-6,-0.1627532 -0.094407,-0.2441333 -0.2832031,-0.2441407 z m 2.7441407,7.5683594 0,-7.5976562 c -8.2e-6,-0.084628 -0.03256,-0.1529873 -0.097656,-0.2050782 -0.052091,-0.039055 -0.1171954,-0.058586 -0.1953125,-0.058594 -0.084643,7.6e-6 -0.1530025,0.019539 -0.2050781,0.058594 -0.058601,0.052091 -0.087898,0.1204502 -0.087891,0.2050782 l 0,7.5976562 c -7.5e-6,0.0911456 0.029289,0.16601526 0.087891,0.22460938 0.052076,0.0520829 0.1204349,0.0781245 0.2050781,0.078125 0.078117,-5e-7 0.1432212,-0.0260421 0.1953125,-0.078125 0.065096,-0.0585941 0.097648,-0.13346383 0.097656,-0.22460938 z"
     style="font-style:normal;font-variant:normal;font-weight:normal;font-stretch:normal;font-family:Gulim;-inkscape-font-specification:Gulim"
     id="path3128" /><path
     d="m 14.716797,-7.2558594 c -5e-6,1.0091209 -0.348312,1.8717502 -1.044922,2.5878907 -0.598961,0.6184936 -1.302086,1.0091182 -2.109375,1.1718749 -0.104168,0.019535 -0.179038,0.061852 -0.224609,0.1269532 -0.04558,0.052087 -0.06511,0.1139355 -0.05859,0.1855468 0.01302,0.065107 0.04883,0.1171906 0.107422,0.15625 0.0651,0.039065 0.146483,0.052086 0.24414,0.039063 0.787758,-0.1562468 1.503903,-0.5305954 2.148438,-1.1230468 C 14.397782,-4.6647089 14.804683,-5.270177 15,-5.9277344 c 0.208328,0.651047 0.615229,1.2565151 1.220703,1.8164063 0.638014,0.585941 1.334628,0.9570344 2.089844,1.1132812 0.110669,0.019534 0.205069,0.00977 0.283203,-0.029297 0.0651,-0.039059 0.104158,-0.094398 0.117187,-0.1660156 0.01952,-0.071611 0.0065,-0.1367154 -0.03906,-0.1953125 -0.05209,-0.065101 -0.126962,-0.1074184 -0.224609,-0.1269531 -0.852873,-0.1757776 -1.572273,-0.5664022 -2.158204,-1.171875 -0.670578,-0.6966092 -1.005864,-1.5462177 -1.005859,-2.5488281 -5e-6,-0.1041594 -0.03256,-0.1887947 -0.09766,-0.2539063 -0.05209,-0.052076 -0.113937,-0.078117 -0.185547,-0.078125 -0.07813,7.6e-6 -0.143234,0.026049 -0.195312,0.078125 -0.0586,0.058601 -0.0879,0.1367261 -0.08789,0.234375 z m 4.072265,6.58203128 -7.578124,0 c -0.195314,6.7e-7 -0.29297,0.0813808 -0.292969,0.24414062 -10e-7,0.16927109 0.09766,0.25390643 0.292969,0.25390625 l 7.58789,0 c 0.08463,1.8e-7 0.152986,-0.0260415 0.205078,-0.078125 0.05207,-0.052083 0.07812,-0.11067672 0.07813,-0.17578125 -9e-6,-0.0651037 -0.02605,-0.12369736 -0.07813,-0.17578125 -0.05209,-0.0455723 -0.123707,-0.0683587 -0.214844,-0.0683594 z"
     style="font-style:normal;font-variant:normal;font-weight:normal;font-stretch:normal;font-family:Gulim;-inkscape-font-specification:Gulim"
     id="path3130" /><path
     d="m 27.324219,-4.5410156 c -0.781257,0.09115 -1.712245,0.1627648 -2.792969,0.2148437 -0.989587,0.052088 -1.920576,0.078129 -2.792969,0.078125 -0.195314,4.3e-6 -0.289715,0.081384 -0.283203,0.2441407 0.01302,0.1692746 0.10742,0.2539099 0.283203,0.2539062 0.872393,3.7e-6 1.822913,-0.029293 2.851563,-0.087891 1.002598,-0.05859 1.923821,-0.1334596 2.763672,-0.2246094 0.162753,-0.019527 0.237622,-0.1106729 0.224609,-0.2734375 -0.01303,-0.1627559 -0.09766,-0.2311152 -0.253906,-0.2050781 z m -0.05859,-2.8710938 -5.253906,0 c -0.175783,7.4e-6 -0.263674,0.084643 -0.263672,0.2539063 -2e-6,0.1692778 0.08463,0.2539131 0.253906,0.2539062 l 5.234375,0 c 0.162753,6.9e-6 0.283196,0.032559 0.361328,0.097656 0.07812,0.0586 0.11718,0.1530014 0.117188,0.2832031 l 0,1.8847656 c -8e-6,0.9700558 -0.03256,1.6731801 -0.09766,2.109375 -0.08464,0.5989603 -0.266934,1.2174493 -0.546875,1.85546878 l 0.595704,0 c 0.260408,-0.64452998 0.432934,-1.26627408 0.517578,-1.86523438 0.07812,-0.5078095 0.117179,-1.230465 0.117187,-2.1679687 l 0,-1.8457032 c -8e-6,-0.2604098 -0.09766,-0.468743 -0.292969,-0.625 -0.19532,-0.1562426 -0.442715,-0.2343676 -0.742187,-0.234375 z m 1.513672,6.73828128 -7.56836,0 c -0.09115,6.7e-7 -0.162761,0.0227871 -0.214843,0.0683594 -0.04557,0.0520839 -0.07162,0.11067758 -0.07813,0.17578125 -0.0065,0.0651045 0.0098,0.12369822 0.04883,0.17578125 0.03906,0.0520835 0.0944,0.0781252 0.166015,0.078125 l 7.72461,0 c 0.07161,1.8e-7 0.126944,-0.0260415 0.166015,-0.078125 0.03905,-0.052083 0.05858,-0.11067672 0.05859,-0.17578125 -0.0065,-0.0651037 -0.03582,-0.12369736 -0.08789,-0.17578125 -0.05209,-0.0455723 -0.123707,-0.0683587 -0.214844,-0.0683594 z"
     style="font-style:normal;font-variant:normal;font-weight:normal;font-stretch:normal;font-family:Gulim;-inkscape-font-specification:Gulim"
     id="path3132" /><path
     d="m 34.990234,-5.6054687 1.074219,0 0,5.41992183 c -3e-6,0.11067715 0.02929,0.2018229 0.08789,0.27343749 0.05859,0.05859361 0.130205,0.09114566 0.214843,0.09765625 0.07812,-1.8e-7 0.146482,-0.0325522 0.205079,-0.09765625 0.0651,-0.06510418 0.09765,-0.15299472 0.09766,-0.26367187 l 0,-6.92382815 c -3e-6,-0.1692635 -0.08464,-0.2506437 -0.253906,-0.2441406 -0.169274,0.00652 -0.257165,0.087898 -0.263672,0.2441406 -0.01953,0.3841213 -0.139977,0.6608138 -0.361328,0.8300782 -0.188805,0.1432352 -0.465497,0.2148498 -0.830079,0.2148437 -0.149741,6.1e-6 -0.221355,0.074876 -0.214843,0.2246094 0.0065,0.1497452 0.08789,0.224615 0.24414,0.2246094 z"
     style="font-style:normal;font-variant:normal;font-weight:normal;font-stretch:normal;font-family:Gulim;-inkscape-font-specification:Gulim"
     id="path3134" /></g>

	<g
   transform="translate(591.5713,167.9087)"
   style="font-size:10px;font-family:Arial-BoldMT"
   id="text160"><path
     d="m 5.4003906,-7.3730469 -3.0566406,0 c -0.3059916,7.4e-6 -0.550132,0.087898 -0.7324219,0.2636719 -0.1692723,0.1692778 -0.2539076,0.3971421 -0.2539062,0.6835938 l 0,5.0488281 c -1.4e-6,0.3385427 0.0944,0.59895909 0.2832031,0.78124998 0.1822898,0.17578166 0.4524719,0.2636722 0.8105469,0.26367187 0.7942676,3.3e-7 1.5331991,-0.0618486 2.2167968,-0.18554687 0.7617134,-0.1367181 1.4029888,-0.34179602 1.9238282,-0.61523438 0.084629,-0.052082 0.1399672,-0.1171862 0.1660156,-0.1953125 0.032545,-0.078124 0.032545,-0.1497381 0,-0.2148437 -0.026048,-0.071613 -0.071621,-0.1171859 -0.1367188,-0.1367188 -0.071621,-0.02604 -0.149746,-0.013019 -0.234375,0.039063 -0.4752663,0.2473972 -1.0612032,0.4459647 -1.7578125,0.5957031 -0.6901081,0.14323009 -1.4095084,0.21484461 -2.1582031,0.21484377 -0.1822939,8.4e-7 -0.3157573,-0.0423168 -0.4003906,-0.12695312 C 1.9791647,-1.048176 1.9335918,-1.1881499 1.9335937,-1.3769531 l 0,-5.0195313 c -1.9e-6,-0.1757747 0.029295,-0.2994724 0.087891,-0.3710937 0.065102,-0.071608 0.1790342,-0.107415 0.3417969,-0.1074219 l 3.0273437,0 c 0.1887965,6.9e-6 0.2864527,-0.084628 0.2929687,-0.2539062 -5.6e-6,-0.1627532 -0.094407,-0.2441333 -0.2832031,-0.2441407 z m 2.7441407,7.5683594 0,-7.5976562 c -8.2e-6,-0.084628 -0.03256,-0.1529873 -0.097656,-0.2050782 -0.052091,-0.039055 -0.1171954,-0.058586 -0.1953125,-0.058594 -0.084643,7.6e-6 -0.1530025,0.019539 -0.2050781,0.058594 -0.058601,0.052091 -0.087898,0.1204502 -0.087891,0.2050782 l 0,7.5976562 c -7.5e-6,0.0911456 0.029289,0.16601526 0.087891,0.22460938 0.052076,0.0520829 0.1204349,0.0781245 0.2050781,0.078125 0.078117,-5e-7 0.1432212,-0.0260421 0.1953125,-0.078125 0.065096,-0.0585941 0.097648,-0.13346383 0.097656,-0.22460938 z"
     style="font-style:normal;font-variant:normal;font-weight:normal;font-stretch:normal;font-family:Gulim;-inkscape-font-specification:Gulim"
     id="path3119" /><path
     d="m 14.716797,-7.2558594 c -5e-6,1.0091209 -0.348312,1.8717502 -1.044922,2.5878907 -0.598961,0.6184936 -1.302086,1.0091182 -2.109375,1.1718749 -0.104168,0.019535 -0.179038,0.061852 -0.224609,0.1269532 -0.04558,0.052087 -0.06511,0.1139355 -0.05859,0.1855468 0.01302,0.065107 0.04883,0.1171906 0.107422,0.15625 0.0651,0.039065 0.146483,0.052086 0.24414,0.039063 0.787758,-0.1562468 1.503903,-0.5305954 2.148438,-1.1230468 C 14.397782,-4.6647089 14.804683,-5.270177 15,-5.9277344 c 0.208328,0.651047 0.615229,1.2565151 1.220703,1.8164063 0.638014,0.585941 1.334628,0.9570344 2.089844,1.1132812 0.110669,0.019534 0.205069,0.00977 0.283203,-0.029297 0.0651,-0.039059 0.104158,-0.094398 0.117187,-0.1660156 0.01952,-0.071611 0.0065,-0.1367154 -0.03906,-0.1953125 -0.05209,-0.065101 -0.126962,-0.1074184 -0.224609,-0.1269531 -0.852873,-0.1757776 -1.572273,-0.5664022 -2.158204,-1.171875 -0.670578,-0.6966092 -1.005864,-1.5462177 -1.005859,-2.5488281 -5e-6,-0.1041594 -0.03256,-0.1887947 -0.09766,-0.2539063 -0.05209,-0.052076 -0.113937,-0.078117 -0.185547,-0.078125 -0.07813,7.6e-6 -0.143234,0.026049 -0.195312,0.078125 -0.0586,0.058601 -0.0879,0.1367261 -0.08789,0.234375 z m 4.072265,6.58203128 -7.578124,0 c -0.195314,6.7e-7 -0.29297,0.0813808 -0.292969,0.24414062 -10e-7,0.16927109 0.09766,0.25390643 0.292969,0.25390625 l 7.58789,0 c 0.08463,1.8e-7 0.152986,-0.0260415 0.205078,-0.078125 0.05207,-0.052083 0.07812,-0.11067672 0.07813,-0.17578125 -9e-6,-0.0651037 -0.02605,-0.12369736 -0.07813,-0.17578125 -0.05209,-0.0455723 -0.123707,-0.0683587 -0.214844,-0.0683594 z"
     style="font-style:normal;font-variant:normal;font-weight:normal;font-stretch:normal;font-family:Gulim;-inkscape-font-specification:Gulim"
     id="path3121" /><path
     d="m 27.324219,-4.5410156 c -0.781257,0.09115 -1.712245,0.1627648 -2.792969,0.2148437 -0.989587,0.052088 -1.920576,0.078129 -2.792969,0.078125 -0.195314,4.3e-6 -0.289715,0.081384 -0.283203,0.2441407 0.01302,0.1692746 0.10742,0.2539099 0.283203,0.2539062 0.872393,3.7e-6 1.822913,-0.029293 2.851563,-0.087891 1.002598,-0.05859 1.923821,-0.1334596 2.763672,-0.2246094 0.162753,-0.019527 0.237622,-0.1106729 0.224609,-0.2734375 -0.01303,-0.1627559 -0.09766,-0.2311152 -0.253906,-0.2050781 z m -0.05859,-2.8710938 -5.253906,0 c -0.175783,7.4e-6 -0.263674,0.084643 -0.263672,0.2539063 -2e-6,0.1692778 0.08463,0.2539131 0.253906,0.2539062 l 5.234375,0 c 0.162753,6.9e-6 0.283196,0.032559 0.361328,0.097656 0.07812,0.0586 0.11718,0.1530014 0.117188,0.2832031 l 0,1.8847656 c -8e-6,0.9700558 -0.03256,1.6731801 -0.09766,2.109375 -0.08464,0.5989603 -0.266934,1.2174493 -0.546875,1.85546878 l 0.595704,0 c 0.260408,-0.64452998 0.432934,-1.26627408 0.517578,-1.86523438 0.07812,-0.5078095 0.117179,-1.230465 0.117187,-2.1679687 l 0,-1.8457032 c -8e-6,-0.2604098 -0.09766,-0.468743 -0.292969,-0.625 -0.19532,-0.1562426 -0.442715,-0.2343676 -0.742187,-0.234375 z m 1.513672,6.73828128 -7.56836,0 c -0.09115,6.7e-7 -0.162761,0.0227871 -0.214843,0.0683594 -0.04557,0.0520839 -0.07162,0.11067758 -0.07813,0.17578125 -0.0065,0.0651045 0.0098,0.12369822 0.04883,0.17578125 0.03906,0.0520835 0.0944,0.0781252 0.166015,0.078125 l 7.72461,0 c 0.07161,1.8e-7 0.126944,-0.0260415 0.166015,-0.078125 0.03905,-0.052083 0.05858,-0.11067672 0.05859,-0.17578125 -0.0065,-0.0651037 -0.03582,-0.12369736 -0.08789,-0.17578125 -0.05209,-0.0455723 -0.123707,-0.0683587 -0.214844,-0.0683594 z"
     style="font-style:normal;font-variant:normal;font-weight:normal;font-stretch:normal;font-family:Gulim;-inkscape-font-specification:Gulim"
     id="path3123" /><path
     d="m 36.230469,-7.34375 c -0.664065,7.3e-6 -1.191408,0.2050853 -1.582032,0.6152344 -0.345053,0.3645897 -0.517578,0.813808 -0.517578,1.3476562 l 0,0.2539063 c 0,0.1106821 0.0293,0.1985726 0.08789,0.2636719 0.05859,0.058599 0.130207,0.087895 0.214844,0.087891 0.08463,4.8e-6 0.156249,-0.029292 0.214843,-0.087891 0.0651,-0.058589 0.09765,-0.1367138 0.09766,-0.234375 l 0,-0.2832032 c -2e-6,-0.3906192 0.123696,-0.7161397 0.371093,-0.9765625 0.273436,-0.2929621 0.644529,-0.4394463 1.113282,-0.4394531 0.468746,6.8e-6 0.843095,0.146491 1.123047,0.4394531 0.247391,0.2604228 0.371089,0.5859433 0.371093,0.9765625 -4e-6,0.4752653 -0.146488,0.8789108 -0.439453,1.2109375 -0.227868,0.2473998 -0.667321,0.5729203 -1.318359,0.9765625 -0.683596,0.4101591 -1.184897,0.8561222 -1.503906,1.3378907 -0.351564,0.527345 -0.52409,1.1490892 -0.517579,1.86523433 l 4.267579,0 c 0.08463,-1e-8 0.152989,-0.02929686 0.205078,-0.08789063 0.05208,-0.0520832 0.07812,-0.1139321 0.07813,-0.18554688 -5e-6,-0.0781246 -0.02605,-0.14322875 -0.07813,-0.1953125 -0.05209,-0.0520828 -0.120448,-0.0781245 -0.205078,-0.078125 l -3.623047,0 c 0.04557,-0.46874903 0.179035,-0.85286323 0.40039,-1.15234373 0.253905,-0.3515605 0.725909,-0.7421851 1.416016,-1.171875 l 0.195312,-0.1367188 c 0.638017,-0.4036424 1.057939,-0.7226525 1.259766,-0.9570312 0.319006,-0.364579 0.478511,-0.839839 0.478516,-1.4257813 -5e-6,-0.5338482 -0.175786,-0.9830665 -0.527344,-1.3476562 -0.397139,-0.4101491 -0.924483,-0.6152271 -1.582031,-0.6152344 z"
     style="font-style:normal;font-variant:normal;font-weight:normal;font-stretch:normal;font-family:Gulim;-inkscape-font-specification:Gulim"
     id="path3125" /></g>

	<g
   transform="matrix(1 0 0 1 503.2451 233.792)"
   style="font-size:10px;font-family:Arial-BoldMT"
   id="text162"><path
     d="m 2.8173828,0 -2.77343749,-7.1582031 1.02539059,0 1.8603516,5.2001953 C 3.079424,-1.5413396 3.2047494,-1.150715 3.3056641,-0.78613281 3.4163377,-1.1767566 3.5449183,-1.5673812 3.6914063,-1.9580078 L 5.625,-7.1582031 l 0.9667969,0 L 3.7890625,0 z"
     style="font-size:10px;font-family:Arial-BoldMT"
     id="path3179" /><path
     d="m 10.800781,-2.8076172 0,-0.8398437 3.032227,-0.00488 0,2.65625005 c -0.465502,0.37109437 -0.945644,0.65022821 -1.44043,0.83740234 -0.494797,0.18717445 -1.002609,0.2807616 -1.523437,0.28076172 -0.703129,-1.2e-7 -1.3419629,-0.15055335 -1.9165043,-0.45166015 C 8.3780907,-0.63069598 7.9443347,-1.0660797 7.6513672,-1.6357422 7.3583978,-2.2054014 7.2119135,-2.841794 7.2119141,-3.5449219 c -6e-7,-0.6966103 0.1456699,-1.3468375 0.4370117,-1.9506836 0.2913399,-0.603835 0.7104475,-1.0522395 1.2573242,-1.3452148 0.5468722,-0.2929616 1.176754,-0.4394459 1.889648,-0.4394531 0.517574,7.2e-6 0.98551,0.083829 1.403809,0.2514648 0.418288,0.1676501 0.74625,0.4012111 0.983887,0.7006836 0.237623,0.2994852 0.418287,0.6901098 0.541992,1.171875 l -0.854492,0.234375 c -0.107428,-0.364578 -0.240892,-0.6510361 -0.400391,-0.859375 -0.159511,-0.2083273 -0.387375,-0.3751566 -0.683594,-0.5004883 -0.296228,-0.1253191 -0.625004,-0.1879818 -0.986328,-0.1879883 -0.432946,6.5e-6 -0.8072947,0.065924 -1.1230466,0.1977539 -0.3157579,0.1318421 -0.5704777,0.3051818 -0.7641602,0.5200196 -0.1936869,0.2148493 -0.3442402,0.4508516 -0.4516601,0.7080078 -0.1822933,0.4427129 -0.273439,0.9228557 -0.2734375,1.4404297 -1.5e-6,0.6380238 0.1098616,1.1718774 0.3295898,1.6015625 0.2197245,0.429689 0.5395484,0.7486991 0.9594727,0.9570312 0.4199186,0.20833419 0.8658819,0.31250076 1.3378909,0.31250003 0.410151,7.3e-7 0.810542,-0.078938 1.201172,-0.23681641 0.390619,-0.15787652 0.686842,-0.32633332 0.888671,-0.50537112 l 0,-1.3330078 z"
     style="font-size:10px;font-family:Arial-BoldMT"
     id="path3181" /><path
     d="m 20.952148,0 -0.878906,0 0,-5.6005859 c -0.211591,0.2018283 -0.489097,0.403651 -0.832519,0.6054687 -0.343426,0.2018277 -0.651857,0.3531948 -0.925293,0.4541016 l 0,-0.8496094 c 0.491535,-0.2311142 0.921222,-0.5110618 1.289062,-0.8398437 0.367836,-0.3287695 0.628252,-0.6477796 0.78125,-0.9570313 l 0.566406,0 z"
     style="font-size:10px;font-family:Arial-BoldMT"
     id="path3183" /></g>

	<g
   transform="matrix(1 0 0 1 620.8936 233.792)"
   style="font-size:10px;font-family:Arial-BoldMT"
   id="text164"><path
     d="m 2.8173828,0 -2.77343749,-7.1582031 1.02539059,0 1.8603516,5.2001953 C 3.079424,-1.5413396 3.2047494,-1.150715 3.3056641,-0.78613281 3.4163377,-1.1767566 3.5449183,-1.5673812 3.6914063,-1.9580078 L 5.625,-7.1582031 l 0.9667969,0 L 3.7890625,0 z"
     style="font-size:10px;font-family:Arial-BoldMT"
     id="path3172" /><path
     d="m 10.800781,-2.8076172 0,-0.8398437 3.032227,-0.00488 0,2.65625005 c -0.465502,0.37109437 -0.945644,0.65022821 -1.44043,0.83740234 -0.494797,0.18717445 -1.002609,0.2807616 -1.523437,0.28076172 -0.703129,-1.2e-7 -1.3419629,-0.15055335 -1.9165043,-0.45166015 C 8.3780907,-0.63069598 7.9443347,-1.0660797 7.6513672,-1.6357422 7.3583978,-2.2054014 7.2119135,-2.841794 7.2119141,-3.5449219 c -6e-7,-0.6966103 0.1456699,-1.3468375 0.4370117,-1.9506836 0.2913399,-0.603835 0.7104475,-1.0522395 1.2573242,-1.3452148 0.5468722,-0.2929616 1.176754,-0.4394459 1.889648,-0.4394531 0.517574,7.2e-6 0.98551,0.083829 1.403809,0.2514648 0.418288,0.1676501 0.74625,0.4012111 0.983887,0.7006836 0.237623,0.2994852 0.418287,0.6901098 0.541992,1.171875 l -0.854492,0.234375 c -0.107428,-0.364578 -0.240892,-0.6510361 -0.400391,-0.859375 -0.159511,-0.2083273 -0.387375,-0.3751566 -0.683594,-0.5004883 -0.296228,-0.1253191 -0.625004,-0.1879818 -0.986328,-0.1879883 -0.432946,6.5e-6 -0.8072947,0.065924 -1.1230466,0.1977539 -0.3157579,0.1318421 -0.5704777,0.3051818 -0.7641602,0.5200196 -0.1936869,0.2148493 -0.3442402,0.4508516 -0.4516601,0.7080078 -0.1822933,0.4427129 -0.273439,0.9228557 -0.2734375,1.4404297 -1.5e-6,0.6380238 0.1098616,1.1718774 0.3295898,1.6015625 0.2197245,0.429689 0.5395484,0.7486991 0.9594727,0.9570312 0.4199186,0.20833419 0.8658819,0.31250076 1.3378909,0.31250003 0.410151,7.3e-7 0.810542,-0.078938 1.201172,-0.23681641 0.390619,-0.15787652 0.686842,-0.32633332 0.888671,-0.50537112 l 0,-1.3330078 z"
     style="font-size:10px;font-family:Arial-BoldMT"
     id="path3174" /><path
     d="M 22.260742,-0.84472656 22.260742,0 17.529297,0 c -0.0065,-0.21158833 0.02767,-0.41503865 0.102539,-0.61035156 0.120442,-0.32226469 0.313313,-0.63964714 0.578613,-0.95214844 0.265298,-0.3124981 0.648599,-0.6738259 1.149903,-1.0839844 0.777991,-0.6380175 1.303707,-1.1433881 1.577148,-1.5161133 0.273434,-0.3727168 0.410152,-0.7250927 0.410156,-1.0571289 -4e-6,-0.3483017 -0.124515,-0.6420839 -0.373535,-0.8813476 C 20.725094,-6.3403257 20.400387,-6.4599545 20,-6.4599609 c -0.423179,6.4e-6 -0.761721,0.1269594 -1.015625,0.3808593 -0.253908,0.2539121 -0.382488,0.6054743 -0.385742,1.0546875 l -0.903321,-0.092773 c 0.06185,-0.6738223 0.294596,-1.1873309 0.698243,-1.5405273 0.403644,-0.3531831 0.945636,-0.529778 1.625976,-0.5297852 0.686846,7.2e-6 1.230465,0.1904367 1.63086,0.5712891 0.400385,0.3808656 0.600581,0.8528703 0.600586,1.4160156 -5e-6,0.2864632 -0.0586,0.5680385 -0.175782,0.8447266 -0.117192,0.2766967 -0.31169,0.5680376 -0.583496,0.8740234 -0.271814,0.3059927 -0.723473,0.7259142 -1.35498,1.2597656 -0.527346,0.4427101 -0.865888,0.7430028 -1.015625,0.9008789 -0.149742,0.1578788 -0.273439,0.31657 -0.371094,0.47607424 z"
     style="font-size:10px;font-family:Arial-BoldMT"
     id="path3176" /></g>

	<g
   transform="matrix(1 0 0 1 471.1387 280.8506)"
   style="font-size:10px;font-family:Arial-BoldMT"
   id="text166"><path
     d="m 0.73242187,0 0,-7.1582031 0.94726563,0 0,6.31347654 3.5253906,0 0,0.84472656 z"
     style="font-size:10px;font-family:Arial-BoldMT"
     id="path3165" /><path
     d="m 8.3837891,0 -2.7734375,-7.1582031 1.0253906,0 1.8603516,5.2001953 C 8.6458303,-1.5413396 8.7711556,-1.150715 8.8720703,-0.78613281 8.982744,-1.1767566 9.1113246,-1.5673812 9.2578125,-1.9580078 l 1.9335935,-5.2001953 0.966797,0 L 9.3554688,0 z"
     style="font-size:10px;font-family:Arial-BoldMT"
     id="path3167" /><path
     d="m 18.745117,0 -0.878906,0 0,-5.6005859 c -0.211591,0.2018283 -0.489097,0.403651 -0.83252,0.6054687 -0.343426,0.2018277 -0.651856,0.3531948 -0.925293,0.4541016 l 0,-0.8496094 c 0.491535,-0.2311142 0.921222,-0.5110618 1.289063,-0.8398437 0.367836,-0.3287695 0.628252,-0.6477796 0.78125,-0.9570313 l 0.566406,0 z"
     style="font-size:10px;font-family:Arial-BoldMT"
     id="path3169" /></g>

	<g
   transform="matrix(1 0 0 1 539.3857 280.8506)"
   style="font-size:10px;font-family:Arial-BoldMT"
   id="text168"><path
     d="m 0.73242187,0 0,-7.1582031 0.94726563,0 0,6.31347654 3.5253906,0 0,0.84472656 z"
     style="font-size:10px;font-family:Arial-BoldMT"
     id="path3158" /><path
     d="m 8.3837891,0 -2.7734375,-7.1582031 1.0253906,0 1.8603516,5.2001953 C 8.6458303,-1.5413396 8.7711556,-1.150715 8.8720703,-0.78613281 8.982744,-1.1767566 9.1113246,-1.5673812 9.2578125,-1.9580078 l 1.9335935,-5.2001953 0.966797,0 L 9.3554688,0 z"
     style="font-size:10px;font-family:Arial-BoldMT"
     id="path3160" /><path
     d="M 20.053711,-0.84472656 20.053711,0 15.322266,0 c -0.0065,-0.21158833 0.02767,-0.41503865 0.102539,-0.61035156 0.120442,-0.32226469 0.313313,-0.63964714 0.578613,-0.95214844 0.265298,-0.3124981 0.648599,-0.6738259 1.149902,-1.0839844 0.777992,-0.6380175 1.303708,-1.1433881 1.577149,-1.5161133 0.273433,-0.3727168 0.410152,-0.7250927 0.410156,-1.0571289 -4e-6,-0.3483017 -0.124516,-0.6420839 -0.373535,-0.8813476 -0.249027,-0.2392515 -0.573734,-0.3588803 -0.974121,-0.3588867 -0.42318,6.4e-6 -0.761721,0.1269594 -1.015625,0.3808593 -0.253908,0.2539121 -0.382489,0.6054743 -0.385742,1.0546875 l -0.903321,-0.092773 c 0.06185,-0.6738223 0.294596,-1.1873309 0.698242,-1.5405273 0.403645,-0.3531831 0.945636,-0.529778 1.625977,-0.5297852 0.686845,7.2e-6 1.230465,0.1904367 1.630859,0.5712891 0.400386,0.3808656 0.600581,0.8528703 0.600586,1.4160156 -5e-6,0.2864632 -0.0586,0.5680385 -0.175781,0.8447266 -0.117192,0.2766967 -0.311691,0.5680376 -0.583496,0.8740234 -0.271814,0.3059927 -0.723474,0.7259142 -1.354981,1.2597656 -0.527346,0.4427101 -0.865887,0.7430028 -1.015625,0.9008789 -0.149741,0.1578788 -0.273439,0.31657 -0.371093,0.47607424 z"
     style="font-size:10px;font-family:Arial-BoldMT"
     id="path3162" /></g>

	<g
   transform="matrix(1 0 0 1 598.1982 280.8506)"
   style="font-size:10px;font-family:Arial-BoldMT"
   id="text170"><path
     d="m 0.73242187,0 0,-7.1582031 0.94726563,0 0,6.31347654 3.5253906,0 0,0.84472656 z"
     style="font-size:10px;font-family:Arial-BoldMT"
     id="path3151" /><path
     d="m 8.3837891,0 -2.7734375,-7.1582031 1.0253906,0 1.8603516,5.2001953 C 8.6458303,-1.5413396 8.7711556,-1.150715 8.8720703,-0.78613281 8.982744,-1.1767566 9.1113246,-1.5673812 9.2578125,-1.9580078 l 1.9335935,-5.2001953 0.966797,0 L 9.3554688,0 z"
     style="font-size:10px;font-family:Arial-BoldMT"
     id="path3153" /><path
     d="m 15.439453,-1.8896484 0.878906,-0.1171875 c 0.10091,0.4980483 0.272623,0.8569347 0.515137,1.07666012 0.242511,0.21972727 0.537921,0.32959044 0.886231,0.32958984 0.413408,6e-7 0.762529,-0.14322842 1.047363,-0.42968746 0.284827,-0.2864571 0.427242,-0.6412744 0.427246,-1.0644532 -4e-6,-0.4036433 -0.13184,-0.736488 -0.395508,-0.9985351 -0.263675,-0.2620409 -0.598961,-0.3930629 -1.005859,-0.3930664 -0.166018,3.5e-6 -0.372724,0.032555 -0.620117,0.097656 l 0.09766,-0.7714843 c 0.05859,0.00651 0.105792,0.00977 0.141601,0.00977 0.374347,4.1e-6 0.71126,-0.097652 1.010743,-0.2929688 0.299475,-0.1953078 0.449214,-0.4964143 0.449218,-0.9033203 -4e-6,-0.3222599 -0.109053,-0.5891868 -0.327148,-0.8007812 -0.218102,-0.2115822 -0.499678,-0.3173764 -0.844727,-0.3173828 -0.341799,6.4e-6 -0.626629,0.1074282 -0.854492,0.3222656 -0.227866,0.2148497 -0.37435,0.537115 -0.439453,0.9667969 l -0.878906,-0.15625 c 0.107421,-0.5891868 0.351561,-1.0457293 0.732422,-1.369629 0.380857,-0.3238862 0.85449,-0.4858326 1.420898,-0.4858398 0.390622,7.2e-6 0.750322,0.083829 1.079102,0.2514648 0.328772,0.16765 0.580236,0.3963282 0.754394,0.6860352 0.174149,0.2897195 0.261226,0.5973364 0.261231,0.9228516 -5e-6,0.3092498 -0.08301,0.590825 -0.249024,0.8447265 -0.16602,0.2539105 -0.411788,0.4557332 -0.737305,0.6054688 0.423173,0.09766 0.751949,0.3002965 0.986329,0.6079101 0.23437,0.3076202 0.351557,0.6925482 0.351562,1.1547852 -5e-6,0.6250015 -0.227869,1.1547861 -0.683594,1.58935546 C 18.987626,-0.09033194 18.411455,0.126953 17.714844,0.12695312 17.086586,0.126953 16.56494,-0.06022129 16.149902,-0.43457031 15.734863,-0.80891846 15.498046,-1.293944 15.439453,-1.8896484 z"
     style="font-size:10px;font-family:Arial-BoldMT"
     id="path3155" /></g>

	<g
   transform="matrix(1 0 0 1 645.2334 280.8506)"
   style="font-size:10px;font-family:Arial-BoldMT"
   id="text172"><path
     d="m 0.73242187,0 0,-7.1582031 0.94726563,0 0,6.31347654 3.5253906,0 0,0.84472656 z"
     style="font-size:10px;font-family:Arial-BoldMT"
     id="path3144" /><path
     d="m 8.3837891,0 -2.7734375,-7.1582031 1.0253906,0 1.8603516,5.2001953 C 8.6458303,-1.5413396 8.7711556,-1.150715 8.8720703,-0.78613281 8.982744,-1.1767566 9.1113246,-1.5673812 9.2578125,-1.9580078 l 1.9335935,-5.2001953 0.966797,0 L 9.3554688,0 z"
     style="font-size:10px;font-family:Arial-BoldMT"
     id="path3146" /><path
     d="m 18.251953,0 0,-1.7138672 -3.105469,0 0,-0.8056641 3.266602,-4.6386718 0.717773,0 0,4.6386718 0.966797,0 0,0.8056641 -0.966797,0 0,1.7138672 z m 0,-2.5195313 0,-3.227539 -2.241211,3.227539 z"
     style="font-size:10px;font-family:Arial-BoldMT"
     id="path3148" /></g>

</g>
</svg>