<?xml version="1.0" encoding="UTF-8" standalone="no"?>
<!-- Generator: Adobe Illustrator 15.1.0, SVG Export Plug-In . SVG Version: 6.00 Build 0)  -->

<svg
   xmlns:dc="http://purl.org/dc/elements/1.1/"
   xmlns:cc="http://creativecommons.org/ns#"
   xmlns:rdf="http://www.w3.org/1999/02/22-rdf-syntax-ns#"
   xmlns:svg="http://www.w3.org/2000/svg"
   xmlns="http://www.w3.org/2000/svg"
   xmlns:sodipodi="http://sodipodi.sourceforge.net/DTD/sodipodi-0.dtd"
   xmlns:inkscape="http://www.inkscape.org/namespaces/inkscape"
   version="1.1"
   x="0px"
   y="0px"
   width="420.6px"
   height="199.432px"
   viewBox="260.125 133.971 420.6 199.432"
   enable-background="new 260.125 133.971 420.6 199.432"
   xml:space="preserve"
   id="svg2"
   inkscape:version="0.48.1 "
   sodipodi:docname="lvm.svg"><metadata
   id="metadata178"><rdf:RDF><cc:Work
       rdf:about=""><dc:format>image/svg+xml</dc:format><dc:type
         rdf:resource="http://purl.org/dc/dcmitype/StillImage" /></cc:Work></rdf:RDF></metadata><defs
   id="defs176" /><sodipodi:namedview
   pagecolor="#ffffff"
   bordercolor="#666666"
   borderopacity="1"
   objecttolerance="10"
   gridtolerance="10"
   guidetolerance="10"
   inkscape:pageopacity="0"
   inkscape:pageshadow="2"
   inkscape:window-width="1920"
   inkscape:window-height="1033"
   id="namedview174"
   showgrid="false"
   inkscape:zoom="2.4155968"
   inkscape:cx="210.3"
   inkscape:cy="99.716003"
   inkscape:window-x="-4"
   inkscape:window-y="-4"
   inkscape:window-maximized="1"
   inkscape:current-layer="text" />
<g
   id="Layer_1">
	<g
   id="g5">
		<rect
   x="444.653"
   y="182.037"
   fill="none"
   stroke="#000000"
   stroke-width="1.6"
   width="47.035"
   height="23.505"
   id="rect7" />
		<rect
   x="491.712"
   y="182.037"
   fill="none"
   stroke="#000000"
   stroke-width="1.6"
   width="47.035"
   height="23.505"
   id="rect9" />
		<rect
   x="538.772"
   y="182.037"
   fill="none"
   stroke="#000000"
   stroke-width="1.6"
   width="47.034"
   height="23.505"
   id="rect11" />
		<rect
   x="585.831"
   y="182.037"
   fill="none"
   stroke="#000000"
   stroke-width="1.6"
   width="47.034"
   height="23.505"
   id="rect13" />
		<rect
   x="632.892"
   y="182.037"
   fill="none"
   stroke="#000000"
   stroke-width="1.6"
   width="47.034"
   height="23.505"
   id="rect15" />
		<rect
   x="261.146"
   y="134.978"
   fill="none"
   stroke="#000000"
   stroke-width="1.6"
   width="141.153"
   height="47.035"
   id="rect17" />
		<rect
   x="261.146"
   y="182.037"
   fill="none"
   stroke="#000000"
   stroke-width="1.6"
   width="47.035"
   height="117.624"
   id="rect19" />
		<rect
   x="308.205"
   y="182.037"
   fill="none"
   stroke="#000000"
   stroke-width="1.6"
   width="47.035"
   height="117.624"
   id="rect21" />
		<rect
   x="355.265"
   y="182.037"
   fill="none"
   stroke="#000000"
   stroke-width="1.6"
   width="47.035"
   height="117.624"
   id="rect23" />
		<rect
   x="261.146"
   y="299.687"
   fill="none"
   stroke="#000000"
   stroke-width="1.6"
   width="47.035"
   height="32.916"
   id="rect25" />
		<rect
   x="308.205"
   y="299.687"
   fill="none"
   stroke="#000000"
   stroke-width="1.6"
   width="47.035"
   height="32.916"
   id="rect27" />
		<rect
   x="355.265"
   y="299.687"
   fill="none"
   stroke="#000000"
   stroke-width="1.6"
   width="47.035"
   height="32.916"
   id="rect29" />
		<rect
   x="261.146"
   y="134.978"
   fill="none"
   stroke="#000000"
   stroke-width="1.6"
   width="141.153"
   height="197.625"
   id="rect31" />
		<rect
   x="444.653"
   y="205.567"
   fill="none"
   stroke="#000000"
   stroke-width="1.6"
   width="141.154"
   height="47.036"
   id="rect33" />
		<rect
   x="585.831"
   y="205.567"
   fill="none"
   stroke="#000000"
   stroke-width="1.6"
   width="94.095"
   height="47.036"
   id="rect35" />
		<rect
   x="444.653"
   y="134.978"
   fill="none"
   stroke="#000000"
   stroke-width="1.6"
   width="94.094"
   height="47.035"
   id="rect37" />
		<rect
   x="538.772"
   y="134.978"
   fill="none"
   stroke="#000000"
   stroke-width="1.6"
   width="141.153"
   height="47.035"
   id="rect39" />
		<rect
   x="444.653"
   y="134.978"
   fill="none"
   stroke="#000000"
   stroke-width="1.6"
   width="94.094"
   height="70.564"
   id="rect41" />
		<rect
   x="538.772"
   y="134.978"
   fill="none"
   stroke="#000000"
   stroke-width="1.6"
   width="141.153"
   height="70.564"
   id="rect43" />
		<rect
   x="444.653"
   y="252.626"
   fill="none"
   stroke="#000000"
   stroke-width="1.6"
   width="70.565"
   height="47.035"
   id="rect45" />
		<rect
   x="515.242"
   y="252.626"
   fill="none"
   stroke="#000000"
   stroke-width="1.6"
   width="70.564"
   height="47.035"
   id="rect47" />
		<rect
   x="585.831"
   y="252.626"
   fill="none"
   stroke="#000000"
   stroke-width="1.6"
   width="47.034"
   height="47.035"
   id="rect49" />
		<rect
   x="632.892"
   y="252.626"
   fill="none"
   stroke="#000000"
   stroke-width="1.6"
   width="47.034"
   height="47.035"
   id="rect51" />
		<rect
   x="444.653"
   y="299.687"
   fill="none"
   stroke="#000000"
   stroke-width="1.6"
   width="70.565"
   height="32.916"
   id="rect53" />
		<rect
   x="515.242"
   y="299.687"
   fill="none"
   stroke="#000000"
   stroke-width="1.6"
   width="70.564"
   height="32.916"
   id="rect55" />
		<rect
   x="585.831"
   y="299.687"
   fill="none"
   stroke="#000000"
   stroke-width="1.6"
   width="47.034"
   height="32.916"
   id="rect57" />
		<rect
   x="632.892"
   y="299.687"
   fill="none"
   stroke="#000000"
   stroke-width="1.6"
   width="47.034"
   height="32.916"
   id="rect59" />
		<rect
   x="444.653"
   y="205.567"
   fill="none"
   stroke="#000000"
   stroke-width="1.6"
   width="141.154"
   height="127.036"
   id="rect61" />
		<rect
   x="585.831"
   y="205.567"
   fill="none"
   stroke="#000000"
   stroke-width="1.6"
   width="94.095"
   height="127.036"
   id="rect63" />
	</g>
	<g
   id="g65">
		<rect
   x="444.653"
   y="181.83"
   fill="none"
   stroke="#000000"
   stroke-width="1.6"
   width="47.035"
   height="23.505"
   id="rect67" />
		<rect
   x="491.712"
   y="181.83"
   fill="none"
   stroke="#000000"
   stroke-width="1.6"
   width="47.035"
   height="23.505"
   id="rect69" />
		<rect
   x="538.772"
   y="181.83"
   fill="none"
   stroke="#000000"
   stroke-width="1.6"
   width="47.034"
   height="23.505"
   id="rect71" />
		<rect
   x="585.831"
   y="181.83"
   fill="none"
   stroke="#000000"
   stroke-width="1.6"
   width="47.034"
   height="23.505"
   id="rect73" />
		<rect
   x="632.892"
   y="181.83"
   fill="none"
   stroke="#000000"
   stroke-width="1.6"
   width="47.034"
   height="23.505"
   id="rect75" />
		<rect
   x="261.146"
   y="134.803"
   fill="none"
   stroke="#000000"
   stroke-width="1.6"
   width="141.153"
   height="47.035"
   id="rect77" />
		<rect
   x="261.146"
   y="181.83"
   fill="none"
   stroke="#000000"
   stroke-width="1.6"
   width="47.035"
   height="117.624"
   id="rect79" />
		<rect
   x="308.205"
   y="181.83"
   fill="none"
   stroke="#000000"
   stroke-width="1.6"
   width="47.035"
   height="117.624"
   id="rect81" />
		<rect
   x="355.265"
   y="181.83"
   fill="none"
   stroke="#000000"
   stroke-width="1.6"
   width="47.035"
   height="117.624"
   id="rect83" />
		<rect
   x="261.146"
   y="299.479"
   fill="none"
   stroke="#000000"
   stroke-width="1.6"
   width="47.035"
   height="32.916"
   id="rect85" />
		<rect
   x="308.205"
   y="299.479"
   fill="none"
   stroke="#000000"
   stroke-width="1.6"
   width="47.035"
   height="32.916"
   id="rect87" />
		<rect
   x="355.265"
   y="299.479"
   fill="none"
   stroke="#000000"
   stroke-width="1.6"
   width="47.035"
   height="32.916"
   id="rect89" />
		<rect
   x="260.925"
   y="134.771"
   fill="none"
   stroke="#000000"
   stroke-width="1.6"
   width="141.154"
   height="197.625"
   id="rect91" />
		<rect
   x="444.653"
   y="205.36"
   fill="none"
   stroke="#000000"
   stroke-width="1.6"
   width="141.154"
   height="47.036"
   id="rect93" />
		<rect
   x="585.831"
   y="205.36"
   fill="none"
   stroke="#000000"
   stroke-width="1.6"
   width="94.095"
   height="47.036"
   id="rect95" />
		<rect
   x="444.653"
   y="134.771"
   fill="none"
   stroke="#000000"
   stroke-width="1.6"
   width="94.094"
   height="47.035"
   id="rect97" />
		<rect
   x="538.772"
   y="134.771"
   fill="none"
   stroke="#000000"
   stroke-width="1.6"
   width="141.153"
   height="47.035"
   id="rect99" />
		<rect
   x="444.653"
   y="134.771"
   fill="none"
   stroke="#000000"
   stroke-width="1.6"
   width="94.094"
   height="70.564"
   id="rect101" />
		<rect
   x="538.772"
   y="134.771"
   fill="none"
   stroke="#000000"
   stroke-width="1.6"
   width="141.153"
   height="70.564"
   id="rect103" />
		<rect
   x="444.653"
   y="252.419"
   fill="none"
   stroke="#000000"
   stroke-width="1.6"
   width="70.565"
   height="47.035"
   id="rect105" />
		<rect
   x="515.242"
   y="252.419"
   fill="none"
   stroke="#000000"
   stroke-width="1.6"
   width="70.564"
   height="47.035"
   id="rect107" />
		<rect
   x="585.831"
   y="252.419"
   fill="none"
   stroke="#000000"
   stroke-width="1.6"
   width="47.034"
   height="47.035"
   id="rect109" />
		<rect
   x="632.892"
   y="252.419"
   fill="none"
   stroke="#000000"
   stroke-width="1.6"
   width="47.034"
   height="47.035"
   id="rect111" />
		<rect
   x="444.653"
   y="299.479"
   fill="none"
   stroke="#000000"
   stroke-width="1.6"
   width="70.565"
   height="32.916"
   id="rect113" />
		<rect
   x="515.242"
   y="299.479"
   fill="none"
   stroke="#000000"
   stroke-width="1.6"
   width="70.564"
   height="32.916"
   id="rect115" />
		<rect
   x="585.831"
   y="299.479"
   fill="none"
   stroke="#000000"
   stroke-width="1.6"
   width="47.034"
   height="32.916"
   id="rect117" />
		<rect
   x="632.892"
   y="299.479"
   fill="none"
   stroke="#000000"
   stroke-width="1.6"
   width="47.034"
   height="32.916"
   id="rect119" />
		<rect
   x="444.653"
   y="205.36"
   fill="none"
   stroke="#000000"
   stroke-width="1.6"
   width="141.154"
   height="127.036"
   id="rect121" />
		<rect
   x="585.831"
   y="205.36"
   fill="none"
   stroke="#000000"
   stroke-width="1.6"
   width="94.095"
   height="127.036"
   id="rect123" />
	</g>
</g>
<g
   id="text">
	<g
   transform="translate(453.7627,198.8501)"
   style="font-size:10px;font-family:Arial-BoldMT"
   id="text126"><path
     d="m 0.77148437,0 0,-7.1582031 2.70019533,0 c 0.4752565,7.1e-6 0.8382118,0.022794 1.0888672,0.068359 0.3515576,0.058601 0.6461536,0.1700915 0.883789,0.3344726 0.2376246,0.1643946 0.4288679,0.3947004 0.5737305,0.690918 0.1448506,0.2962297 0.2172789,0.6217502 0.2172852,0.9765625 -6.3e-6,0.6087284 -0.193691,1.1238646 -0.5810547,1.5454101 -0.3873751,0.4215526 -1.0872442,0.6323272 -2.0996094,0.6323242 l -1.8359375,0 L 1.71875,0 z M 1.71875,-3.7548828 l 1.8505859,0 c 0.611975,3.7e-6 1.0465449,-0.1139284 1.303711,-0.3417969 0.2571563,-0.2278602 0.3857369,-0.5484979 0.3857422,-0.961914 -5.3e-6,-0.2994739 -0.075689,-0.5558213 -0.2270508,-0.769043 C 4.8803662,-6.0408468 4.6809849,-6.1816344 4.4335937,-6.25 4.2740843,-6.292311 3.9794882,-6.31347 3.5498047,-6.313477 l -1.8310547,0 z"
     style="font-size:10px;font-family:Arial-BoldMT"
     id="path3181"
     inkscape:connector-curvature="0" /><path
     d="m 6.6650391,0 2.7490234,-7.1582031 1.0205075,0 L 13.364258,0 l -1.079102,0 -0.834961,-2.1679688 -2.9931637,0 L 7.6708984,0 z m 2.0654297,-2.9394531 2.4267582,0 -0.747071,-1.9824219 C 10.182288,-5.524083 10.013018,-6.0188742 9.9023438,-6.40625 9.8111948,-5.9472597 9.6826142,-5.491531 9.5166016,-5.0390625 z"
     style="font-size:10px;font-family:Arial-BoldMT"
     id="path3183"
     inkscape:connector-curvature="0" /><path
     d="m 14.145508,0 0,-7.1582031 3.173828,0 c 0.638016,7.1e-6 1.123042,0.064297 1.455078,0.1928711 0.332026,0.1285875 0.597325,0.3556381 0.795898,0.6811523 0.198562,0.3255268 0.297846,0.685227 0.297852,1.0791016 -6e-6,0.5078172 -0.164394,0.9358766 -0.493164,1.2841797 -0.328782,0.3483108 -0.836594,0.5696648 -1.523438,0.6640625 0.250647,0.1204458 0.441076,0.2392608 0.57129,0.3564453 0.276687,0.2539089 0.538731,0.5712914 0.786132,0.9521484 L 20.454102,0 19.262695,0 18.31543,-1.4892578 c -0.276698,-0.4296856 -0.504562,-0.7584613 -0.683594,-0.9863281 -0.179041,-0.2278619 -0.339359,-0.387367 -0.480957,-0.4785157 -0.141605,-0.091143 -0.285648,-0.1546192 -0.432129,-0.1904297 -0.107425,-0.022783 -0.283206,-0.034177 -0.527344,-0.03418 l -1.098633,0 0,3.1787109 z m 0.947265,-3.9990234 2.036133,0 c 0.432939,4e-6 0.77148,-0.044755 1.015625,-0.1342774 0.244136,-0.089514 0.429683,-0.232743 0.556641,-0.4296875 0.126948,-0.1969353 0.190424,-0.4109651 0.19043,-0.6420898 -6e-6,-0.3385361 -0.12289,-0.6168562 -0.368653,-0.834961 -0.245773,-0.2180927 -0.633956,-0.327142 -1.164551,-0.3271484 l -2.265625,0 z"
     style="font-size:10px;font-family:Arial-BoldMT"
     id="path3185"
     inkscape:connector-curvature="0" /><path
     d="m 23.178711,0 0,-6.3134766 -2.358399,0 0,-0.8447265 5.673829,0 0,0.8447265 -2.368164,0 0,6.3134766 z"
     style="font-size:10px;font-family:Arial-BoldMT"
     id="path3187"
     inkscape:connector-curvature="0" /></g>

	<g
   transform="translate(500.8223,198.8501)"
   style="font-size:10px;font-family:Arial-BoldMT"
   id="text128"><path
     d="m 0.77148437,0 0,-7.1582031 2.70019533,0 c 0.4752565,7.1e-6 0.8382118,0.022794 1.0888672,0.068359 0.3515576,0.058601 0.6461536,0.1700915 0.883789,0.3344726 0.2376246,0.1643946 0.4288679,0.3947004 0.5737305,0.690918 0.1448506,0.2962297 0.2172789,0.6217502 0.2172852,0.9765625 -6.3e-6,0.6087284 -0.193691,1.1238646 -0.5810547,1.5454101 -0.3873751,0.4215526 -1.0872442,0.6323272 -2.0996094,0.6323242 l -1.8359375,0 L 1.71875,0 z M 1.71875,-3.7548828 l 1.8505859,0 c 0.611975,3.7e-6 1.0465449,-0.1139284 1.303711,-0.3417969 0.2571563,-0.2278602 0.3857369,-0.5484979 0.3857422,-0.961914 -5.3e-6,-0.2994739 -0.075689,-0.5558213 -0.2270508,-0.769043 C 4.8803662,-6.0408468 4.6809849,-6.1816344 4.4335937,-6.25 4.2740843,-6.292311 3.9794882,-6.31347 3.5498047,-6.313477 l -1.8310547,0 z"
     style="font-size:10px;font-family:Arial-BoldMT"
     id="path3172"
     inkscape:connector-curvature="0" /><path
     d="m 6.6650391,0 2.7490234,-7.1582031 1.0205075,0 L 13.364258,0 l -1.079102,0 -0.834961,-2.1679688 -2.9931637,0 L 7.6708984,0 z m 2.0654297,-2.9394531 2.4267582,0 -0.747071,-1.9824219 C 10.182288,-5.524083 10.013018,-6.0188742 9.9023438,-6.40625 9.8111948,-5.9472597 9.6826142,-5.491531 9.5166016,-5.0390625 z"
     style="font-size:10px;font-family:Arial-BoldMT"
     id="path3174"
     inkscape:connector-curvature="0" /><path
     d="m 14.145508,0 0,-7.1582031 3.173828,0 c 0.638016,7.1e-6 1.123042,0.064297 1.455078,0.1928711 0.332026,0.1285875 0.597325,0.3556381 0.795898,0.6811523 0.198562,0.3255268 0.297846,0.685227 0.297852,1.0791016 -6e-6,0.5078172 -0.164394,0.9358766 -0.493164,1.2841797 -0.328782,0.3483108 -0.836594,0.5696648 -1.523438,0.6640625 0.250647,0.1204458 0.441076,0.2392608 0.57129,0.3564453 0.276687,0.2539089 0.538731,0.5712914 0.786132,0.9521484 L 20.454102,0 19.262695,0 18.31543,-1.4892578 c -0.276698,-0.4296856 -0.504562,-0.7584613 -0.683594,-0.9863281 -0.179041,-0.2278619 -0.339359,-0.387367 -0.480957,-0.4785157 -0.141605,-0.091143 -0.285648,-0.1546192 -0.432129,-0.1904297 -0.107425,-0.022783 -0.283206,-0.034177 -0.527344,-0.03418 l -1.098633,0 0,3.1787109 z m 0.947265,-3.9990234 2.036133,0 c 0.432939,4e-6 0.77148,-0.044755 1.015625,-0.1342774 0.244136,-0.089514 0.429683,-0.232743 0.556641,-0.4296875 0.126948,-0.1969353 0.190424,-0.4109651 0.19043,-0.6420898 -6e-6,-0.3385361 -0.12289,-0.6168562 -0.368653,-0.834961 -0.245773,-0.2180927 -0.633956,-0.327142 -1.164551,-0.3271484 l -2.265625,0 z"
     style="font-size:10px;font-family:Arial-BoldMT"
     id="path3176"
     inkscape:connector-curvature="0" /><path
     d="m 23.178711,0 0,-6.3134766 -2.358399,0 0,-0.8447265 5.673829,0 0,0.8447265 -2.368164,0 0,6.3134766 z"
     style="font-size:10px;font-family:Arial-BoldMT"
     id="path3178"
     inkscape:connector-curvature="0" /></g>

	<g
   transform="translate(547.8818,198.8501)"
   style="font-size:10px;font-family:Arial-BoldMT"
   id="text130"><path
     d="m 0.77148437,0 0,-7.1582031 2.70019533,0 c 0.4752565,7.1e-6 0.8382118,0.022794 1.0888672,0.068359 0.3515576,0.058601 0.6461536,0.1700915 0.883789,0.3344726 0.2376246,0.1643946 0.4288679,0.3947004 0.5737305,0.690918 0.1448506,0.2962297 0.2172789,0.6217502 0.2172852,0.9765625 -6.3e-6,0.6087284 -0.193691,1.1238646 -0.5810547,1.5454101 -0.3873751,0.4215526 -1.0872442,0.6323272 -2.0996094,0.6323242 l -1.8359375,0 L 1.71875,0 z M 1.71875,-3.7548828 l 1.8505859,0 c 0.611975,3.7e-6 1.0465449,-0.1139284 1.303711,-0.3417969 0.2571563,-0.2278602 0.3857369,-0.5484979 0.3857422,-0.961914 -5.3e-6,-0.2994739 -0.075689,-0.5558213 -0.2270508,-0.769043 C 4.8803662,-6.0408468 4.6809849,-6.1816344 4.4335937,-6.25 4.2740843,-6.292311 3.9794882,-6.31347 3.5498047,-6.313477 l -1.8310547,0 z"
     style="font-size:10px;font-family:Arial-BoldMT"
     id="path3163"
     inkscape:connector-curvature="0" /><path
     d="m 6.6650391,0 2.7490234,-7.1582031 1.0205075,0 L 13.364258,0 l -1.079102,0 -0.834961,-2.1679688 -2.9931637,0 L 7.6708984,0 z m 2.0654297,-2.9394531 2.4267582,0 -0.747071,-1.9824219 C 10.182288,-5.524083 10.013018,-6.0188742 9.9023438,-6.40625 9.8111948,-5.9472597 9.6826142,-5.491531 9.5166016,-5.0390625 z"
     style="font-size:10px;font-family:Arial-BoldMT"
     id="path3165"
     inkscape:connector-curvature="0" /><path
     d="m 14.145508,0 0,-7.1582031 3.173828,0 c 0.638016,7.1e-6 1.123042,0.064297 1.455078,0.1928711 0.332026,0.1285875 0.597325,0.3556381 0.795898,0.6811523 0.198562,0.3255268 0.297846,0.685227 0.297852,1.0791016 -6e-6,0.5078172 -0.164394,0.9358766 -0.493164,1.2841797 -0.328782,0.3483108 -0.836594,0.5696648 -1.523438,0.6640625 0.250647,0.1204458 0.441076,0.2392608 0.57129,0.3564453 0.276687,0.2539089 0.538731,0.5712914 0.786132,0.9521484 L 20.454102,0 19.262695,0 18.31543,-1.4892578 c -0.276698,-0.4296856 -0.504562,-0.7584613 -0.683594,-0.9863281 -0.179041,-0.2278619 -0.339359,-0.387367 -0.480957,-0.4785157 -0.141605,-0.091143 -0.285648,-0.1546192 -0.432129,-0.1904297 -0.107425,-0.022783 -0.283206,-0.034177 -0.527344,-0.03418 l -1.098633,0 0,3.1787109 z m 0.947265,-3.9990234 2.036133,0 c 0.432939,4e-6 0.77148,-0.044755 1.015625,-0.1342774 0.244136,-0.089514 0.429683,-0.232743 0.556641,-0.4296875 0.126948,-0.1969353 0.190424,-0.4109651 0.19043,-0.6420898 -6e-6,-0.3385361 -0.12289,-0.6168562 -0.368653,-0.834961 -0.245773,-0.2180927 -0.633956,-0.327142 -1.164551,-0.3271484 l -2.265625,0 z"
     style="font-size:10px;font-family:Arial-BoldMT"
     id="path3167"
     inkscape:connector-curvature="0" /><path
     d="m 23.178711,0 0,-6.3134766 -2.358399,0 0,-0.8447265 5.673829,0 0,0.8447265 -2.368164,0 0,6.3134766 z"
     style="font-size:10px;font-family:Arial-BoldMT"
     id="path3169"
     inkscape:connector-curvature="0" /></g>

	<g
   transform="translate(594.9424,198.8501)"
   style="font-size:10px;font-family:Arial-BoldMT"
   id="text132"><path
     d="m 0.77148437,0 0,-7.1582031 2.70019533,0 c 0.4752565,7.1e-6 0.8382118,0.022794 1.0888672,0.068359 0.3515576,0.058601 0.6461536,0.1700915 0.883789,0.3344726 0.2376246,0.1643946 0.4288679,0.3947004 0.5737305,0.690918 0.1448506,0.2962297 0.2172789,0.6217502 0.2172852,0.9765625 -6.3e-6,0.6087284 -0.193691,1.1238646 -0.5810547,1.5454101 -0.3873751,0.4215526 -1.0872442,0.6323272 -2.0996094,0.6323242 l -1.8359375,0 L 1.71875,0 z M 1.71875,-3.7548828 l 1.8505859,0 c 0.611975,3.7e-6 1.0465449,-0.1139284 1.303711,-0.3417969 0.2571563,-0.2278602 0.3857369,-0.5484979 0.3857422,-0.961914 -5.3e-6,-0.2994739 -0.075689,-0.5558213 -0.2270508,-0.769043 C 4.8803662,-6.0408468 4.6809849,-6.1816344 4.4335937,-6.25 4.2740843,-6.292311 3.9794882,-6.31347 3.5498047,-6.313477 l -1.8310547,0 z"
     style="font-size:10px;font-family:Arial-BoldMT"
     id="path3154"
     inkscape:connector-curvature="0" /><path
     d="m 6.6650391,0 2.7490234,-7.1582031 1.0205075,0 L 13.364258,0 l -1.079102,0 -0.834961,-2.1679688 -2.9931637,0 L 7.6708984,0 z m 2.0654297,-2.9394531 2.4267582,0 -0.747071,-1.9824219 C 10.182288,-5.524083 10.013018,-6.0188742 9.9023438,-6.40625 9.8111948,-5.9472597 9.6826142,-5.491531 9.5166016,-5.0390625 z"
     style="font-size:10px;font-family:Arial-BoldMT"
     id="path3156"
     inkscape:connector-curvature="0" /><path
     d="m 14.145508,0 0,-7.1582031 3.173828,0 c 0.638016,7.1e-6 1.123042,0.064297 1.455078,0.1928711 0.332026,0.1285875 0.597325,0.3556381 0.795898,0.6811523 0.198562,0.3255268 0.297846,0.685227 0.297852,1.0791016 -6e-6,0.5078172 -0.164394,0.9358766 -0.493164,1.2841797 -0.328782,0.3483108 -0.836594,0.5696648 -1.523438,0.6640625 0.250647,0.1204458 0.441076,0.2392608 0.57129,0.3564453 0.276687,0.2539089 0.538731,0.5712914 0.786132,0.9521484 L 20.454102,0 19.262695,0 18.31543,-1.4892578 c -0.276698,-0.4296856 -0.504562,-0.7584613 -0.683594,-0.9863281 -0.179041,-0.2278619 -0.339359,-0.387367 -0.480957,-0.4785157 -0.141605,-0.091143 -0.285648,-0.1546192 -0.432129,-0.1904297 -0.107425,-0.022783 -0.283206,-0.034177 -0.527344,-0.03418 l -1.098633,0 0,3.1787109 z m 0.947265,-3.9990234 2.036133,0 c 0.432939,4e-6 0.77148,-0.044755 1.015625,-0.1342774 0.244136,-0.089514 0.429683,-0.232743 0.556641,-0.4296875 0.126948,-0.1969353 0.190424,-0.4109651 0.19043,-0.6420898 -6e-6,-0.3385361 -0.12289,-0.6168562 -0.368653,-0.834961 -0.245773,-0.2180927 -0.633956,-0.327142 -1.164551,-0.3271484 l -2.265625,0 z"
     style="font-size:10px;font-family:Arial-BoldMT"
     id="path3158"
     inkscape:connector-curvature="0" /><path
     d="m 23.178711,0 0,-6.3134766 -2.358399,0 0,-0.8447265 5.673829,0 0,0.8447265 -2.368164,0 0,6.3134766 z"
     style="font-size:10px;font-family:Arial-BoldMT"
     id="path3160"
     inkscape:connector-curvature="0" /></g>

	<g
   transform="translate(641.9756,198.8501)"
   style="font-size:10px;font-family:Arial-BoldMT"
   id="text134"><path
     d="m 0.77148437,0 0,-7.1582031 2.70019533,0 c 0.4752565,7.1e-6 0.8382118,0.022794 1.0888672,0.068359 0.3515576,0.058601 0.6461536,0.1700915 0.883789,0.3344726 0.2376246,0.1643946 0.4288679,0.3947004 0.5737305,0.690918 0.1448506,0.2962297 0.2172789,0.6217502 0.2172852,0.9765625 -6.3e-6,0.6087284 -0.193691,1.1238646 -0.5810547,1.5454101 -0.3873751,0.4215526 -1.0872442,0.6323272 -2.0996094,0.6323242 l -1.8359375,0 L 1.71875,0 z M 1.71875,-3.7548828 l 1.8505859,0 c 0.611975,3.7e-6 1.0465449,-0.1139284 1.303711,-0.3417969 0.2571563,-0.2278602 0.3857369,-0.5484979 0.3857422,-0.961914 -5.3e-6,-0.2994739 -0.075689,-0.5558213 -0.2270508,-0.769043 C 4.8803662,-6.0408468 4.6809849,-6.1816344 4.4335937,-6.25 4.2740843,-6.292311 3.9794882,-6.31347 3.5498047,-6.313477 l -1.8310547,0 z"
     style="font-size:10px;font-family:Arial-BoldMT"
     id="path3145"
     inkscape:connector-curvature="0" /><path
     d="m 6.6650391,0 2.7490234,-7.1582031 1.0205075,0 L 13.364258,0 l -1.079102,0 -0.834961,-2.1679688 -2.9931637,0 L 7.6708984,0 z m 2.0654297,-2.9394531 2.4267582,0 -0.747071,-1.9824219 C 10.182288,-5.524083 10.013018,-6.0188742 9.9023438,-6.40625 9.8111948,-5.9472597 9.6826142,-5.491531 9.5166016,-5.0390625 z"
     style="font-size:10px;font-family:Arial-BoldMT"
     id="path3147"
     inkscape:connector-curvature="0" /><path
     d="m 14.145508,0 0,-7.1582031 3.173828,0 c 0.638016,7.1e-6 1.123042,0.064297 1.455078,0.1928711 0.332026,0.1285875 0.597325,0.3556381 0.795898,0.6811523 0.198562,0.3255268 0.297846,0.685227 0.297852,1.0791016 -6e-6,0.5078172 -0.164394,0.9358766 -0.493164,1.2841797 -0.328782,0.3483108 -0.836594,0.5696648 -1.523438,0.6640625 0.250647,0.1204458 0.441076,0.2392608 0.57129,0.3564453 0.276687,0.2539089 0.538731,0.5712914 0.786132,0.9521484 L 20.454102,0 19.262695,0 18.31543,-1.4892578 c -0.276698,-0.4296856 -0.504562,-0.7584613 -0.683594,-0.9863281 -0.179041,-0.2278619 -0.339359,-0.387367 -0.480957,-0.4785157 -0.141605,-0.091143 -0.285648,-0.1546192 -0.432129,-0.1904297 -0.107425,-0.022783 -0.283206,-0.034177 -0.527344,-0.03418 l -1.098633,0 0,3.1787109 z m 0.947265,-3.9990234 2.036133,0 c 0.432939,4e-6 0.77148,-0.044755 1.015625,-0.1342774 0.244136,-0.089514 0.429683,-0.232743 0.556641,-0.4296875 0.126948,-0.1969353 0.190424,-0.4109651 0.19043,-0.6420898 -6e-6,-0.3385361 -0.12289,-0.6168562 -0.368653,-0.834961 -0.245773,-0.2180927 -0.633956,-0.327142 -1.164551,-0.3271484 l -2.265625,0 z"
     style="font-size:10px;font-family:Arial-BoldMT"
     id="path3149"
     inkscape:connector-curvature="0" /><path
     d="m 23.178711,0 0,-6.3134766 -2.358399,0 0,-0.8447265 5.673829,0 0,0.8447265 -2.368164,0 0,6.3134766 z"
     style="font-size:10px;font-family:Arial-BoldMT"
     id="path3151"
     inkscape:connector-curvature="0" /></g>

	<g
   transform="matrix(1 0 0 1 318.98 167.9087)"
   style="font-size:10px;font-family:Arial-BoldMT"
   id="text136"><path
     d="m 0.77148437,0 0,-7.1582031 2.46582033,0 c 0.5566368,7.1e-6 0.9814411,0.034187 1.274414,0.102539 0.4101514,0.094408 0.7600859,0.2653063 1.0498047,0.5126954 0.3775983,0.3190166 0.6599873,0.726731 0.847168,1.2231445 0.1871679,0.4964241 0.280755,1.0636436 0.2807617,1.7016601 -6.7e-6,0.5436229 -0.063483,1.0253933 -0.1904297,1.4453125 C 6.3720639,-1.7529279 6.2093037,-1.4054348 6.0107422,-1.1303711 5.8121687,-0.85530513 5.5948837,-0.638834 5.3588867,-0.48095703 5.122879,-0.3230791 4.8380485,-0.20345032 4.5043945,-0.12207031 4.1707315,-0.04069006 3.7874311,0 3.3544922,0 z M 1.71875,-0.84472656 l 1.5283203,0 c 0.4720015,8.4e-7 0.8422811,-0.0439444 1.1108399,-0.13183594 C 4.6264602,-1.0644521 4.84049,-1.1881499 5,-1.3476562 5.2246042,-1.5722641 5.3995714,-1.8741843 5.5249023,-2.253418 5.6502222,-2.6326471 5.7128849,-3.0924448 5.7128906,-3.6328125 5.7128849,-4.381506 5.5900009,-4.9568635 5.3442383,-5.3588867 5.098465,-5.7608992 4.7997999,-6.0302674 4.4482422,-6.1669922 4.1943317,-6.2646422 3.7858035,-6.3134702 3.2226563,-6.3134766 l -1.5039063,0 z"
     style="font-size:10px;font-family:Arial-BoldMT"
     id="path3239" /><path
     d="m 8.1591797,0 0,-7.1582031 0.9472656,0 0,7.1582031 z"
     style="font-size:10px;font-family:Arial-BoldMT"
     id="path3241" /><path
     d="m 10.449219,-2.2998047 0.893554,-0.078125 c 0.04232,0.3580749 0.140787,0.6518572 0.295411,0.8813477 0.15462,0.2294934 0.394692,0.4150401 0.720214,0.55664059 0.325519,0.14160236 0.691729,0.21240308 1.098633,0.21240235 0.361325,7.3e-7 0.680335,-0.0537102 0.957032,-0.16113282 0.276688,-0.10742087 0.482579,-0.25471892 0.617675,-0.44189452 0.135086,-0.187173 0.202632,-0.3914371 0.202637,-0.612793 -5e-6,-0.2246072 -0.06511,-0.4207333 -0.195312,-0.5883789 C 14.908849,-2.6993788 14.694006,-2.8401664 14.394531,-2.9541016 14.20247,-3.0289683 13.777665,-3.1453419 13.120117,-3.3032227 12.462563,-3.4610968 12.001951,-3.6100224 11.738281,-3.75 c -0.341798,-0.1790325 -0.596518,-0.4012003 -0.76416,-0.6665039 -0.167644,-0.2652948 -0.251465,-0.5623323 -0.251465,-0.8911133 0,-0.3613224 0.102538,-0.69905 0.307617,-1.0131836 0.205077,-0.314121 0.504556,-0.5525647 0.898438,-0.715332 0.393878,-0.1627532 0.831703,-0.2441334 1.313477,-0.2441406 0.530595,7.2e-6 0.99853,0.085456 1.403808,0.2563476 0.405268,0.1709053 0.716954,0.4223699 0.935059,0.7543946 0.218093,0.3320371 0.33528,0.7080133 0.351562,1.1279296 l -0.908203,0.068359 c -0.04883,-0.4524684 -0.214035,-0.794265 -0.495605,-1.0253906 -0.28158,-0.2311135 -0.697433,-0.3466733 -1.247559,-0.3466797 -0.572919,6.4e-6 -0.990399,0.1049868 -1.252441,0.3149414 -0.262046,0.2099669 -0.393068,0.4630591 -0.393067,0.7592774 -1e-6,0.2571665 0.09277,0.4687549 0.278321,0.6347656 0.182289,0.1660202 0.658363,0.3361046 1.428222,0.5102539 0.769853,0.1741577 1.29801,0.3263385 1.584473,0.4565429 0.416661,0.1920609 0.724278,0.4353875 0.922851,0.7299805 0.198562,0.2945991 0.297846,0.6339542 0.297852,1.0180664 -6e-6,0.380861 -0.109056,0.7397474 -0.327148,1.07666018 -0.218105,0.33691467 -0.531419,0.59895868 -0.939942,0.78613281 -0.408533,0.18717445 -0.868331,0.2807616 -1.379394,0.28076172 -0.64779,-1.2e-7 -1.190595,-0.09440107 -1.628418,-0.28320312 -0.437827,-0.18880174 -0.781251,-0.47281838 -1.030274,-0.85205079 -0.249024,-0.3792304 -0.380046,-0.8081036 -0.393066,-1.2866211 z"
     style="font-size:10px;font-family:Arial-BoldMT"
     id="path3243" /><path
     d="m 17.412109,0 0,-7.1582031 0.947266,0 0,3.5498047 3.554687,-3.5498047 1.28418,0 -3.00293,2.9003906 L 23.330078,0 l -1.25,0 -2.548828,-3.6230469 -1.171875,1.1425781 0,2.4804688 z"
     style="font-size:10px;font-family:Arial-BoldMT"
     id="path3245" /></g>

	<g
   transform="matrix(1 0 0 1 270.7554 200.8501)"
   style="font-size:10px;font-family:Arial-BoldMT"
   id="text138"><path
     d="m 0.77148437,0 0,-7.1582031 2.70019533,0 c 0.4752565,7.1e-6 0.8382118,0.022794 1.0888672,0.068359 0.3515576,0.058601 0.6461536,0.1700915 0.883789,0.3344726 0.2376246,0.1643946 0.4288679,0.3947004 0.5737305,0.690918 0.1448506,0.2962297 0.2172789,0.6217502 0.2172852,0.9765625 -6.3e-6,0.6087284 -0.193691,1.1238646 -0.5810547,1.5454101 -0.3873751,0.4215526 -1.0872442,0.6323272 -2.0996094,0.6323242 l -1.8359375,0 L 1.71875,0 z M 1.71875,-3.7548828 l 1.8505859,0 c 0.611975,3.7e-6 1.0465449,-0.1139284 1.303711,-0.3417969 0.2571563,-0.2278602 0.3857369,-0.5484979 0.3857422,-0.961914 -5.3e-6,-0.2994739 -0.075689,-0.5558213 -0.2270508,-0.769043 C 4.8803662,-6.0408468 4.6809849,-6.1816344 4.4335937,-6.25 c -0.1595094,-0.042311 -0.4541055,-0.06347 -0.883789,-0.063477 l -1.8310547,0 z"
     style="font-size:10px;font-family:Arial-BoldMT"
     id="path3208" /><path
     d="m 6.6650391,0 2.7490234,-7.1582031 1.0205075,0 L 13.364258,0 l -1.079102,0 -0.834961,-2.1679688 -2.9931637,0 L 7.6708984,0 z m 2.0654297,-2.9394531 2.4267582,0 -0.747071,-1.9824219 C 10.182288,-5.524083 10.013018,-6.0188742 9.9023438,-6.40625 9.8111948,-5.9472597 9.6826142,-5.491531 9.5166016,-5.0390625 z"
     style="font-size:10px;font-family:Arial-BoldMT"
     id="path3210" /><path
     d="m 14.145508,0 0,-7.1582031 3.173828,0 c 0.638016,7.1e-6 1.123042,0.064297 1.455078,0.1928711 0.332026,0.1285875 0.597325,0.3556381 0.795898,0.6811523 0.198562,0.3255268 0.297846,0.685227 0.297852,1.0791016 -6e-6,0.5078172 -0.164394,0.9358766 -0.493164,1.2841797 -0.328782,0.3483108 -0.836594,0.5696648 -1.523438,0.6640625 0.250647,0.1204458 0.441076,0.2392608 0.57129,0.3564453 0.276687,0.2539089 0.538731,0.5712914 0.786132,0.9521484 L 20.454102,0 19.262695,0 18.31543,-1.4892578 c -0.276698,-0.4296856 -0.504562,-0.7584613 -0.683594,-0.9863281 -0.179041,-0.2278619 -0.339359,-0.387367 -0.480957,-0.4785157 -0.141605,-0.091143 -0.285648,-0.1546192 -0.432129,-0.1904297 -0.107425,-0.022783 -0.283206,-0.034177 -0.527344,-0.03418 l -1.098633,0 0,3.1787109 z m 0.947265,-3.9990234 2.036133,0 c 0.432939,4e-6 0.77148,-0.044755 1.015625,-0.1342774 0.244136,-0.089514 0.429683,-0.232743 0.556641,-0.4296875 0.126948,-0.1969353 0.190424,-0.4109651 0.19043,-0.6420898 -6e-6,-0.3385361 -0.12289,-0.6168562 -0.368653,-0.834961 -0.245773,-0.2180927 -0.633956,-0.327142 -1.164551,-0.3271484 l -2.265625,0 z"
     style="font-size:10px;font-family:Arial-BoldMT"
     id="path3212" /><path
     d="m 23.178711,0 0,-6.3134766 -2.358399,0 0,-0.8447265 5.673829,0 0,0.8447265 -2.368164,0 0,6.3134766 z"
     style="font-size:10px;font-family:Arial-BoldMT"
     id="path3214" /></g>

	<g
   transform="matrix(1 0 0 1 317.8149 200.8501)"
   style="font-size:10px;font-family:Arial-BoldMT"
   id="text140"><path
     d="m 0.77148437,0 0,-7.1582031 2.70019533,0 c 0.4752565,7.1e-6 0.8382118,0.022794 1.0888672,0.068359 0.3515576,0.058601 0.6461536,0.1700915 0.883789,0.3344726 0.2376246,0.1643946 0.4288679,0.3947004 0.5737305,0.690918 0.1448506,0.2962297 0.2172789,0.6217502 0.2172852,0.9765625 -6.3e-6,0.6087284 -0.193691,1.1238646 -0.5810547,1.5454101 -0.3873751,0.4215526 -1.0872442,0.6323272 -2.0996094,0.6323242 l -1.8359375,0 L 1.71875,0 z M 1.71875,-3.7548828 l 1.8505859,0 c 0.611975,3.7e-6 1.0465449,-0.1139284 1.303711,-0.3417969 0.2571563,-0.2278602 0.3857369,-0.5484979 0.3857422,-0.961914 -5.3e-6,-0.2994739 -0.075689,-0.5558213 -0.2270508,-0.769043 C 4.8803662,-6.0408468 4.6809849,-6.1816344 4.4335937,-6.25 c -0.1595094,-0.042311 -0.4541055,-0.06347 -0.883789,-0.063477 l -1.8310547,0 z"
     style="font-size:10px;font-family:Arial-BoldMT"
     id="path3199" /><path
     d="m 6.6650391,0 2.7490234,-7.1582031 1.0205075,0 L 13.364258,0 l -1.079102,0 -0.834961,-2.1679688 -2.9931637,0 L 7.6708984,0 z m 2.0654297,-2.9394531 2.4267582,0 -0.747071,-1.9824219 C 10.182288,-5.524083 10.013018,-6.0188742 9.9023438,-6.40625 9.8111948,-5.9472597 9.6826142,-5.491531 9.5166016,-5.0390625 z"
     style="font-size:10px;font-family:Arial-BoldMT"
     id="path3201" /><path
     d="m 14.145508,0 0,-7.1582031 3.173828,0 c 0.638016,7.1e-6 1.123042,0.064297 1.455078,0.1928711 0.332026,0.1285875 0.597325,0.3556381 0.795898,0.6811523 0.198562,0.3255268 0.297846,0.685227 0.297852,1.0791016 -6e-6,0.5078172 -0.164394,0.9358766 -0.493164,1.2841797 -0.328782,0.3483108 -0.836594,0.5696648 -1.523438,0.6640625 0.250647,0.1204458 0.441076,0.2392608 0.57129,0.3564453 0.276687,0.2539089 0.538731,0.5712914 0.786132,0.9521484 L 20.454102,0 19.262695,0 18.31543,-1.4892578 c -0.276698,-0.4296856 -0.504562,-0.7584613 -0.683594,-0.9863281 -0.179041,-0.2278619 -0.339359,-0.387367 -0.480957,-0.4785157 -0.141605,-0.091143 -0.285648,-0.1546192 -0.432129,-0.1904297 -0.107425,-0.022783 -0.283206,-0.034177 -0.527344,-0.03418 l -1.098633,0 0,3.1787109 z m 0.947265,-3.9990234 2.036133,0 c 0.432939,4e-6 0.77148,-0.044755 1.015625,-0.1342774 0.244136,-0.089514 0.429683,-0.232743 0.556641,-0.4296875 0.126948,-0.1969353 0.190424,-0.4109651 0.19043,-0.6420898 -6e-6,-0.3385361 -0.12289,-0.6168562 -0.368653,-0.834961 -0.245773,-0.2180927 -0.633956,-0.327142 -1.164551,-0.3271484 l -2.265625,0 z"
     style="font-size:10px;font-family:Arial-BoldMT"
     id="path3203" /><path
     d="m 23.178711,0 0,-6.3134766 -2.358399,0 0,-0.8447265 5.673829,0 0,0.8447265 -2.368164,0 0,6.3134766 z"
     style="font-size:10px;font-family:Arial-BoldMT"
     id="path3205" /></g>

	<g
   transform="matrix(1 0 0 1 364.8745 200.8501)"
   style="font-size:10px;font-family:Arial-BoldMT"
   id="text142"><path
     d="m 0.77148437,0 0,-7.1582031 2.70019533,0 c 0.4752565,7.1e-6 0.8382118,0.022794 1.0888672,0.068359 0.3515576,0.058601 0.6461536,0.1700915 0.883789,0.3344726 0.2376246,0.1643946 0.4288679,0.3947004 0.5737305,0.690918 0.1448506,0.2962297 0.2172789,0.6217502 0.2172852,0.9765625 -6.3e-6,0.6087284 -0.193691,1.1238646 -0.5810547,1.5454101 -0.3873751,0.4215526 -1.0872442,0.6323272 -2.0996094,0.6323242 l -1.8359375,0 L 1.71875,0 z M 1.71875,-3.7548828 l 1.8505859,0 c 0.611975,3.7e-6 1.0465449,-0.1139284 1.303711,-0.3417969 0.2571563,-0.2278602 0.3857369,-0.5484979 0.3857422,-0.961914 -5.3e-6,-0.2994739 -0.075689,-0.5558213 -0.2270508,-0.769043 C 4.8803662,-6.0408468 4.6809849,-6.1816344 4.4335937,-6.25 c -0.1595094,-0.042311 -0.4541055,-0.06347 -0.883789,-0.063477 l -1.8310547,0 z"
     style="font-size:10px;font-family:Arial-BoldMT"
     id="path3190" /><path
     d="m 6.6650391,0 2.7490234,-7.1582031 1.0205075,0 L 13.364258,0 l -1.079102,0 -0.834961,-2.1679688 -2.9931637,0 L 7.6708984,0 z m 2.0654297,-2.9394531 2.4267582,0 -0.747071,-1.9824219 C 10.182288,-5.524083 10.013018,-6.0188742 9.9023438,-6.40625 9.8111948,-5.9472597 9.6826142,-5.491531 9.5166016,-5.0390625 z"
     style="font-size:10px;font-family:Arial-BoldMT"
     id="path3192" /><path
     d="m 14.145508,0 0,-7.1582031 3.173828,0 c 0.638016,7.1e-6 1.123042,0.064297 1.455078,0.1928711 0.332026,0.1285875 0.597325,0.3556381 0.795898,0.6811523 0.198562,0.3255268 0.297846,0.685227 0.297852,1.0791016 -6e-6,0.5078172 -0.164394,0.9358766 -0.493164,1.2841797 -0.328782,0.3483108 -0.836594,0.5696648 -1.523438,0.6640625 0.250647,0.1204458 0.441076,0.2392608 0.57129,0.3564453 0.276687,0.2539089 0.538731,0.5712914 0.786132,0.9521484 L 20.454102,0 19.262695,0 18.31543,-1.4892578 c -0.276698,-0.4296856 -0.504562,-0.7584613 -0.683594,-0.9863281 -0.179041,-0.2278619 -0.339359,-0.387367 -0.480957,-0.4785157 -0.141605,-0.091143 -0.285648,-0.1546192 -0.432129,-0.1904297 -0.107425,-0.022783 -0.283206,-0.034177 -0.527344,-0.03418 l -1.098633,0 0,3.1787109 z m 0.947265,-3.9990234 2.036133,0 c 0.432939,4e-6 0.77148,-0.044755 1.015625,-0.1342774 0.244136,-0.089514 0.429683,-0.232743 0.556641,-0.4296875 0.126948,-0.1969353 0.190424,-0.4109651 0.19043,-0.6420898 -6e-6,-0.3385361 -0.12289,-0.6168562 -0.368653,-0.834961 -0.245773,-0.2180927 -0.633956,-0.327142 -1.164551,-0.3271484 l -2.265625,0 z"
     style="font-size:10px;font-family:Arial-BoldMT"
     id="path3194" /><path
     d="m 23.178711,0 0,-6.3134766 -2.358399,0 0,-0.8447265 5.673829,0 0,0.8447265 -2.368164,0 0,6.3134766 z"
     style="font-size:10px;font-family:Arial-BoldMT"
     id="path3196" /></g>

	<g
   transform="matrix(1 0 0 1 278.2788 323.1787)"
   style="font-size:10px;font-family:Arial-BoldMT"
   id="text144"><path
     d="m 0.7421875,0 0,-7.1582031 1.4257813,0 1.6943359,5.0683593 c 0.156246,0.4720069 0.2701781,0.8251966 0.3417969,1.0595704 0.081376,-0.2604154 0.2083289,-0.642902 0.3808593,-1.147461 l 1.7138672,-4.9804687 1.2744141,0 0,7.1582031 -0.913086,0 0,-5.9912109 L 4.5800781,0 3.7255859,0 1.6552734,-6.09375 l 0,6.09375 z"
     style="font-size:10px;font-family:Arial-BoldMT"
     id="path3068" /><path
     d="m 9.1113281,0 0,-7.1582031 2.7001949,0 c 0.475257,7.1e-6 0.838212,0.022794 1.088868,0.068359 0.351557,0.058601 0.646153,0.1700915 0.883789,0.3344726 0.237624,0.1643946 0.428868,0.3947004 0.57373,0.690918 0.144851,0.2962297 0.217279,0.6217502 0.217285,0.9765625 -6e-6,0.6087284 -0.193691,1.1238646 -0.581054,1.5454101 -0.387375,0.4215526 -1.087245,0.6323272 -2.09961,0.6323242 l -1.835937,0 0,2.9101563 z m 0.9472659,-3.7548828 1.850586,0 c 0.611975,3.7e-6 1.046545,-0.1139284 1.303711,-0.3417969 0.257156,-0.2278602 0.385737,-0.5484979 0.385742,-0.961914 -5e-6,-0.2994739 -0.07569,-0.5558213 -0.227051,-0.769043 C 13.22021,-6.0408468 13.020829,-6.1816344 12.773438,-6.25 c -0.15951,-0.042311 -0.454106,-0.06347 -0.88379,-0.063477 l -1.831054,0 z"
     style="font-size:10px;font-family:Arial-BoldMT"
     id="path3070" /></g>

	<g
   transform="matrix(1 0 0 1 325.3374 323.1787)"
   style="font-size:10px;font-family:Arial-BoldMT"
   id="text146"><path
     d="m 0.7421875,0 0,-7.1582031 1.4257813,0 1.6943359,5.0683593 c 0.156246,0.4720069 0.2701781,0.8251966 0.3417969,1.0595704 0.081376,-0.2604154 0.2083289,-0.642902 0.3808593,-1.147461 l 1.7138672,-4.9804687 1.2744141,0 0,7.1582031 -0.913086,0 0,-5.9912109 L 4.5800781,0 3.7255859,0 1.6552734,-6.09375 l 0,6.09375 z"
     style="font-size:10px;font-family:Arial-BoldMT"
     id="path3073" /><path
     d="m 9.1113281,0 0,-7.1582031 2.7001949,0 c 0.475257,7.1e-6 0.838212,0.022794 1.088868,0.068359 0.351557,0.058601 0.646153,0.1700915 0.883789,0.3344726 0.237624,0.1643946 0.428868,0.3947004 0.57373,0.690918 0.144851,0.2962297 0.217279,0.6217502 0.217285,0.9765625 -6e-6,0.6087284 -0.193691,1.1238646 -0.581054,1.5454101 -0.387375,0.4215526 -1.087245,0.6323272 -2.09961,0.6323242 l -1.835937,0 0,2.9101563 z m 0.9472659,-3.7548828 1.850586,0 c 0.611975,3.7e-6 1.046545,-0.1139284 1.303711,-0.3417969 0.257156,-0.2278602 0.385737,-0.5484979 0.385742,-0.961914 -5e-6,-0.2994739 -0.07569,-0.5558213 -0.227051,-0.769043 C 13.22021,-6.0408468 13.020829,-6.1816344 12.773438,-6.25 c -0.15951,-0.042311 -0.454106,-0.06347 -0.88379,-0.063477 l -1.831054,0 z"
     style="font-size:10px;font-family:Arial-BoldMT"
     id="path3075" /></g>

	<g
   transform="matrix(1 0 0 1 372.3975 323.1787)"
   style="font-size:10px;font-family:Arial-BoldMT"
   id="text148"><path
     d="m 0.7421875,0 0,-7.1582031 1.4257813,0 1.6943359,5.0683593 c 0.156246,0.4720069 0.2701781,0.8251966 0.3417969,1.0595704 0.081376,-0.2604154 0.2083289,-0.642902 0.3808593,-1.147461 l 1.7138672,-4.9804687 1.2744141,0 0,7.1582031 -0.913086,0 0,-5.9912109 L 4.5800781,0 3.7255859,0 1.6552734,-6.09375 l 0,6.09375 z"
     style="font-size:10px;font-family:Arial-BoldMT"
     id="path3078" /><path
     d="m 9.1113281,0 0,-7.1582031 2.7001949,0 c 0.475257,7.1e-6 0.838212,0.022794 1.088868,0.068359 0.351557,0.058601 0.646153,0.1700915 0.883789,0.3344726 0.237624,0.1643946 0.428868,0.3947004 0.57373,0.690918 0.144851,0.2962297 0.217279,0.6217502 0.217285,0.9765625 -6e-6,0.6087284 -0.193691,1.1238646 -0.581054,1.5454101 -0.387375,0.4215526 -1.087245,0.6323272 -2.09961,0.6323242 l -1.835937,0 0,2.9101563 z m 0.9472659,-3.7548828 1.850586,0 c 0.611975,3.7e-6 1.046545,-0.1139284 1.303711,-0.3417969 0.257156,-0.2278602 0.385737,-0.5484979 0.385742,-0.961914 -5e-6,-0.2994739 -0.07569,-0.5558213 -0.227051,-0.769043 C 13.22021,-6.0408468 13.020829,-6.1816344 12.773438,-6.25 c -0.15951,-0.042311 -0.454106,-0.06347 -0.88379,-0.063477 l -1.831054,0 z"
     style="font-size:10px;font-family:Arial-BoldMT"
     id="path3080" /></g>

	<g
   transform="matrix(1 0 0 1 473.4028 323.1787)"
   style="font-size:10px;font-family:Arial-BoldMT"
   id="text150"><path
     d="m 0.7421875,0 0,-7.1582031 1.4257813,0 1.6943359,5.0683593 c 0.156246,0.4720069 0.2701781,0.8251966 0.3417969,1.0595704 0.081376,-0.2604154 0.2083289,-0.642902 0.3808593,-1.147461 l 1.7138672,-4.9804687 1.2744141,0 0,7.1582031 -0.913086,0 0,-5.9912109 L 4.5800781,0 3.7255859,0 1.6552734,-6.09375 l 0,6.09375 z"
     style="font-size:10px;font-family:Arial-BoldMT"
     id="path3083" /><path
     d="m 9.1113281,0 0,-7.1582031 2.7001949,0 c 0.475257,7.1e-6 0.838212,0.022794 1.088868,0.068359 0.351557,0.058601 0.646153,0.1700915 0.883789,0.3344726 0.237624,0.1643946 0.428868,0.3947004 0.57373,0.690918 0.144851,0.2962297 0.217279,0.6217502 0.217285,0.9765625 -6e-6,0.6087284 -0.193691,1.1238646 -0.581054,1.5454101 -0.387375,0.4215526 -1.087245,0.6323272 -2.09961,0.6323242 l -1.835937,0 0,2.9101563 z m 0.9472659,-3.7548828 1.850586,0 c 0.611975,3.7e-6 1.046545,-0.1139284 1.303711,-0.3417969 0.257156,-0.2278602 0.385737,-0.5484979 0.385742,-0.961914 -5e-6,-0.2994739 -0.07569,-0.5558213 -0.227051,-0.769043 C 13.22021,-6.0408468 13.020829,-6.1816344 12.773438,-6.25 c -0.15951,-0.042311 -0.454106,-0.06347 -0.88379,-0.063477 l -1.831054,0 z"
     style="font-size:10px;font-family:Arial-BoldMT"
     id="path3085" /></g>

	<g
   transform="matrix(1 0 0 1 545.4932 323.1787)"
   style="font-size:10px;font-family:Arial-BoldMT"
   id="text152"><path
     d="m 0.7421875,0 0,-7.1582031 1.4257813,0 1.6943359,5.0683593 c 0.156246,0.4720069 0.2701781,0.8251966 0.3417969,1.0595704 0.081376,-0.2604154 0.2083289,-0.642902 0.3808593,-1.147461 l 1.7138672,-4.9804687 1.2744141,0 0,7.1582031 -0.913086,0 0,-5.9912109 L 4.5800781,0 3.7255859,0 1.6552734,-6.09375 l 0,6.09375 z"
     style="font-size:10px;font-family:Arial-BoldMT"
     id="path3088" /><path
     d="m 9.1113281,0 0,-7.1582031 2.7001949,0 c 0.475257,7.1e-6 0.838212,0.022794 1.088868,0.068359 0.351557,0.058601 0.646153,0.1700915 0.883789,0.3344726 0.237624,0.1643946 0.428868,0.3947004 0.57373,0.690918 0.144851,0.2962297 0.217279,0.6217502 0.217285,0.9765625 -6e-6,0.6087284 -0.193691,1.1238646 -0.581054,1.5454101 -0.387375,0.4215526 -1.087245,0.6323272 -2.09961,0.6323242 l -1.835937,0 0,2.9101563 z m 0.9472659,-3.7548828 1.850586,0 c 0.611975,3.7e-6 1.046545,-0.1139284 1.303711,-0.3417969 0.257156,-0.2278602 0.385737,-0.5484979 0.385742,-0.961914 -5e-6,-0.2994739 -0.07569,-0.5558213 -0.227051,-0.769043 C 13.22021,-6.0408468 13.020829,-6.1816344 12.773438,-6.25 c -0.15951,-0.042311 -0.454106,-0.06347 -0.88379,-0.063477 l -1.831054,0 z"
     style="font-size:10px;font-family:Arial-BoldMT"
     id="path3090" /></g>

	<g
   transform="matrix(1 0 0 1 602.4639 323.1787)"
   style="font-size:10px;font-family:Arial-BoldMT"
   id="text154"><path
     d="m 0.7421875,0 0,-7.1582031 1.4257813,0 1.6943359,5.0683593 c 0.156246,0.4720069 0.2701781,0.8251966 0.3417969,1.0595704 0.081376,-0.2604154 0.2083289,-0.642902 0.3808593,-1.147461 l 1.7138672,-4.9804687 1.2744141,0 0,7.1582031 -0.913086,0 0,-5.9912109 L 4.5800781,0 3.7255859,0 1.6552734,-6.09375 l 0,6.09375 z"
     style="font-size:10px;font-family:Arial-BoldMT"
     id="path3093" /><path
     d="m 9.1113281,0 0,-7.1582031 2.7001949,0 c 0.475257,7.1e-6 0.838212,0.022794 1.088868,0.068359 0.351557,0.058601 0.646153,0.1700915 0.883789,0.3344726 0.237624,0.1643946 0.428868,0.3947004 0.57373,0.690918 0.144851,0.2962297 0.217279,0.6217502 0.217285,0.9765625 -6e-6,0.6087284 -0.193691,1.1238646 -0.581054,1.5454101 -0.387375,0.4215526 -1.087245,0.6323272 -2.09961,0.6323242 l -1.835937,0 0,2.9101563 z m 0.9472659,-3.7548828 1.850586,0 c 0.611975,3.7e-6 1.046545,-0.1139284 1.303711,-0.3417969 0.257156,-0.2278602 0.385737,-0.5484979 0.385742,-0.961914 -5e-6,-0.2994739 -0.07569,-0.5558213 -0.227051,-0.769043 C 13.22021,-6.0408468 13.020829,-6.1816344 12.773438,-6.25 c -0.15951,-0.042311 -0.454106,-0.06347 -0.88379,-0.063477 l -1.831054,0 z"
     style="font-size:10px;font-family:Arial-BoldMT"
     id="path3095" /></g>

	<g
   transform="matrix(1 0 0 1 649.999 323.1787)"
   style="font-size:10px;font-family:Arial-BoldMT"
   id="text156"><path
     d="m 0.7421875,0 0,-7.1582031 1.4257813,0 1.6943359,5.0683593 c 0.156246,0.4720069 0.2701781,0.8251966 0.3417969,1.0595704 0.081376,-0.2604154 0.2083289,-0.642902 0.3808593,-1.147461 l 1.7138672,-4.9804687 1.2744141,0 0,7.1582031 -0.913086,0 0,-5.9912109 L 4.5800781,0 3.7255859,0 1.6552734,-6.09375 l 0,6.09375 z"
     style="font-size:10px;font-family:Arial-BoldMT"
     id="path3098" /><path
     d="m 9.1113281,0 0,-7.1582031 2.7001949,0 c 0.475257,7.1e-6 0.838212,0.022794 1.088868,0.068359 0.351557,0.058601 0.646153,0.1700915 0.883789,0.3344726 0.237624,0.1643946 0.428868,0.3947004 0.57373,0.690918 0.144851,0.2962297 0.217279,0.6217502 0.217285,0.9765625 -6e-6,0.6087284 -0.193691,1.1238646 -0.581054,1.5454101 -0.387375,0.4215526 -1.087245,0.6323272 -2.09961,0.6323242 l -1.835937,0 0,2.9101563 z m 0.9472659,-3.7548828 1.850586,0 c 0.611975,3.7e-6 1.046545,-0.1139284 1.303711,-0.3417969 0.257156,-0.2278602 0.385737,-0.5484979 0.385742,-0.961914 -5e-6,-0.2994739 -0.07569,-0.5558213 -0.227051,-0.769043 C 13.22021,-6.0408468 13.020829,-6.1816344 12.773438,-6.25 c -0.15951,-0.042311 -0.454106,-0.06347 -0.88379,-0.063477 l -1.831054,0 z"
     style="font-size:10px;font-family:Arial-BoldMT"
     id="path3100" /></g>

	<g
   transform="translate(475.4468,167.9087)"
   style="font-size:10px;font-family:Arial-BoldMT"
   id="text158"><path
     d="m 0.77148437,0 0,-7.1582031 2.46582033,0 c 0.5566368,7.1e-6 0.9814411,0.034187 1.274414,0.102539 0.4101514,0.094408 0.7600859,0.2653063 1.0498047,0.5126954 0.3775983,0.3190166 0.6599873,0.726731 0.847168,1.2231445 0.1871679,0.4964241 0.280755,1.0636436 0.2807617,1.7016601 -6.7e-6,0.5436229 -0.063483,1.0253933 -0.1904297,1.4453125 C 6.3720639,-1.7529279 6.2093037,-1.4054348 6.0107422,-1.1303711 5.8121687,-0.85530513 5.5948837,-0.638834 5.3588867,-0.48095703 5.122879,-0.3230791 4.8380485,-0.20345032 4.5043945,-0.12207031 4.1707315,-0.04069006 3.7874311,0 3.3544922,0 z M 1.71875,-0.84472656 l 1.5283203,0 c 0.4720015,8.4e-7 0.8422811,-0.0439444 1.1108399,-0.13183594 C 4.6264602,-1.0644521 4.84049,-1.1881499 5,-1.3476562 5.2246042,-1.5722641 5.3995714,-1.8741843 5.5249023,-2.253418 5.6502222,-2.6326471 5.7128849,-3.0924448 5.7128906,-3.6328125 5.7128849,-4.381506 5.5900009,-4.9568635 5.3442383,-5.3588867 5.098465,-5.7608992 4.7997999,-6.0302674 4.4482422,-6.1669922 4.1943317,-6.2646422 3.7858035,-6.3134702 3.2226563,-6.3134766 l -1.5039063,0 z"
     style="font-size:10px;font-family:Arial-BoldMT"
     id="path3228" /><path
     d="m 8.1591797,0 0,-7.1582031 0.9472656,0 0,7.1582031 z"
     style="font-size:10px;font-family:Arial-BoldMT"
     id="path3230" /><path
     d="m 10.449219,-2.2998047 0.893554,-0.078125 c 0.04232,0.3580749 0.140787,0.6518572 0.295411,0.8813477 0.15462,0.2294934 0.394692,0.4150401 0.720214,0.55664059 0.325519,0.14160236 0.691729,0.21240308 1.098633,0.21240235 0.361325,7.3e-7 0.680335,-0.0537102 0.957032,-0.16113282 0.276688,-0.10742087 0.482579,-0.25471892 0.617675,-0.44189452 0.135086,-0.187173 0.202632,-0.3914371 0.202637,-0.612793 -5e-6,-0.2246072 -0.06511,-0.4207333 -0.195312,-0.5883789 C 14.908849,-2.6993788 14.694006,-2.8401664 14.394531,-2.9541016 14.20247,-3.0289683 13.777665,-3.1453419 13.120117,-3.3032227 12.462563,-3.4610968 12.001951,-3.6100224 11.738281,-3.75 c -0.341798,-0.1790325 -0.596518,-0.4012003 -0.76416,-0.6665039 -0.167644,-0.2652948 -0.251465,-0.5623323 -0.251465,-0.8911133 0,-0.3613224 0.102538,-0.69905 0.307617,-1.0131836 0.205077,-0.314121 0.504556,-0.5525647 0.898438,-0.715332 0.393878,-0.1627532 0.831703,-0.2441334 1.313477,-0.2441406 0.530595,7.2e-6 0.99853,0.085456 1.403808,0.2563476 0.405268,0.1709053 0.716954,0.4223699 0.935059,0.7543946 0.218093,0.3320371 0.33528,0.7080133 0.351562,1.1279296 l -0.908203,0.068359 c -0.04883,-0.4524684 -0.214035,-0.794265 -0.495605,-1.0253906 -0.28158,-0.2311135 -0.697433,-0.3466733 -1.247559,-0.3466797 -0.572919,6.4e-6 -0.990399,0.1049868 -1.252441,0.3149414 -0.262046,0.2099669 -0.393068,0.4630591 -0.393067,0.7592774 -1e-6,0.2571665 0.09277,0.4687549 0.278321,0.6347656 0.182289,0.1660202 0.658363,0.3361046 1.428222,0.5102539 0.769853,0.1741577 1.29801,0.3263385 1.584473,0.4565429 0.416661,0.1920609 0.724278,0.4353875 0.922851,0.7299805 0.198562,0.2945991 0.297846,0.6339542 0.297852,1.0180664 -6e-6,0.380861 -0.109056,0.7397474 -0.327148,1.07666018 -0.218105,0.33691467 -0.531419,0.59895868 -0.939942,0.78613281 -0.408533,0.18717445 -0.868331,0.2807616 -1.379394,0.28076172 -0.64779,-1.2e-7 -1.190595,-0.09440107 -1.628418,-0.28320312 -0.437827,-0.18880174 -0.781251,-0.47281838 -1.030274,-0.85205079 -0.249024,-0.3792304 -0.380046,-0.8081036 -0.393066,-1.2866211 z"
     style="font-size:10px;font-family:Arial-BoldMT"
     id="path3232" /><path
     d="m 17.412109,0 0,-7.1582031 0.947266,0 0,3.5498047 3.554687,-3.5498047 1.28418,0 -3.00293,2.9003906 L 23.330078,0 l -1.25,0 -2.548828,-3.6230469 -1.171875,1.1425781 0,2.4804688 z"
     style="font-size:10px;font-family:Arial-BoldMT"
     id="path3234" /><path
     d="m 29.858398,0 -0.878906,0 0,-5.6005859 c -0.211591,0.2018283 -0.489097,0.403651 -0.832519,0.6054687 -0.343426,0.2018277 -0.651857,0.3531948 -0.925293,0.4541016 l 0,-0.8496094 c 0.491535,-0.2311142 0.921222,-0.5110618 1.289062,-0.8398437 0.367836,-0.3287695 0.628252,-0.6477796 0.78125,-0.9570313 l 0.566406,0 z"
     style="font-size:10px;font-family:Arial-BoldMT"
     id="path3236" /></g>

	<g
   transform="matrix(1 0 0 1 591.5713 167.9087)"
   style="font-size:10px;font-family:Arial-BoldMT"
   id="text160"><path
     d="m 0.77148437,0 0,-7.1582031 2.46582033,0 c 0.5566368,7.1e-6 0.9814411,0.034187 1.274414,0.102539 0.4101514,0.094408 0.7600859,0.2653063 1.0498047,0.5126954 0.3775983,0.3190166 0.6599873,0.726731 0.847168,1.2231445 0.1871679,0.4964241 0.280755,1.0636436 0.2807617,1.7016601 -6.7e-6,0.5436229 -0.063483,1.0253933 -0.1904297,1.4453125 C 6.3720639,-1.7529279 6.2093037,-1.4054348 6.0107422,-1.1303711 5.8121687,-0.85530513 5.5948837,-0.638834 5.3588867,-0.48095703 5.122879,-0.3230791 4.8380485,-0.20345032 4.5043945,-0.12207031 4.1707315,-0.04069006 3.7874311,0 3.3544922,0 z M 1.71875,-0.84472656 l 1.5283203,0 c 0.4720015,8.4e-7 0.8422811,-0.0439444 1.1108399,-0.13183594 C 4.6264602,-1.0644521 4.84049,-1.1881499 5,-1.3476562 5.2246042,-1.5722641 5.3995714,-1.8741843 5.5249023,-2.253418 5.6502222,-2.6326471 5.7128849,-3.0924448 5.7128906,-3.6328125 5.7128849,-4.381506 5.5900009,-4.9568635 5.3442383,-5.3588867 5.098465,-5.7608992 4.7997999,-6.0302674 4.4482422,-6.1669922 4.1943317,-6.2646422 3.7858035,-6.3134702 3.2226563,-6.3134766 l -1.5039063,0 z"
     style="font-size:10px;font-family:Arial-BoldMT"
     id="path3217" /><path
     d="m 8.1591797,0 0,-7.1582031 0.9472656,0 0,7.1582031 z"
     style="font-size:10px;font-family:Arial-BoldMT"
     id="path3219" /><path
     d="m 10.449219,-2.2998047 0.893554,-0.078125 c 0.04232,0.3580749 0.140787,0.6518572 0.295411,0.8813477 0.15462,0.2294934 0.394692,0.4150401 0.720214,0.55664059 0.325519,0.14160236 0.691729,0.21240308 1.098633,0.21240235 0.361325,7.3e-7 0.680335,-0.0537102 0.957032,-0.16113282 0.276688,-0.10742087 0.482579,-0.25471892 0.617675,-0.44189452 0.135086,-0.187173 0.202632,-0.3914371 0.202637,-0.612793 -5e-6,-0.2246072 -0.06511,-0.4207333 -0.195312,-0.5883789 C 14.908849,-2.6993788 14.694006,-2.8401664 14.394531,-2.9541016 14.20247,-3.0289683 13.777665,-3.1453419 13.120117,-3.3032227 12.462563,-3.4610968 12.001951,-3.6100224 11.738281,-3.75 c -0.341798,-0.1790325 -0.596518,-0.4012003 -0.76416,-0.6665039 -0.167644,-0.2652948 -0.251465,-0.5623323 -0.251465,-0.8911133 0,-0.3613224 0.102538,-0.69905 0.307617,-1.0131836 0.205077,-0.314121 0.504556,-0.5525647 0.898438,-0.715332 0.393878,-0.1627532 0.831703,-0.2441334 1.313477,-0.2441406 0.530595,7.2e-6 0.99853,0.085456 1.403808,0.2563476 0.405268,0.1709053 0.716954,0.4223699 0.935059,0.7543946 0.218093,0.3320371 0.33528,0.7080133 0.351562,1.1279296 l -0.908203,0.068359 c -0.04883,-0.4524684 -0.214035,-0.794265 -0.495605,-1.0253906 -0.28158,-0.2311135 -0.697433,-0.3466733 -1.247559,-0.3466797 -0.572919,6.4e-6 -0.990399,0.1049868 -1.252441,0.3149414 -0.262046,0.2099669 -0.393068,0.4630591 -0.393067,0.7592774 -1e-6,0.2571665 0.09277,0.4687549 0.278321,0.6347656 0.182289,0.1660202 0.658363,0.3361046 1.428222,0.5102539 0.769853,0.1741577 1.29801,0.3263385 1.584473,0.4565429 0.416661,0.1920609 0.724278,0.4353875 0.922851,0.7299805 0.198562,0.2945991 0.297846,0.6339542 0.297852,1.0180664 -6e-6,0.380861 -0.109056,0.7397474 -0.327148,1.07666018 -0.218105,0.33691467 -0.531419,0.59895868 -0.939942,0.78613281 -0.408533,0.18717445 -0.868331,0.2807616 -1.379394,0.28076172 -0.64779,-1.2e-7 -1.190595,-0.09440107 -1.628418,-0.28320312 -0.437827,-0.18880174 -0.781251,-0.47281838 -1.030274,-0.85205079 -0.249024,-0.3792304 -0.380046,-0.8081036 -0.393066,-1.2866211 z"
     style="font-size:10px;font-family:Arial-BoldMT"
     id="path3221" /><path
     d="m 17.412109,0 0,-7.1582031 0.947266,0 0,3.5498047 3.554687,-3.5498047 1.28418,0 -3.00293,2.9003906 L 23.330078,0 l -1.25,0 -2.548828,-3.6230469 -1.171875,1.1425781 0,2.4804688 z"
     style="font-size:10px;font-family:Arial-BoldMT"
     id="path3223" /><path
     d="M 31.166992,-0.84472656 31.166992,0 26.435547,0 c -0.0065,-0.21158833 0.02767,-0.41503865 0.102539,-0.61035156 0.120442,-0.32226469 0.313313,-0.63964714 0.578613,-0.95214844 0.265298,-0.3124981 0.648599,-0.6738259 1.149903,-1.0839844 0.777991,-0.6380175 1.303707,-1.1433881 1.577148,-1.5161133 0.273434,-0.3727168 0.410152,-0.7250927 0.410156,-1.0571289 -4e-6,-0.3483017 -0.124515,-0.6420839 -0.373535,-0.8813476 -0.249027,-0.2392515 -0.573734,-0.3588803 -0.974121,-0.3588867 -0.423179,6.4e-6 -0.761721,0.1269594 -1.015625,0.3808593 -0.253908,0.2539121 -0.382488,0.6054743 -0.385742,1.0546875 l -0.903321,-0.092773 c 0.06185,-0.6738223 0.294596,-1.1873309 0.698243,-1.5405273 0.403644,-0.3531831 0.945636,-0.529778 1.625976,-0.5297852 0.686846,7.2e-6 1.230465,0.1904367 1.63086,0.5712891 0.400385,0.3808656 0.600581,0.8528703 0.600586,1.4160156 -5e-6,0.2864632 -0.0586,0.5680385 -0.175782,0.8447266 -0.117192,0.2766967 -0.31169,0.5680376 -0.583496,0.8740234 -0.271814,0.3059927 -0.723473,0.7259142 -1.35498,1.2597656 -0.527346,0.4427101 -0.865888,0.7430028 -1.015625,0.9008789 -0.149742,0.1578788 -0.273439,0.31657 -0.371094,0.47607424 z"
     style="font-size:10px;font-family:Arial-BoldMT"
     id="path3225" /></g>

	<g
   transform="matrix(1 0 0 1 503.2451 233.792)"
   style="font-size:10px;font-family:Arial-BoldMT"
   id="text162"><path
     d="m 2.8173828,0 -2.77343749,-7.1582031 1.02539059,0 1.8603516,5.2001953 C 3.079424,-1.5413396 3.2047494,-1.150715 3.3056641,-0.78613281 3.4163377,-1.1767566 3.5449183,-1.5673812 3.6914063,-1.9580078 L 5.625,-7.1582031 l 0.9667969,0 L 3.7890625,0 z"
     style="font-size:10px;font-family:Arial-BoldMT"
     id="path3131" /><path
     d="m 10.800781,-2.8076172 0,-0.8398437 3.032227,-0.00488 0,2.65625005 c -0.465502,0.37109437 -0.945644,0.65022821 -1.44043,0.83740234 -0.494797,0.18717445 -1.002609,0.2807616 -1.523437,0.28076172 -0.703129,-1.2e-7 -1.3419629,-0.15055335 -1.9165043,-0.45166015 C 8.3780907,-0.63069598 7.9443347,-1.0660797 7.6513672,-1.6357422 7.3583978,-2.2054014 7.2119135,-2.841794 7.2119141,-3.5449219 c -6e-7,-0.6966103 0.1456699,-1.3468375 0.4370117,-1.9506836 0.2913399,-0.603835 0.7104475,-1.0522395 1.2573242,-1.3452148 0.5468722,-0.2929616 1.176754,-0.4394459 1.889648,-0.4394531 0.517574,7.2e-6 0.98551,0.083829 1.403809,0.2514648 0.418288,0.1676501 0.74625,0.4012111 0.983887,0.7006836 0.237623,0.2994852 0.418287,0.6901098 0.541992,1.171875 l -0.854492,0.234375 c -0.107428,-0.364578 -0.240892,-0.6510361 -0.400391,-0.859375 -0.159511,-0.2083273 -0.387375,-0.3751566 -0.683594,-0.5004883 -0.296228,-0.1253191 -0.625004,-0.1879818 -0.986328,-0.1879883 -0.432946,6.5e-6 -0.8072947,0.065924 -1.1230466,0.1977539 -0.3157579,0.1318421 -0.5704777,0.3051818 -0.7641602,0.5200196 -0.1936869,0.2148493 -0.3442402,0.4508516 -0.4516601,0.7080078 -0.1822933,0.4427129 -0.273439,0.9228557 -0.2734375,1.4404297 -1.5e-6,0.6380238 0.1098616,1.1718774 0.3295898,1.6015625 0.2197245,0.429689 0.5395484,0.7486991 0.9594727,0.9570312 0.4199186,0.20833419 0.8658819,0.31250076 1.3378909,0.31250003 0.410151,7.3e-7 0.810542,-0.078938 1.201172,-0.23681641 0.390619,-0.15787652 0.686842,-0.32633332 0.888671,-0.50537112 l 0,-1.3330078 z"
     style="font-size:10px;font-family:Arial-BoldMT"
     id="path3133" /><path
     d="m 20.952148,0 -0.878906,0 0,-5.6005859 c -0.211591,0.2018283 -0.489097,0.403651 -0.832519,0.6054687 -0.343426,0.2018277 -0.651857,0.3531948 -0.925293,0.4541016 l 0,-0.8496094 c 0.491535,-0.2311142 0.921222,-0.5110618 1.289062,-0.8398437 0.367836,-0.3287695 0.628252,-0.6477796 0.78125,-0.9570313 l 0.566406,0 z"
     style="font-size:10px;font-family:Arial-BoldMT"
     id="path3135" /></g>

	<g
   transform="matrix(1 0 0 1 620.8936 233.792)"
   style="font-size:10px;font-family:Arial-BoldMT"
   id="text164"><path
     d="m 2.8173828,0 -2.77343749,-7.1582031 1.02539059,0 1.8603516,5.2001953 C 3.079424,-1.5413396 3.2047494,-1.150715 3.3056641,-0.78613281 3.4163377,-1.1767566 3.5449183,-1.5673812 3.6914063,-1.9580078 L 5.625,-7.1582031 l 0.9667969,0 L 3.7890625,0 z"
     style="font-size:10px;font-family:Arial-BoldMT"
     id="path3138" /><path
     d="m 10.800781,-2.8076172 0,-0.8398437 3.032227,-0.00488 0,2.65625005 c -0.465502,0.37109437 -0.945644,0.65022821 -1.44043,0.83740234 -0.494797,0.18717445 -1.002609,0.2807616 -1.523437,0.28076172 -0.703129,-1.2e-7 -1.3419629,-0.15055335 -1.9165043,-0.45166015 C 8.3780907,-0.63069598 7.9443347,-1.0660797 7.6513672,-1.6357422 7.3583978,-2.2054014 7.2119135,-2.841794 7.2119141,-3.5449219 c -6e-7,-0.6966103 0.1456699,-1.3468375 0.4370117,-1.9506836 0.2913399,-0.603835 0.7104475,-1.0522395 1.2573242,-1.3452148 0.5468722,-0.2929616 1.176754,-0.4394459 1.889648,-0.4394531 0.517574,7.2e-6 0.98551,0.083829 1.403809,0.2514648 0.418288,0.1676501 0.74625,0.4012111 0.983887,0.7006836 0.237623,0.2994852 0.418287,0.6901098 0.541992,1.171875 l -0.854492,0.234375 c -0.107428,-0.364578 -0.240892,-0.6510361 -0.400391,-0.859375 -0.159511,-0.2083273 -0.387375,-0.3751566 -0.683594,-0.5004883 -0.296228,-0.1253191 -0.625004,-0.1879818 -0.986328,-0.1879883 -0.432946,6.5e-6 -0.8072947,0.065924 -1.1230466,0.1977539 -0.3157579,0.1318421 -0.5704777,0.3051818 -0.7641602,0.5200196 -0.1936869,0.2148493 -0.3442402,0.4508516 -0.4516601,0.7080078 -0.1822933,0.4427129 -0.273439,0.9228557 -0.2734375,1.4404297 -1.5e-6,0.6380238 0.1098616,1.1718774 0.3295898,1.6015625 0.2197245,0.429689 0.5395484,0.7486991 0.9594727,0.9570312 0.4199186,0.20833419 0.8658819,0.31250076 1.3378909,0.31250003 0.410151,7.3e-7 0.810542,-0.078938 1.201172,-0.23681641 0.390619,-0.15787652 0.686842,-0.32633332 0.888671,-0.50537112 l 0,-1.3330078 z"
     style="font-size:10px;font-family:Arial-BoldMT"
     id="path3140" /><path
     d="M 22.260742,-0.84472656 22.260742,0 17.529297,0 c -0.0065,-0.21158833 0.02767,-0.41503865 0.102539,-0.61035156 0.120442,-0.32226469 0.313313,-0.63964714 0.578613,-0.95214844 0.265298,-0.3124981 0.648599,-0.6738259 1.149903,-1.0839844 0.777991,-0.6380175 1.303707,-1.1433881 1.577148,-1.5161133 0.273434,-0.3727168 0.410152,-0.7250927 0.410156,-1.0571289 -4e-6,-0.3483017 -0.124515,-0.6420839 -0.373535,-0.8813476 C 20.725094,-6.3403257 20.400387,-6.4599545 20,-6.4599609 c -0.423179,6.4e-6 -0.761721,0.1269594 -1.015625,0.3808593 -0.253908,0.2539121 -0.382488,0.6054743 -0.385742,1.0546875 l -0.903321,-0.092773 c 0.06185,-0.6738223 0.294596,-1.1873309 0.698243,-1.5405273 0.403644,-0.3531831 0.945636,-0.529778 1.625976,-0.5297852 0.686846,7.2e-6 1.230465,0.1904367 1.63086,0.5712891 0.400385,0.3808656 0.600581,0.8528703 0.600586,1.4160156 -5e-6,0.2864632 -0.0586,0.5680385 -0.175782,0.8447266 -0.117192,0.2766967 -0.31169,0.5680376 -0.583496,0.8740234 -0.271814,0.3059927 -0.723473,0.7259142 -1.35498,1.2597656 -0.527346,0.4427101 -0.865888,0.7430028 -1.015625,0.9008789 -0.149742,0.1578788 -0.273439,0.31657 -0.371094,0.47607424 z"
     style="font-size:10px;font-family:Arial-BoldMT"
     id="path3142" /></g>

	<g
   transform="matrix(1 0 0 1 471.1387 280.8506)"
   style="font-size:10px;font-family:Arial-BoldMT"
   id="text166"><path
     d="m 0.73242187,0 0,-7.1582031 0.94726563,0 0,6.31347654 3.5253906,0 0,0.84472656 z"
     style="font-size:10px;font-family:Arial-BoldMT"
     id="path3124" /><path
     d="m 8.3837891,0 -2.7734375,-7.1582031 1.0253906,0 1.8603516,5.2001953 C 8.6458303,-1.5413396 8.7711556,-1.150715 8.8720703,-0.78613281 8.982744,-1.1767566 9.1113246,-1.5673812 9.2578125,-1.9580078 l 1.9335935,-5.2001953 0.966797,0 L 9.3554688,0 z"
     style="font-size:10px;font-family:Arial-BoldMT"
     id="path3126" /><path
     d="m 18.745117,0 -0.878906,0 0,-5.6005859 c -0.211591,0.2018283 -0.489097,0.403651 -0.83252,0.6054687 -0.343426,0.2018277 -0.651856,0.3531948 -0.925293,0.4541016 l 0,-0.8496094 c 0.491535,-0.2311142 0.921222,-0.5110618 1.289063,-0.8398437 0.367836,-0.3287695 0.628252,-0.6477796 0.78125,-0.9570313 l 0.566406,0 z"
     style="font-size:10px;font-family:Arial-BoldMT"
     id="path3128" /></g>

	<g
   transform="matrix(1 0 0 1 539.3857 280.8506)"
   style="font-size:10px;font-family:Arial-BoldMT"
   id="text168"><path
     d="m 0.73242187,0 0,-7.1582031 0.94726563,0 0,6.31347654 3.5253906,0 0,0.84472656 z"
     style="font-size:10px;font-family:Arial-BoldMT"
     id="path3117" /><path
     d="m 8.3837891,0 -2.7734375,-7.1582031 1.0253906,0 1.8603516,5.2001953 C 8.6458303,-1.5413396 8.7711556,-1.150715 8.8720703,-0.78613281 8.982744,-1.1767566 9.1113246,-1.5673812 9.2578125,-1.9580078 l 1.9335935,-5.2001953 0.966797,0 L 9.3554688,0 z"
     style="font-size:10px;font-family:Arial-BoldMT"
     id="path3119" /><path
     d="M 20.053711,-0.84472656 20.053711,0 15.322266,0 c -0.0065,-0.21158833 0.02767,-0.41503865 0.102539,-0.61035156 0.120442,-0.32226469 0.313313,-0.63964714 0.578613,-0.95214844 0.265298,-0.3124981 0.648599,-0.6738259 1.149902,-1.0839844 0.777992,-0.6380175 1.303708,-1.1433881 1.577149,-1.5161133 0.273433,-0.3727168 0.410152,-0.7250927 0.410156,-1.0571289 -4e-6,-0.3483017 -0.124516,-0.6420839 -0.373535,-0.8813476 -0.249027,-0.2392515 -0.573734,-0.3588803 -0.974121,-0.3588867 -0.42318,6.4e-6 -0.761721,0.1269594 -1.015625,0.3808593 -0.253908,0.2539121 -0.382489,0.6054743 -0.385742,1.0546875 l -0.903321,-0.092773 c 0.06185,-0.6738223 0.294596,-1.1873309 0.698242,-1.5405273 0.403645,-0.3531831 0.945636,-0.529778 1.625977,-0.5297852 0.686845,7.2e-6 1.230465,0.1904367 1.630859,0.5712891 0.400386,0.3808656 0.600581,0.8528703 0.600586,1.4160156 -5e-6,0.2864632 -0.0586,0.5680385 -0.175781,0.8447266 -0.117192,0.2766967 -0.311691,0.5680376 -0.583496,0.8740234 -0.271814,0.3059927 -0.723474,0.7259142 -1.354981,1.2597656 -0.527346,0.4427101 -0.865887,0.7430028 -1.015625,0.9008789 -0.149741,0.1578788 -0.273439,0.31657 -0.371093,0.47607424 z"
     style="font-size:10px;font-family:Arial-BoldMT"
     id="path3121" /></g>

	<g
   transform="matrix(1 0 0 1 598.1982 280.8506)"
   style="font-size:10px;font-family:Arial-BoldMT"
   id="text170"><path
     d="m 0.73242187,0 0,-7.1582031 0.94726563,0 0,6.31347654 3.5253906,0 0,0.84472656 z"
     style="font-size:10px;font-family:Arial-BoldMT"
     id="path3110" /><path
     d="m 8.3837891,0 -2.7734375,-7.1582031 1.0253906,0 1.8603516,5.2001953 C 8.6458303,-1.5413396 8.7711556,-1.150715 8.8720703,-0.78613281 8.982744,-1.1767566 9.1113246,-1.5673812 9.2578125,-1.9580078 l 1.9335935,-5.2001953 0.966797,0 L 9.3554688,0 z"
     style="font-size:10px;font-family:Arial-BoldMT"
     id="path3112" /><path
     d="m 15.439453,-1.8896484 0.878906,-0.1171875 c 0.10091,0.4980483 0.272623,0.8569347 0.515137,1.07666012 0.242511,0.21972727 0.537921,0.32959044 0.886231,0.32958984 0.413408,6e-7 0.762529,-0.14322842 1.047363,-0.42968746 0.284827,-0.2864571 0.427242,-0.6412744 0.427246,-1.0644532 -4e-6,-0.4036433 -0.13184,-0.736488 -0.395508,-0.9985351 -0.263675,-0.2620409 -0.598961,-0.3930629 -1.005859,-0.3930664 -0.166018,3.5e-6 -0.372724,0.032555 -0.620117,0.097656 l 0.09766,-0.7714843 c 0.05859,0.00651 0.105792,0.00977 0.141601,0.00977 0.374347,4.1e-6 0.71126,-0.097652 1.010743,-0.2929688 0.299475,-0.1953078 0.449214,-0.4964143 0.449218,-0.9033203 -4e-6,-0.3222599 -0.109053,-0.5891868 -0.327148,-0.8007812 -0.218102,-0.2115822 -0.499678,-0.3173764 -0.844727,-0.3173828 -0.341799,6.4e-6 -0.626629,0.1074282 -0.854492,0.3222656 -0.227866,0.2148497 -0.37435,0.537115 -0.439453,0.9667969 l -0.878906,-0.15625 c 0.107421,-0.5891868 0.351561,-1.0457293 0.732422,-1.369629 0.380857,-0.3238862 0.85449,-0.4858326 1.420898,-0.4858398 0.390622,7.2e-6 0.750322,0.083829 1.079102,0.2514648 0.328772,0.16765 0.580236,0.3963282 0.754394,0.6860352 0.174149,0.2897195 0.261226,0.5973364 0.261231,0.9228516 -5e-6,0.3092498 -0.08301,0.590825 -0.249024,0.8447265 -0.16602,0.2539105 -0.411788,0.4557332 -0.737305,0.6054688 0.423173,0.09766 0.751949,0.3002965 0.986329,0.6079101 0.23437,0.3076202 0.351557,0.6925482 0.351562,1.1547852 -5e-6,0.6250015 -0.227869,1.1547861 -0.683594,1.58935546 C 18.987626,-0.09033194 18.411455,0.126953 17.714844,0.12695312 17.086586,0.126953 16.56494,-0.06022129 16.149902,-0.43457031 15.734863,-0.80891846 15.498046,-1.293944 15.439453,-1.8896484 z"
     style="font-size:10px;font-family:Arial-BoldMT"
     id="path3114" /></g>

	<g
   transform="matrix(1 0 0 1 645.2334 280.8506)"
   style="font-size:10px;font-family:Arial-BoldMT"
   id="text172"><path
     d="m 0.73242187,0 0,-7.1582031 0.94726563,0 0,6.31347654 3.5253906,0 0,0.84472656 z"
     style="font-size:10px;font-family:Arial-BoldMT"
     id="path3103" /><path
     d="m 8.3837891,0 -2.7734375,-7.1582031 1.0253906,0 1.8603516,5.2001953 C 8.6458303,-1.5413396 8.7711556,-1.150715 8.8720703,-0.78613281 8.982744,-1.1767566 9.1113246,-1.5673812 9.2578125,-1.9580078 l 1.9335935,-5.2001953 0.966797,0 L 9.3554688,0 z"
     style="font-size:10px;font-family:Arial-BoldMT"
     id="path3105" /><path
     d="m 18.251953,0 0,-1.7138672 -3.105469,0 0,-0.8056641 3.266602,-4.6386718 0.717773,0 0,4.6386718 0.966797,0 0,0.8056641 -0.966797,0 0,1.7138672 z m 0,-2.5195313 0,-3.227539 -2.241211,3.227539 z"
     style="font-size:10px;font-family:Arial-BoldMT"
     id="path3107" /></g>

</g>
</svg>